# https://github.com/mikedh/trimesh
mtllib material.mtl
usemtl M_UE4Man_ChestLogo
v -0.00000000 -0.00697336 0.04773436
v -0.01245725 -0.03261921 0.05277894
v -0.01245725 -0.03261921 0.05277894
v -0.00000000 -0.03290913 0.05421971
v -0.00000000 -0.03290913 0.05421971
v -0.02613628 -0.00358960 0.04063485
v -0.02502156 -0.03087935 0.05004905
v -0.02502156 -0.03087935 0.05004905
v -0.02830673 -0.02872154 0.04932831
v -0.02830673 -0.02872154 0.04932831
v -0.03516710 -0.01426050 0.04482709
v -0.03516710 -0.01426050 0.04482709
v -0.03909886 -0.00982449 0.04043482
v -0.03909886 -0.00982449 0.04043482
v -0.04404140 -0.00667140 0.03555034
v -0.04404140 -0.00667140 0.03555034
v -0.00000000 0.04532066 0.01538919
v -0.04920268 0.01401451 0.01894174
v -0.04840446 -0.00440273 0.02936338
v -0.04840446 -0.00440273 0.02936338
v -0.05211139 -0.00102493 0.02302645
v -0.04840648 0.03179672 -0.01327278
v -0.05491758 0.00444260 0.01765226
v -0.03045106 0.04094794 -0.03616633
v -0.00000000 0.04159382 -0.04245021
v -0.01422477 0.03630820 -0.04632272
v -0.01422477 0.03630820 -0.04632272
v -0.00000000 0.03640762 -0.04800309
v -0.00000000 0.03640762 -0.04800309
v -0.02844942 0.03561213 -0.04334594
v -0.02844942 0.03561213 -0.04334594
v -0.03703678 0.03588190 -0.04002847
v -0.03703678 0.03588190 -0.04002847
v -0.04202175 0.03666153 -0.03333034
v -0.04202175 0.03666153 -0.03333034
v -0.04651833 0.03673723 -0.02667262
v -0.04651833 0.03673723 -0.02667262
v -0.05113638 0.03415039 -0.01829185
v -0.05113638 0.03415039 -0.01829185
v -0.05827439 0.02725330 -0.00421132
v -0.05827439 0.02725330 -0.00421132
v -0.05968058 0.01974573 0.00475930
v -0.05968058 0.01974573 0.00475930
v -0.05749882 0.01135745 0.01249407
v -0.06445205 0.00318029 0.02047048
v -0.06716025 0.01058498 0.01441477
v -0.06148470 -0.00266812 0.02651070
v -0.07398391 -0.01253531 0.00824688
v -0.05717647 -0.00679693 0.03385685
v -0.07224489 -0.02076718 0.01506601
v -0.06887722 -0.02833125 0.02198003
v -0.05221200 -0.00981674 0.04105304
v -0.06443012 -0.03199455 0.02831004
v -0.04688847 -0.01345036 0.04687594
v -0.05903912 -0.03439591 0.03460096
v -0.04157996 -0.01840768 0.05180345
v -0.05229354 -0.03870270 0.04212294
v -0.03297735 -0.03272626 0.05698512
v -0.04569829 -0.04477105 0.04817627
v -0.02939415 -0.03477058 0.05819724
v -0.03455663 -0.05821559 0.05400453
v -0.04436863 -0.04664132 0.04594622
v -0.01464737 -0.03740761 0.06156252
v -0.03034401 -0.06084451 0.05526136
v -0.00000000 -0.03821668 0.06333326
v -0.01656294 -0.06312749 0.05819379
v -0.00000000 -0.06378362 0.05941938
v -0.03360892 -0.05999646 0.05153583
v -0.02941883 -0.06268093 0.05276762
v -0.01614678 -0.06491134 0.05555914
v -0.00000000 -0.06555221 0.05674575
v -0.02794576 -0.05494926 0.04397272
v -0.01450289 -0.05930612 0.04692732
v -0.00000000 -0.06014082 0.04796027
v -0.00000000 -0.03405401 0.04739223
v -0.02398038 -0.05806372 0.04498456
v -0.01804745 -0.03240332 0.04466270
v -0.00000000 0.03664163 0.01068424
v -0.03567267 -0.04232583 0.03972684
v -0.04328776 -0.01227257 0.02675567
v -0.04322863 -0.03581974 0.03423522
v -0.05080068 -0.04065559 0.04001735
v -0.05036283 -0.03242621 0.02773665
v -0.05738294 -0.03643212 0.03261982
v -0.05544544 -0.03126440 0.02156638
v -0.06289280 -0.03384802 0.02634476
v -0.05958402 -0.02884099 0.01535676
v -0.06745851 -0.03000221 0.02003048
v -0.07058370 -0.02328345 0.01360105
v -0.06223285 -0.02317104 0.00998543
v -0.06334162 -0.01682672 0.00470601
v -0.07208038 -0.01589713 0.00726651
v -0.05427528 0.01171961 -0.00399591
v -0.06355453 -0.00847420 -0.00195910
v -0.07304108 -0.00734815 -0.00177826
v -0.07495272 -0.00517461 -0.00086548
v -0.07151139 -0.00029585 -0.01267089
v -0.06919802 0.01939776 0.00496863
v -0.07335687 0.00203159 -0.01192178
v -0.06823266 0.02597406 -0.00505258
v -0.06211174 -0.00069961 -0.01073112
v -0.06229282 0.00805440 -0.03298153
v -0.06383121 0.01044193 -0.03294481
v -0.06008363 0.03371206 -0.02336682
v -0.05462086 0.03645769 -0.03256930
v -0.05608499 0.01067844 -0.04456367
v -0.05095911 0.03658023 -0.03891672
v -0.05756033 0.01327815 -0.04462840
v -0.04680896 0.03599909 -0.04530455
v -0.05311656 0.01329210 -0.05183233
v -0.05162299 0.01064613 -0.05147244
v -0.05363870 0.00768283 -0.03047992
v -0.04787541 0.00961962 -0.04116990
v -0.04027915 0.02083471 -0.03781797
v -0.00000000 0.02502587 -0.05617608
v -0.04377997 0.00998345 -0.04736175
v -0.04701615 0.00952485 -0.05813791
v -0.03990972 0.00923434 -0.05274214
v -0.04852796 0.01221743 -0.05879296
v -0.04190815 0.01202753 -0.06376125
v -0.04092479 0.00928226 -0.06264891
v -0.03699100 0.00900653 -0.05527283
v -0.02932930 0.00880578 -0.05826606
v -0.03090954 0.00962510 -0.06468012
v -0.01466477 0.00882926 -0.06052257
v -0.00000000 0.00885275 -0.06221916
v -0.01545489 0.00951960 -0.06737687
v -0.00000000 0.00941410 -0.06833555
v -0.00000000 0.01213494 -0.06959452
v -0.01558197 0.01224389 -0.06862857
v -0.03116358 0.01235297 -0.06592454
v -0.01517046 0.03626695 -0.05609872
v -0.00000000 0.03650668 -0.05760337
v -0.03034067 0.03602722 -0.05346514
v -0.03962100 0.03625849 -0.05079104
v 0.01245725 -0.03261921 0.05277894
v 0.01245725 -0.03261921 0.05277894
v 0.02613628 -0.00358960 0.04063485
v 0.02502155 -0.03087935 0.05004905
v 0.02502155 -0.03087935 0.05004905
v 0.02830672 -0.02872154 0.04932831
v 0.02830672 -0.02872154 0.04932831
v 0.03516721 -0.01426050 0.04482709
v 0.03516721 -0.01426050 0.04482709
v 0.03909886 -0.00982449 0.04043482
v 0.03909886 -0.00982449 0.04043482
v 0.04404139 -0.00667140 0.03555034
v 0.04404139 -0.00667140 0.03555034
v 0.04920268 0.01401451 0.01894174
v 0.04840445 -0.00440273 0.02936338
v 0.04840445 -0.00440273 0.02936338
v 0.05211138 -0.00102493 0.02302645
v 0.04840648 0.03179672 -0.01327278
v 0.05491757 0.00444260 0.01765226
v 0.03045106 0.04094794 -0.03616633
v 0.01422488 0.03630820 -0.04632272
v 0.01422488 0.03630820 -0.04632272
v 0.02844941 0.03561213 -0.04334594
v 0.02844941 0.03561213 -0.04334594
v 0.03703677 0.03588190 -0.04002847
v 0.03703677 0.03588190 -0.04002847
v 0.04202175 0.03666153 -0.03333034
v 0.04202175 0.03666153 -0.03333034
v 0.04651832 0.03673723 -0.02667262
v 0.04651832 0.03673723 -0.02667262
v 0.05113637 0.03415039 -0.01829185
v 0.05113637 0.03415039 -0.01829185
v 0.05827439 0.02725330 -0.00421132
v 0.05827439 0.02725330 -0.00421132
v 0.05968070 0.01974573 0.00475930
v 0.05968070 0.01974573 0.00475930
v 0.05749881 0.01135745 0.01249407
v 0.06445205 0.00318029 0.02047048
v 0.06716037 0.01058498 0.01441477
v 0.06148469 -0.00266812 0.02651070
v 0.07398390 -0.01253531 0.00824688
v 0.05717647 -0.00679693 0.03385685
v 0.07224488 -0.02076718 0.01506601
v 0.06887722 -0.02833125 0.02198003
v 0.05221212 -0.00981674 0.04105304
v 0.06443011 -0.03199455 0.02831004
v 0.04688847 -0.01345036 0.04687594
v 0.05903911 -0.03439591 0.03460096
v 0.04157996 -0.01840768 0.05180345
v 0.05229366 -0.03870270 0.04212294
v 0.05738294 -0.03643212 0.03261982
v 0.05080068 -0.04065559 0.04001735
v 0.04569828 -0.04477105 0.04817627
v 0.06289279 -0.03384802 0.02634476
v 0.03297734 -0.03272626 0.05698512
v 0.04436862 -0.04664132 0.04594622
v 0.03455662 -0.05821559 0.05400453
v 0.02939415 -0.03477058 0.05819724
v 0.01464736 -0.03740761 0.06156252
v 0.03034401 -0.06084451 0.05526136
v 0.01656294 -0.06312749 0.05819379
v 0.03360891 -0.05999646 0.05153583
v 0.02941894 -0.06268093 0.05276762
v 0.01614678 -0.06491134 0.05555914
v 0.02794587 -0.05494926 0.04397272
v 0.01450288 -0.05930612 0.04692732
v 0.02398038 -0.05806372 0.04498456
v 0.01804745 -0.03240332 0.04466270
v 0.03567266 -0.04232583 0.03972684
v 0.04322862 -0.03581974 0.03423522
v 0.04328775 -0.01227257 0.02675567
v 0.05036282 -0.03242621 0.02773665
v 0.05544543 -0.03126440 0.02156638
v 0.05958402 -0.02884099 0.01535676
v 0.06745851 -0.03000221 0.02003048
v 0.06223297 -0.02317104 0.00998543
v 0.07058370 -0.02328345 0.01360105
v 0.06334161 -0.01682672 0.00470601
v 0.07208037 -0.01589713 0.00726651
v 0.05427539 0.01171961 -0.00399591
v 0.06355452 -0.00847420 -0.00195910
v 0.07304108 -0.00734815 -0.00177826
v 0.07495272 -0.00517461 -0.00086548
v 0.07151139 -0.00029585 -0.01267089
v 0.06919801 0.01939776 0.00496863
v 0.07335686 0.00203159 -0.01192178
v 0.06823265 0.02597406 -0.00505258
v 0.06211173 -0.00069961 -0.01073112
v 0.06229281 0.00805440 -0.03298153
v 0.06383121 0.01044193 -0.03294481
v 0.06008362 0.03371206 -0.02336682
v 0.05462086 0.03645769 -0.03256930
v 0.05756032 0.01327815 -0.04462840
v 0.05095911 0.03658023 -0.03891672
v 0.04680896 0.03599909 -0.04530455
v 0.05311668 0.01329210 -0.05183233
v 0.05608499 0.01067844 -0.04456367
v 0.05162298 0.01064613 -0.05147244
v 0.05363869 0.00768283 -0.03047992
v 0.04787540 0.00961962 -0.04116990
v 0.04027927 0.02083471 -0.03781797
v 0.04377997 0.00998345 -0.04736175
v 0.04701614 0.00952485 -0.05813791
v 0.03990972 0.00923434 -0.05274214
v 0.04852807 0.01221743 -0.05879296
v 0.04190814 0.01202753 -0.06376125
v 0.04092478 0.00928226 -0.06264891
v 0.03699100 0.00900653 -0.05527283
v 0.03962099 0.03625849 -0.05079104
v 0.03116357 0.01235297 -0.06592454
v 0.03034067 0.03602722 -0.05346514
v 0.03090954 0.00962510 -0.06468012
v 0.01558196 0.01224389 -0.06862857
v 0.01517045 0.03626695 -0.05609872
v 0.01545489 0.00951960 -0.06737687
v 0.02932930 0.00880578 -0.05826606
v 0.01466477 0.00882926 -0.06052257
v -0.01228881 -0.00581381 0.05673240
v -0.01228881 -0.00581381 0.05673240
v -0.00000000 -0.01129827 0.07115565
v -0.00000000 -0.00658462 0.05817281
v -0.00000000 -0.00658462 0.05817281
v -0.01543546 -0.01030776 0.06974088
v -0.02143717 -0.00254104 0.05431424
v -0.02143717 -0.00254104 0.05431424
v -0.01792920 -0.03755316 0.06907533
v -0.00000000 -0.03878173 0.07030211
v -0.00000000 -0.04052076 0.06771861
v -0.02774740 -0.00664136 0.06651245
v -0.02671671 0.00477543 0.05218254
v -0.02671671 0.00477543 0.05218254
v -0.03088844 -0.03533122 0.06676958
v -0.01775146 -0.03926704 0.06648706
v -0.03378189 0.00042119 0.06352471
v -0.03168857 0.01227930 0.04929648
v -0.03168857 0.01227930 0.04929648
v -0.03502941 -0.03304789 0.06508897
v -0.03950858 0.00767079 0.05978261
v -0.03582251 0.01571110 0.04623018
v -0.03582251 0.01571110 0.04623018
v -0.04107940 -0.02598581 0.06200229
v -0.04679621 -0.01913116 0.05812417
v -0.04441393 0.01163545 0.05624972
v -0.05258894 -0.01414010 0.05266033
v -0.04576421 -0.02091369 0.05615924
v -0.04880917 0.01427462 0.05220495
v -0.03944636 0.01781729 0.04265188
v -0.03944636 0.01781729 0.04265188
v -0.05787170 -0.01047477 0.04668437
v -0.05498350 0.01816275 0.04506205
v -0.04417801 0.02052071 0.03701197
v -0.04417801 0.02052071 0.03701197
v -0.04801369 0.02414551 0.03130470
v -0.04801369 0.02414551 0.03130470
v -0.06248462 -0.00823114 0.04130684
v -0.05143225 -0.01598737 0.05069469
v -0.05659032 -0.01238653 0.04471825
v -0.06999123 -0.00262150 0.03131054
v -0.06091929 -0.01017985 0.03939257
v -0.06026197 0.02297249 0.03785191
v -0.06341446 0.03000751 0.03097342
v -0.05041373 0.03058496 0.02584515
v -0.05041373 0.03058496 0.02584515
v -0.05223787 0.03794732 0.02050863
v -0.05223787 0.03794732 0.02050863
v -0.07300198 0.00455084 0.02440272
v -0.06599105 0.03796616 0.02421819
v -0.05318558 0.04967823 0.01074456
v -0.05318558 0.04967823 0.01074456
v -0.07491672 0.01260259 0.01721023
v -0.06676460 0.04952898 0.01096629
v -0.07329524 0.01075044 0.01596747
v -0.05987752 0.06028977 -0.01217033
v -0.04729843 0.05958548 -0.00667550
v -0.04729843 0.05958548 -0.00667550
v -0.07570875 0.02457824 0.00234364
v -0.05475891 0.06307426 -0.02176584
v -0.04312671 0.06184426 -0.01404990
v -0.04312671 0.06184426 -0.01404990
v -0.03995562 0.06158891 -0.02032603
v -0.03995562 0.06158891 -0.02032603
v -0.06697381 0.03574326 -0.02530052
v -0.07395208 0.02233043 0.00165878
v -0.06513477 0.03326812 -0.02506544
v -0.05087889 0.06288317 -0.02902760
v -0.03701437 0.06064000 -0.02633704
v -0.03701437 0.06064000 -0.02633704
v -0.06067527 0.03827324 -0.03619088
v -0.04722870 0.06199851 -0.03602423
v -0.03394306 0.06040230 -0.02899505
v -0.03394306 0.06040230 -0.02899505
v -0.05590284 0.03817299 -0.04394879
v -0.05927086 0.03580537 -0.03583898
v -0.05451107 0.03571060 -0.04347409
v -0.05136025 0.03737905 -0.05144157
v -0.04998100 0.03492203 -0.05084397
v -0.04471123 0.03738215 -0.05657794
v -0.04051900 0.06196895 -0.04113294
v -0.03114200 0.06223312 -0.04347815
v -0.02841771 0.06024804 -0.03018202
v -0.02841771 0.06024804 -0.03018202
v -0.01441479 0.06046656 -0.03238525
v -0.01441479 0.06046656 -0.03238525
v -0.03406561 0.03765252 -0.05886604
v -0.01565624 0.06233850 -0.04594471
v -0.00000000 0.06068507 -0.03375031
v -0.00000000 0.06068507 -0.03375031
v -0.00000000 0.06244364 -0.04757287
v -0.00000000 0.03849461 -0.06257881
v -0.01707447 0.03807369 -0.06114163
v -0.01667083 0.03541103 -0.05998291
v -0.00000000 0.03568521 -0.06134929
v -0.00000000 0.03531113 -0.04807271
v -0.03377998 0.03513708 -0.05777837
v -0.01585210 0.03480103 -0.04701985
v -0.03163135 0.03429129 -0.04512860
v -0.04396105 0.03484669 -0.05543520
v -0.03826368 0.03400197 -0.04383554
v -0.04060638 0.03433338 -0.04152192
v -0.04435253 0.03509751 -0.03478016
v -0.04832828 0.03516808 -0.02777304
v -0.05356217 0.03278389 -0.01820840
v -0.06063783 0.02232447 0.00219499
v -0.05995477 0.01011339 0.01358472
v -0.07136154 0.00264242 0.02280520
v -0.05855418 0.00299278 0.01920186
v -0.06812036 -0.00475905 0.02951394
v -0.05606556 -0.00342080 0.02495609
v -0.05031026 -0.00679299 0.03290652
v -0.04583133 -0.00826547 0.03771959
v -0.04182756 -0.01107285 0.04196928
v -0.03771591 -0.01552925 0.04590188
v -0.03332293 -0.02263806 0.04957674
v -0.04024184 -0.02747783 0.05978106
v -0.03438616 -0.03424892 0.06261156
v -0.02858246 -0.02974889 0.05250285
v -0.03017545 -0.03686199 0.06376956
v -0.02465928 -0.03264496 0.05354391
v -0.01512385 -0.03420875 0.05509339
v -0.00000000 -0.03530881 0.05612384
v 0.01228881 -0.00581381 0.05673240
v 0.01228881 -0.00581381 0.05673240
v 0.01543545 -0.01030776 0.06974088
v 0.02143717 -0.00254104 0.05431424
v 0.02143717 -0.00254104 0.05431424
v 0.01792919 -0.03755316 0.06907533
v 0.02774739 -0.00664136 0.06651245
v 0.02671683 0.00477543 0.05218254
v 0.02671683 0.00477543 0.05218254
v 0.03088844 -0.03533122 0.06676958
v 0.01775145 -0.03926704 0.06648706
v 0.01512384 -0.03420875 0.05509339
v 0.02465927 -0.03264496 0.05354391
v 0.03017544 -0.03686199 0.06376956
v 0.02858245 -0.02974889 0.05250285
v 0.03332293 -0.02263806 0.04957674
v 0.03438616 -0.03424892 0.06261156
v 0.03502941 -0.03304789 0.06508897
v 0.04024183 -0.02747783 0.05978106
v 0.04107940 -0.02598581 0.06200229
v 0.03771591 -0.01552925 0.04590188
v 0.03168857 0.01227930 0.04929648
v 0.03168857 0.01227930 0.04929648
v 0.04576421 -0.02091369 0.05615924
v 0.04182768 -0.01107285 0.04196928
v 0.03582251 0.01571110 0.04623018
v 0.03582251 0.01571110 0.04623018
v 0.05143237 -0.01598737 0.05069469
v 0.04583144 -0.00826547 0.03771959
v 0.03944635 0.01781729 0.04265188
v 0.03944635 0.01781729 0.04265188
v 0.05031025 -0.00679299 0.03290652
v 0.04417801 0.02052071 0.03701197
v 0.04417801 0.02052071 0.03701197
v 0.05659032 -0.01238653 0.04471825
v 0.05606556 -0.00342080 0.02495609
v 0.04801368 0.02414551 0.03130470
v 0.04801368 0.02414551 0.03130470
v 0.06091940 -0.01017985 0.03939257
v 0.05855417 0.00299278 0.01920186
v 0.05041372 0.03058496 0.02584515
v 0.05041372 0.03058496 0.02584515
v 0.06812036 -0.00475905 0.02951394
v 0.05995476 0.01011339 0.01358472
v 0.05223787 0.03794732 0.02050863
v 0.05223787 0.03794732 0.02050863
v 0.07136154 0.00264242 0.02280520
v 0.06999123 -0.00262150 0.03131054
v 0.06248462 -0.00823114 0.04130684
v 0.05787170 -0.01047477 0.04668437
v 0.05498349 0.01816275 0.04506205
v 0.05258894 -0.01414010 0.05266033
v 0.04880917 0.01427462 0.05220495
v 0.04441392 0.01163545 0.05624972
v 0.04679620 -0.01913116 0.05812417
v 0.03950858 0.00767079 0.05978261
v 0.03378188 0.00042119 0.06352471
v 0.06026196 0.02297249 0.03785191
v 0.06341445 0.03000751 0.03097342
v 0.07300198 0.00455084 0.02440272
v 0.06599104 0.03796616 0.02421819
v 0.05318558 0.04967823 0.01074456
v 0.05318558 0.04967823 0.01074456
v 0.07491672 0.01260259 0.01721023
v 0.07329523 0.01075044 0.01596747
v 0.07395208 0.02233043 0.00165878
v 0.07570874 0.02457824 0.00234364
v 0.06676459 0.04952898 0.01096629
v 0.05987751 0.06028977 -0.01217033
v 0.04729843 0.05958548 -0.00667550
v 0.04729843 0.05958548 -0.00667550
v 0.06063783 0.02232447 0.00219499
v 0.06513476 0.03326812 -0.02506544
v 0.05356216 0.03278389 -0.01820840
v 0.04312670 0.06184426 -0.01404990
v 0.04312670 0.06184426 -0.01404990
v 0.04832828 0.03516808 -0.02777304
v 0.03995561 0.06158891 -0.02032603
v 0.03995561 0.06158891 -0.02032603
v 0.06697380 0.03574326 -0.02530052
v 0.05927086 0.03580537 -0.03583898
v 0.04435253 0.03509751 -0.03478016
v 0.03701436 0.06064000 -0.02633704
v 0.03701436 0.06064000 -0.02633704
v 0.06067526 0.03827324 -0.03619088
v 0.05451107 0.03571060 -0.04347409
v 0.04060638 0.03433338 -0.04152192
v 0.05475890 0.06307426 -0.02176584
v 0.05087888 0.06288317 -0.02902760
v 0.05590284 0.03817299 -0.04394879
v 0.04722869 0.06199851 -0.03602423
v 0.03394305 0.06040230 -0.02899505
v 0.03394305 0.06040230 -0.02899505
v 0.04998100 0.03492203 -0.05084397
v 0.05136025 0.03737905 -0.05144157
v 0.04471123 0.03738215 -0.05657794
v 0.04051900 0.06196895 -0.04113294
v 0.03114199 0.06223312 -0.04347815
v 0.02841770 0.06024804 -0.03018202
v 0.02841770 0.06024804 -0.03018202
v 0.01441478 0.06046656 -0.03238525
v 0.01441478 0.06046656 -0.03238525
v 0.03406560 0.03765252 -0.05886604
v 0.04396105 0.03484669 -0.05543520
v 0.01565623 0.06233850 -0.04594471
v 0.01707446 0.03807369 -0.06114163
v 0.01667082 0.03541103 -0.05998291
v 0.03377998 0.03513708 -0.05777837
v 0.01585209 0.03480103 -0.04701985
v 0.03163135 0.03429129 -0.04512860
v 0.03826368 0.03400197 -0.04383554
v 0.01652395 0.04302993 -0.06240656
v -0.00000000 0.04262689 -0.06315817
v 0.03760349 0.04371813 -0.05931772
v 0.05315149 0.04351678 -0.05206455
v 0.06130326 0.04254320 -0.04617645
v 0.06796825 0.04039636 -0.03863396
v 0.07349062 0.03578391 -0.03136040
v 0.07637107 0.02585008 -0.01809241
v 0.07407236 0.01063004 0.00004516
v 0.06844258 -0.00350413 0.01692973
v 0.06120026 -0.01624891 0.03153621
v 0.04677283 -0.03190682 0.05395375
v 0.02773750 -0.04923198 0.07864951
v 0.00965464 -0.05509064 0.08597015
v -0.00000000 -0.05591843 0.08683132
v -0.01652396 0.04302993 -0.06240656
v -0.03760350 0.04371813 -0.05931772
v -0.05315149 0.04351678 -0.05206455
v -0.06130326 0.04254320 -0.04617645
v -0.06796825 0.04039636 -0.03863396
v -0.07349062 0.03578391 -0.03136040
v -0.07637108 0.02585008 -0.01809241
v -0.07407236 0.01063004 0.00004516
v -0.06844259 -0.00350413 0.01692973
v -0.06120026 -0.01624891 0.03153621
v -0.04677284 -0.03190682 0.05395375
v -0.02773750 -0.04923198 0.07864951
v -0.00965464 -0.05509064 0.08597015
v 0.00858891 -0.06226990 0.08947562
v -0.00000000 -0.06305000 0.09005712
v -0.00000000 -0.06222818 0.08531640
v 0.02703321 -0.05734059 0.08079122
v 0.00769102 -0.06216702 0.08444296
v -0.00000000 -0.07511780 0.07207416
v 0.04910457 -0.03966245 0.05401622
v 0.02403521 -0.05795726 0.07677577
v 0.00833487 -0.07431147 0.07225738
v -0.00000000 -0.04860541 0.04119490
v 0.02255285 -0.06855163 0.06990574
v 0.03035474 -0.04558966 0.03141700
v -0.00000000 -0.05478785 -0.03903498
v 0.04506075 -0.04031226 0.05107509
v 0.04763305 -0.06123695 0.04115711
v 0.06429159 -0.04918644 0.01421784
v 0.06573248 -0.02436933 0.03174077
v 0.06114614 -0.02502713 0.02811550
v 0.07520413 -0.01248297 0.01732336
v 0.06793534 -0.04418358 0.00338851
v 0.08227229 0.00218263 -0.00062539
v 0.06996989 -0.01311228 0.01434909
v 0.08640420 0.01514640 -0.01798989
v 0.07651758 0.00127581 -0.00268890
v 0.07423484 -0.03412864 -0.01340403
v 0.05633366 -0.04126975 -0.00838043
v 0.07863199 -0.02563390 -0.02759756
v 0.08076501 0.01386645 -0.01886047
v 0.08611500 0.02207306 -0.03183211
v 0.07806015 -0.02027413 -0.04010572
v 0.07587313 0.02744403 -0.04940321
v 0.07951081 0.01980915 -0.03073479
v 0.06151700 -0.01067183 -0.05821540
v 0.07066869 0.02403918 -0.04490210
v 0.05945778 0.03035286 -0.06120159
v 0.05736947 0.02585092 -0.05408646
v 0.04080546 0.02915230 -0.06921794
v 0.03760278 0.02463594 -0.06124105
v 0.01696408 0.02877620 -0.07101275
v -0.00000000 0.02849725 -0.07148053
v 0.01604485 0.02458790 -0.06294085
v -0.00000000 0.02377060 -0.06295432
v -0.00000000 0.01202896 -0.07411780
v 0.01988637 0.00914505 -0.07258381
v -0.00000000 0.00708976 -0.07640053
v 0.04268014 -0.00133857 -0.06659688
v 0.02942550 -0.00163672 -0.06949677
v 0.05418789 -0.02331493 -0.04672922
v -0.00858891 -0.06226990 0.08947562
v -0.02703321 -0.05734059 0.08079122
v -0.00769103 -0.06216702 0.08444296
v -0.04910457 -0.03966245 0.05401622
v -0.02403522 -0.05795726 0.07677577
v -0.00833488 -0.07431147 0.07225738
v -0.02255285 -0.06855163 0.06990574
v -0.03035474 -0.04558966 0.03141700
v -0.04506076 -0.04031226 0.05107509
v -0.04763305 -0.06123695 0.04115711
v -0.06573248 -0.02436933 0.03174077
v -0.06429160 -0.04918644 0.01421784
v -0.06114614 -0.02502713 0.02811550
v -0.07520414 -0.01248297 0.01732336
v -0.06793535 -0.04418358 0.00338851
v -0.08227229 0.00218263 -0.00062539
v -0.06996990 -0.01311228 0.01434909
v -0.08640421 0.01514640 -0.01798989
v -0.07651758 0.00127581 -0.00268890
v -0.07423485 -0.03412864 -0.01340403
v -0.05633366 -0.04126975 -0.00838043
v -0.07863200 -0.02563390 -0.02759756
v -0.08076489 0.01386645 -0.01886047
v -0.08611501 0.02207306 -0.03183211
v -0.07806015 -0.02027413 -0.04010572
v -0.07587314 0.02744403 -0.04940321
v -0.07951081 0.01980915 -0.03073479
v -0.05418790 -0.02331493 -0.04672922
v -0.06151700 -0.01067183 -0.05821540
v -0.07066870 0.02403918 -0.04490210
v -0.02942550 -0.00163672 -0.06949677
v -0.04268015 -0.00133857 -0.06659688
v -0.05736947 0.02585092 -0.05408646
v -0.01988638 0.00914505 -0.07258381
v -0.03760279 0.02463594 -0.06124105
v -0.05945778 0.03035286 -0.06120159
v -0.04080546 0.02915230 -0.06921794
v -0.01696408 0.02877620 -0.07101275
v -0.01604486 0.02458790 -0.06294085
vt 0.59702218 0.79401731
vt 0.60316396 0.80908108
vt 0.58410722 0.84235448
vt 0.60853708 0.80299002
vt 0.58810592 0.85007542
vt 0.58163887 0.80069399
vt 0.57914424 0.83380073
vt 0.59639728 0.81383300
vt 0.59380573 0.81439131
vt 0.57748830 0.83102882
vt 0.57434851 0.81925595
vt 0.58260369 0.81009209
vt 0.57694209 0.80796695
vt 0.57196182 0.81409216
vt 0.56833613 0.80940151
vt 0.57078099 0.80591887
vt 0.58651227 0.76686275
vt 0.55909413 0.78899592
vt 0.56429434 0.80463266
vt 0.56537414 0.80341667
vt 0.56053364 0.79964364
vt 0.55256915 0.76227260
vt 0.55597621 0.79506946
vt 0.56163400 0.74257278
vt 0.57975793 0.73424035
vt 0.57010299 0.73298871
vt 0.49513385 0.75197464
vt 0.57858330 0.72971821
vt 0.48674798 0.74765032
vt 0.50405061 0.75741821
vt 0.56157351 0.73673421
vt 0.51003838 0.76124495
vt 0.55657911 0.74046391
vt 0.55431676 0.74601322
vt 0.51583415 0.76378894
vt 0.52098036 0.76647389
vt 0.55198455 0.75128728
vt 0.55021548 0.75853330
vt 0.52681273 0.77016395
vt 0.53687972 0.77733600
vt 0.54787385 0.77114487
vt 0.54392660 0.78309333
vt 0.54847997 0.78005785
vt 0.55136603 0.78893387
vt 0.55070895 0.79879367
vt 0.54648078 0.79361904
vt 0.55461097 0.80367398
vt 0.53876871 0.80729985
vt 0.55901015 0.80860764
vt 0.54210198 0.81211191
vt 0.54513287 0.81711411
vt 0.56303823 0.81333756
vt 0.54786980 0.82097012
vt 0.56634015 0.81794745
vt 0.55080247 0.82475483
vt 0.56894469 0.82289272
vt 0.55453634 0.82998949
vt 0.57153928 0.83374453
vt 0.55803931 0.83533955
vt 0.57300878 0.83629978
vt 0.56139171 0.84413409
vt 0.55634522 0.83665103
vt 0.57827485 0.84521651
vt 0.56236631 0.84667873
vt 0.58253920 0.85383505
vt 0.56578457 0.85371792
vt 0.56889963 0.86292106
vt 0.56020021 0.84532273
vt 0.56116402 0.84773004
vt 0.56409919 0.85450137
vt 0.56676102 0.86353826
vt 0.55489838 0.84751964
vt 0.55794132 0.85573119
vt 0.55956852 0.86447620
vt 0.54375744 0.86413592
vt 0.55645537 0.85013282
vt 0.54221439 0.85267329
vt 0.48707151 0.83735901
vt 0.54945201 0.84098756
vt 0.53007007 0.83332038
vt 0.54588658 0.83511603
vt 0.55281031 0.83145082
vt 0.54324007 0.82942861
vt 0.54911816 0.82623416
vt 0.54160321 0.82493347
vt 0.54649222 0.82218045
vt 0.53951836 0.82084602
vt 0.54393107 0.81812966
vt 0.54092973 0.81370729
vt 0.53649986 0.81724060
vt 0.53301680 0.81383824
vt 0.53766394 0.80954093
vt 0.51380283 0.81208157
vt 0.52804744 0.80955386
vt 0.53248638 0.80448401
vt 0.53367519 0.80286068
vt 0.52602452 0.79967880
vt 0.54014421 0.78805745
vt 0.52726275 0.79808837
vt 0.53411198 0.78355133
vt 0.52159667 0.80481058
vt 0.51318574 0.79139453
vt 0.51435929 0.78988761
vt 0.52342796 0.77593589
vt 0.51785523 0.77223945
vt 0.50621355 0.78675204
vt 0.51386332 0.77043897
vt 0.50751138 0.78523147
vt 0.50960422 0.76883429
vt 0.50332183 0.78290969
vt 0.50202203 0.78440362
vt 0.50845098 0.79572332
vt 0.50172555 0.79107869
vt 0.49402529 0.79671478
vt 0.46712652 0.78290981
vt 0.49764216 0.78849775
vt 0.49808511 0.78229600
vt 0.49430364 0.78584170
vt 0.49932155 0.78109801
vt 0.49555692 0.77884895
vt 0.49460375 0.78017122
vt 0.49230227 0.78439987
vt 0.48781860 0.78175890
vt 0.48967895 0.77766722
vt 0.47977835 0.77746117
vt 0.47190851 0.77261436
vt 0.48174468 0.77330154
vt 0.47344637 0.76874870
vt 0.47422397 0.76704037
vt 0.48254856 0.77164519
vt 0.49046746 0.77596360
vt 0.49171868 0.75740552
vt 0.48331857 0.75283337
vt 0.49995279 0.76251167
vt 0.50487912 0.76609015
vt 0.58410722 0.84235448
vt 0.60316396 0.80908108
vt 0.58163887 0.80069399
vt 0.59639728 0.81383300
vt 0.57914424 0.83380073
vt 0.57748830 0.83102882
vt 0.59380573 0.81439131
vt 0.57434851 0.81925595
vt 0.58260369 0.81009209
vt 0.57694209 0.80796695
vt 0.57196182 0.81409216
vt 0.56833613 0.80940151
vt 0.57078099 0.80591887
vt 0.55909413 0.78899592
vt 0.56537414 0.80341667
vt 0.56429434 0.80463266
vt 0.56053364 0.79964364
vt 0.55256915 0.76227260
vt 0.55597621 0.79506946
vt 0.56163400 0.74257278
vt 0.57010299 0.73298871
vt 0.49513385 0.75197464
vt 0.50405061 0.75741821
vt 0.56157351 0.73673421
vt 0.55657911 0.74046391
vt 0.51003838 0.76124495
vt 0.55431676 0.74601322
vt 0.51583415 0.76378894
vt 0.52098036 0.76647389
vt 0.55198455 0.75128728
vt 0.55021548 0.75853330
vt 0.52681273 0.77016395
vt 0.54787385 0.77114487
vt 0.53687972 0.77733600
vt 0.54847997 0.78005785
vt 0.54392660 0.78309333
vt 0.55136603 0.78893387
vt 0.55070895 0.79879367
vt 0.54648078 0.79361904
vt 0.55461097 0.80367398
vt 0.53876871 0.80729985
vt 0.55901015 0.80860764
vt 0.54210198 0.81211191
vt 0.54513287 0.81711411
vt 0.56303823 0.81333756
vt 0.54786980 0.82097012
vt 0.56634015 0.81794745
vt 0.55080247 0.82475483
vt 0.56894469 0.82289272
vt 0.55453634 0.82998949
vt 0.54911816 0.82623416
vt 0.55281031 0.83145082
vt 0.55803931 0.83533955
vt 0.54649222 0.82218045
vt 0.57153928 0.83374453
vt 0.55634522 0.83665103
vt 0.56139171 0.84413409
vt 0.57300878 0.83629978
vt 0.57827485 0.84521651
vt 0.56236631 0.84667873
vt 0.56578457 0.85371792
vt 0.56020021 0.84532273
vt 0.56116402 0.84773004
vt 0.56409919 0.85450137
vt 0.55489838 0.84751964
vt 0.55794132 0.85573119
vt 0.55645537 0.85013282
vt 0.54221439 0.85267329
vt 0.54945201 0.84098756
vt 0.54588658 0.83511603
vt 0.53007007 0.83332038
vt 0.54324007 0.82942861
vt 0.54160321 0.82493347
vt 0.53951836 0.82084602
vt 0.54393107 0.81812966
vt 0.53649986 0.81724060
vt 0.54092973 0.81370729
vt 0.53301680 0.81383824
vt 0.53766394 0.80954093
vt 0.51380283 0.81208157
vt 0.52804744 0.80955386
vt 0.53248638 0.80448401
vt 0.53367519 0.80286068
vt 0.52602452 0.79967880
vt 0.54014421 0.78805745
vt 0.52726275 0.79808837
vt 0.53411198 0.78355133
vt 0.52159667 0.80481058
vt 0.51318574 0.79139453
vt 0.51435929 0.78988761
vt 0.52342796 0.77593589
vt 0.51785523 0.77223945
vt 0.50751138 0.78523147
vt 0.51386332 0.77043897
vt 0.50960422 0.76883429
vt 0.50332183 0.78290969
vt 0.50621355 0.78675204
vt 0.50202203 0.78440362
vt 0.50845098 0.79572332
vt 0.50172555 0.79107869
vt 0.49402529 0.79671478
vt 0.49764216 0.78849775
vt 0.49808511 0.78229600
vt 0.49430364 0.78584170
vt 0.49932155 0.78109801
vt 0.49555692 0.77884895
vt 0.49460375 0.78017122
vt 0.49230227 0.78439987
vt 0.50487912 0.76609015
vt 0.49046746 0.77596360
vt 0.49995279 0.76251167
vt 0.48967895 0.77766722
vt 0.48254856 0.77164519
vt 0.49171868 0.75740552
vt 0.48174468 0.77330154
vt 0.48781860 0.78175890
vt 0.47977835 0.77746117
vt 0.71960282 0.97065300
vt 0.66366434 0.97166669
vt 0.71182644 0.98307377
vt 0.72121126 0.97940272
vt 0.66169751 0.98044694
vt 0.70951706 0.97278029
vt 0.66441441 0.96365702
vt 0.71882200 0.96320701
vt 0.69203758 0.97816265
vt 0.69323718 0.98960054
vt 0.69072980 0.98964334
vt 0.70781779 0.96364403
vt 0.66208738 0.95723832
vt 0.71888316 0.95619833
vt 0.69119209 0.97050971
vt 0.69005942 0.97832179
vt 0.70862424 0.95720244
vt 0.71895170 0.94876432
vt 0.65942073 0.95091838
vt 0.69090581 0.96767664
vt 0.70940787 0.95079088
vt 0.71847808 0.94379640
vt 0.65901405 0.94652122
vt 0.69132781 0.96235210
vt 0.69143361 0.95679689
vt 0.70905876 0.94613671
vt 0.69072831 0.95114166
vt 0.68936098 0.95723408
vt 0.70831656 0.94197595
vt 0.65938681 0.94255585
vt 0.71793532 0.93943030
vt 0.68997443 0.94583720
vt 0.70710242 0.93534166
vt 0.66016924 0.93663567
vt 0.71694088 0.93348944
vt 0.71632039 0.92769295
vt 0.66032088 0.93061191
vt 0.68923014 0.94148135
vt 0.68854797 0.95156759
vt 0.68772727 0.94622374
vt 0.68812483 0.93348175
vt 0.68712348 0.94186330
vt 0.70591390 0.92862713
vt 0.70567781 0.92180836
vt 0.65923619 0.92381960
vt 0.71587384 0.92117190
vt 0.65757573 0.91717434
vt 0.71571815 0.91412318
vt 0.68812615 0.92750359
vt 0.70537138 0.91498804
vt 0.65438747 0.90749502
vt 0.71458858 0.90258992
vt 0.68800020 0.92117184
vt 0.70520663 0.90409028
vt 0.68610889 0.92151469
vt 0.70365739 0.88785255
vt 0.71349585 0.88631064
vt 0.65129024 0.89383334
vt 0.68673640 0.90952676
vt 0.70277751 0.88093770
vt 0.65052605 0.88789684
vt 0.71267104 0.87934792
vt 0.71113241 0.87372279
vt 0.65105122 0.88316071
vt 0.68363565 0.89029700
vt 0.68471950 0.91001874
vt 0.68145597 0.89064896
vt 0.70115733 0.87616241
vt 0.65185183 0.87857276
vt 0.70913065 0.86843860
vt 0.68277115 0.88244098
vt 0.69902766 0.87183130
vt 0.65174037 0.87558138
vt 0.70835900 0.86505282
vt 0.68176687 0.87727487
vt 0.68066621 0.88272512
vt 0.67975879 0.87738496
vt 0.68076110 0.87266111
vt 0.67912084 0.87252474
vt 0.68004674 0.86812150
vt 0.69819224 0.86651790
vt 0.69813716 0.86019623
vt 0.65062034 0.87154025
vt 0.70825678 0.86028200
vt 0.70691860 0.84945250
vt 0.64797759 0.86141258
vt 0.67898136 0.86219668
vt 0.69679892 0.84980947
vt 0.70558524 0.83922178
vt 0.64552945 0.85164946
vt 0.69523263 0.83919454
vt 0.67518520 0.84085739
vt 0.67715198 0.85190332
vt 0.67515481 0.85228562
vt 0.67299622 0.84150082
vt 0.66378140 0.84526837
vt 0.67726791 0.86271524
vt 0.66659152 0.85576767
vt 0.66938037 0.86629283
vt 0.67848831 0.86838985
vt 0.67086279 0.87077910
vt 0.67084920 0.87313127
vt 0.67044890 0.87856710
vt 0.67058861 0.88438475
vt 0.67169762 0.89265490
vt 0.67438769 0.91081363
vt 0.67625713 0.92277277
vt 0.68624639 0.92788958
vt 0.67742670 0.92899442
vt 0.68628132 0.93402314
vt 0.67856729 0.93501222
vt 0.67805237 0.94209087
vt 0.67747718 0.94662976
vt 0.67767394 0.95122492
vt 0.67852020 0.95627272
vt 0.68018514 0.96219277
vt 0.68945116 0.96268022
vt 0.68936956 0.96801269
vt 0.68181825 0.96779490
vt 0.68930852 0.97084022
vt 0.68223274 0.97112238
vt 0.68158102 0.97753376
vt 0.68051207 0.98771745
vt 0.66366434 0.97166669
vt 0.71960282 0.97065300
vt 0.70951706 0.97278029
vt 0.66441441 0.96365702
vt 0.71882200 0.96320701
vt 0.69203758 0.97816265
vt 0.70781779 0.96364403
vt 0.71888316 0.95619833
vt 0.66208738 0.95723832
vt 0.69119209 0.97050971
vt 0.69005942 0.97832179
vt 0.68158102 0.97753376
vt 0.68223274 0.97112238
vt 0.68930852 0.97084022
vt 0.68181825 0.96779490
vt 0.68018514 0.96219277
vt 0.68936956 0.96801269
vt 0.69090581 0.96767664
vt 0.68945116 0.96268022
vt 0.69132781 0.96235210
vt 0.67852020 0.95627272
vt 0.71895170 0.94876432
vt 0.65942073 0.95091838
vt 0.68936098 0.95723408
vt 0.67767394 0.95122492
vt 0.65901405 0.94652122
vt 0.71847808 0.94379640
vt 0.68854797 0.95156759
vt 0.67747718 0.94662976
vt 0.65938681 0.94255585
vt 0.71793532 0.93943030
vt 0.67805237 0.94209087
vt 0.71694088 0.93348944
vt 0.66016924 0.93663567
vt 0.68772727 0.94622374
vt 0.67856729 0.93501222
vt 0.66032088 0.93061191
vt 0.71632039 0.92769295
vt 0.68712348 0.94186330
vt 0.67742670 0.92899442
vt 0.71587384 0.92117190
vt 0.65923619 0.92381960
vt 0.68628132 0.93402314
vt 0.67625713 0.92277277
vt 0.71571815 0.91412318
vt 0.65757573 0.91717434
vt 0.68624639 0.92788958
vt 0.68812483 0.93348175
vt 0.68923014 0.94148135
vt 0.68997443 0.94583720
vt 0.70710242 0.93534166
vt 0.69072831 0.95114166
vt 0.70831656 0.94197595
vt 0.70905876 0.94613671
vt 0.69143361 0.95679689
vt 0.70940787 0.95079088
vt 0.70862424 0.95720244
vt 0.70591390 0.92862713
vt 0.70567781 0.92180836
vt 0.68812615 0.92750359
vt 0.70537138 0.91498804
vt 0.71458858 0.90258992
vt 0.65438747 0.90749502
vt 0.68800020 0.92117184
vt 0.68610889 0.92151469
vt 0.68471950 0.91001874
vt 0.68673640 0.90952676
vt 0.70520663 0.90409028
vt 0.70365739 0.88785255
vt 0.65129024 0.89383334
vt 0.71349585 0.88631064
vt 0.67438769 0.91081363
vt 0.68145597 0.89064896
vt 0.67169762 0.89265490
vt 0.65052605 0.88789684
vt 0.71267104 0.87934792
vt 0.67058861 0.88438475
vt 0.65105122 0.88316071
vt 0.71113241 0.87372279
vt 0.68363565 0.89029700
vt 0.68066621 0.88272512
vt 0.67044890 0.87856710
vt 0.70913065 0.86843860
vt 0.65185183 0.87857276
vt 0.68277115 0.88244098
vt 0.67975879 0.87738496
vt 0.67084920 0.87313127
vt 0.70277751 0.88093770
vt 0.70115733 0.87616241
vt 0.68176687 0.87727487
vt 0.69902766 0.87183130
vt 0.65174037 0.87558138
vt 0.70835900 0.86505282
vt 0.67912084 0.87252474
vt 0.68076110 0.87266111
vt 0.68004674 0.86812150
vt 0.69819224 0.86651790
vt 0.69813716 0.86019623
vt 0.70825678 0.86028200
vt 0.65062034 0.87154025
vt 0.70691860 0.84945250
vt 0.64797759 0.86141258
vt 0.67898136 0.86219668
vt 0.67848831 0.86838985
vt 0.69679892 0.84980947
vt 0.67715198 0.85190332
vt 0.67515481 0.85228562
vt 0.67726791 0.86271524
vt 0.66659152 0.85576767
vt 0.66938037 0.86629283
vt 0.67086279 0.87077910
vt 0.08931719 0.98959410
vt 0.08622371 0.99934566
vt 0.09468345 0.97660899
vt 0.09850007 0.96543175
vt 0.10065722 0.95836693
vt 0.10192039 0.95089340
vt 0.10136802 0.94322139
vt 0.09818268 0.93009931
vt 0.08905714 0.91428232
vt 0.07858975 0.90141052
vt 0.06738698 0.89160425
vt 0.05189757 0.87742454
vt 0.03239155 0.86385834
vt 0.02174161 0.85576069
vt 0.01649434 0.85182363
vt 0.08931719 0.98959410
vt 0.09468345 0.97660899
vt 0.09850007 0.96543175
vt 0.10065722 0.95836693
vt 0.10192039 0.95089340
vt 0.10136802 0.94322139
vt 0.09818268 0.93009931
vt 0.08905714 0.91428232
vt 0.07858975 0.90141052
vt 0.06738698 0.89160425
vt 0.05189757 0.87742454
vt 0.03239155 0.86385834
vt 0.02174161 0.85576069
vt 0.01779689 0.85753620
vt 0.01341706 0.85479033
vt 0.01214388 0.85787570
vt 0.02794239 0.86503750
vt 0.01634487 0.86062074
vt 0.00669936 0.86881858
vt 0.04793888 0.87956577
vt 0.02605745 0.86765766
vt 0.01172546 0.87000901
vt 0.00405686 0.89502555
vt 0.02048244 0.87368780
vt 0.02318936 0.90189958
vt 0.01186550 0.95740330
vt 0.04566006 0.88178241
vt 0.03484625 0.89182812
vt 0.04609656 0.90795189
vt 0.06278828 0.89409953
vt 0.05998343 0.89673305
vt 0.07250936 0.90373796
vt 0.04963210 0.91402942
vt 0.08265698 0.91613275
vt 0.06952555 0.90608787
vt 0.08938411 0.92896903
vt 0.07920403 0.91794920
vt 0.05639207 0.92333233
vt 0.04406416 0.92324787
vt 0.06158219 0.93094111
vt 0.08590838 0.92995393
vt 0.09179220 0.93778503
vt 0.06376057 0.93780953
vt 0.09142227 0.95001090
vt 0.08767948 0.93837547
vt 0.06414089 0.95213944
vt 0.08680409 0.94931197
vt 0.08932724 0.96192014
vt 0.08453089 0.95957684
vt 0.08473501 0.97318733
vt 0.07880419 0.97209150
vt 0.07978998 0.98672450
vt 0.07671285 0.99681079
vt 0.07409661 0.98524356
vt 0.07082380 0.99487305
vt 0.06008799 0.99206507
vt 0.06297855 0.97985399
vt 0.05670064 0.99094909
vt 0.06359272 0.96464551
vt 0.05951054 0.97157407
vt 0.05421213 0.94750190
vt 0.01779689 0.85753620
vt 0.02794239 0.86503750
vt 0.01634487 0.86062074
vt 0.04793888 0.87956577
vt 0.02605745 0.86765766
vt 0.01172546 0.87000901
vt 0.02048244 0.87368780
vt 0.02318936 0.90189958
vt 0.04566006 0.88178241
vt 0.03484625 0.89182812
vt 0.06278828 0.89409953
vt 0.04609656 0.90795189
vt 0.05998343 0.89673305
vt 0.07250936 0.90373796
vt 0.04963210 0.91402942
vt 0.08265698 0.91613275
vt 0.06952555 0.90608787
vt 0.08938411 0.92896903
vt 0.07920403 0.91794920
vt 0.05639207 0.92333233
vt 0.04406416 0.92324787
vt 0.06158219 0.93094111
vt 0.08590838 0.92995393
vt 0.09179220 0.93778503
vt 0.06376057 0.93780953
vt 0.09142227 0.95001090
vt 0.08767948 0.93837547
vt 0.05421213 0.94750190
vt 0.06414089 0.95213944
vt 0.08680409 0.94931197
vt 0.05951054 0.97157407
vt 0.06359272 0.96464551
vt 0.08453089 0.95957684
vt 0.06297855 0.97985399
vt 0.07880419 0.97209150
vt 0.08932724 0.96192014
vt 0.08473501 0.97318733
vt 0.07978998 0.98672450
vt 0.07409661 0.98524356
f 181/181 186/186 189/189
f 188/188 184/184 190/190
f 189/189 179/179 181/181
f 187/187 183/183 185/185
f 184/184 188/188 185/185
f 183/183 187/187 186/186
f 180/180 183/183 181/181
f 190/190 184/184 141/141
f 191/191 185/185 188/188
f 185/185 191/191 187/187
f 190/190 192/192 188/188
f 192/192 191/191 188/188
f 190/190 141/141 193/193
f 186/186 181/181 183/183
f 185/185 182/182 184/184
f 182/182 185/185 183/183
f 143/143 141/141 184/184
f 184/184 146/146 143/143
f 146/146 184/184 182/182
f 182/182 183/183 180/180
f 194/194 65/65 196/196
f 182/182 147/147 146/146
f 147/147 182/182 180/180
f 180/180 181/181 177/177
f 177/177 181/181 179/179
f 191/191 192/192 197/197
f 75/75 201/201 74/74
f 200/200 198/198 202/202
f 202/202 199/199 201/201
f 199/199 202/202 198/198
f 201/201 71/71 74/74
f 71/71 201/201 199/199
f 198/198 200/200 197/197
f 71/71 199/199 67/67
f 198/198 196/196 199/199
f 196/196 67/67 199/199
f 197/197 195/195 198/198
f 196/196 198/198 195/195
f 193/193 192/192 190/190
f 195/195 197/197 192/192
f 65/65 67/67 196/196
f 195/195 194/194 196/196
f 177/177 175/175 152/152
f 136/136 65/65 194/194
f 65/65 136/136 5/5
f 194/194 195/195 193/193
f 192/192 193/193 195/195
f 140/140 136/136 194/194
f 194/194 193/193 140/140
f 140/140 193/193 141/141
f 138/138 144/144 145/145
f 156/156 25/25 155/155
f 156/156 28/28 25/25
f 17/17 155/155 25/25
f 17/17 153/153 155/155
f 149/149 152/152 154/154
f 17/17 149/149 153/153
f 149/149 150/150 152/152
f 149/149 148/148 150/150
f 17/17 138/138 149/149
f 148/148 149/149 138/138
f 17/17 1/1 138/138
f 138/138 145/145 148/148
f 159/159 156/156 155/155
f 142/142 144/144 138/138
f 138/138 139/139 142/142
f 138/138 137/137 139/139
f 1/1 137/137 138/138
f 137/137 1/1 4/4
f 32/32 135/135 109/109
f 135/135 120/120 109/109
f 30/30 135/135 32/32
f 135/135 131/131 120/120
f 135/135 30/30 134/134
f 131/131 135/135 134/134
f 174/174 172/172 173/173
f 151/151 180/180 177/177
f 175/175 179/179 178/178
f 179/179 175/175 177/177
f 173/173 178/178 176/176
f 178/178 173/173 175/175
f 177/177 152/152 151/151
f 202/202 201/201 203/203
f 173/173 176/176 174/174
f 154/154 152/152 175/175
f 173/173 154/154 175/175
f 174/174 171/171 172/172
f 180/180 151/151 147/147
f 172/172 154/154 173/173
f 172/172 149/149 154/154
f 170/170 149/149 172/172
f 149/149 170/170 153/153
f 168/168 153/153 170/170
f 168/168 166/166 153/153
f 153/153 166/166 165/165
f 153/153 165/165 162/162
f 155/155 153/153 162/162
f 155/155 162/162 160/160
f 155/155 160/160 159/159
f 233/233 228/228 232/232
f 236/236 239/239 237/237
f 238/238 231/231 233/233
f 238/238 233/233 237/237
f 78/78 115/115 236/236
f 236/236 237/237 235/235
f 233/233 235/235 237/237
f 78/78 236/236 215/215
f 236/236 235/235 234/234
f 215/215 236/236 234/234
f 233/233 232/232 235/235
f 232/232 234/234 235/235
f 215/215 234/234 223/223
f 224/224 223/223 234/234
f 232/232 224/224 234/234
f 238/238 237/237 239/239
f 232/232 225/225 224/224
f 225/225 232/232 228/228
f 229/229 231/231 230/230
f 229/229 228/228 231/231
f 161/161 163/163 230/230
f 163/163 229/229 230/230
f 227/227 228/228 229/229
f 163/163 227/227 229/229
f 227/227 225/225 228/228
f 227/227 163/163 164/164
f 225/225 227/227 226/226
f 164/164 226/226 227/227
f 167/167 226/226 164/164
f 158/158 244/244 246/246
f 102/102 99/99 103/103
f 129/129 249/249 248/248
f 249/249 129/129 133/133
f 249/249 133/133 29/29
f 249/249 29/29 157/157
f 246/246 248/248 249/249
f 246/246 249/249 157/157
f 247/247 248/248 245/245
f 248/248 246/246 245/245
f 247/247 242/242 243/243
f 245/245 242/242 247/247
f 246/246 157/157 158/158
f 244/244 245/245 246/246
f 169/169 226/226 167/167
f 245/245 244/244 241/241
f 242/242 245/245 241/241
f 244/244 158/158 161/161
f 161/161 230/230 244/244
f 241/241 244/244 230/230
f 242/242 239/239 243/243
f 239/239 236/236 243/243
f 241/241 238/238 242/242
f 239/239 242/242 238/238
f 230/230 240/240 241/241
f 241/241 240/240 238/238
f 230/230 231/231 240/240
f 231/231 238/238 240/240
f 187/187 207/207 186/186
f 213/213 212/212 211/211
f 206/206 213/213 211/211
f 178/178 179/179 212/212
f 211/211 212/212 209/209
f 209/209 212/212 210/210
f 210/210 212/212 179/179
f 206/206 211/211 209/209
f 179/179 189/189 210/210
f 209/209 210/210 189/189
f 206/206 209/209 208/208
f 208/208 209/209 189/189
f 186/186 208/208 189/189
f 208/208 207/207 206/206
f 208/208 186/186 207/207
f 212/212 214/214 178/178
f 206/206 207/207 205/205
f 207/207 187/187 205/205
f 78/78 206/206 203/203
f 204/204 206/206 205/205
f 203/203 206/206 204/204
f 191/191 205/205 187/187
f 205/205 191/191 204/204
f 197/197 204/204 191/191
f 200/200 203/203 204/204
f 204/204 197/197 200/200
f 75/75 78/78 203/203
f 202/202 203/203 200/200
f 201/201 75/75 203/203
f 171/171 174/174 220/220
f 222/222 225/225 226/226
f 226/226 169/169 222/222
f 221/221 224/224 225/225
f 221/221 225/225 222/222
f 223/223 224/224 219/219
f 224/224 221/221 219/219
f 216/216 215/215 223/223
f 219/219 216/216 223/223
f 171/171 222/222 169/169
f 220/220 221/221 222/222
f 222/222 171/171 220/220
f 221/221 220/220 218/218
f 218/218 219/219 221/221
f 250/250 129/129 248/248
f 218/218 220/220 174/174
f 219/219 218/218 217/217
f 216/216 219/219 217/217
f 174/174 176/176 218/218
f 176/176 217/217 218/218
f 214/214 216/216 217/217
f 214/214 217/217 176/176
f 216/216 213/213 215/215
f 216/216 214/214 213/213
f 78/78 215/215 206/206
f 206/206 215/215 213/213
f 178/178 214/214 176/176
f 214/214 212/212 213/213
f 70/70 76/76 73/73
f 60/60 61/61 64/64
f 7/7 63/63 3/3
f 63/63 7/7 60/60
f 62/62 61/61 59/59
f 57/57 62/62 59/59
f 79/79 68/68 62/62
f 77/77 72/72 79/79
f 68/68 79/79 72/72
f 75/75 77/77 78/78
f 76/76 72/72 77/77
f 76/76 77/77 73/73
f 75/75 73/73 77/77
f 69/69 72/72 76/76
f 64/64 63/63 60/60
f 76/76 70/70 69/69
f 73/73 75/75 74/74
f 71/71 73/73 74/74
f 73/73 71/71 70/70
f 72/72 69/69 68/68
f 67/67 70/70 71/71
f 66/66 69/69 70/70
f 85/85 84/84 86/86
f 84/84 53/53 86/86
f 85/85 80/80 83/83
f 84/84 85/85 83/83
f 53/53 84/84 55/55
f 52/52 53/53 55/55
f 58/58 59/59 61/61
f 10/10 60/60 7/7
f 60/60 10/10 58/58
f 59/59 58/58 56/56
f 56/56 57/57 59/59
f 10/10 56/56 58/58
f 54/54 57/57 56/56
f 54/54 55/55 57/57
f 56/56 10/10 11/11
f 14/14 56/56 11/11
f 56/56 14/14 54/54
f 55/55 54/54 52/52
f 83/83 82/82 84/84
f 15/15 54/54 14/14
f 54/54 15/15 52/52
f 70/70 67/67 66/66
f 64/64 68/68 69/69
f 69/69 66/66 64/64
f 62/62 68/68 61/61
f 68/68 64/64 61/61
f 65/65 66/66 67/67
f 63/63 64/64 66/66
f 63/63 66/66 65/65
f 65/65 3/3 63/63
f 3/3 65/65 5/5
f 94/94 93/93 91/91
f 100/100 42/42 40/40
f 99/99 98/98 100/100
f 42/42 100/100 98/98
f 98/98 99/99 96/96
f 97/97 96/96 99/99
f 42/42 98/98 46/46
f 96/96 46/46 98/98
f 96/96 97/97 95/95
f 94/94 95/95 97/97
f 46/46 96/96 48/48
f 48/48 96/96 95/95
f 94/94 92/92 95/95
f 95/95 92/92 48/48
f 51/51 86/86 53/53
f 92/92 94/94 91/91
f 78/78 80/80 93/93
f 105/105 108/108 103/103
f 105/105 35/35 107/107
f 103/103 106/106 102/102
f 35/35 105/105 36/36
f 103/103 104/104 105/105
f 36/36 105/105 104/104
f 39/39 36/36 104/104
f 104/104 40/40 39/39
f 100/100 104/104 103/103
f 40/40 104/104 100/100
f 92/92 91/91 89/89
f 82/82 55/55 84/84
f 80/80 81/81 83/83
f 82/82 83/83 81/81
f 55/55 82/82 57/57
f 62/62 57/57 82/82
f 81/81 62/62 82/82
f 79/79 81/81 80/80
f 62/62 81/81 79/79
f 78/78 77/77 80/80
f 79/79 80/80 77/77
f 91/91 93/93 80/80
f 50/50 48/48 92/92
f 61/61 60/60 58/58
f 92/92 89/89 50/50
f 91/91 90/90 89/89
f 80/80 90/90 91/91
f 90/90 87/87 89/89
f 80/80 87/87 90/90
f 89/89 51/51 50/50
f 87/87 88/88 89/89
f 51/51 89/89 88/88
f 87/87 86/86 88/88
f 86/86 51/51 88/88
f 80/80 85/85 87/87
f 85/85 86/86 87/87
f 108/108 105/105 107/107
f 117/117 116/116 111/111
f 110/110 117/117 111/111
f 114/114 116/116 118/118
f 116/116 117/117 118/118
f 117/117 110/110 119/119
f 109/109 119/119 110/110
f 119/119 120/120 117/117
f 109/109 120/120 119/119
f 121/121 118/118 117/117
f 121/121 117/117 120/120
f 118/118 122/122 114/114
f 118/118 121/121 122/122
f 122/122 123/123 114/114
f 114/114 113/113 116/116
f 106/106 103/103 108/108
f 35/35 109/109 107/107
f 32/32 109/109 35/35
f 107/107 110/110 108/108
f 110/110 107/107 109/109
f 108/108 111/111 106/106
f 111/111 108/108 110/110
f 106/106 112/112 102/102
f 101/101 102/102 112/112
f 93/93 101/101 112/112
f 112/112 106/106 113/113
f 111/111 113/113 106/106
f 122/122 124/124 123/123
f 228/228 233/233 231/231
f 130/130 124/124 131/131
f 120/120 131/131 121/121
f 132/132 129/129 130/130
f 129/129 132/132 133/133
f 132/132 29/29 133/133
f 29/29 132/132 27/27
f 130/130 134/134 132/132
f 134/134 27/27 132/132
f 134/134 130/130 131/131
f 114/114 123/123 115/115
f 124/124 122/122 121/121
f 93/93 112/112 114/114
f 123/123 125/125 115/115
f 125/125 126/126 115/115
f 125/125 123/123 127/127
f 126/126 125/125 127/127
f 123/123 124/124 127/127
f 126/126 127/127 128/128
f 127/127 129/129 128/128
f 124/124 130/130 127/127
f 129/129 127/127 130/130
f 124/124 121/121 131/131
f 78/78 114/114 115/115
f 113/113 111/111 116/116
f 52/52 19/19 49/49
f 22/22 34/34 37/37
f 24/24 34/34 22/22
f 24/24 33/33 34/34
f 24/24 31/31 33/33
f 31/31 24/24 26/26
f 26/26 24/24 25/25
f 26/26 25/25 28/28
f 17/17 25/25 24/24
f 17/17 24/24 22/22
f 18/18 23/23 21/21
f 53/53 49/49 51/51
f 49/49 53/53 52/52
f 19/19 52/52 15/15
f 22/22 37/37 38/38
f 47/47 50/50 51/51
f 47/47 51/51 49/49
f 50/50 45/45 48/48
f 50/50 47/47 45/45
f 21/21 49/49 19/19
f 49/49 21/21 47/47
f 46/46 48/48 45/45
f 23/23 47/47 21/21
f 47/47 23/23 45/45
f 46/46 44/44 42/42
f 45/45 44/44 46/46
f 44/44 45/45 23/23
f 9/9 6/6 12/12
f 114/114 112/112 113/113
f 78/78 93/93 114/114
f 97/97 101/101 94/94
f 94/94 101/101 93/93
f 17/17 22/22 18/18
f 18/18 21/21 20/20
f 16/16 18/18 20/20
f 17/17 18/18 6/6
f 6/6 18/18 16/16
f 17/17 6/6 1/1
f 6/6 16/16 13/13
f 6/6 13/13 12/12
f 27/27 134/134 30/30
f 6/6 9/9 8/8
f 6/6 8/8 2/2
f 6/6 2/2 1/1
f 1/1 2/2 4/4
f 99/99 102/102 97/97
f 102/102 101/101 97/97
f 99/99 100/100 103/103
f 44/44 23/23 18/18
f 18/18 43/43 44/44
f 43/43 18/18 22/22
f 41/41 43/43 22/22
f 41/41 22/22 38/38
f 129/129 250/250 128/128
f 248/248 247/247 250/250
f 251/251 115/115 252/252
f 250/250 251/251 252/252
f 252/252 115/115 126/126
f 252/252 126/126 250/250
f 236/236 115/115 251/251
f 243/243 236/236 251/251
f 251/251 250/250 247/247
f 243/243 251/251 247/247
f 128/128 250/250 126/126
f 457/457 456/456 452/452
f 419/419 441/441 440/440
f 441/441 439/439 440/440
f 440/440 422/422 419/419
f 439/439 441/441 442/442
f 436/436 439/439 442/442
f 435/435 440/440 439/439
f 449/449 438/438 445/445
f 452/452 453/453 457/457
f 423/423 422/422 435/435
f 433/433 435/435 434/434
f 433/433 423/423 435/435
f 442/442 448/448 455/455
f 453/453 452/452 450/450
f 452/452 448/448 449/449
f 450/450 452/452 449/449
f 449/449 445/445 450/450
f 437/437 436/436 443/443
f 448/448 447/447 449/449
f 438/438 449/449 447/447
f 448/448 441/441 447/447
f 448/448 442/442 441/441
f 438/438 447/447 421/421
f 419/419 421/421 447/447
f 441/441 419/419 447/447
f 436/436 442/442 443/443
f 426/426 423/423 433/433
f 415/415 422/422 418/418
f 406/406 428/428 426/426
f 431/431 402/402 397/397
f 426/426 408/408 406/406
f 426/426 413/413 408/408
f 397/397 432/432 431/431
f 432/432 430/430 431/431
f 432/432 395/395 430/430
f 432/432 397/397 383/383
f 382/382 395/395 432/432
f 383/383 382/382 432/432
f 433/433 413/413 426/426
f 440/440 435/435 422/422
f 433/433 434/434 413/413
f 434/434 416/416 413/413
f 434/434 420/420 416/416
f 402/402 429/429 428/428
f 402/402 431/431 429/429
f 428/428 406/406 402/402
f 322/322 320/320 315/315
f 431/431 430/430 427/427
f 420/420 434/434 436/436
f 436/436 437/437 420/420
f 434/434 435/435 439/439
f 434/434 439/439 436/436
f 344/344 482/482 347/347
f 477/477 348/348 484/484
f 348/348 477/477 342/342
f 483/483 484/484 482/482
f 484/484 348/348 482/482
f 478/478 479/479 483/483
f 454/454 464/464 458/458
f 463/463 460/460 464/464
f 463/463 464/464 454/454
f 477/477 484/484 475/475
f 482/482 344/344 481/481
f 473/473 478/478 481/481
f 344/344 480/480 481/481
f 481/481 480/480 473/473
f 480/480 344/344 343/343
f 343/343 341/341 480/480
f 480/480 341/341 476/476
f 468/468 472/472 473/473
f 486/486 469/469 462/462
f 459/459 486/486 462/462
f 479/479 469/469 486/486
f 481/481 483/483 482/482
f 483/483 481/481 478/478
f 348/348 347/347 482/482
f 473/473 476/476 474/474
f 473/473 474/474 468/468
f 476/476 473/473 480/480
f 486/486 459/459 467/467
f 486/486 483/483 479/479
f 467/467 485/485 486/486
f 483/483 486/486 485/485
f 475/475 485/485 467/467
f 484/484 483/483 485/485
f 475/475 484/484 485/485
f 463/463 446/446 444/444
f 464/464 466/466 458/458
f 460/460 461/461 465/465
f 464/464 460/460 465/465
f 437/437 444/444 446/446
f 442/442 444/444 443/443
f 444/444 437/437 443/443
f 451/451 463/463 454/454
f 446/446 463/463 451/451
f 464/464 465/465 466/466
f 463/463 455/455 460/460
f 455/455 463/463 444/444
f 462/462 461/461 457/457
f 457/457 459/459 462/462
f 461/461 460/460 456/456
f 456/456 457/457 461/461
f 460/460 455/455 456/456
f 468/468 466/466 472/472
f 479/479 478/478 471/471
f 469/469 479/479 471/471
f 472/472 478/478 473/473
f 478/478 472/472 471/471
f 448/448 456/456 455/455
f 448/448 452/452 456/456
f 444/444 442/442 455/455
f 466/466 471/471 472/472
f 457/457 453/453 459/459
f 471/471 470/470 469/469
f 471/471 466/466 470/470
f 465/465 469/469 470/470
f 466/466 465/465 470/470
f 461/461 462/462 469/469
f 469/469 465/465 461/461
f 466/466 468/468 458/458
f 350/350 349/349 346/346
f 319/319 311/311 317/317
f 311/311 319/319 318/318
f 312/312 315/315 320/320
f 312/312 323/323 317/317
f 346/346 349/349 345/345
f 338/338 348/348 342/342
f 350/350 346/346 348/348
f 348/348 338/338 350/350
f 318/318 307/307 305/305
f 350/350 338/338 335/335
f 335/335 351/351 350/350
f 349/349 350/350 351/351
f 351/351 335/335 325/325
f 324/324 330/330 327/327
f 327/327 331/331 329/329
f 331/331 327/327 330/330
f 337/337 334/334 336/336
f 304/304 302/302 300/300
f 301/301 296/296 305/305
f 302/302 305/305 296/296
f 302/302 304/304 306/306
f 301/301 305/305 307/307
f 304/304 308/308 306/306
f 326/326 334/334 333/333
f 334/334 326/326 336/336
f 324/324 332/332 330/330
f 333/333 339/339 332/332
f 339/339 333/333 334/334
f 334/334 337/337 340/340
f 340/340 337/337 341/341
f 343/343 340/340 341/341
f 344/344 340/340 343/343
f 305/305 311/311 318/318
f 358/358 319/319 357/357
f 348/348 346/346 347/347
f 339/339 345/345 349/349
f 313/313 356/356 316/316
f 319/319 328/328 356/356
f 313/313 357/357 356/356
f 319/319 356/356 357/357
f 357/357 313/313 310/310
f 303/303 357/357 310/310
f 347/347 346/346 344/344
f 357/357 303/303 358/358
f 318/318 319/319 358/358
f 349/349 352/352 339/339
f 332/332 339/339 352/352
f 331/331 332/332 352/352
f 349/349 351/351 353/353
f 353/353 352/352 349/349
f 354/354 355/355 329/329
f 330/330 332/332 331/331
f 324/324 326/326 333/333
f 332/332 324/324 333/333
f 321/321 353/353 325/325
f 353/353 354/354 331/331
f 353/353 321/321 354/354
f 331/331 354/354 329/329
f 354/354 321/321 355/355
f 300/300 302/302 296/296
f 316/316 355/355 321/321
f 329/329 355/355 328/328
f 355/355 316/316 356/356
f 340/340 345/345 334/334
f 340/340 344/344 345/345
f 334/334 345/345 339/339
f 345/345 344/344 346/346
f 266/266 264/264 260/260
f 285/285 283/283 287/287
f 285/285 287/287 288/288
f 255/255 253/253 258/258
f 260/260 258/258 253/253
f 261/261 255/255 258/258
f 255/255 261/261 262/262
f 262/262 261/261 263/263
f 258/258 260/260 264/264
f 283/283 285/285 281/281
f 292/292 290/290 294/294
f 290/290 293/293 294/294
f 295/295 285/285 288/288
f 293/293 285/285 295/295
f 295/295 288/288 296/296
f 296/296 288/288 298/298
f 296/296 298/298 300/300
f 269/269 270/270 273/273
f 253/253 255/255 256/256
f 258/258 267/267 261/261
f 264/264 267/267 258/258
f 268/268 263/263 261/261
f 261/261 267/267 268/268
f 264/264 266/266 269/269
f 270/270 269/269 266/266
f 267/267 264/264 272/272
f 293/293 295/295 301/301
f 274/274 273/273 270/270
f 276/276 277/277 280/280
f 279/279 280/280 277/277
f 274/274 281/281 278/278
f 281/281 274/274 283/283
f 279/279 278/278 284/284
f 281/281 284/284 278/278
f 320/320 322/322 324/324
f 284/284 281/281 290/290
f 285/285 290/290 281/281
f 284/284 291/291 279/279
f 280/280 279/279 291/291
f 290/290 292/292 284/284
f 291/291 284/284 292/292
f 285/285 293/293 290/290
f 323/323 312/312 320/320
f 317/317 308/308 312/312
f 326/326 324/324 322/322
f 320/320 327/327 323/323
f 327/327 320/320 324/324
f 317/317 323/323 328/328
f 328/328 319/319 317/317
f 329/329 323/323 327/327
f 323/323 329/329 328/328
f 308/308 304/304 309/309
f 296/296 301/301 295/295
f 269/269 276/276 264/264
f 272/272 264/264 276/276
f 273/273 277/277 269/269
f 276/276 269/269 277/277
f 273/273 274/274 278/278
f 277/277 273/273 279/279
f 278/278 279/279 273/273
f 395/395 399/399 430/430
f 306/306 311/311 302/302
f 308/308 311/311 306/306
f 305/305 302/302 311/311
f 309/309 312/312 308/308
f 312/312 309/309 314/314
f 315/315 312/312 314/314
f 311/311 308/308 317/317
f 390/390 392/392 389/389
f 393/393 394/394 395/395
f 391/391 384/384 396/396
f 398/398 396/396 384/384
f 391/391 399/399 394/394
f 399/399 391/391 396/396
f 399/399 395/395 394/394
f 390/390 379/379 391/391
f 384/384 391/391 379/379
f 382/382 393/393 395/395
f 391/391 392/392 390/390
f 389/389 393/393 385/385
f 393/393 389/389 392/392
f 382/382 383/383 380/380
f 419/419 417/417 421/421
f 398/398 400/400 396/396
f 401/401 400/400 398/398
f 396/396 403/403 399/399
f 379/379 388/388 376/376
f 381/381 263/263 386/386
f 385/385 381/381 386/386
f 263/263 387/387 386/386
f 387/387 263/263 375/375
f 257/257 387/387 375/375
f 376/376 387/387 257/257
f 376/376 388/388 387/387
f 388/388 386/386 387/387
f 403/403 396/396 400/400
f 385/385 386/386 389/389
f 386/386 388/388 389/389
f 390/390 388/388 379/379
f 390/390 389/389 388/388
f 373/373 372/372 371/371
f 394/394 393/393 392/392
f 392/392 391/391 394/394
f 418/418 411/411 415/415
f 425/425 403/403 410/410
f 423/423 426/426 424/424
f 403/403 425/425 427/427
f 427/427 399/399 403/403
f 411/411 414/414 407/407
f 412/412 415/415 411/411
f 417/417 415/415 412/412
f 414/414 411/411 418/418
f 410/410 424/424 425/425
f 415/415 417/417 419/419
f 428/428 425/425 424/424
f 424/424 426/426 428/428
f 429/429 427/427 425/425
f 429/429 425/425 428/428
f 399/399 427/427 430/430
f 431/431 427/427 429/429
f 411/411 409/409 412/412
f 401/401 404/404 400/400
f 404/404 403/403 400/400
f 405/405 404/404 401/401
f 405/405 407/407 404/404
f 409/409 407/407 405/405
f 403/403 404/404 410/410
f 404/404 407/407 410/410
f 409/409 411/411 407/407
f 352/352 353/353 331/331
f 407/407 414/414 410/410
f 385/385 393/393 382/382
f 419/419 422/422 415/415
f 423/423 414/414 418/418
f 422/422 423/423 418/418
f 424/424 410/410 414/414
f 414/414 423/423 424/424
f 275/275 365/365 282/282
f 286/286 363/363 289/289
f 363/363 364/364 294/294
f 363/363 286/286 364/364
f 364/364 292/292 294/294
f 282/282 364/364 286/286
f 365/365 292/292 364/364
f 282/282 365/365 364/364
f 365/365 291/291 292/292
f 355/355 356/356 328/328
f 275/275 366/366 365/365
f 291/291 365/365 366/366
f 271/271 366/366 275/275
f 291/291 366/366 367/367
f 271/271 367/367 366/366
f 367/367 280/280 291/291
f 299/299 358/358 303/303
f 297/297 361/361 359/359
f 325/325 353/353 351/351
f 359/359 318/318 358/358
f 299/299 359/359 358/358
f 318/318 359/359 307/307
f 359/359 299/299 297/297
f 307/307 359/359 360/360
f 307/307 360/360 301/301
f 293/293 301/301 360/360
f 378/378 381/381 385/385
f 359/359 361/361 360/360
f 361/361 297/297 289/289
f 360/360 362/362 293/293
f 361/361 362/362 360/360
f 362/362 294/294 293/293
f 289/289 363/363 361/361
f 362/362 361/361 363/363
f 255/255 378/378 377/377
f 373/373 268/268 372/372
f 254/254 373/373 259/259
f 268/268 373/373 374/374
f 373/373 254/254 374/374
f 374/374 263/263 268/268
f 257/257 374/374 254/254
f 263/263 374/374 375/375
f 377/377 256/256 255/255
f 374/374 257/257 375/375
f 377/377 378/378 380/380
f 255/255 381/381 378/378
f 378/378 385/385 382/382
f 367/367 271/271 265/265
f 378/378 382/382 380/380
f 381/381 255/255 262/262
f 381/381 262/262 263/263
f 371/371 259/259 373/373
f 280/280 367/367 368/368
f 259/259 368/368 265/265
f 280/280 368/368 369/369
f 280/280 369/369 276/276
f 369/369 272/272 276/276
f 368/368 370/370 369/369
f 369/369 370/370 272/272
f 259/259 371/371 368/368
f 294/294 362/362 363/363
f 265/265 368/368 367/367
f 372/372 268/268 267/267
f 272/272 372/372 267/267
f 370/370 371/371 372/372
f 372/372 272/272 370/370
f 370/370 368/368 371/371
f 515/515 501/501 500/500
f 501/501 515/515 516/516
f 528/528 532/532 530/530
f 528/528 531/531 532/532
f 601/601 557/557 556/556
f 554/554 601/601 556/556
f 557/557 601/601 596/596
f 601/601 597/597 596/596
f 554/554 600/600 601/601
f 600/600 597/597 601/601
f 488/488 600/600 554/554
f 488/488 502/502 600/600
f 503/503 600/600 502/502
f 600/600 599/599 597/597
f 598/598 597/597 599/599
f 599/599 504/504 598/598
f 505/505 598/598 504/504
f 588/588 598/598 505/505
f 597/597 598/598 595/595
f 588/588 595/595 598/598
f 597/597 594/594 596/596
f 595/595 594/594 597/597
f 596/596 559/559 557/557
f 593/593 596/596 594/594
f 559/559 596/596 593/593
f 595/595 588/588 592/592
f 533/533 532/532 531/531
f 497/497 533/533 531/531
f 546/546 544/544 542/542
f 543/543 545/545 546/546
f 531/531 498/498 497/497
f 498/498 531/531 521/521
f 531/531 528/528 521/521
f 529/529 528/528 530/530
f 530/530 526/526 529/529
f 525/525 528/528 529/529
f 526/526 525/525 529/529
f 522/522 521/521 528/528
f 528/528 525/525 522/522
f 524/524 526/526 527/527
f 525/525 526/526 523/523
f 524/524 523/523 526/526
f 526/526 530/530 540/540
f 540/540 534/534 539/539
f 553/553 489/489 487/487
f 553/553 552/552 551/551
f 534/534 536/536 539/539
f 537/537 538/538 535/535
f 536/536 535/535 538/538
f 495/495 494/494 537/537
f 495/495 537/537 535/535
f 536/536 534/534 532/532
f 535/535 536/536 533/533
f 532/532 533/533 536/536
f 535/535 496/496 495/495
f 533/533 496/496 535/535
f 530/530 532/532 534/534
f 533/533 497/497 496/496
f 544/544 546/546 547/547
f 545/545 492/492 491/491
f 560/560 562/562 547/547
f 527/527 561/561 559/559
f 542/542 543/543 546/546
f 545/545 493/493 492/492
f 545/545 543/543 493/493
f 541/541 542/542 544/544
f 494/494 493/493 543/543
f 543/543 542/542 537/537
f 494/494 543/543 537/537
f 542/542 541/541 538/538
f 538/538 537/537 542/542
f 541/541 540/540 539/539
f 539/539 538/538 541/541
f 527/527 526/526 540/540
f 553/553 488/488 554/554
f 488/488 553/553 487/487
f 566/566 512/512 513/513
f 564/564 566/566 513/513
f 489/489 553/553 551/551
f 552/552 549/549 551/551
f 549/549 552/552 550/550
f 551/551 490/490 489/489
f 490/490 551/551 549/549
f 548/548 550/550 547/547
f 550/550 545/545 549/549
f 545/545 550/550 548/548
f 491/491 490/490 549/549
f 545/545 491/491 549/549
f 548/548 547/547 546/546
f 546/546 545/545 548/548
f 527/527 562/562 561/561
f 562/562 560/560 561/561
f 573/573 511/511 512/512
f 573/573 566/566 571/571
f 561/561 560/560 558/558
f 559/559 561/561 558/558
f 550/550 560/560 547/547
f 552/552 558/558 560/560
f 560/560 550/550 552/552
f 558/558 557/557 559/559
f 555/555 558/558 552/552
f 555/555 557/557 558/558
f 557/557 555/555 556/556
f 555/555 554/554 556/556
f 552/552 553/553 555/555
f 554/554 555/555 553/553
f 566/566 564/564 567/567
f 565/565 567/567 564/564
f 578/578 579/579 581/581
f 580/580 508/508 509/509
f 520/520 565/565 517/517
f 564/564 563/563 565/565
f 517/517 565/565 563/563
f 514/514 564/564 513/513
f 564/564 514/514 563/563
f 517/517 563/563 516/516
f 501/501 563/563 514/514
f 563/563 501/501 516/516
f 541/541 562/562 540/540
f 544/544 562/562 541/541
f 527/527 540/540 562/562
f 562/562 544/544 547/547
f 574/574 572/572 570/570
f 572/572 574/574 571/571
f 588/588 507/507 586/586
f 585/585 584/584 587/587
f 566/566 573/573 512/512
f 571/571 569/569 572/572
f 570/570 572/572 569/569
f 566/566 567/567 571/571
f 569/569 571/571 567/567
f 524/524 527/527 570/570
f 569/569 568/568 570/570
f 570/570 568/568 524/524
f 569/569 565/565 568/568
f 565/565 569/569 567/567
f 524/524 568/568 520/520
f 565/565 520/520 568/568
f 579/579 577/577 582/582
f 580/580 578/578 581/581
f 594/594 590/590 593/593
f 590/590 594/594 591/591
f 578/578 580/580 509/509
f 575/575 577/577 579/579
f 578/578 576/576 579/579
f 576/576 575/575 579/579
f 578/578 509/509 510/510
f 576/576 578/578 510/510
f 575/575 574/574 577/577
f 576/576 510/510 511/511
f 576/576 573/573 575/575
f 573/573 576/576 511/511
f 571/571 574/574 575/575
f 573/573 571/571 575/575
f 586/586 585/585 589/589
f 588/588 506/506 507/507
f 600/600 503/503 599/599
f 504/504 599/599 503/503
f 586/586 507/507 508/508
f 585/585 586/586 580/580
f 508/508 580/580 586/586
f 581/581 584/584 585/585
f 580/580 581/581 585/585
f 583/583 584/584 582/582
f 581/581 582/582 584/584
f 527/527 583/583 570/570
f 570/570 583/583 574/574
f 583/583 582/582 577/577
f 583/583 577/577 574/574
f 579/579 582/582 581/581
f 594/594 595/595 591/591
f 592/592 591/591 595/595
f 527/527 559/559 593/593
f 527/527 593/593 590/590
f 589/589 591/591 592/592
f 589/589 592/592 588/588
f 590/590 591/591 587/587
f 589/589 587/587 591/591
f 527/527 590/590 583/583
f 583/583 590/590 584/584
f 587/587 584/584 590/590
f 588/588 505/505 506/506
f 585/585 587/587 589/589
f 589/589 588/588 586/586
f 519/519 525/525 523/523
f 525/525 519/519 522/522
f 540/540 530/530 534/534
f 538/538 539/539 536/536
f 523/523 524/524 520/520
f 520/520 519/519 523/523
f 521/521 522/522 518/518
f 519/519 518/518 522/522
f 499/499 498/498 521/521
f 521/521 518/518 499/499
f 519/519 520/520 517/517
f 515/515 518/518 519/519
f 519/519 517/517 515/515
f 518/518 500/500 499/499
f 500/500 518/518 515/515
f 516/516 515/515 517/517

