# https://github.com/mikedh/trimesh
mtllib material.mtl
usemtl M_UE4Man_ChestLogo
v -0.03575311 -0.15628223 -0.01973352
v -0.03436146 -0.15869676 -0.00427530
v -0.03436146 -0.15869676 -0.00427530
v -0.04109524 -0.15945934 -0.00360928
v -0.04109524 -0.15945934 -0.00360928
v -0.04251276 -0.15691392 -0.01966045
v -0.04045568 -0.15932386 -0.03794775
v -0.03427134 -0.15853601 -0.03682885
v -0.04744444 -0.14965283 -0.01960883
v -0.04589258 -0.15067904 -0.00162313
v -0.04589258 -0.15067904 -0.00162313
v -0.05233489 -0.14999239 -0.00241146
v -0.05233489 -0.14999239 -0.00241146
v -0.03690730 -0.16485517 -0.05156300
v -0.02996884 -0.16443865 -0.04981265
v -0.04406844 -0.15312152 -0.04118893
v -0.05449198 -0.14896874 -0.02057824
v -0.05744658 -0.13645207 -0.00066063
v -0.05744658 -0.13645207 -0.00066063
v -0.03751300 -0.16061299 -0.05531034
v -0.06030880 -0.13420396 -0.02224658
v -0.04989432 -0.15326195 -0.04487584
v -0.05517660 -0.13870608 -0.04495523
v -0.06557201 -0.11673396 -0.01920781
v -0.06263803 -0.11801635 0.00326982
v -0.06263803 -0.11801635 0.00326982
v -0.06146024 -0.11659818 -0.03812442
v -0.07766317 -0.08688550 -0.01647232
v -0.07520185 -0.08754717 0.00616422
v -0.07520185 -0.08754717 0.00616422
v -0.07302211 -0.08704077 -0.03282664
v -0.08948384 -0.05066191 -0.01390455
v -0.08649872 -0.04989331 0.00961199
v -0.08649872 -0.04989331 0.00961199
v -0.06233309 -0.08611201 -0.05218503
v -0.10064874 -0.00930725 -0.01309214
v -0.09605668 -0.00930266 0.01202073
v -0.09605668 -0.00930266 0.01202073
v -0.08411215 -0.05002033 -0.03494129
v -0.10574864 0.02062650 -0.01354668
v -0.10223399 0.02136804 0.01367190
v -0.10223399 0.02136804 0.01367190
v -0.09700738 -0.00811617 -0.04020724
v -0.10787819 0.03975327 -0.01129744
v -0.10420380 0.03918423 0.01511326
v -0.10420380 0.03918423 0.01511326
v -0.10225878 0.02297784 -0.04357204
v -0.07369564 -0.05088650 -0.05783079
v -0.10713802 0.05890615 -0.00875435
v -0.10409485 0.05751313 0.01805367
v -0.10409485 0.05751313 0.01805367
v -0.10456119 0.04195179 -0.04581747
v -0.08395181 -0.00582444 -0.06945572
v -0.10603474 0.08000226 -0.00568364
v -0.10240303 0.07784123 0.02262893
v -0.10240303 0.07784123 0.02262893
v -0.10561858 0.06175001 -0.04714749
v -0.09288166 0.02620227 -0.07478425
v -0.09660254 0.04624946 -0.07672963
v -0.10583923 0.08691795 -0.04626343
v -0.10566793 0.08371414 -0.00495586
v -0.10175977 0.08267213 0.02258804
v -0.10175977 0.08267213 0.02258804
v -0.09845732 0.08773751 0.02231314
v -0.09845732 0.08773751 0.02231314
v -0.09825311 0.07028498 -0.07906303
v -0.10163222 0.08996548 -0.00484428
v -0.08939801 0.09260930 0.02158370
v -0.08939801 0.09260930 0.02158370
v -0.10549996 0.09140660 -0.04601870
v -0.10091363 0.09626032 -0.08189163
v -0.09324000 0.09342529 -0.00651488
v -0.08512579 0.08689560 0.02042761
v -0.08512579 0.08689560 0.02042761
v -0.10224376 0.09591348 -0.04550478
v -0.08821653 0.08771081 -0.00763175
v -0.07320319 0.08698238 0.01748171
v -0.07320319 0.08698238 0.01748171
v -0.07570420 0.08691807 -0.00882802
v -0.07569645 0.09262217 -0.04381964
v -0.09397410 0.09840561 -0.04378948
v -0.09036456 0.09365315 -0.04478977
v -0.07272313 0.10445882 -0.06729207
v -0.08633183 0.10537888 -0.07499788
v -0.06645260 0.11692489 -0.08191142
v -0.08948646 0.10765202 -0.07493279
v -0.07740555 0.11752225 -0.09599469
v -0.05377422 0.13423998 -0.09414849
v -0.09738145 0.10527940 -0.07934842
v -0.05897711 0.13433422 -0.11001978
v -0.08032010 0.11866738 -0.10331306
v -0.01460693 0.17546798 -0.10682664
v -0.01898955 0.17093189 -0.09389577
v -0.00797961 0.18693407 -0.08996246
v -0.06019340 0.13670869 -0.11803768
v 0.00050713 0.19103141 -0.10043190
v 0.01094653 0.20847650 -0.07783554
v -0.01103864 0.17766715 -0.11545966
v 0.01705577 0.21334804 -0.08304260
v 0.02824046 0.22973759 -0.05534647
v 0.00351669 0.19456817 -0.10631118
v 0.03528585 0.23207201 -0.05860958
v 0.02451946 0.21659328 -0.08953629
v 0.04088117 0.24070681 -0.03141437
v 0.03324963 0.23795552 -0.03156898
v 0.03498306 0.24456019 -0.00870476
v 0.02961184 0.21491326 -0.09038601
v 0.04070439 0.23055513 -0.05801771
v 0.04215612 0.24673350 -0.00712929
v 0.04699029 0.24032487 -0.02869604
v 0.04303588 0.22586949 -0.05624065
v 0.03720393 0.24900765 0.01524260
v 0.03166260 0.24729533 0.01470366
v 0.04798843 0.24570460 -0.00659225
v 0.03229143 0.24860753 0.02833691
v 0.02764418 0.24751045 0.02720871
v 0.01848866 0.24497409 0.04266276
v 0.04322829 0.24850459 0.01611879
v 0.03738989 0.24812378 0.02991858
v 0.02236082 0.24591417 0.04663231
v 0.00500860 0.24106045 0.05902877
v 0.02664675 0.24572898 0.04895034
v 0.04627671 0.24388154 0.01671436
v 0.05015995 0.24205918 -0.00539587
v 0.04014911 0.24321647 0.03140225
v 0.06772365 0.17804445 0.01333382
v 0.06501951 0.17769272 0.02865496
v 0.05028262 0.23871846 -0.01791296
v 0.06594302 0.17805214 0.00895777
v 0.04869367 0.23537822 -0.02704988
v 0.06363751 0.17756493 -0.00559494
v 0.06390204 0.17501999 -0.01664422
v 0.07404758 0.11314888 0.00453379
v 0.08085634 0.11493112 0.01854041
v 0.08101370 0.11566414 0.02233317
v 0.08681180 0.05998577 0.02072134
v 0.07793857 0.11458935 0.03552010
v 0.08786287 0.06031032 0.02538135
v 0.05932440 0.17722995 0.04510167
v 0.08483376 0.05909975 0.04123833
v 0.02933838 0.24043895 0.05143526
v 0.07329287 0.11406876 0.05575027
v 0.05076231 0.17553933 0.06527390
v 0.01321985 0.23559107 0.07120910
v 0.00990226 0.24124236 0.06822207
v 0.03134968 0.17249806 0.08607402
v 0.00676181 0.24102695 0.06385365
v -0.00830076 0.22501124 0.09236612
v -0.01394532 0.22932548 0.08364167
v -0.01485012 0.22829432 0.07929137
v -0.01183389 0.22600914 0.07571461
v -0.01344655 0.22630520 0.07230976
v -0.03472517 0.20839877 0.08083191
v -0.02402685 0.21839978 0.08688726
v -0.03256748 0.20556618 0.08950927
v -0.01180015 0.22921724 0.08974614
v -0.02341090 0.21910144 0.09068456
v -0.02248178 0.21883334 0.09733024
v -0.03445480 0.20535667 0.09443786
v -0.04274891 0.18675042 0.08187964
v -0.04479323 0.18277712 0.07517841
v -0.04350339 0.18761010 0.09459963
v -0.05135511 0.16529543 0.08204880
v -0.04941629 0.16236157 0.07356634
v -0.04184471 0.18734438 0.08947005
v -0.06076620 0.14149476 0.07943382
v -0.05548106 0.14106305 0.07089832
v -0.06013511 0.12483521 0.06708684
v -0.05176495 0.16410573 0.08718612
v -0.06827174 0.12074937 0.07334092
v -0.06520091 0.10733737 0.05811038
v -0.06167672 0.14015419 0.08187332
v -0.05475484 0.16393186 0.09436264
v -0.06619475 0.13820393 0.08916154
v -0.07077048 0.11874874 0.07522609
v -0.07288705 0.10540928 0.06123533
v -0.07719253 0.09360392 0.04744139
v -0.06647978 0.09632928 0.04602923
v -0.07798062 0.10580070 0.06132271
v -0.08408723 0.09731228 0.04514637
v -0.09264014 0.09179629 0.04718759
v -0.08518420 0.10066802 0.06625595
v -0.07632635 0.11510761 0.08059170
v -0.08678697 0.09579457 0.06821456
v -0.07689665 0.11057205 0.08312442
v -0.06564437 0.13568313 0.09358039
v -0.09562538 0.08655168 0.04889061
v -0.07295321 0.10515256 0.08443561
v -0.09583364 0.08185990 0.05011585
v -0.08589635 0.09183587 0.06985667
v -0.09596131 0.06324197 0.04917541
v -0.08197234 0.07731761 0.07353678
v -0.06373141 0.09313984 0.08961561
v -0.06164275 0.13197125 0.09457829
v -0.09659086 0.04173107 0.04541841
v -0.08141599 0.05168558 0.07141151
v -0.06327603 0.06035419 0.08795538
v -0.08070491 0.02622647 0.06982293
v -0.09712802 0.01981051 0.04133000
v -0.06359051 0.03105081 0.08644381
v -0.09290312 -0.00931971 0.02668312
v -0.07860098 -0.00697111 0.06434097
v -0.08387540 -0.04983549 0.02494695
v -0.09151409 -0.00954680 0.03790393
v -0.08304928 -0.04892771 0.03805008
v -0.07197366 -0.08906906 0.02436390
v -0.07108710 -0.08924811 0.03798201
v -0.05755196 -0.12057351 0.02472081
v -0.07264732 -0.04717236 0.05736043
v -0.06141351 -0.08902781 0.05759420
v -0.05244575 -0.04440748 0.07406106
v -0.05911980 -0.00316875 0.08092787
v -0.05344830 -0.12308477 0.04267600
v -0.04691980 -0.00085961 0.09364977
v -0.05044852 -0.14116799 0.02087572
v -0.04860745 0.03543587 0.10012176
v -0.04120157 -0.04309176 0.08389153
v -0.03192459 0.00039459 0.10164526
v -0.04861186 0.06980134 0.10332313
v -0.03058432 0.04080315 0.10859230
v -0.04728017 0.11186935 0.10495439
v -0.02997146 0.08412011 0.11415854
v -0.05042706 0.15817059 0.10020783
v -0.03115330 0.14154817 0.11208072
v -0.05489228 0.16140987 0.09823396
v -0.04062806 0.18184091 0.10352376
v -0.04422162 0.18577350 0.10132244
v -0.03181897 0.19882156 0.10338845
v -0.03454064 0.20344783 0.10095968
v -0.01937125 0.21441729 0.09985461
v -0.01419662 0.15152885 0.11204841
v 0.00634386 0.16282768 0.10578098
v -0.00991116 0.09201641 0.11580672
v 0.01611711 0.10078616 0.11188402
v 0.04434587 0.10916508 0.09691288
v -0.00756965 0.04615868 0.11264827
v 0.02001824 0.05238588 0.11060061
v 0.04776718 0.05579729 0.09745207
v 0.06362285 0.11269857 0.07552757
v 0.06739690 0.05685414 0.07620754
v 0.07738485 0.05817760 0.05921247
v 0.05018379 0.00931109 0.09269907
v 0.07785370 0.01276280 0.05868545
v 0.02316226 0.00594027 0.10355535
v 0.06892576 0.01083870 0.07337346
v 0.04795708 -0.03759037 0.08280578
v -0.00571631 0.00308133 0.10540476
v 0.02491917 -0.03961997 0.09214201
v -0.02666436 -0.04208784 0.09166946
v -0.00105260 -0.04094009 0.09346023
v -0.03072475 -0.08499389 0.07654216
v -0.01944671 -0.08420079 0.08194711
v 0.00372257 -0.08179228 0.08337512
v -0.04323314 -0.08652585 0.06941118
v -0.02010117 -0.12191241 0.07432559
v -0.04646907 -0.12286572 0.05779567
v -0.03170250 -0.12169509 0.06822290
v -0.03309177 -0.14759790 0.05694785
v -0.02965794 -0.14668165 0.06352224
v -0.02169536 -0.14638953 0.06999459
v -0.01052902 -0.12070464 0.07788017
v -0.01377521 -0.14535646 0.07477655
v -0.01186631 -0.17586713 0.07141068
v -0.01489590 -0.17634855 0.06701019
v -0.03476666 -0.15665816 0.04260912
v -0.01883994 -0.17958574 0.05770245
v -0.03463481 -0.16677635 0.03185108
v -0.04679499 -0.15383111 0.01423254
v -0.04152535 -0.15550499 0.01229765
v -0.03204451 -0.16778617 0.02705636
v -0.03783415 -0.16480016 0.00989797
v -0.03114448 -0.16392516 0.00826838
v -0.02735065 -0.17196428 0.01742997
v -0.03262137 -0.17332207 0.02112081
v -0.01982818 -0.18827866 0.04009213
v -0.02257059 -0.19408177 0.03442039
v -0.01841269 -0.19346284 0.02875569
v -0.01341520 -0.21617644 0.03077092
v -0.02244852 -0.18719368 0.04495122
v -0.01519595 -0.21714972 0.03734221
v -0.00755308 -0.23891942 0.02562478
v -0.01121483 -0.21459149 0.04104998
v -0.00809739 -0.24107774 0.03078272
v -0.00295315 -0.24415837 0.02444127
v -0.00570045 -0.23868053 0.03492560
v -0.01290761 -0.21782993 0.04520025
v -0.00394283 -0.24635618 0.03015103
v -0.00783764 -0.21616023 0.05724683
v -0.00658212 -0.23722990 0.03962328
v -0.00270723 -0.23623003 0.05106821
v -0.00281368 -0.21564572 0.06466737
v 0.00113704 -0.23401641 0.05857792
v -0.00062810 -0.21654634 0.06852796
v 0.00204481 -0.23364239 0.06275144
v 0.00229492 -0.21687792 0.07213368
v 0.00504424 -0.23313897 0.06713572
v -0.00587819 -0.17321764 0.07752409
v -0.00606440 -0.14573537 0.07800272
v 0.00111653 -0.17239194 0.08042338
v 0.00825300 -0.11943297 0.07824972
v 0.01096334 -0.14472388 0.07869973
v 0.02760221 -0.11814021 0.07766321
v 0.00748493 -0.21651577 0.07400789
v 0.01493122 -0.17117428 0.08007970
v 0.02855851 -0.14369111 0.07844057
v 0.02725186 -0.07921110 0.08169427
v 0.03485956 -0.14243256 0.07464173
v 0.04382290 -0.07632451 0.07444432
v 0.03688027 -0.11649011 0.07369485
v 0.06178274 -0.07077788 0.05775597
v 0.04794003 -0.11085586 0.05846598
v 0.04295112 -0.14188241 0.06550291
v 0.06696882 -0.03582447 0.06408312
v 0.07415940 -0.03323613 0.05458035
v 0.06982257 -0.06526183 0.04532900
v 0.07881071 -0.03104930 0.04409840
v 0.08424260 0.01428552 0.04301825
v 0.07067849 -0.06630360 0.03822114
v 0.08697905 0.01624895 0.02842500
v 0.08095147 -0.03127639 0.03149345
v 0.08680941 0.01596971 0.02470734
v 0.08078768 -0.03040593 0.02774050
v 0.06992139 -0.06684862 0.03299382
v 0.08031370 0.01462848 0.01106026
v 0.08010175 0.05945177 0.00812068
v 0.07458510 -0.03065531 0.01093545
v 0.07843806 0.10883654 -0.00971601
v 0.08685197 0.01600559 -0.00709972
v 0.05811502 0.16865451 -0.04375837
v 0.08566858 0.05905528 -0.00649784
v 0.07911672 0.05879266 -0.03089116
v 0.07236387 0.10670532 -0.03298030
v 0.03247895 0.21140100 -0.08932707
v 0.04800488 0.15854074 -0.07384047
v 0.01378013 0.19500751 -0.11611137
v 0.01658203 0.19128765 -0.11575923
v 0.00884511 0.19729282 -0.11405156
v 0.00556781 0.18683488 -0.12450836
v 0.00169052 0.18930138 -0.12146816
v 0.00810530 0.18318040 -0.12470732
v -0.00818966 0.18056322 -0.12528083
v -0.00467954 0.17784489 -0.12929819
v -0.06160949 0.13812644 -0.12758479
v -0.07810734 0.12502284 -0.11959991
v -0.06127403 0.13542481 -0.13019381
v -0.08612500 0.11736132 -0.10907731
v -0.07918559 0.12080617 -0.12275825
v -0.00195382 0.17492439 -0.12944219
v -0.05971788 0.12979777 -0.12913690
v -0.08831082 0.11252595 -0.11179719
v -0.10031901 0.10115053 -0.08106027
v -0.07843993 0.11732204 -0.12233016
v -0.08841692 0.10829492 -0.11200056
v -0.08308695 0.08297045 -0.10800884
v -0.07157217 0.09021158 -0.11670218
v -0.05410598 0.09839786 -0.12000678
v -0.07789002 0.05737604 -0.10288630
v -0.06858693 0.06257458 -0.10981534
v -0.07302902 0.03475053 -0.09784291
v -0.06469045 0.03762658 -0.10278664
v -0.04904793 0.07000239 -0.11375377
v -0.04439519 0.04219235 -0.10619054
v -0.06714223 -0.00139050 -0.08801601
v -0.06047402 0.00007291 -0.09241757
v -0.05540107 -0.04755985 -0.07832572
v -0.04048131 0.00332583 -0.09805546
v -0.04963503 -0.04649161 -0.08246479
v -0.04417346 -0.08290248 -0.07241390
v -0.03986369 -0.08282893 -0.07633016
v -0.03664289 -0.11828767 -0.07342622
v -0.03559504 -0.04516195 -0.08573303
v -0.05263339 -0.11852442 -0.05533419
v -0.04737352 -0.14639365 -0.06305323
v -0.04236327 -0.16153912 -0.06292770
v -0.03040753 -0.16275119 -0.08309851
v -0.03032265 -0.17127572 -0.06730351
v -0.02973626 -0.17496030 -0.07800851
v -0.03331445 -0.11852990 -0.07730935
v -0.02951465 -0.17621105 -0.06448469
v -0.02446161 -0.17609750 -0.06140599
v -0.02193926 -0.18292283 -0.06692467
v -0.02691935 -0.17691063 -0.07366285
v -0.02596651 -0.18212419 -0.07040999
v -0.01896463 -0.18810170 -0.07235060
v -0.02274321 -0.18141698 -0.07871304
v -0.02196608 -0.18639087 -0.07624266
v -0.01487229 -0.18971853 -0.07553396
v -0.02578376 -0.17911361 -0.08265910
v -0.01683770 -0.18770813 -0.08033440
v -0.02884875 -0.16749345 -0.08427367
v -0.01018439 -0.18714826 -0.08205280
v -0.00925539 -0.18945830 -0.07634399
v -0.01849089 -0.18247204 -0.08184192
v -0.01106070 -0.18227803 -0.08430288
v 0.03227641 -0.18035464 -0.08232687
v 0.03147437 -0.18283891 -0.07639620
v -0.02213154 -0.18081890 -0.08554564
v 0.04213967 -0.17595063 -0.07735190
v 0.03952171 -0.17924844 -0.07281516
v -0.01378105 -0.18134617 -0.08847044
v -0.02447234 -0.16878300 -0.08918033
v -0.01617251 -0.16851805 -0.09066925
v 0.03526022 -0.17208193 -0.08737335
v 0.03331985 -0.17417942 -0.08340631
v 0.03584220 -0.15953069 -0.09031556
v 0.04197266 -0.16832678 -0.08431611
v 0.04039397 -0.17062263 -0.07922790
v 0.04485549 -0.17145513 -0.07289813
v 0.04147329 -0.17516922 -0.06906388
v 0.04268267 -0.15954809 -0.05523226
v 0.04332902 -0.16622369 -0.07536755
v 0.04877569 -0.15542536 -0.05797551
v 0.05258216 -0.14434092 -0.03957055
v 0.04454567 -0.14987742 -0.04011056
v 0.04518582 -0.14656256 -0.02661965
v 0.04939784 -0.14645689 -0.05918882
v 0.04651536 -0.16344069 -0.08043931
v 0.05326452 -0.14201395 -0.02602098
v 0.04494979 -0.14593517 -0.01356051
v 0.04296316 -0.15487819 -0.08738706
v 0.05334617 -0.14229225 -0.01185963
v 0.04377927 -0.15072845 0.00143828
v 0.05558516 -0.13402562 -0.02625499
v 0.05419959 -0.13706892 -0.04268274
v 0.05284347 -0.14817469 0.00417593
v 0.04293718 -0.16077809 0.01274791
v 0.05601396 -0.13468634 -0.01045380
v 0.05120506 -0.15883677 0.01578846
v 0.05382099 -0.14163678 0.00708320
v 0.06054189 -0.13140999 -0.02607522
v 0.06124594 -0.13236873 -0.00807450
v 0.05188467 -0.15375398 0.02012589
v 0.05961980 -0.13931744 0.00975075
v 0.05021097 -0.18067555 0.02884963
v 0.04479434 -0.18097811 0.02375999
v 0.04423847 -0.20762442 0.02647462
v 0.04980029 -0.17882018 0.03340569
v 0.05608680 -0.15104466 0.02359357
v 0.04918815 -0.20873796 0.03226056
v 0.04761841 -0.20814042 0.03621748
v 0.05281832 -0.17769794 0.03836765
v 0.04696943 -0.23452060 0.02795198
v 0.04307367 -0.23418580 0.02316644
v 0.04061951 -0.24049352 0.02394047
v 0.04608991 -0.23140465 0.03298655
v 0.04374291 -0.24245306 0.02966657
v 0.04317345 -0.23773064 0.03339531
v 0.04720308 -0.23087179 0.03709760
v 0.03917660 -0.24726568 0.03140821
v 0.03682567 -0.24368139 0.02474155
v 0.03952422 -0.24308016 0.03446617
v 0.04511358 -0.23752363 0.03860631
v 0.02996709 -0.24976023 0.03169837
v 0.03056850 -0.24607079 0.02534249
v 0.01551511 -0.24846529 0.02540114
v 0.03033223 -0.24584748 0.03521421
v 0.01480772 -0.25124349 0.03155687
v 0.00283887 -0.24715506 0.02409592
v 0.01473810 -0.24760329 0.03502216
v 0.00140383 -0.24939220 0.03035738
v 0.00289597 -0.24577768 0.03383007
v -0.00199829 -0.24335034 0.03395870
v 0.01368906 -0.24856092 0.03995886
v -0.00279389 -0.24283619 0.03876474
v 0.00218632 -0.24620007 0.03874447
v -0.00236474 -0.23843874 0.04876497
v 0.00294711 -0.24151318 0.04911234
v 0.00456478 -0.23919119 0.05375221
v 0.01367320 -0.24400224 0.04958358
v 0.00522985 -0.23818003 0.05836918
v 0.01125004 -0.24139555 0.05551007
v 0.00568809 -0.23747473 0.06210222
v 0.01078059 -0.24104710 0.05914691
v 0.00766601 -0.23526864 0.06711819
v 0.00969829 -0.23923131 0.06248786
v 0.00882222 -0.23271697 0.06974747
v 0.03346171 -0.23335360 0.06801691
v 0.03230812 -0.23771246 0.06308248
v 0.01937487 -0.21542196 0.07395902
v 0.03311946 -0.23091267 0.06928077
v 0.03183224 -0.21430706 0.07295408
v 0.02931334 -0.16993527 0.07877996
v 0.03538110 -0.21443694 0.07161262
v 0.03601446 -0.16901206 0.07604709
v 0.04250516 -0.17115377 0.06882253
v 0.03607990 -0.23153143 0.06827965
v 0.04162719 -0.21353917 0.06606665
v 0.04530670 -0.17142241 0.06355395
v 0.03635146 -0.23579939 0.06261101
v 0.04697742 -0.14186226 0.05957308
v 0.04337491 -0.21217291 0.06212094
v 0.05279590 -0.11169575 0.05280497
v 0.04744365 -0.17170714 0.05961432
v 0.04848816 -0.14192622 0.05740228
v 0.05462636 -0.11263614 0.04803517
v 0.05168952 -0.13633029 0.04226639
v 0.05513324 -0.11019372 0.03580787
v 0.06391503 -0.06825506 0.02190890
v 0.05867686 -0.10342483 0.01579824
v 0.06584849 -0.06874352 0.00812628
v 0.05814244 -0.11711459 0.01617959
v 0.06392040 -0.09861379 -0.00084815
v 0.06378450 -0.11218487 -0.00320516
v 0.08180215 -0.02930598 -0.01146779
v 0.07220818 -0.06976550 -0.01730452
v 0.08054938 0.01468761 -0.02953885
v 0.07657482 -0.03044550 -0.03147695
v 0.06745722 0.01564277 -0.05665002
v 0.06591119 -0.09557210 -0.02186522
v 0.07045438 -0.06927656 -0.03458354
v 0.06388952 -0.03233968 -0.05376289
v 0.06456758 -0.09844242 -0.03883169
v 0.06006708 -0.06935589 -0.05155144
v 0.06474497 -0.11169897 -0.02720926
v 0.06385352 -0.12130361 -0.00578902
v 0.06259145 -0.11594431 -0.04470978
v 0.06083681 -0.12854342 0.01339891
v 0.06416323 -0.11851727 -0.02803538
v 0.05705048 -0.14416050 0.03121307
v 0.05355980 -0.17427384 0.04506209
v 0.04912187 -0.20874261 0.04804637
v 0.04531993 -0.21196889 0.05854180
v 0.04921986 -0.20879160 0.03983619
v 0.04707207 -0.22842609 0.04645076
v 0.04472782 -0.23501490 0.04797509
v 0.04449953 -0.22971408 0.05522850
v 0.04166808 -0.23004388 0.05906167
v 0.04148855 -0.24213685 0.04051437
v 0.03996732 -0.23053514 0.06263127
v 0.03912379 -0.23273950 0.06216671
v 0.04103269 -0.23283486 0.05832615
v 0.03737797 -0.23612623 0.05897059
v 0.04333975 -0.23424821 0.05436089
v 0.03890373 -0.23710443 0.05515959
v 0.04051341 -0.23947801 0.05003192
v 0.03240432 -0.23894112 0.05969121
v 0.03223469 -0.23964747 0.05617919
v 0.03068914 -0.24276938 0.04947832
v 0.03029062 -0.24724226 0.04082885
v -0.02569054 -0.16138463 -0.08840225
v -0.01746331 -0.16104709 -0.08958981
v -0.02504883 -0.11751347 -0.07974205
v 0.03516628 -0.15100281 -0.08902500
v -0.02992354 -0.08164375 -0.07897875
v 0.03101982 -0.10951196 -0.07927201
v 0.04126503 -0.14809631 -0.08689508
v 0.02882232 -0.07223754 -0.07857678
v 0.04711069 -0.14939140 -0.08245955
v 0.03717162 -0.10798543 -0.07750831
v 0.04676928 -0.14324956 -0.08211145
v 0.05419983 -0.14244388 -0.06112180
v 0.05728855 -0.12932764 -0.06163583
v 0.05865242 -0.13474427 -0.04545174
v 0.06204738 -0.12320636 -0.04532549
v 0.05725719 -0.12210851 -0.06159029
v 0.05842246 -0.10037457 -0.05511889
v 0.04769267 -0.10462009 -0.07048998
v 0.04708340 -0.07039695 -0.06801448
v 0.03588166 -0.07121204 -0.07603273
v 0.04889228 -0.03329693 -0.07142923
v 0.03771045 -0.03369694 -0.08045635
v 0.03055157 -0.03451549 -0.08392081
v 0.03127291 0.01265724 -0.09131286
v 0.03929247 0.01331575 -0.08736703
v 0.02939584 0.05865063 -0.09799359
v 0.05084791 0.01454438 -0.07796273
v 0.03818097 0.05957635 -0.09241316
v 0.02491810 0.09552575 -0.10393784
v 0.06662597 0.05965389 -0.05792425
v 0.01617672 0.13277752 -0.11353407
v 0.06048669 0.10342241 -0.06246910
v 0.04926957 0.06010033 -0.08294830
v 0.03495814 0.14486117 -0.09960124
v 0.04437246 0.10168124 -0.08855710
v 0.03418972 0.09808321 -0.09898338
v 0.02565708 0.13791378 -0.10880766
v -0.03575311 -0.15628223 -0.01973352
v -0.03436146 -0.15869676 -0.00427530
v -0.03427134 -0.15853601 -0.03682885
v -0.02996884 -0.16443865 -0.04981265
v -0.03114448 -0.16392516 0.00826838
v -0.02735065 -0.17196428 0.01742997
v -0.01841269 -0.19346284 0.02875569
v -0.01341520 -0.21617644 0.03077092
v -0.00755308 -0.23891942 0.02562478
v -0.00295315 -0.24415837 0.02444127
v -0.02446161 -0.17609750 -0.06140599
v -0.02193926 -0.18292283 -0.06692467
v -0.01896463 -0.18810170 -0.07235060
v -0.01487229 -0.18971853 -0.07553396
v -0.00925539 -0.18945830 -0.07634399
v 0.03147437 -0.18283891 -0.07639620
v 0.03952171 -0.17924844 -0.07281516
v 0.04147329 -0.17516922 -0.06906388
v 0.04268267 -0.15954809 -0.05523226
v 0.04454567 -0.14987742 -0.04011056
v 0.04518582 -0.14656256 -0.02661965
v 0.04494979 -0.14593517 -0.01356051
v 0.04377927 -0.15072845 0.00143828
v 0.04293718 -0.16077809 0.01274791
v 0.04479434 -0.18097811 0.02375999
v 0.04423847 -0.20762442 0.02647462
v 0.04307367 -0.23418580 0.02316644
v 0.04061951 -0.24049352 0.02394047
v 0.03682567 -0.24368139 0.02474155
v 0.03056850 -0.24607079 0.02534249
v 0.01551511 -0.24846529 0.02540114
v 0.00283887 -0.24715506 0.02409592
v -0.00194226 -0.21375846 0.03482487
v 0.01597478 -0.21259986 0.03819993
v -0.00341497 -0.18821703 0.03963282
v -0.00785993 -0.15820794 0.04346623
v 0.01511802 -0.18517624 0.04422047
v 0.03072204 -0.21035509 0.03669300
v 0.03104057 -0.18450819 0.04107382
v 0.03014745 -0.15549885 0.04245272
v 0.01208069 -0.15631961 0.04625728
v 0.04238679 -0.14541565 0.02443197
v 0.00312950 -0.14277898 -0.01263747
v 0.04461731 -0.13248109 0.01125553
v 0.04497470 -0.12827133 -0.00402639
v 0.04380967 -0.12721919 -0.03250668
v 0.03954138 -0.13300072 -0.05335698
v 0.03074862 -0.15702497 -0.06614540
v 0.02959527 -0.13341599 -0.06445847
v 0.03063907 -0.17413907 -0.07129357
v -0.02000449 -0.14329033 -0.06427512
v -0.01444195 -0.16642957 -0.06649683
v -0.01058231 -0.17998182 -0.07073722
v -0.03051828 -0.14577280 -0.05880914
v -0.03398178 -0.14228212 -0.05014787
v -0.03934513 -0.13624625 -0.02751229
v -0.03732966 -0.13951491 0.00314405
v -0.03006778 -0.14848797 0.02531519
vt 0.11048377 0.03149921
vt 0.03218883 0.31667787
vt 0.11120701 0.02168137
vt 0.11587083 0.02191991
vt 0.03668982 0.31792206
vt 0.11562490 0.03228366
vt 0.11266500 0.04375976
vt 0.10819608 0.04196322
vt 0.12128884 0.03293389
vt 0.04221421 0.32086432
vt 0.12198943 0.02176094
vt 0.04507726 0.32358444
vt 0.12570691 0.02275133
vt 0.10856372 0.05260348
vt 0.10390401 0.05000383
vt 0.11743432 0.04613537
vt 0.12563431 0.03408831
vt 0.05303675 0.32826519
vt 0.13457215 0.02230680
vt 0.11144513 0.05500263
vt 0.13561279 0.03595185
vt 0.12092453 0.04899418
vt 0.13094085 0.04999727
vt 0.14696234 0.03459507
vt 0.14592093 0.02029049
vt 0.06413430 0.33367562
vt 0.14577657 0.04709429
vt 0.16670626 0.03217548
vt 0.08188099 0.34583318
vt 0.16560572 0.01782602
vt 0.16565853 0.04307657
vt 0.19036025 0.02835792
vt 0.18992168 0.01345164
vt 0.10433406 0.35965908
vt 0.16400129 0.05751640
vt 0.21764046 0.02525961
vt 0.21689326 0.00936228
vt 0.12925965 0.37366962
vt 0.18993252 0.04216862
vt 0.23720998 0.02467591
vt 0.14902347 0.38285530
vt 0.23795003 0.00738311
vt 0.21775144 0.04225248
vt 0.24968523 0.02326542
vt 0.25024217 0.00663978
vt 0.16075462 0.38691855
vt 0.23776680 0.04326230
vt 0.18762702 0.05819458
vt 0.26215035 0.02220970
vt 0.26273269 0.00539535
vt 0.17317540 0.38948190
vt 0.24993616 0.04449362
vt 0.21723110 0.06205136
vt 0.27587086 0.02137822
vt 0.18724900 0.39089131
vt 0.27631611 0.00361329
vt 0.26259607 0.04573101
vt 0.23840827 0.06296819
vt 0.25127465 0.06365114
vt 0.27884287 0.04638535
vt 0.27832723 0.02113575
vt 0.19038427 0.39177513
vt 0.27945739 0.00392193
vt 0.28335947 0.00420004
vt 0.19427723 0.39275384
vt 0.26649791 0.06548566
vt 0.28314775 0.02127868
vt 0.20061904 0.39443576
vt 0.28982228 0.00430763
vt 0.28177065 0.04652762
vt 0.28320509 0.06799591
vt 0.28899020 0.02213353
vt 0.29429251 0.00477535
vt 0.20398098 0.39750826
vt 0.28549248 0.04657680
vt 0.29388422 0.02221721
vt 0.20921045 0.40075052
vt 0.30035967 0.00568342
vt 0.30069202 0.02270037
vt 0.30204099 0.04446435
vt 0.29100519 0.04567051
vt 0.29483288 0.04544729
vt 0.30489427 0.06239051
vt 0.29819792 0.06579012
vt 0.30966651 0.07638550
vt 0.29572707 0.06614244
vt 0.30246896 0.08186036
vt 0.31860977 0.09548843
vt 0.29000932 0.06774014
vt 0.31060332 0.09971219
vt 0.29950112 0.08539706
vt 0.32941204 0.13791048
vt 0.33585614 0.13538217
vt 0.34042662 0.15059531
vt 0.30694073 0.10326236
vt 0.33331734 0.15409005
vt 0.34224993 0.17460382
vt 0.32453018 0.14079928
vt 0.33687729 0.17737579
vt 0.34019595 0.20225740
vt 0.32930273 0.15631282
vt 0.33523506 0.20294523
vt 0.33073396 0.17918003
vt 0.33550256 0.22321498
vt 0.34047288 0.22189617
vt 0.33877260 0.24034703
vt 0.32752508 0.18055236
vt 0.33172351 0.20435256
vt 0.33405703 0.24093509
vt 0.33161962 0.22531867
vt 0.32818788 0.20507419
vt 0.33190077 0.25725317
vt 0.33536535 0.25851953
vt 0.33037144 0.24043274
vt 0.32918686 0.26724160
vt 0.33180076 0.26887035
vt 0.32758063 0.28232455
vt 0.32825375 0.25599635
vt 0.32608718 0.26583123
vt 0.32416827 0.28178442
vt 0.32145077 0.29846179
vt 0.32142806 0.28027523
vt 0.32482606 0.25495446
vt 0.32755095 0.24036539
vt 0.32230478 0.26512444
vt 0.28519827 0.23832679
vt 0.28254110 0.24728692
vt 0.32797760 0.23187041
vt 0.28619271 0.23567152
vt 0.32806665 0.22543073
vt 0.28867513 0.22720361
vt 0.28897268 0.22041321
vt 0.24811453 0.22077823
vt 0.24632078 0.22950756
vt 0.24617797 0.23170614
vt 0.21358603 0.22168040
vt 0.24378842 0.23902202
vt 0.21311432 0.22434092
vt 0.27974266 0.25733793
vt 0.21040016 0.23304439
vt 0.31723422 0.27946901
vt 0.24058062 0.25034940
vt 0.27538198 0.26975000
vt 0.31049520 0.29516041
vt 0.31501782 0.29690760
vt 0.27015179 0.28610754
vt 0.31820553 0.29823172
vt 0.29911190 0.31229103
vt 0.30577809 0.31601453
vt 0.30821830 0.31721509
vt 0.31125194 0.31775630
vt 0.31326610 0.31874466
vt 0.29664260 0.33647394
vt 0.29902679 0.32434571
vt 0.29174727 0.33340442
vt 0.30225658 0.31440800
vt 0.29751080 0.32305229
vt 0.29433167 0.32123768
vt 0.28875405 0.33169830
vt 0.28049082 0.34587562
vt 0.27926248 0.35122311
vt 0.27697772 0.33876502
vt 0.26464313 0.35227370
vt 0.26477653 0.35805488
vt 0.27886349 0.34145439
vt 0.24691433 0.35837543
vt 0.24914485 0.36416936
vt 0.23718816 0.36862183
vt 0.26276344 0.34957171
vt 0.23143655 0.36416805
vt 0.22430569 0.37533867
vt 0.24552506 0.35709906
vt 0.26034647 0.34545958
vt 0.24215621 0.35271740
vt 0.22928041 0.36291099
vt 0.22084671 0.37297654
vt 0.21374255 0.38241911
vt 0.21928221 0.38443196
vt 0.21790010 0.37139416
vt 0.20875305 0.38093471
vt 0.20236057 0.37840199
vt 0.21243542 0.36756647
vt 0.22508496 0.35922504
vt 0.20904464 0.36582309
vt 0.22191709 0.35727292
vt 0.24031115 0.35002953
vt 0.19856972 0.37663174
vt 0.21867841 0.35424602
vt 0.19578046 0.37508619
vt 0.20679957 0.36402821
vt 0.18372017 0.37195265
vt 0.19824833 0.35849261
vt 0.21195477 0.34659827
vt 0.23796958 0.34710836
vt 0.16935700 0.36944330
vt 0.18160003 0.35433853
vt 0.19096237 0.34190011
vt 0.16563338 0.34928644
vt 0.15486079 0.36644876
vt 0.17273468 0.33675218
vt 0.13334328 0.36523938
vt 0.14480549 0.34282541
vt 0.10924703 0.35125971
vt 0.13640362 0.35886610
vt 0.11393863 0.34454417
vt 0.08733815 0.33556640
vt 0.09197825 0.32845926
vt 0.07022208 0.32108235
vt 0.12048084 0.33248127
vt 0.09800917 0.31607544
vt 0.12727863 0.31749404
vt 0.15175086 0.32888853
vt 0.07534963 0.31030250
vt 0.15653020 0.31949866
vt 0.05786145 0.31443888
vt 0.17865354 0.32617545
vt 0.13114590 0.30902803
vt 0.15998667 0.30999064
vt 0.19971865 0.33136606
vt 0.18448955 0.31574619
vt 0.22619778 0.33516371
vt 0.21077198 0.32098758
vt 0.25584859 0.34031403
vt 0.24588984 0.32648122
vt 0.25803220 0.34347022
vt 0.27095109 0.33297300
vt 0.27378052 0.33553833
vt 0.28151685 0.32732367
vt 0.28500861 0.32933855
vt 0.29132730 0.31962371
vt 0.25265783 0.31643081
vt 0.26089865 0.30408061
vt 0.21718413 0.31009865
vt 0.22437948 0.29561758
vt 0.23204309 0.27814937
vt 0.19020194 0.30308676
vt 0.19652480 0.28802943
vt 0.20133001 0.27085650
vt 0.23704797 0.26236892
vt 0.20471603 0.25458670
vt 0.20762128 0.24372077
vt 0.17485100 0.26228201
vt 0.18125421 0.23731518
vt 0.16974038 0.27863693
vt 0.17831534 0.24691868
vt 0.14738816 0.25309586
vt 0.16478473 0.29500091
vt 0.14325780 0.26802802
vt 0.13462859 0.29933143
vt 0.13868397 0.28367019
vt 0.10727829 0.29466677
vt 0.11010748 0.28692794
vt 0.11499900 0.27220190
vt 0.10368985 0.30333602
vt 0.08728307 0.28117693
vt 0.08040112 0.30077851
vt 0.08479661 0.28967202
vt 0.06676608 0.28970003
vt 0.06953830 0.28557146
vt 0.07211679 0.27921176
vt 0.08986682 0.27465355
vt 0.07470018 0.27344883
vt 0.05684930 0.26864016
vt 0.05501384 0.27159119
vt 0.05666906 0.29458260
vt 0.04980642 0.27623594
vt 0.04720938 0.29673725
vt 0.04852563 0.31274957
vt 0.04496127 0.31166410
vt 0.04379672 0.29813266
vt 0.03894663 0.30887979
vt 0.03391582 0.30843437
vt 0.03421795 0.30121416
vt 0.03841382 0.29936326
vt 0.03728455 0.28233051
vt 0.03169495 0.28367674
vt 0.02764350 0.28661031
vt 0.01738280 0.27423656
vt 0.04082376 0.28070748
vt 0.02084982 0.27153778
vt 0.00588113 0.26009560
vt 0.02440458 0.26996791
vt 0.00851035 0.25784087
vt 0.00325113 0.25442791
vt 0.01200563 0.25739229
vt 0.02575624 0.26685786
vt 0.00700289 0.25339437
vt 0.03203744 0.26194316
vt 0.01518619 0.25732380
vt 0.02135932 0.25413621
vt 0.03562802 0.25811732
vt 0.02571553 0.25195849
vt 0.03680652 0.25576532
vt 0.02777868 0.25093543
vt 0.03813106 0.25336337
vt 0.02995044 0.24922520
vt 0.06054920 0.26405179
vt 0.07613927 0.26793778
vt 0.06256038 0.25952542
vt 0.09372145 0.26213443
vt 0.07966059 0.25668204
vt 0.09721869 0.24885225
vt 0.03954870 0.25039923
vt 0.06540471 0.25098038
vt 0.08252257 0.24472791
vt 0.11993700 0.25715363
vt 0.08404928 0.23975539
vt 0.12418944 0.24578571
vt 0.09946674 0.24194968
vt 0.13067561 0.23057258
vt 0.10486645 0.22952580
vt 0.08542961 0.23129487
vt 0.15146691 0.23699200
vt 0.15437955 0.23012781
vt 0.13577181 0.22169936
vt 0.15695769 0.22350371
vt 0.18402976 0.22786689
vt 0.13574547 0.21689856
vt 0.18690544 0.21968174
vt 0.15815896 0.21575248
vt 0.18716604 0.21752870
vt 0.15899104 0.21354771
vt 0.13569111 0.21338868
vt 0.18787914 0.20873952
vt 0.21529835 0.21381319
vt 0.16003424 0.20258260
vt 0.24729663 0.21185458
vt 0.19142097 0.19811273
vt 0.29004759 0.20352161
vt 0.21693450 0.20511293
vt 0.22069782 0.19134235
vt 0.25009245 0.19843686
vt 0.32478696 0.18155968
vt 0.28927416 0.18376100
vt 0.32032734 0.15992999
vt 0.31763393 0.16074824
vt 0.32369727 0.15854347
vt 0.31759042 0.15233094
vt 0.32072693 0.15147388
vt 0.31508070 0.15281475
vt 0.31865269 0.14356327
vt 0.31501973 0.14465833
vt 0.30211800 0.10658473
vt 0.29658204 0.09527940
vt 0.29972482 0.10708201
vt 0.29455394 0.08703899
vt 0.29333758 0.09555399
vt 0.31275517 0.14545143
vt 0.29603237 0.10727578
vt 0.29067391 0.08734047
vt 0.28647345 0.06799459
vt 0.29122156 0.09543478
vt 0.28801542 0.08699113
vt 0.27190059 0.08501858
vt 0.27424639 0.09396631
vt 0.27583247 0.10511547
vt 0.25549334 0.08303481
vt 0.25713998 0.09024996
vt 0.24075133 0.08152944
vt 0.24110502 0.08752555
vt 0.25784534 0.10266197
vt 0.23986071 0.10007387
vt 0.21730083 0.07762015
vt 0.21707970 0.08258224
vt 0.18638724 0.07588238
vt 0.21532184 0.09535879
vt 0.18598169 0.08046949
vt 0.16224450 0.07577497
vt 0.16143769 0.07967585
vt 0.13915795 0.07529938
vt 0.18383604 0.08964211
vt 0.14241403 0.05935353
vt 0.12421703 0.06118107
vt 0.11403847 0.06021005
vt 0.11077791 0.07400531
vt 0.10423607 0.06352192
vt 0.10328221 0.07028633
vt 0.13817924 0.07859790
vt 0.10073406 0.06207550
vt 0.09741992 0.05933350
vt 0.09391207 0.06479168
vt 0.10062176 0.06822181
vt 0.09689766 0.06688428
vt 0.09106362 0.07041502
vt 0.09744257 0.07262868
vt 0.09414077 0.07175285
vt 0.08932149 0.07460439
vt 0.10056549 0.07378954
vt 0.09255832 0.07590270
vt 0.10776728 0.07440013
vt 0.09120572 0.08029431
vt 0.08722663 0.07874483
vt 0.09602743 0.07629746
vt 0.09434146 0.08142978
vt 0.08635497 0.10903537
vt 0.08205032 0.10851252
vt 0.09911788 0.07625854
vt 0.08623809 0.11715168
vt 0.08230984 0.11645395
vt 0.09725666 0.08111393
vt 0.10629970 0.07795769
vt 0.10496932 0.08265996
vt 0.09266239 0.11192966
vt 0.08995348 0.11080796
vt 0.10013467 0.11428940
vt 0.09317964 0.11695659
vt 0.08979827 0.11752862
vt 0.08687186 0.12182492
vt 0.08275944 0.12170625
vt 0.08618063 0.13696909
vt 0.09066755 0.12240058
vt 0.09173334 0.13695657
vt 0.09404528 0.15269136
vt 0.08739161 0.15026522
vt 0.08635324 0.16074443
vt 0.09744984 0.13896096
vt 0.09447587 0.12139326
vt 0.09259593 0.16288090
vt 0.08267128 0.16959012
vt 0.10119098 0.11943674
vt 0.08963972 0.17314601
vt 0.07694495 0.17920870
vt 0.09786516 0.16418552
vt 0.09942454 0.15234935
vt 0.08354247 0.18439806
vt 0.07084298 0.18742609
vt 0.09468073 0.17511749
vt 0.07529718 0.19261169
vt 0.08757919 0.18670797
vt 0.10151070 0.16527116
vt 0.09796077 0.17787212
vt 0.07880467 0.19559753
vt 0.09099889 0.19000053
vt 0.05982459 0.20239758
vt 0.05823773 0.19759077
vt 0.03837669 0.20315963
vt 0.06151849 0.20521343
vt 0.08167833 0.19924140
vt 0.03997236 0.20810008
vt 0.04141706 0.21041691
vt 0.06310487 0.20901114
vt 0.02101236 0.21482056
vt 0.01841146 0.21179688
vt 0.01377034 0.21647394
vt 0.02488988 0.21620488
vt 0.01677382 0.21941644
vt 0.02083701 0.21956265
vt 0.02684921 0.21783662
vt 0.01451373 0.22335708
vt 0.01046169 0.22036600
vt 0.01782292 0.22357106
vt 0.02358931 0.22122538
vt 0.01116818 0.22905302
vt 0.00726670 0.22589636
vt 0.00345719 0.23826647
vt 0.01435441 0.22973418
vt 0.00774777 0.23957097
vt 0.00217301 0.24878573
vt 0.01078600 0.24028599
vt 0.00663197 0.24919742
vt 0.00980681 0.24895108
vt 0.01027936 0.25308180
vt 0.01347858 0.24153471
vt 0.01317716 0.25327653
vt 0.01256990 0.24931175
vt 0.01956063 0.25347078
vt 0.01899892 0.24970108
vt 0.02193039 0.24922371
vt 0.01936847 0.24276984
vt 0.02445012 0.24881291
vt 0.02258843 0.24480653
vt 0.02648121 0.24841404
vt 0.02451104 0.24527961
vt 0.02938634 0.24760765
vt 0.02641994 0.24609947
vt 0.03142601 0.24738640
vt 0.03336161 0.23485220
vt 0.02989679 0.23450816
vt 0.04184598 0.24376333
vt 0.03474897 0.23530018
vt 0.04349524 0.23655343
vt 0.06771111 0.24180996
vt 0.04348809 0.23429251
vt 0.06873560 0.23716736
vt 0.06793374 0.23047948
vt 0.03441018 0.23371828
vt 0.04352230 0.22936225
vt 0.06785709 0.22656703
vt 0.03109568 0.23240101
vt 0.08600217 0.22628379
vt 0.04386002 0.22674632
vt 0.10529763 0.22417355
vt 0.06768090 0.22362435
vt 0.08615643 0.22443271
vt 0.10523087 0.22042584
vt 0.09046477 0.21407413
vt 0.10749108 0.21191740
vt 0.13480717 0.20509338
vt 0.11346501 0.19826078
vt 0.13629645 0.19609535
vt 0.10480601 0.19715929
vt 0.11888033 0.18685865
vt 0.11055797 0.18366575
vt 0.16473371 0.18876767
vt 0.14023048 0.17927659
vt 0.19398671 0.18477893
vt 0.16692859 0.17615199
vt 0.19942313 0.16799271
vt 0.12429100 0.17295384
vt 0.14339441 0.16815185
vt 0.16988105 0.16042411
vt 0.12562150 0.16110373
vt 0.14661199 0.15520072
vt 0.11488837 0.16732073
vt 0.10509294 0.18080938
vt 0.11548680 0.15495610
vt 0.09776884 0.19356668
vt 0.11061031 0.16587961
vt 0.08597499 0.20492303
vt 0.06578058 0.21324742
vt 0.04379112 0.21748459
vt 0.04351801 0.22432041
vt 0.04202867 0.21281910
vt 0.03135473 0.22121274
vt 0.02803272 0.22426224
vt 0.03278214 0.22593057
vt 0.03348333 0.22825575
vt 0.02145034 0.22456098
vt 0.03398460 0.23024213
vt 0.03269273 0.23072219
vt 0.03176039 0.22879517
vt 0.02984255 0.23099589
vt 0.03014725 0.22692108
vt 0.02839249 0.22945762
vt 0.02597076 0.22756326
vt 0.02814966 0.23383582
vt 0.02638322 0.23325002
vt 0.02238494 0.23283374
vt 0.01719695 0.23131108
vt 0.11053830 0.07829267
vt 0.10945219 0.08318788
vt 0.13735193 0.08441269
vt 0.10510343 0.11578602
vt 0.16016096 0.08664984
vt 0.13019448 0.12248123
vt 0.10530907 0.12012446
vt 0.15345126 0.12704492
vt 0.10299534 0.12418395
vt 0.12956232 0.12698948
vt 0.10667282 0.12524092
vt 0.10187691 0.13917732
vt 0.11037952 0.14155042
vt 0.10319263 0.15136951
vt 0.11095887 0.15354359
vt 0.11493951 0.14249384
vt 0.12760192 0.14912438
vt 0.12870592 0.13597345
vt 0.15006477 0.14135265
vt 0.15247744 0.13216305
vt 0.17356271 0.14626849
vt 0.17616934 0.13748205
vt 0.17723483 0.13250148
vt 0.20701307 0.13883054
vt 0.20574778 0.14401472
vt 0.23588127 0.14492261
vt 0.20369118 0.15264082
vt 0.23444742 0.15081215
vt 0.25918633 0.14871156
vt 0.22624797 0.17537069
vt 0.28359586 0.14977622
vt 0.25360078 0.18058169
vt 0.23198599 0.15887165
vt 0.28612346 0.16512871
vt 0.25809509 0.16361356
vt 0.25874585 0.15495849
vt 0.28456241 0.15656626
vt 0.07809450 0.13971847
vt 0.07774066 0.12623537
vt 0.07501867 0.15548611
vt 0.06882592 0.16864580
vt 0.07605912 0.11318135
vt 0.07226609 0.10145116
vt 0.06459206 0.08297420
vt 0.06027615 0.06640470
vt 0.05729527 0.05124617
vt 0.05466843 0.04790485
vt 0.06223140 0.18013185
vt 0.05959733 0.18643403
vt 0.05721790 0.19134557
vt 0.05465107 0.19302380
vt 0.05133123 0.19301921
vt 0.02422789 0.19200355
vt 0.01878261 0.18980896
vt 0.01697248 0.18670809
vt 0.01200013 0.17213386
vt 0.00577844 0.15714020
vt 0.00364571 0.14484537
vt 0.00348216 0.13267934
vt 0.00543304 0.11745232
vt 0.00946200 0.10389757
vt 0.01429379 0.08590537
vt 0.02081524 0.06757069
vt 0.02447356 0.05095810
vt 0.02698529 0.04763973
vt 0.02966405 0.04627311
vt 0.03372449 0.04531395
vt 0.04338912 0.04474473
vt 0.05122824 0.04602164
vt 0.05294311 0.06784010
vt 0.04086984 0.06775475
vt 0.05237184 0.08369511
vt 0.05125211 0.10102302
vt 0.03971989 0.08385724
vt 0.03095301 0.06800330
vt 0.02904820 0.08386862
vt 0.02879809 0.10011184
vt 0.03957497 0.09963107
vt 0.01873253 0.10981357
vt 0.04109343 0.13352013
vt 0.01506906 0.12005997
vt 0.01365529 0.12880832
vt 0.01419411 0.14521646
vt 0.01796066 0.15712625
vt 0.02262399 0.17530417
vt 0.02447017 0.16212153
vt 0.02379861 0.18617248
vt 0.05346866 0.16431344
vt 0.05340231 0.17790967
vt 0.05192611 0.18677867
vt 0.06012586 0.16199547
vt 0.06279586 0.15695584
vt 0.06676657 0.14389622
vt 0.06708803 0.12644327
vt 0.06333366 0.11306721
f 354/354 353/353 355/355
f 365/365 364/364 367/367
f 383/383 379/379 382/382
f 384/384 381/381 383/383
f 383/383 382/382 385/385
f 385/385 382/382 377/377
f 71/71 353/353 354/354
f 71/71 354/354 66/66
f 352/352 355/355 353/353
f 362/362 366/366 360/360
f 349/349 356/356 352/352
f 355/355 352/352 356/356
f 66/66 354/354 357/357
f 66/66 357/357 59/59
f 355/355 358/358 354/354
f 357/357 354/354 358/358
f 59/59 357/357 359/359
f 363/363 58/58 359/359
f 23/23 373/373 22/22
f 374/374 22/22 373/373
f 394/394 389/389 393/393
f 395/395 392/392 391/391
f 394/394 395/395 391/391
f 392/392 395/395 396/396
f 358/358 362/362 360/360
f 362/362 358/358 361/361
f 59/59 359/359 58/58
f 58/58 363/363 53/53
f 360/360 364/364 359/359
f 359/359 364/364 363/363
f 363/363 365/365 53/53
f 364/364 365/365 363/363
f 365/365 48/48 53/53
f 360/360 366/366 364/364
f 342/342 338/338 340/340
f 365/365 368/368 48/48
f 367/367 368/368 365/365
f 368/368 35/35 48/48
f 101/101 339/339 98/98
f 338/338 336/336 340/340
f 339/339 341/341 98/98
f 342/342 339/339 338/338
f 339/339 342/342 341/341
f 366/366 367/367 364/364
f 343/343 98/98 341/341
f 342/342 343/343 341/341
f 98/98 343/343 95/95
f 343/343 344/344 95/95
f 91/91 95/95 344/344
f 343/343 342/342 345/345
f 360/360 357/357 358/358
f 345/345 348/348 349/349
f 20/20 22/22 374/374
f 370/370 375/375 373/373
f 373/373 375/375 374/374
f 20/20 374/374 376/376
f 347/347 346/346 344/344
f 348/348 345/345 342/342
f 340/340 348/348 342/342
f 347/347 345/345 349/349
f 373/373 372/372 370/370
f 346/346 347/347 350/350
f 346/346 351/351 89/89
f 351/351 346/346 350/350
f 351/351 75/75 89/89
f 75/75 351/351 70/70
f 71/71 70/70 351/351
f 352/352 350/350 347/347
f 383/383 386/386 384/384
f 397/397 402/402 400/400
f 402/402 397/397 401/401
f 403/403 394/394 400/400
f 402/402 403/403 400/400
f 416/416 424/424 413/413
f 422/422 421/421 425/425
f 426/426 422/422 425/425
f 423/423 427/427 421/421
f 401/401 388/388 390/390
f 385/385 386/386 383/383
f 386/386 387/387 384/384
f 377/377 388/388 385/385
f 387/387 386/386 389/389
f 390/390 388/388 377/377
f 377/377 375/375 390/390
f 391/391 387/387 389/389
f 428/428 437/437 434/434
f 410/410 409/409 408/408
f 408/408 407/407 411/411
f 408/408 412/412 410/410
f 412/412 408/408 411/411
f 413/413 410/410 412/412
f 426/426 434/434 435/435
f 436/436 435/435 434/434
f 437/437 428/428 432/432
f 387/387 391/391 392/392
f 397/397 393/393 385/385
f 397/397 385/385 388/388
f 398/398 396/396 395/395
f 396/396 398/398 399/399
f 400/400 393/393 397/397
f 393/393 400/400 394/394
f 401/401 397/397 388/388
f 35/35 368/368 370/370
f 382/382 379/379 376/376
f 382/382 376/376 377/377
f 381/381 379/379 383/383
f 394/394 404/404 395/395
f 394/394 403/403 404/404
f 404/404 398/398 395/395
f 402/402 405/405 403/403
f 368/368 367/367 369/369
f 379/379 381/381 380/380
f 369/369 370/370 368/368
f 367/367 366/366 371/371
f 371/371 369/369 367/367
f 35/35 370/370 372/372
f 35/35 372/372 27/27
f 372/372 23/23 27/27
f 23/23 372/372 373/373
f 357/357 360/360 359/359
f 15/15 379/379 380/380
f 379/379 15/15 14/14
f 379/379 14/14 376/376
f 370/370 369/369 378/378
f 375/375 370/370 378/378
f 376/376 374/374 377/377
f 377/377 374/374 375/375
f 376/376 14/14 20/20
f 413/413 412/412 416/416
f 411/411 416/416 412/412
f 413/413 415/415 414/414
f 410/410 413/413 414/414
f 389/389 394/394 391/391
f 385/385 393/393 386/386
f 393/393 389/389 386/386
f 293/293 296/296 295/295
f 292/292 288/288 290/290
f 288/288 292/292 291/291
f 293/293 264/264 291/291
f 264/264 293/293 263/263
f 294/294 291/291 292/292
f 291/291 294/294 293/293
f 295/295 263/263 293/293
f 296/296 293/293 294/294
f 266/266 291/291 264/264
f 263/263 295/295 297/297
f 314/314 245/245 313/313
f 314/314 313/313 310/310
f 245/245 314/314 243/243
f 314/314 310/310 315/315
f 281/281 280/280 278/278
f 276/276 282/282 275/275
f 299/299 304/304 301/301
f 261/261 298/298 300/300
f 253/253 261/261 300/300
f 300/300 298/298 301/301
f 298/298 299/299 301/301
f 253/253 300/300 302/302
f 301/301 302/302 300/300
f 181/181 179/179 180/180
f 296/296 303/303 295/295
f 282/282 276/276 280/280
f 299/299 303/303 304/304
f 302/302 301/301 305/305
f 138/138 319/319 321/321
f 321/321 136/136 138/138
f 319/319 320/320 322/322
f 322/322 321/321 319/319
f 291/291 266/266 288/288
f 262/262 263/263 297/297
f 273/273 271/271 272/272
f 270/270 271/271 274/274
f 271/271 273/273 274/274
f 275/275 267/267 270/270
f 275/275 270/270 274/274
f 273/273 276/276 274/274
f 274/274 276/276 275/275
f 276/276 273/273 277/277
f 271/271 2/2 272/272
f 262/262 297/297 298/298
f 261/261 262/262 298/298
f 295/295 299/299 297/297
f 259/259 264/264 263/263
f 213/213 265/265 258/258
f 208/208 265/265 213/213
f 215/215 265/265 208/208
f 288/288 266/266 279/279
f 282/282 279/279 275/275
f 280/280 281/281 283/283
f 284/284 283/283 281/281
f 280/280 285/285 282/282
f 280/280 283/283 285/285
f 279/279 282/282 286/286
f 283/283 284/284 287/287
f 279/279 286/286 288/288
f 298/298 297/297 299/299
f 304/304 305/305 301/301
f 306/306 253/253 302/302
f 248/248 253/253 306/306
f 307/307 302/302 305/305
f 269/269 5/5 271/271
f 271/271 270/270 269/269
f 2/2 271/271 5/5
f 133/133 325/325 327/327
f 350/350 352/352 353/353
f 323/323 320/320 318/318
f 320/320 323/323 322/322
f 324/324 136/136 321/321
f 321/321 322/322 324/324
f 136/136 324/324 325/325
f 133/133 136/136 325/325
f 324/324 322/322 326/326
f 353/353 71/71 351/351
f 132/132 133/133 327/327
f 325/325 324/324 328/328
f 327/327 329/329 132/132
f 111/111 132/132 329/329
f 345/345 344/344 343/343
f 344/344 346/346 91/91
f 346/346 89/89 91/91
f 333/333 335/335 107/107
f 358/358 355/355 361/361
f 356/356 361/361 355/355
f 329/329 327/327 332/332
f 331/331 332/332 327/327
f 111/111 329/329 333/333
f 107/107 111/111 333/333
f 332/332 334/334 329/329
f 333/333 329/329 334/334
f 344/344 345/345 347/347
f 335/335 103/103 107/107
f 333/333 334/334 336/336
f 335/335 333/333 336/336
f 103/103 335/335 337/337
f 101/101 103/103 337/337
f 349/349 352/352 347/347
f 351/351 350/350 353/353
f 312/312 309/309 307/307
f 308/308 248/248 306/306
f 248/248 308/308 246/246
f 309/309 306/306 302/302
f 306/306 309/309 308/308
f 302/302 307/307 309/309
f 310/310 246/246 308/308
f 311/311 308/308 309/309
f 308/308 311/311 310/310
f 337/337 338/338 339/339
f 309/309 312/312 311/311
f 246/246 310/310 313/313
f 245/245 246/246 313/313
f 327/327 325/325 330/330
f 328/328 330/330 325/325
f 327/327 330/330 331/331
f 328/328 331/331 330/330
f 399/399 408/408 409/409
f 101/101 337/337 339/339
f 336/336 338/338 335/335
f 338/338 337/337 335/335
f 316/316 318/318 320/320
f 320/320 319/319 317/317
f 317/317 316/316 320/320
f 140/140 319/319 138/138
f 319/319 140/140 317/317
f 318/318 316/316 315/315
f 317/317 140/140 241/241
f 241/241 243/243 317/317
f 316/316 317/317 243/243
f 315/315 316/316 314/314
f 243/243 314/314 316/316
f 315/315 310/310 311/311
f 506/506 504/504 507/507
f 486/486 489/489 530/530
f 530/530 531/531 527/527
f 526/526 527/527 531/531
f 324/324 504/504 328/328
f 500/500 502/502 505/505
f 504/504 500/500 505/505
f 328/328 504/504 506/506
f 331/331 328/328 506/506
f 527/527 529/529 530/530
f 504/504 505/505 507/507
f 508/508 331/331 506/506
f 506/506 507/507 508/508
f 505/505 502/502 509/509
f 503/503 509/509 502/502
f 507/507 505/505 510/510
f 448/448 440/440 523/523
f 515/515 514/514 503/503
f 471/471 536/536 473/473
f 532/532 536/536 537/537
f 536/536 471/471 537/537
f 537/537 534/534 532/532
f 511/511 510/510 513/513
f 510/510 512/512 513/513
f 509/509 503/503 514/514
f 509/509 514/514 512/512
f 521/521 524/524 523/523
f 501/501 515/515 503/503
f 512/512 514/514 516/516
f 515/515 501/501 517/517
f 496/496 517/517 501/501
f 514/514 515/515 518/518
f 516/516 514/514 518/518
f 517/517 431/431 515/515
f 492/492 318/318 315/315
f 519/519 433/433 517/517
f 477/477 478/478 489/489
f 488/488 490/490 312/312
f 311/311 312/312 490/490
f 491/491 488/488 485/485
f 485/485 487/487 491/491
f 490/490 492/492 311/311
f 315/315 311/311 492/492
f 515/515 430/430 518/518
f 490/490 488/488 493/493
f 491/491 493/493 488/488
f 494/494 492/492 490/490
f 493/493 494/494 490/490
f 505/505 509/509 510/510
f 507/507 510/510 511/511
f 508/508 507/507 511/511
f 498/498 497/497 499/499
f 523/523 524/524 448/448
f 521/521 522/522 524/524
f 494/494 493/493 496/496
f 323/323 495/495 497/497
f 496/496 497/497 495/495
f 497/497 498/498 323/323
f 322/322 323/323 498/498
f 498/498 326/326 322/322
f 440/440 441/441 523/523
f 498/498 500/500 326/326
f 499/499 500/500 498/498
f 499/499 497/497 501/501
f 496/496 501/501 497/497
f 499/499 502/502 500/500
f 433/433 431/431 517/517
f 430/430 515/515 431/431
f 535/535 539/539 528/528
f 182/182 175/175 179/179
f 179/179 181/181 182/182
f 469/469 537/537 471/471
f 538/538 534/534 537/537
f 537/537 469/469 538/538
f 534/534 538/538 535/535
f 538/538 469/469 539/539
f 539/539 535/535 538/538
f 62/62 181/181 65/65
f 539/539 451/451 528/528
f 463/463 539/539 469/469
f 451/451 539/539 456/456
f 459/459 539/539 463/463
f 539/539 459/459 456/456
f 530/530 489/489 532/532
f 531/531 530/530 532/532
f 193/193 190/190 192/192
f 187/187 190/190 184/184
f 189/189 190/190 187/187
f 188/188 184/184 190/190
f 189/189 55/55 191/191
f 51/51 191/191 55/55
f 189/189 192/192 190/190
f 191/191 192/192 189/189
f 190/190 193/193 188/188
f 531/531 533/533 526/526
f 194/194 185/185 188/188
f 194/194 188/188 193/193
f 185/185 194/194 186/186
f 51/51 195/195 191/191
f 195/195 51/51 46/46
f 68/68 181/181 180/180
f 181/181 68/68 65/65
f 520/520 438/438 519/519
f 525/525 528/528 452/452
f 451/451 452/452 528/528
f 487/487 529/529 527/527
f 487/487 486/486 529/529
f 530/530 529/529 486/486
f 517/517 496/496 519/519
f 433/433 519/519 438/438
f 520/520 519/519 496/496
f 527/527 491/491 487/487
f 496/496 493/493 520/520
f 438/438 520/520 441/441
f 521/521 520/520 493/493
f 520/520 521/521 441/441
f 493/493 522/522 521/521
f 493/493 491/491 522/522
f 441/441 521/521 523/523
f 510/510 509/509 512/512
f 527/527 526/526 522/522
f 491/491 527/527 522/522
f 526/526 525/525 524/524
f 522/522 526/526 524/524
f 448/448 525/525 452/452
f 525/525 448/448 524/524
f 478/478 473/473 536/536
f 489/489 478/478 536/536
f 536/536 532/532 489/489
f 528/528 525/525 535/535
f 535/535 533/533 534/534
f 525/525 533/533 535/535
f 532/532 534/534 531/531
f 531/531 534/534 533/533
f 525/525 526/526 533/533
f 465/465 462/462 461/461
f 434/434 440/440 439/439
f 437/437 438/438 441/441
f 441/441 440/440 437/437
f 442/442 436/436 439/439
f 436/436 442/442 443/443
f 442/442 444/444 443/443
f 440/440 445/445 439/439
f 442/442 439/439 445/445
f 437/437 440/440 434/434
f 464/464 462/462 465/465
f 461/461 463/463 465/465
f 464/464 466/466 289/289
f 426/426 425/425 428/428
f 427/427 429/429 421/421
f 425/425 421/421 429/429
f 427/427 423/423 430/430
f 449/449 456/456 453/453
f 446/446 447/447 451/451
f 449/449 446/446 451/451
f 447/447 448/448 452/452
f 452/452 451/451 447/447
f 453/453 450/450 449/449
f 450/450 453/453 454/454
f 453/453 455/455 454/454
f 456/456 449/449 451/451
f 424/424 430/430 423/423
f 468/468 471/471 470/470
f 294/294 470/470 472/472
f 472/472 296/296 294/294
f 473/473 470/470 471/471
f 432/432 433/433 438/438
f 438/438 437/437 432/432
f 434/434 439/439 436/436
f 442/442 447/447 446/446
f 420/420 406/406 405/405
f 421/421 419/419 418/418
f 421/421 422/422 419/419
f 423/423 418/418 413/413
f 423/423 421/421 418/418
f 424/424 423/423 413/413
f 444/444 442/442 446/446
f 442/442 445/445 447/447
f 406/406 420/420 417/417
f 440/440 448/448 445/445
f 403/403 406/406 404/404
f 403/403 405/405 406/406
f 404/404 407/407 398/398
f 404/404 406/406 407/407
f 408/408 399/399 398/398
f 407/407 408/408 398/398
f 457/457 458/458 455/455
f 429/429 427/427 431/431
f 430/430 431/431 427/427
f 432/432 425/425 429/429
f 425/425 432/432 428/428
f 431/431 433/433 429/429
f 433/433 432/432 429/429
f 434/434 426/426 428/428
f 453/453 457/457 455/455
f 444/444 449/449 450/450
f 456/456 459/459 453/453
f 457/457 453/453 459/459
f 411/411 407/407 417/417
f 417/417 416/416 411/411
f 407/407 406/406 417/417
f 415/415 413/413 418/418
f 419/419 415/415 418/418
f 477/477 475/475 478/478
f 296/296 472/472 474/474
f 472/472 473/473 475/475
f 472/472 475/475 474/474
f 474/474 476/476 296/296
f 303/303 296/296 476/476
f 475/475 477/477 474/474
f 477/477 476/476 474/474
f 473/473 478/478 475/475
f 473/473 472/472 470/470
f 479/479 303/303 476/476
f 303/303 479/479 304/304
f 318/318 492/492 495/495
f 492/492 494/494 495/495
f 495/495 323/323 318/318
f 495/495 494/494 496/496
f 465/465 466/466 464/464
f 484/484 483/483 485/485
f 481/481 482/482 304/304
f 305/305 304/304 482/482
f 480/480 483/483 481/481
f 482/482 481/481 483/483
f 484/484 305/305 482/482
f 483/483 484/484 482/482
f 305/305 484/484 307/307
f 484/484 312/312 307/307
f 290/290 289/289 466/466
f 312/312 484/484 485/485
f 483/483 480/480 486/486
f 480/480 477/477 486/486
f 501/501 503/503 499/499
f 499/499 503/503 502/502
f 500/500 504/504 326/326
f 504/504 324/324 326/326
f 285/285 462/462 464/464
f 284/284 460/460 287/287
f 460/460 457/457 461/461
f 460/460 461/461 287/287
f 459/459 461/461 457/457
f 461/461 462/462 287/287
f 462/462 283/283 287/287
f 283/283 462/462 285/285
f 463/463 461/461 459/459
f 460/460 284/284 458/458
f 289/289 285/285 464/464
f 476/476 477/477 480/480
f 480/480 479/479 476/476
f 304/304 479/479 481/481
f 480/480 481/481 479/479
f 448/448 447/447 445/445
f 449/449 444/444 446/446
f 299/299 295/295 303/303
f 458/458 457/457 460/460
f 477/477 489/489 486/486
f 312/312 485/485 488/488
f 486/486 487/487 483/483
f 485/485 483/483 487/487
f 468/468 469/469 471/471
f 470/470 294/294 292/292
f 292/292 468/468 470/470
f 469/469 468/468 467/467
f 469/469 467/467 463/463
f 468/468 292/292 290/290
f 290/290 467/467 468/468
f 467/467 465/465 463/463
f 467/467 290/290 466/466
f 466/466 465/465 467/467
f 49/49 44/44 45/45
f 67/67 70/70 61/61
f 60/60 71/71 66/66
f 70/70 71/71 60/60
f 67/67 69/69 72/72
f 72/72 69/69 73/73
f 70/70 67/67 75/75
f 43/43 48/48 39/39
f 35/35 39/39 48/48
f 60/60 61/61 70/70
f 50/50 49/49 45/45
f 22/22 20/20 16/16
f 21/21 23/23 17/17
f 47/47 53/53 43/43
f 53/53 48/48 43/43
f 54/54 49/49 50/50
f 56/56 54/54 50/50
f 49/49 57/57 52/52
f 69/69 67/67 64/64
f 61/61 64/64 67/67
f 57/57 66/66 59/59
f 31/31 32/32 39/39
f 36/36 33/33 37/37
f 61/61 56/56 63/63
f 61/61 60/60 54/54
f 56/56 61/61 54/54
f 54/54 60/60 57/57
f 84/84 85/85 87/87
f 86/86 75/75 81/81
f 81/81 84/84 86/86
f 85/85 84/84 83/83
f 82/82 84/84 81/81
f 82/82 83/83 84/84
f 39/39 36/36 43/43
f 21/21 27/27 23/23
f 25/25 24/24 19/19
f 24/24 21/21 19/19
f 22/22 17/17 23/23
f 17/17 22/22 16/16
f 17/17 19/19 21/21
f 14/14 16/16 20/20
f 19/19 17/17 13/13
f 17/17 16/16 9/9
f 13/13 17/17 9/9
f 44/44 47/47 40/40
f 43/43 40/40 47/47
f 45/45 44/44 42/42
f 44/44 40/40 42/42
f 40/40 43/43 36/36
f 83/83 82/82 80/80
f 40/40 37/37 42/42
f 37/37 40/40 36/36
f 39/39 35/35 31/31
f 36/36 39/39 32/32
f 1/1 7/7 8/8
f 7/7 1/1 6/6
f 33/33 36/36 32/32
f 27/27 31/31 35/35
f 30/30 33/33 32/32
f 32/32 31/31 28/28
f 52/52 59/59 58/58
f 57/57 59/59 52/52
f 47/47 58/58 53/53
f 52/52 58/58 47/47
f 54/54 57/57 49/49
f 101/101 92/92 96/96
f 109/109 118/118 114/114
f 112/112 115/115 119/119
f 119/119 118/118 112/112
f 115/115 117/117 120/120
f 117/117 121/121 120/120
f 115/115 122/122 119/119
f 122/122 115/115 120/120
f 99/99 97/97 100/100
f 118/118 109/109 112/112
f 99/99 101/101 96/96
f 92/92 101/101 98/98
f 81/81 67/67 72/72
f 76/76 81/81 72/72
f 99/99 102/102 103/103
f 100/100 104/104 102/102
f 104/104 100/100 105/105
f 105/105 106/106 104/104
f 117/117 115/115 116/116
f 113/113 116/116 115/115
f 87/87 90/90 91/91
f 91/91 86/86 87/87
f 112/112 106/106 113/113
f 106/106 112/112 109/109
f 110/110 111/111 108/108
f 111/111 107/107 108/108
f 129/129 131/131 128/128
f 128/128 131/131 130/130
f 111/111 110/110 130/130
f 128/128 130/130 110/110
f 124/124 129/129 128/128
f 129/129 124/124 126/126
f 124/124 128/128 110/110
f 94/94 92/92 93/93
f 81/81 76/76 82/82
f 76/76 80/80 82/82
f 75/75 67/67 81/81
f 49/49 52/52 44/44
f 47/47 44/44 52/52
f 80/80 76/76 79/79
f 76/76 78/78 79/79
f 78/78 76/76 73/73
f 72/72 73/73 76/76
f 96/96 97/97 99/99
f 95/95 92/92 98/98
f 97/97 96/96 94/94
f 92/92 94/94 96/96
f 92/92 95/95 90/90
f 90/90 95/95 91/91
f 27/27 21/21 24/24
f 92/92 88/88 93/93
f 92/92 90/90 88/88
f 86/86 91/91 89/89
f 60/60 66/66 57/57
f 64/64 61/61 63/63
f 87/87 88/88 90/90
f 89/89 75/75 86/86
f 88/88 87/87 85/85
f 87/87 86/86 84/84
f 104/104 109/109 110/110
f 110/110 108/108 104/104
f 104/104 106/106 109/109
f 108/108 107/107 102/102
f 102/102 104/104 108/108
f 103/103 102/102 107/107
f 566/566 567/567 572/572
f 557/557 550/550 549/549
f 513/513 556/556 558/558
f 558/558 556/556 557/557
f 558/558 511/511 513/513
f 332/332 569/569 571/571
f 334/334 332/332 571/571
f 575/575 567/567 568/568
f 570/570 575/575 568/568
f 557/557 556/556 555/555
f 571/571 573/573 334/334
f 573/573 336/336 334/334
f 573/573 340/340 336/336
f 561/561 559/559 562/562
f 547/547 371/371 562/562
f 366/366 562/562 371/371
f 366/366 563/563 562/562
f 563/563 561/561 562/562
f 555/555 550/550 557/557
f 513/513 512/512 556/556
f 512/512 516/516 556/556
f 361/361 568/568 565/565
f 567/567 566/566 564/564
f 564/564 565/565 567/567
f 508/508 560/560 566/566
f 575/575 576/576 574/574
f 573/573 574/574 576/576
f 565/565 564/564 563/563
f 362/362 565/565 563/563
f 430/430 424/424 553/553
f 416/416 553/553 424/424
f 551/551 552/552 553/553
f 553/553 416/416 551/551
f 569/569 332/332 331/331
f 174/174 169/169 172/172
f 165/165 173/173 162/162
f 184/184 188/188 185/185
f 181/181 62/62 187/187
f 187/187 184/184 181/181
f 186/186 183/183 185/185
f 183/183 186/186 174/174
f 185/185 182/182 184/184
f 182/182 185/185 183/183
f 181/181 184/184 182/182
f 183/183 174/174 175/175
f 175/175 182/182 183/183
f 349/349 348/348 570/570
f 570/570 356/356 349/349
f 568/568 356/356 570/570
f 550/550 552/552 548/548
f 331/331 508/508 569/569
f 566/566 569/569 508/508
f 356/356 568/568 361/361
f 568/568 567/567 565/565
f 348/348 576/576 570/570
f 576/576 348/348 340/340
f 576/576 575/575 570/570
f 340/340 573/573 576/576
f 574/574 572/572 575/575
f 575/575 572/572 567/567
f 573/573 571/571 574/574
f 571/571 572/572 574/574
f 564/564 561/561 563/563
f 564/564 560/560 561/561
f 362/362 563/563 366/366
f 511/511 558/558 560/560
f 9/9 11/11 13/13
f 14/14 8/8 7/7
f 8/8 14/14 15/15
f 7/7 9/9 16/16
f 16/16 14/14 7/7
f 371/371 547/547 544/544
f 544/544 547/547 545/545
f 559/559 549/549 547/547
f 9/9 4/4 11/11
f 549/549 546/546 545/545
f 547/547 549/549 545/545
f 548/548 546/546 550/550
f 549/549 550/550 546/546
f 540/540 390/390 375/375
f 390/390 540/540 401/401
f 378/378 540/540 375/375
f 540/540 541/541 401/401
f 9/9 7/7 6/6
f 4/4 9/9 6/6
f 4/4 6/6 1/1
f 1/1 3/3 4/4
f 548/548 417/417 420/420
f 546/546 548/548 420/420
f 516/516 518/518 554/554
f 554/554 518/518 430/430
f 542/542 543/543 541/541
f 405/405 541/541 543/543
f 32/32 28/28 30/30
f 24/24 28/28 31/31
f 31/31 27/27 24/24
f 30/30 28/28 25/25
f 28/28 24/24 25/25
f 369/369 371/371 544/544
f 548/548 552/552 551/551
f 416/416 417/417 551/551
f 551/551 417/417 548/548
f 562/562 559/559 547/547
f 560/560 558/558 561/561
f 561/561 558/558 559/559
f 560/560 508/508 511/511
f 572/572 571/571 569/569
f 569/569 566/566 572/572
f 558/558 557/557 559/559
f 559/559 557/557 549/549
f 545/545 546/546 543/543
f 543/543 546/546 420/420
f 544/544 545/545 542/542
f 543/543 542/542 545/545
f 258/258 266/266 264/264
f 378/378 369/369 544/544
f 544/544 542/542 378/378
f 405/405 543/543 420/420
f 556/556 516/516 555/555
f 552/552 550/550 555/555
f 554/554 555/555 516/516
f 555/555 554/554 552/552
f 566/566 560/560 564/564
f 361/361 565/565 362/362
f 552/552 554/554 553/553
f 554/554 430/430 553/553
f 540/540 542/542 541/541
f 542/542 540/540 378/378
f 541/541 405/405 402/402
f 541/541 402/402 401/401
f 220/220 247/247 236/236
f 159/159 162/162 229/229
f 158/158 159/159 229/229
f 158/158 229/229 230/230
f 228/228 230/230 229/229
f 148/148 158/158 230/230
f 231/231 228/228 224/224
f 246/246 245/245 242/242
f 236/236 247/247 244/244
f 227/227 228/228 229/229
f 247/247 220/220 218/218
f 216/216 218/218 220/220
f 220/220 219/219 216/216
f 221/221 193/193 219/219
f 194/194 193/193 221/221
f 220/220 222/222 219/219
f 221/221 219/219 222/222
f 194/194 221/221 223/223
f 229/229 162/162 227/227
f 224/224 228/228 226/226
f 228/228 227/227 226/226
f 162/162 173/173 227/227
f 227/227 225/225 226/226
f 256/256 254/254 210/210
f 255/255 252/252 251/251
f 211/211 210/210 254/254
f 254/254 217/217 211/211
f 238/238 234/234 237/237
f 234/234 238/238 235/235
f 233/233 236/236 237/237
f 234/234 233/233 237/237
f 236/236 222/222 220/220
f 222/222 236/236 233/233
f 26/26 215/215 208/208
f 26/26 206/206 29/29
f 206/206 34/34 29/29
f 34/34 206/206 203/203
f 205/205 204/204 201/201
f 201/201 203/203 205/205
f 202/202 199/199 204/204
f 148/148 232/232 146/146
f 230/230 231/231 232/232
f 232/232 148/148 230/230
f 228/228 231/231 230/230
f 212/212 211/211 217/217
f 217/217 214/214 212/212
f 197/197 200/200 216/216
f 214/214 216/216 200/200
f 215/215 26/26 18/18
f 232/232 234/234 235/235
f 200/200 212/212 214/214
f 207/207 208/208 213/213
f 207/207 213/213 210/210
f 198/198 212/212 200/200
f 202/202 211/211 212/212
f 212/212 198/198 202/202
f 235/235 238/238 240/240
f 142/142 143/143 239/239
f 146/146 239/239 143/143
f 239/239 146/146 235/235
f 225/225 174/174 186/186
f 186/186 223/223 225/225
f 223/223 221/221 224/224
f 222/222 224/224 221/221
f 223/223 186/186 194/194
f 267/267 275/275 279/279
f 256/256 259/259 257/257
f 258/258 259/259 256/256
f 257/257 260/260 255/255
f 260/260 257/257 259/259
f 252/252 255/255 261/261
f 252/252 261/261 253/253
f 260/260 262/262 255/255
f 278/278 276/276 277/277
f 213/213 258/258 256/256
f 267/267 279/279 266/266
f 276/276 278/278 280/280
f 244/244 248/248 246/246
f 247/247 248/248 244/244
f 218/218 249/249 247/247
f 218/218 217/217 249/249
f 248/248 247/247 250/250
f 247/247 249/249 250/250
f 251/251 257/257 255/255
f 254/254 256/256 257/257
f 257/257 251/251 254/254
f 210/210 213/213 256/256
f 290/290 286/286 289/289
f 286/286 290/290 288/288
f 282/282 285/285 289/289
f 289/289 286/286 282/282
f 10/10 268/268 12/12
f 268/268 18/18 12/12
f 18/18 268/268 215/215
f 267/267 215/215 268/268
f 266/266 265/265 267/267
f 215/215 267/267 265/265
f 266/266 258/258 265/265
f 238/238 237/237 242/242
f 232/232 235/235 146/146
f 231/231 233/233 234/234
f 231/231 234/234 232/232
f 224/224 222/222 233/233
f 224/224 233/233 231/231
f 264/264 259/259 258/258
f 263/263 262/262 260/260
f 260/260 259/259 263/263
f 262/262 261/261 255/255
f 246/246 242/242 244/244
f 243/243 240/240 245/245
f 240/240 242/242 245/245
f 237/237 236/236 244/244
f 237/237 244/244 242/242
f 240/240 243/243 241/241
f 127/127 123/123 125/125
f 242/242 240/240 238/238
f 142/142 241/241 140/140
f 241/241 239/239 240/240
f 239/239 241/241 142/142
f 240/240 239/239 235/235
f 267/267 268/268 270/270
f 269/269 270/270 268/268
f 269/269 10/10 5/5
f 268/268 10/10 269/269
f 217/217 254/254 251/251
f 250/250 252/252 253/253
f 253/253 248/248 250/250
f 251/251 252/252 249/249
f 249/249 252/252 250/250
f 217/217 251/251 249/249
f 141/141 139/139 125/125
f 154/154 151/151 155/155
f 156/156 145/145 149/149
f 148/148 145/145 156/156
f 157/157 149/149 154/154
f 156/156 149/149 157/157
f 155/155 157/157 154/154
f 158/158 156/156 157/157
f 158/158 148/148 156/156
f 155/155 151/151 153/153
f 125/125 122/122 141/141
f 139/139 142/142 137/137
f 140/140 137/137 142/142
f 203/203 206/206 207/207
f 123/123 127/127 126/126
f 125/125 123/123 119/119
f 122/122 125/125 119/119
f 122/122 144/144 141/141
f 150/150 154/154 149/149
f 129/129 134/134 133/133
f 126/126 134/134 129/129
f 151/151 121/121 152/152
f 151/151 150/150 121/121
f 149/149 147/147 150/150
f 121/121 150/150 147/147
f 166/166 168/168 170/170
f 163/163 166/166 169/169
f 165/165 163/163 169/169
f 168/168 166/166 167/167
f 166/166 164/164 167/167
f 164/164 166/166 163/163
f 162/162 155/155 165/165
f 163/163 165/165 160/160
f 138/138 135/135 137/137
f 133/133 132/132 131/131
f 110/110 109/109 114/114
f 115/115 112/112 113/113
f 134/134 126/126 135/135
f 127/127 135/135 126/126
f 134/134 136/136 133/133
f 135/135 127/127 137/137
f 138/138 134/134 135/135
f 133/133 131/131 129/129
f 124/124 118/118 123/123
f 118/118 124/124 114/114
f 118/118 119/119 123/123
f 137/137 140/140 138/138
f 125/125 139/139 127/127
f 137/137 127/127 139/139
f 134/134 138/138 136/136
f 207/207 205/205 203/203
f 130/130 131/131 132/132
f 130/130 132/132 111/111
f 124/124 110/110 114/114
f 99/99 100/100 102/102
f 101/101 99/99 103/103
f 126/126 124/124 123/123
f 147/147 149/149 145/145
f 148/148 146/146 144/144
f 145/145 148/148 144/144
f 147/147 120/120 121/121
f 145/145 120/120 147/147
f 144/144 146/146 143/143
f 120/120 145/145 122/122
f 144/144 122/122 145/145
f 143/143 141/141 144/144
f 175/175 176/176 179/179
f 196/196 195/195 198/198
f 46/46 199/199 195/195
f 195/195 199/199 198/198
f 199/199 46/46 41/41
f 218/218 216/216 214/214
f 217/217 218/218 214/214
f 216/216 219/219 197/197
f 193/193 197/197 219/219
f 197/197 193/193 192/192
f 74/74 180/180 177/177
f 179/179 177/177 180/180
f 180/180 74/74 68/68
f 155/155 162/162 159/159
f 163/163 160/160 161/161
f 200/200 196/196 198/198
f 196/196 200/200 197/197
f 161/161 164/164 163/163
f 192/192 196/196 197/197
f 195/195 196/196 191/191
f 192/192 191/191 196/196
f 210/210 211/211 209/209
f 211/211 202/202 209/209
f 210/210 209/209 205/205
f 205/205 207/207 210/210
f 225/225 227/227 173/173
f 223/223 224/224 226/226
f 223/223 226/226 225/225
f 173/173 174/174 225/225
f 209/209 202/202 204/204
f 204/204 205/205 209/209
f 206/206 208/208 207/207
f 206/206 26/26 208/208
f 177/177 179/179 176/176
f 175/175 172/172 170/170
f 172/172 175/175 174/174
f 170/170 171/171 176/176
f 176/176 175/175 170/170
f 177/177 176/176 171/171
f 178/178 177/177 171/171
f 177/177 178/178 77/77
f 74/74 177/177 77/77
f 41/41 38/38 201/201
f 157/157 155/155 159/159
f 157/157 159/159 158/158
f 153/153 160/160 155/155
f 161/161 160/160 153/153
f 139/139 141/141 143/143
f 143/143 142/142 139/139
f 155/155 160/160 165/165
f 151/151 154/154 150/150
f 199/199 202/202 198/198
f 201/201 199/199 41/41
f 169/169 174/174 173/173
f 38/38 203/203 201/201
f 203/203 38/38 34/34
f 201/201 204/204 199/199
f 62/62 189/189 187/187
f 189/189 62/62 55/55
f 171/171 170/170 168/168
f 172/172 169/169 166/166
f 166/166 170/170 172/172
f 173/173 165/165 169/169
f 153/153 151/151 152/152
f 622/622 596/596 597/597
f 622/622 623/623 596/596
f 623/623 622/622 619/619
f 590/590 629/629 589/589
f 588/588 589/589 629/629
f 629/629 587/587 588/588
f 629/629 628/628 587/587
f 630/630 587/587 628/628
f 630/630 628/628 627/627
f 587/587 630/630 580/580
f 630/630 627/627 619/619
f 631/631 580/580 630/630
f 632/632 579/579 631/631
f 623/623 595/595 596/596
f 623/623 624/624 595/595
f 624/624 626/626 595/595
f 610/610 608/608 609/609
f 608/608 610/610 607/607
f 615/615 614/614 613/613
f 602/602 615/615 601/601
f 586/586 585/585 609/609
f 585/585 584/584 609/609
f 608/608 586/586 609/609
f 583/583 609/609 584/584
f 621/621 598/598 599/599
f 621/621 622/622 598/598
f 610/610 606/606 607/607
f 611/611 609/609 583/583
f 611/611 610/610 609/609
f 611/611 583/583 612/612
f 583/583 582/582 612/612
f 610/610 611/611 613/613
f 612/612 613/613 611/611
f 614/614 606/606 610/610
f 613/613 614/614 610/610
f 606/606 614/614 605/605
f 605/605 614/614 604/604
f 614/614 603/603 604/604
f 614/614 602/602 603/603
f 615/615 602/602 614/614
f 627/627 625/625 619/619
f 628/628 626/626 624/624
f 613/613 616/616 615/615
f 616/616 601/601 615/615
f 616/616 613/613 617/617
f 612/612 617/617 613/613
f 618/618 601/601 616/616
f 601/601 618/618 600/600
f 616/616 617/617 619/619
f 618/618 616/616 619/619
f 617/617 612/612 619/619
f 620/620 600/600 618/618
f 620/620 618/618 619/619
f 600/600 620/620 599/599
f 621/621 599/599 620/620
f 621/621 620/620 619/619
f 631/631 630/630 619/619
f 580/580 631/631 579/579
f 622/622 621/621 619/619
f 622/622 597/597 598/598
f 625/625 623/623 619/619
f 632/632 631/631 619/619
f 629/629 591/591 592/592
f 629/629 590/590 591/591
f 633/633 632/632 619/619
f 633/633 578/578 577/577
f 633/633 581/581 578/578
f 634/634 633/633 619/619
f 634/634 581/581 633/633
f 612/612 634/634 619/619
f 634/634 582/582 581/581
f 582/582 634/634 612/612
f 595/595 626/626 594/594
f 626/626 593/593 594/594
f 592/592 593/593 626/626
f 625/625 627/627 624/624
f 628/628 624/624 627/627
f 592/592 626/626 629/629
f 626/626 628/628 629/629
f 632/632 633/633 577/577
f 577/577 579/579 632/632
f 624/624 623/623 625/625

