# https://github.com/mikedh/trimesh
mtllib material.mtl
usemtl M_UE4Man_ChestLogo
v 0.04909422 -0.03883028 0.08728713
v -0.03579734 -0.01926180 0.11296100
v -0.04064117 -0.03361498 0.11221701
v 0.04909422 -0.03883028 0.08728713
v -0.04064117 -0.03361498 0.11221701
v -0.04017041 -0.04069788 0.10575098
v 0.01657738 0.10222211 -0.09547788
v 0.00715234 0.09367949 -0.10245555
v 0.00691821 0.10317694 -0.09692114
v 0.00676956 0.11029424 -0.08842855
v -0.03813241 -0.02405298 0.12038070
v -0.03813241 -0.02405298 0.12038070
v -0.03675209 -0.01983019 0.12074823
v -0.03675209 -0.01983019 0.12074823
v -0.03958414 -0.03828707 0.12056262
v -0.03958414 -0.03828707 0.12056262
v -0.03111182 -0.01671381 0.12027044
v -0.03111182 -0.01671381 0.12027044
v -0.03693722 -0.04310884 0.11974591
v -0.04449974 -0.03869844 0.10490853
v -0.04449974 -0.03869844 0.10490853
v -0.01654611 -0.04280077 0.11571604
v -0.02250324 -0.01653429 0.11842841
v -0.02250324 -0.01653429 0.11842841
v -0.01389478 -0.01712778 0.11658639
v -0.01389478 -0.01712778 0.11658639
v 0.00416018 -0.01958017 0.11150688
v 0.00416018 -0.01958017 0.11150688
v -0.04164050 -0.04370271 0.10419637
v -0.04926453 -0.04370294 0.10534698
v -0.04926453 -0.04370294 0.10534698
v 0.00609257 -0.04305124 0.11083752
v 0.02920033 -0.02390550 0.10333246
v 0.02920033 -0.02390550 0.10333246
v -0.01894448 -0.04378763 0.09981734
v 0.02756633 -0.04315584 0.10474819
v 0.04449441 -0.02884935 0.09794504
v 0.04449441 -0.02884935 0.09794504
v 0.00619795 -0.04428110 0.09307188
v 0.05088033 -0.04260980 0.09716434
v 0.05301716 -0.03296785 0.09556824
v 0.05301716 -0.03296785 0.09556824
v 0.02979912 -0.04451151 0.08622557
v 0.00595607 -0.05032503 0.09262473
v 0.05352189 -0.04136133 0.09644360
v 0.05569817 -0.04389292 0.07859832
v 0.05779828 -0.04271090 0.07779438
v 0.05687215 -0.03335848 0.07787675
v 0.03091242 -0.05041742 0.08599896
v 0.05638637 -0.04979052 0.07897300
v 0.03129246 -0.05042284 0.08752996
v 0.06254758 -0.04757738 0.07777220
v 0.05716171 -0.04969202 0.08104521
v 0.06350388 -0.04523592 0.07776231
v 0.06150140 -0.03161082 0.07814175
v 0.06427743 -0.04559519 0.08052117
v 0.05853798 -0.02755320 0.07863135
v 0.06289102 -0.04777163 0.08043653
v 0.06156303 -0.03156672 0.08076615
v 0.06143965 -0.04750559 0.09148664
v 0.06244017 -0.04588564 0.09193165
v 0.05453207 -0.03138170 0.07827312
v 0.05547907 -0.02517855 0.07930345
v 0.05133178 -0.02919901 0.07908041
v 0.04417469 -0.02608599 0.08140928
v 0.04768075 -0.02130930 0.08158499
v 0.05851855 -0.02779726 0.08117706
v 0.05544044 -0.02542444 0.08183760
v 0.05712928 -0.02941370 0.09317452
v 0.05892732 -0.03218447 0.09315294
v 0.05532267 -0.02735369 0.09335965
v 0.04773118 -0.02126207 0.08412379
v 0.03457930 -0.01727503 0.08601398
v 0.04782750 -0.02373453 0.09581906
v 0.03159787 -0.02278902 0.08587724
v 0.03522422 -0.01724642 0.08846659
v -0.00147198 -0.01086603 0.09824926
v -0.00277947 -0.01703874 0.09702474
v -0.02590607 -0.01488703 0.10288376
v -0.02603779 -0.00864199 0.10400254
v -0.03550110 -0.01562929 0.10431844
v -0.02540539 -0.00871218 0.10655517
v -0.04109631 -0.01883951 0.10447246
v -0.03679548 -0.00966455 0.10543698
v -0.04450868 -0.01380206 0.10560793
v -0.04332219 -0.02354509 0.10422832
v -0.04851733 -0.02071077 0.10588140
v -0.05024706 -0.04060831 0.10560292
v -0.04904030 -0.04408922 0.10854954
v -0.04904030 -0.04408922 0.10854954
v -0.04422711 -0.01389238 0.10848564
v -0.05038558 -0.04109636 0.10930282
v -0.04578851 -0.04467584 0.13231081
v -0.04578851 -0.04467584 0.13231081
v -0.04835127 -0.02114718 0.10870296
v -0.04670964 -0.04250902 0.13233775
v -0.04333566 -0.04499376 0.14097256
v -0.04333566 -0.04499376 0.14097256
v -0.04323981 -0.02409769 0.13155014
v -0.03978620 -0.01855020 0.13245124
v -0.03706811 -0.00963526 0.10805768
v -0.02967690 -0.01545610 0.13607437
v -0.03762482 -0.02048212 0.14138621
v -0.04070602 -0.02522020 0.14093823
v -0.04396330 -0.04313112 0.14128095
v -0.03893469 -0.04547167 0.14795512
v -0.03482090 -0.02255487 0.14740652
v -0.03597425 -0.02626718 0.14861221
v -0.03907643 -0.04304239 0.14868874
v -0.02965162 -0.04413354 0.15366477
v -0.02823983 -0.02707353 0.15277309
v -0.02864347 -0.01906183 0.14561123
v -0.02801500 -0.02288049 0.15091628
v -0.02042029 -0.01511507 0.13861961
v -0.01970528 -0.01943582 0.14812082
v -0.01940129 -0.02351816 0.15274853
v -0.01929710 -0.02797037 0.15505344
v 0.00704576 -0.02531938 0.14883107
v 0.00678565 -0.02205744 0.14479286
v 0.00556495 -0.01793024 0.13500756
v -0.00082634 -0.01078348 0.10112244
v 0.02881266 -0.02142191 0.12179894
v 0.02904202 -0.02466059 0.13335652
v 0.04067339 -0.02309176 0.10963113
v 0.04442217 -0.02658625 0.11573917
v 0.05279328 -0.02797747 0.10118026
v 0.05467226 -0.03031824 0.10211474
v 0.04538252 -0.02876452 0.11717886
v 0.02968647 -0.02708124 0.13585979
v 0.05570533 -0.03306131 0.10243971
v 0.00697936 -0.02958025 0.15098173
v 0.04643561 -0.03229372 0.11810929
v 0.02989902 -0.03146822 0.13762540
v 0.00695385 -0.04523264 0.14994640
v 0.02978780 -0.04576311 0.13677270
v 0.04812552 -0.04630403 0.11772436
v 0.05845024 -0.04623689 0.10184879
v 0.02944948 -0.04741777 0.13591773
v 0.04783239 -0.04780519 0.11685604
v 0.05783870 -0.04789171 0.10157746
v 0.05523517 -0.04968645 0.09345359
v 0.04437341 -0.05004137 0.11051327
v 0.02654089 -0.04985895 0.12904889
v 0.04357566 -0.05176416 0.10949058
v 0.02617039 -0.05176210 0.12803072
v 0.00613846 -0.04977129 0.14172024
v 0.05354394 -0.05176363 0.09244758
v 0.05532016 -0.05167627 0.08175534
v 0.03090622 -0.05176439 0.08818144
v 0.00627150 -0.05029726 0.09511811
v 0.00626649 -0.05176485 0.09507484
v -0.02036868 -0.05007631 0.09965986
v 0.00599303 -0.05176172 0.14054984
v -0.04471288 -0.04939257 0.10468692
v -0.02001427 -0.05005388 0.10170299
v -0.04414271 -0.04920656 0.10851592
v -0.01957129 -0.05176248 0.10204310
v -0.04233943 -0.05159990 0.10905546
v -0.04381273 -0.04947428 0.11750979
v -0.01884649 -0.05176180 0.14652223
v -0.04187379 -0.04926584 0.13101310
v -0.02891014 -0.05176149 0.14460081
v -0.04260944 -0.05176142 0.11780399
v -0.04089044 -0.05176111 0.13055092
v -0.03644477 -0.05176065 0.14059526
v -0.03740178 -0.04928972 0.14126820
v -0.02941058 -0.04965082 0.14546949
v -0.02965711 -0.04608957 0.15290744
v -0.01908849 -0.04974794 0.14735145
v -0.02082096 -0.04434610 0.15506703
v -0.02064548 -0.04632677 0.15440208
v 0.00661792 -0.04693895 0.14898688
v 0.01657738 0.10222211 -0.09547788
v 0.00715234 0.09367949 -0.10245555
v 0.00691821 0.10317694 -0.09692114
v 0.00676956 0.11029424 -0.08842855
v 0.00773372 -0.05212778 0.08520979
v 0.00773372 -0.05212778 0.08520979
v -0.03829251 -0.05211794 0.09822673
v -0.03829251 -0.05211794 0.09822673
v -0.03871105 -0.05211504 0.07047004
v -0.03871105 -0.05211504 0.07047004
v 0.05969216 -0.05211977 0.04214031
v -0.03471528 -0.05211413 0.00085444
v -0.03471528 -0.05211413 0.00085444
v 0.05997147 -0.05211977 0.06684643
v 0.05158426 -0.05211161 -0.01124900
v -0.03289388 -0.05211566 -0.02022332
v -0.03289388 -0.05211566 -0.02022332
v 0.05985858 -0.04842394 0.04194838
v 0.04731478 -0.05211352 -0.03131610
v -0.03193400 -0.05192164 -0.02808863
v -0.03193400 -0.05192164 -0.02808863
v 0.05179574 -0.04823489 -0.01161211
v 0.04500057 -0.05210841 -0.03941816
v 0.04762270 -0.04815242 -0.03133589
v 0.04173006 -0.04629084 -0.04372054
v -0.03267346 -0.04663721 -0.03286987
v -0.03267346 -0.04663721 -0.03286987
v 0.04519369 -0.04807429 -0.03964799
v 0.02589776 -0.03799601 -0.04106563
v -0.02817987 -0.03684352 -0.03311985
v -0.02817987 -0.03684352 -0.03311985
v -0.02817987 -0.03684352 -0.03311985
v 0.04934706 -0.03931109 -0.04678851
v 0.02283444 -0.03661082 -0.05217510
v -0.02874873 -0.03667925 -0.04397696
v -0.02874873 -0.03667925 -0.04397696
v 0.02934052 -0.03593600 -0.04174929
v 0.00832762 -0.04555041 -0.04845136
v -0.03430746 -0.04460040 -0.04262560
v -0.03430746 -0.04460040 -0.04262560
v 0.05287279 -0.03995997 -0.04154855
v 0.00861253 -0.04820201 -0.05118244
v -0.03494726 -0.04809184 -0.04565173
v -0.03494726 -0.04809184 -0.04565173
v -0.03454588 -0.05132143 -0.04650789
v -0.03454588 -0.05132143 -0.04650789
v 0.04230751 -0.04481242 -0.05350166
v 0.00869109 -0.05134646 -0.05213588
v -0.02980552 -0.05133944 -0.09385651
v -0.02980552 -0.05133944 -0.09385651
v 0.04169263 -0.05143786 -0.05650526
v 0.00409915 -0.05167910 -0.09817117
v -0.02722095 -0.05125636 -0.11090463
v -0.02722095 -0.05125636 -0.11090463
v 0.03197374 -0.05147998 -0.10153406
v 0.04271402 -0.04781894 -0.05644828
v -0.02018200 -0.05128612 -0.12370807
v -0.02018200 -0.05128612 -0.12370807
v -0.01475583 -0.05131336 -0.12845009
v -0.01475583 -0.05131336 -0.12845009
v 0.00196173 -0.05167910 -0.11540120
v -0.00028418 -0.05137660 -0.13157504
v -0.00028418 -0.05137660 -0.13157504
v 0.02600636 -0.05132228 -0.11798793
v 0.01514174 -0.05137751 -0.13012200
v 0.01028265 -0.05137729 -0.13190335
v 0.01028265 -0.05137729 -0.13190335
v 0.03339817 -0.04789706 -0.10193556
v 0.02732291 -0.04783457 -0.11883384
v 0.05023481 -0.03760958 -0.06146305
v 0.04026212 -0.03876590 -0.10269183
v 0.01568272 -0.04784533 -0.13159102
v 0.04918923 -0.03567477 -0.05727583
v 0.03336491 -0.03868022 -0.12143927
v 0.05016341 -0.02336116 -0.06588679
v 0.04195072 -0.02562343 -0.10378891
v 0.02635469 -0.03465907 -0.05341225
v 0.04835274 -0.02183406 -0.06176644
v 0.02863254 -0.02134989 -0.04805380
v 0.02607157 -0.02091639 -0.05981046
v 0.03191401 0.02279897 -0.08460754
v 0.04625620 -0.02081591 -0.05149024
v 0.02522506 0.01873715 -0.06780594
v 0.04939010 -0.01989451 -0.04614204
v 0.03227379 0.01955830 -0.06810385
v 0.03511800 0.02102178 -0.06407410
v 0.02407100 0.02205716 -0.08231979
v 0.02339615 0.03588467 -0.07237595
v 0.02292134 0.03606244 -0.08538919
v 0.02956190 0.03772526 -0.07257086
v 0.02214183 0.05027570 -0.07298988
v 0.03157761 0.03788251 -0.06945723
v 0.03060092 0.04873364 -0.07024091
v 0.03271164 0.04050321 -0.05732947
v 0.02738919 0.05178510 -0.07345575
v 0.03103496 0.05098011 -0.06034356
v 0.02897086 0.05591597 -0.06062191
v 0.03391435 0.03014936 -0.04936891
v 0.02990844 0.04665785 -0.03958600
v 0.03918173 0.00685117 -0.02643531
v 0.02928628 0.02520201 -0.01952666
v 0.05316295 -0.02319033 -0.03150445
v 0.04277803 -0.00210490 -0.00582295
v 0.05527319 -0.04054499 -0.03233724
v 0.05739846 -0.02659991 -0.01144534
v 0.05852761 -0.04204180 -0.01174181
v 0.06505968 -0.03250071 0.04254812
v 0.06534042 -0.04363687 0.04172367
v 0.06033184 -0.04858995 0.06712932
v 0.06525220 -0.04364992 0.07018608
v 0.00784673 -0.04902872 0.08573753
v 0.05767943 -0.04134592 0.07231182
v 0.06499268 -0.03495821 0.07086140
v 0.05888774 -0.03656222 0.07106144
v 0.05295648 -0.01908220 0.04651040
v 0.05657830 -0.02344530 0.07299704
v 0.01995267 0.02432371 0.00793797
v 0.02560915 -0.00355173 0.06014139
v 0.05326392 -0.02941836 0.07216663
v 0.02905371 -0.01491434 0.08288175
v 0.01209678 0.03252073 0.01780504
v 0.01350417 0.00156606 0.06586999
v 0.02021350 0.04421743 -0.01418382
v 0.00970628 0.05116300 -0.00343710
v 0.02292599 0.05989409 -0.02419871
v 0.00872876 0.06337835 -0.01739400
v 0.03180684 0.05884984 -0.04632920
v 0.02526237 0.07076787 -0.02885824
v 0.02975132 0.06166067 -0.04798942
v 0.00653412 0.07340863 -0.02200347
v 0.02479197 0.07392377 -0.03132480
v 0.02632262 0.06211423 -0.04864698
v 0.02184309 0.07362103 -0.03460782
v 0.00490429 0.07656889 -0.02354365
v -0.01603721 0.06308927 -0.01452404
v -0.01490770 0.07344030 -0.01958042
v 0.00475838 0.07637204 -0.02825993
v -0.01591561 0.05072500 0.00099653
v -0.01469348 0.07671812 -0.02104467
v -0.01647685 0.03604162 0.02264816
v -0.02467082 0.07264891 -0.01970762
v -0.01563213 0.07721594 -0.02603048
v -0.02575026 0.07642508 -0.02115422
v -0.02387546 0.06267042 -0.01637011
v -0.02534602 0.07663298 -0.02629238
v -0.03573487 0.07362333 -0.02516812
v -0.03558920 0.06927488 -0.02298182
v -0.02208315 0.04758725 -0.00193029
v -0.03378723 0.05959746 -0.02032548
v -0.02339457 0.03098211 0.01951248
v -0.03353499 0.04001867 -0.01002341
v -0.03512917 0.02140950 0.01424307
v -0.02346669 0.00434439 0.07480055
v -0.03448496 -0.00025789 0.07480425
v -0.01552091 0.00527738 0.07424909
v -0.02274857 -0.00757814 0.09869880
v -0.00160430 -0.01007181 0.09269697
v -0.03487228 -0.00831041 0.10213000
v 0.02697493 -0.02095247 0.08249385
v -0.02304254 -0.01423990 0.09980637
v -0.00273584 -0.01655832 0.09271509
v -0.03209637 -0.01437898 0.10308212
v -0.04055760 -0.01290384 0.10250777
v -0.02657269 -0.01423990 0.08557696
v -0.03132592 -0.01437898 0.08817739
v -0.00626610 -0.01655832 0.07848555
v -0.03635023 -0.04120600 0.08635194
v -0.03597913 -0.01762179 0.08854396
v 0.02344479 -0.02095247 0.06826443
v 0.00571694 -0.04245348 0.07339055
v 0.05138327 -0.03055544 0.05737144
v 0.05446400 -0.04121790 0.05798120
v 0.05535759 -0.03656222 0.05683202
v 0.00924708 -0.04245348 0.08761996
v -0.03786944 -0.04169870 0.10150308
v -0.04000090 -0.03789438 0.08677334
v -0.04063044 -0.04783518 0.10084623
v -0.04152010 -0.03838709 0.10192448
v -0.03931902 -0.04825014 0.06939859
v -0.04678081 -0.04116335 0.10173184
v -0.04594372 -0.04077066 0.07073802
v -0.04506348 -0.02059793 0.10207612
v -0.03821753 -0.02276484 0.08767564
v -0.03973673 -0.02325754 0.10282690
v -0.03674946 -0.01762179 0.10344869
v -0.04538868 -0.01700945 0.07213468
v -0.04082559 -0.00718630 0.07434220
v -0.04253004 0.01177572 0.00865108
v -0.04075037 -0.03696375 -0.00105875
v -0.04508851 -0.00204111 0.00063116
v -0.04273902 0.01537519 -0.00680941
v -0.03508864 -0.04818850 -0.00014335
v -0.03337179 -0.04812998 -0.02048331
v -0.03929673 -0.03684122 -0.02134531
v -0.03214214 -0.04847079 -0.02789157
v -0.03932379 -0.03736399 -0.02743202
v -0.04620622 0.00301977 -0.02852016
v -0.03768919 -0.03801592 -0.03306776
v -0.03412686 0.02025244 -0.05657321
v -0.03412686 0.02025244 -0.05657321
v -0.04755757 0.02309500 -0.05032891
v -0.04663478 0.02012457 -0.05499845
v -0.03648399 0.03815687 -0.05798775
v -0.03648399 0.03815687 -0.05798775
v -0.04709969 0.03748220 -0.05652719
v -0.04517172 0.02644171 -0.03723603
v -0.04697643 0.05106328 -0.05526357
v -0.03745769 0.05171612 -0.05712920
v -0.03745769 0.05171612 -0.05712920
v -0.04750035 0.03762525 -0.05200141
v -0.04749261 0.04772512 -0.05172842
v -0.04536794 0.04339261 -0.04114276
v -0.04049323 0.03297933 -0.01988846
v -0.04034231 0.05189206 -0.02954775
v -0.04545532 0.05155195 -0.04340106
v -0.04166744 0.05973294 -0.03308934
v -0.04496477 0.05635625 -0.04658728
v -0.04192875 0.06359060 -0.03686136
v -0.04030715 0.05869703 -0.04776102
v -0.03802214 0.06548201 -0.03878837
v -0.03251956 0.07435896 -0.02918130
v -0.03619872 0.06470946 -0.04003363
v -0.03683804 0.05886503 -0.04696387
v -0.03497968 0.05647069 -0.05800205
v -0.03497968 0.05647069 -0.05800205
v -0.02948783 0.06494787 -0.03517276
v -0.03513907 0.06287336 -0.05042392
v -0.03436778 0.07247464 -0.04472559
v -0.03291796 0.06363546 -0.05113333
v -0.03279219 0.05761366 -0.05831879
v -0.03279219 0.05761366 -0.05831879
v -0.01527463 0.06723768 -0.03087371
v 0.00320758 0.07011464 -0.03129440
v -0.01915429 0.07335888 -0.03850537
v 0.01777245 0.06754567 -0.03819006
v 0.00760354 0.07471526 -0.03886002
v -0.03039632 0.07323110 -0.04106241
v -0.02031730 0.07329512 -0.04135948
v -0.03075276 0.07389577 -0.04475826
v -0.02932821 0.07402410 -0.04271000
v -0.03320847 0.07225911 -0.04621130
v -0.03320847 0.07225911 -0.04621130
v -0.03351710 0.08097479 -0.04480642
v -0.03351710 0.08097479 -0.04480642
v -0.03082512 0.08108351 -0.04412347
v -0.03391824 0.09020078 -0.04642814
v -0.03391824 0.09020078 -0.04642814
v -0.02094160 0.08148175 -0.04010242
v -0.02963088 0.08113058 -0.04205101
v -0.03123711 0.09055807 -0.04578882
v -0.03432463 0.09831402 -0.05111008
v -0.03432463 0.09831402 -0.05111008
v -0.03007386 0.09132001 -0.04384213
v -0.03165446 0.09888990 -0.05059689
v -0.03202711 0.10507399 -0.05796772
v -0.03468750 0.10433592 -0.05828756
v -0.03468750 0.10433592 -0.05828756
v -0.03052281 0.10028042 -0.04901296
v -0.02141569 0.09238598 -0.04201918
v -0.01946233 0.08153966 -0.03705638
v -0.02189611 0.10197507 -0.04755276
v -0.01998196 0.09349318 -0.03915757
v 0.00730135 0.08262572 -0.03749805
v -0.02232490 0.10909231 -0.05603581
v 0.00678160 0.09457906 -0.03959924
v -0.02050863 0.10400473 -0.04522353
v 0.00625505 0.10509077 -0.04566532
v 0.00867929 0.08268370 -0.04059130
v 0.00820519 0.09358794 -0.04250794
v 0.00578501 0.11289276 -0.05496448
v 0.00772478 0.10317694 -0.04804164
v -0.02097867 0.11180677 -0.05452281
v 0.00729598 0.11029424 -0.05652469
v 0.01733114 0.10222211 -0.04980272
v 0.00542821 0.11704412 -0.06637531
v 0.01778008 0.09326169 -0.04463189
v 0.01693048 0.10887280 -0.05772966
v 0.01822307 0.08307233 -0.04284077
v 0.00697054 0.11408125 -0.06693405
v 0.00896348 0.07513869 -0.04192763
v 0.01284387 0.07508641 -0.04145270
v 0.01944913 0.07550681 -0.04423540
v 0.01934828 0.08311933 -0.04495149
v 0.01893641 0.09259397 -0.04661685
v 0.01851894 0.10092573 -0.05142492
v 0.02161505 0.09245412 -0.04734462
v 0.02161505 0.09245412 -0.04734462
v 0.02201630 0.08322813 -0.04572290
v 0.02201630 0.08322813 -0.04572290
v 0.02120866 0.10056737 -0.05202657
v 0.02120866 0.10056737 -0.05202657
v 0.02236368 0.07400206 -0.04735690
v 0.02236368 0.07400206 -0.04735690
v 0.01814641 0.10710982 -0.05879575
v 0.02084591 0.10658926 -0.05920404
v 0.02084591 0.10658926 -0.05920404
v 0.01970508 0.07364477 -0.04662960
v 0.02261533 0.06588880 -0.05204981
v 0.02261533 0.06588880 -0.05204981
v 0.01996364 0.06531294 -0.05144876
v 0.02008631 0.05943624 -0.05846113
v 0.02274122 0.05986699 -0.05923527
v 0.02274122 0.05986699 -0.05923527
v 0.02150537 0.06101293 -0.04844552
v 0.02050712 0.05602658 -0.06779283
v 0.02272584 0.05666280 -0.06804686
v 0.02272584 0.05666280 -0.06804686
v 0.02232410 0.05490270 -0.05969172
v 0.02690532 0.05590184 -0.06024891
v 0.02205457 0.05135220 -0.07057124
v 0.02025308 0.05605771 -0.07751029
v 0.02257110 0.05666280 -0.07742172
v 0.02257110 0.05666280 -0.07742172
v 0.02229573 0.05986691 -0.08622890
v 0.02229573 0.05986691 -0.08622890
v 0.02014877 0.05910977 -0.08628028
v 0.02193286 0.06588879 -0.09340638
v 0.02193286 0.06588879 -0.09340638
v 0.02151706 0.05562695 -0.08775848
v 0.02130212 0.05238186 -0.08846539
v 0.01972224 0.06510372 -0.09354728
v 0.02492370 0.05302723 -0.09056586
v 0.02012755 0.06109425 -0.09895497
v 0.02084114 0.06326840 -0.09642928
v 0.01923253 0.07314038 -0.09834855
v 0.02152635 0.07400206 -0.09808844
v 0.01716234 0.06873768 -0.10456019
v 0.01983001 0.07193082 -0.10127216
v 0.02167715 0.06096463 -0.10105174
v 0.02601697 0.05049665 -0.09524804
v 0.01868333 0.06973080 -0.10831278
v 0.03285624 0.02204769 -0.08886796
v 0.02177383 0.05835789 -0.10484999
v 0.02957847 0.02067365 -0.10596257
v 0.02378954 0.02044079 -0.11655455
v 0.01782038 0.06688031 -0.11256641
v 0.03491165 -0.02528354 -0.12084561
v 0.01679017 0.01987706 -0.12524789
v 0.02176763 -0.02513865 -0.13589912
v 0.01978864 -0.03794467 -0.13629955
v 0.01034929 -0.02567699 -0.14246755
v 0.01131262 -0.03855838 -0.14031177
v 0.01071050 -0.04789157 -0.13346928
v -0.00120400 -0.03937320 -0.14068442
v -0.00052379 -0.04803073 -0.13323789
v -0.01567302 -0.04798556 -0.12982970
v -0.01813112 -0.03960002 -0.13652998
v -0.02119229 -0.04806613 -0.12497919
v -0.00252197 -0.02627460 -0.14369899
v -0.02778862 -0.03960376 -0.12886077
v -0.02839265 -0.04868785 -0.11136335
v -0.01932643 -0.02677859 -0.13822227
v -0.03114508 -0.04860118 -0.09347170
v -0.03568445 -0.04001849 -0.11363059
v -0.04252658 -0.03893725 -0.04783886
v -0.04066048 -0.04029490 -0.09304148
v -0.04075764 -0.03720019 -0.04517382
v -0.04627178 -0.02445727 -0.05177551
v -0.04343556 -0.02607448 -0.09411364
v -0.03024803 -0.02591776 -0.04747098
v -0.04389296 -0.02291316 -0.04889959
v -0.03414415 0.01143841 -0.07133597
v -0.04679177 0.01103902 -0.07233780
v -0.04837833 0.00946019 -0.07512551
v -0.03810130 0.02844952 -0.08926516
v -0.04450725 0.02855870 -0.09197348
v -0.04429839 0.01089017 -0.09710353
v -0.04581521 0.02592244 -0.09489387
v -0.03822420 -0.02582324 -0.11448508
v -0.03870807 0.01345997 -0.11121708
v -0.03007208 -0.02651805 -0.13003724
v -0.02899001 0.01594258 -0.12428099
v -0.04102228 0.03790066 -0.10599213
v -0.04190002 0.04090360 -0.10234326
v -0.03708075 0.05577527 -0.11424213
v -0.01883481 0.01706486 -0.13109308
v -0.02956126 0.07726240 -0.11807686
v -0.03813813 0.05825772 -0.11032444
v -0.00502954 0.01776998 -0.13460427
v -0.01846479 0.07838376 -0.12229389
v 0.00739374 0.01896947 -0.13168960
v -0.00703917 0.07875517 -0.12313646
v 0.01276233 0.07901554 -0.11726361
v 0.00304737 0.07907629 -0.12127131
v -0.00740979 0.08174482 -0.11980253
v 0.01497723 0.07983023 -0.11284464
v 0.00245549 0.08196592 -0.11830598
v 0.01259722 0.08189535 -0.11442905
v 0.01301743 0.07866178 -0.10779410
v 0.01076772 0.08002546 -0.10869890
v 0.00501122 0.08017539 -0.11168557
v 0.01867916 0.08080122 -0.10300797
v 0.01590015 0.08089651 -0.10492247
v 0.01079263 0.08986799 -0.10742801
v 0.01522114 0.08184126 -0.10326260
v 0.01845087 0.08099020 -0.10114842
v 0.01762988 0.08308767 -0.10178727
v 0.01762988 0.08308767 -0.10178727
v 0.00971331 0.09034704 -0.10381049
v 0.00971331 0.09034704 -0.10381049
v 0.01843335 0.08311933 -0.10039311
v 0.01843335 0.08311933 -0.10039311
v 0.00285389 0.09008788 -0.10780054
v 0.00285389 0.09008788 -0.10780054
v 0.00361516 0.08960935 -0.11044877
v 0.02112533 0.08322813 -0.09971016
v 0.02112533 0.08322813 -0.09971016
v -0.00620185 0.08990240 -0.10931617
v -0.00620185 0.08990240 -0.10931617
v 0.02647879 0.07800756 -0.08770519
v -0.00617490 0.08914244 -0.11243385
v 0.02624299 0.08342832 -0.08865803
v 0.02077784 0.09245412 -0.09807604
v 0.02077784 0.09245412 -0.09807604
v -0.01664732 0.08865500 -0.11158734
v -0.01629172 0.08928601 -0.10840553
v -0.01629172 0.08928601 -0.10840553
v -0.00554202 0.07996358 -0.11372989
v -0.02292536 0.08834974 -0.10912734
v -0.02215658 0.08892530 -0.10570734
v -0.02215658 0.08892530 -0.10570734
v -0.01673720 0.07956922 -0.11303013
v -0.01769100 0.08134405 -0.11869412
v -0.02277742 0.07877140 -0.11098915
v -0.02879892 0.08816718 -0.10550659
v -0.02780984 0.08879362 -0.10211461
v -0.02780984 0.08879362 -0.10211461
v -0.03073393 0.08501372 -0.10082632
v -0.03073393 0.08501372 -0.10082632
v -0.03026925 0.08045134 -0.11524134
v -0.02820204 0.07728055 -0.10820871
v -0.03418146 0.07920805 -0.10357302
v -0.03202663 0.08112012 -0.09967869
v -0.03202663 0.08112012 -0.09967869
v -0.03204499 0.07879949 -0.11489766
v -0.02983688 0.07525373 -0.10750681
v -0.03498862 0.07859434 -0.09792918
v -0.03498862 0.07859434 -0.09792918
v -0.03440807 0.08097471 -0.09879368
v -0.03440807 0.08097471 -0.09879368
v -0.03440807 0.08097471 -0.09879368
v -0.03559766 0.05923588 -0.10622102
v -0.03753756 0.07788053 -0.10119623
v -0.03760169 0.07158467 -0.10097187
v -0.03535483 0.07176015 -0.09648937
v -0.03506420 0.07225201 -0.09565192
v -0.03506420 0.07225201 -0.09565192
v -0.03777156 0.04462270 -0.10154908
v -0.03733335 0.06122663 -0.09385949
v -0.03487537 0.06444104 -0.09170764
v -0.03486047 0.06478184 -0.09104186
v -0.03486047 0.06478184 -0.09104186
v -0.03701268 0.05435193 -0.08695560
v -0.03458737 0.05808484 -0.08522528
v -0.03409718 0.05865826 -0.08467525
v -0.03409718 0.05865826 -0.08467525
v -0.03368209 0.05539357 -0.07631474
v -0.03368209 0.05539357 -0.07631474
v -0.03452108 0.05401152 -0.07624477
v -0.03280757 0.05440947 -0.06713038
v -0.03280757 0.05440947 -0.06713038
v -0.03679751 0.05001645 -0.07716113
v -0.03394137 0.05303097 -0.06616932
v -0.03629897 0.04923978 -0.06415504
v -0.03475545 0.09020078 -0.09715956
v -0.03475545 0.09020078 -0.09715956
v -0.03209684 0.09055807 -0.09788698
v -0.03500722 0.09831402 -0.09246677
v -0.03500722 0.09831402 -0.09246677
v -0.03099857 0.09131993 -0.09987098
v -0.03235541 0.09888990 -0.09306770
v -0.02240525 0.09238598 -0.10197872
v -0.03248451 0.10507399 -0.08568865
v -0.03513299 0.10433592 -0.08528119
v -0.03513299 0.10433592 -0.08528119
v -0.03127668 0.10028042 -0.09468811
v -0.02106677 0.09349301 -0.10488611
v -0.02270280 0.10197507 -0.09643226
v -0.00862764 0.09399778 -0.10509139
v -0.02139292 0.10400473 -0.09880596
v 0.00563349 0.09467061 -0.10531574
v 0.00537075 0.10509077 -0.09924763
v 0.01685550 0.09326169 -0.10066074
v 0.00520779 0.11289281 -0.08993786
v 0.01807656 0.09259397 -0.09871500
v 0.02052619 0.10056737 -0.09338325
v 0.02052619 0.10056737 -0.09338325
v 0.01781799 0.10092573 -0.09389573
v 0.01643850 0.10887280 -0.08754199
v 0.01768889 0.10710982 -0.08651667
v 0.02040042 0.10658926 -0.08619767
v 0.02040042 0.10658926 -0.08619767
v 0.01770474 0.11040035 -0.07746774
v 0.02041580 0.10979337 -0.07738608
v 0.02041580 0.10979337 -0.07738608
v 0.00678768 0.11408125 -0.07801407
v 0.01645555 0.11241154 -0.07781034
v 0.01786365 0.11040035 -0.06784039
v 0.02057053 0.10979337 -0.06801134
v 0.02057053 0.10979337 -0.06801134
v 0.01662638 0.11241154 -0.06745666
v 0.00522770 0.11704412 -0.07852155
v -0.02155588 0.11180677 -0.08949619
v -0.02153586 0.11595815 -0.07807988
v -0.02285145 0.10909231 -0.08793968
v -0.02133546 0.11595815 -0.06593364
v -0.03141556 0.10693106 -0.08675223
v -0.02283321 0.11287931 -0.07752519
v -0.03139852 0.11046979 -0.07702058
v -0.02265034 0.11287931 -0.06644517
v -0.03122757 0.11046979 -0.06666690
v -0.03246878 0.10836446 -0.07663971
v -0.03511761 0.10754003 -0.07646960
v -0.03511761 0.10754003 -0.07646960
v -0.03092347 0.10693106 -0.05693990
v -0.03230987 0.10836446 -0.06701237
v -0.03496287 0.10754003 -0.06709486
v -0.03496287 0.10754003 -0.06709486
v 0.02671756 0.07324064 -0.08495432
v 0.02693071 0.06970250 -0.08073717
v 0.02927353 0.07372732 -0.08107692
v 0.02709247 0.06781994 -0.07556241
v 0.02953078 0.07073353 -0.07284790
v 0.02718343 0.06781994 -0.07005435
v 0.02719249 0.06970250 -0.06487709
v 0.02954509 0.07372732 -0.06461483
v 0.02711858 0.07324064 -0.06065529
v 0.02697064 0.07800756 -0.05789798
v 0.02676656 0.08342832 -0.05693787
v 0.02930989 0.08130796 -0.06023007
v 0.02653088 0.08884907 -0.05789071
v 0.03183748 0.07777113 -0.06796354
v 0.02629210 0.09361601 -0.06064158
v 0.02893509 0.08992827 -0.06174534
v 0.02607896 0.09715407 -0.06485873
v 0.03169681 0.08230329 -0.06534212
v 0.02591707 0.09903669 -0.07003337
v 0.03147270 0.08745702 -0.06624800
v 0.02582623 0.09903669 -0.07554155
v 0.02859618 0.09555477 -0.06845158
v 0.02581717 0.09715407 -0.08071881
v 0.03127005 0.09082091 -0.07025748
v 0.02845158 0.09555477 -0.07721096
v 0.02589108 0.09361601 -0.08494061
v 0.02856912 0.08992827 -0.08392471
v 0.02603890 0.08884901 -0.08769792
v 0.02889373 0.08130796 -0.08545154
v 0.03125395 0.08745702 -0.07950824
v 0.03144791 0.08230329 -0.08042103
v 0.03118362 0.09082091 -0.07549435
v 0.03167512 0.07777113 -0.07780557
v 0.03182890 0.07598127 -0.07288581
v -0.03958426 0.09450033 -0.07963949
v -0.03957520 0.09638296 -0.07446223
v -0.03951035 0.09096220 -0.08386129
v -0.03948424 0.09638296 -0.06895405
v -0.03936241 0.08619528 -0.08661860
v -0.04193698 0.09047551 -0.07990175
v -0.03915833 0.08077452 -0.08757859
v -0.04170178 0.08289488 -0.08428651
v -0.04192255 0.09346937 -0.07166868
v -0.04422925 0.08643171 -0.07655292
v -0.03932248 0.09450033 -0.06377941
v -0.04422067 0.08822157 -0.07163077
v -0.03910933 0.09096220 -0.05956226
v -0.04166530 0.09047551 -0.06343954
v -0.03887056 0.08619528 -0.05681139
v -0.04138206 0.08511701 -0.05945557
v -0.03863488 0.08077452 -0.05585855
v -0.04389749 0.08322813 -0.06432908
v -0.03843067 0.07535383 -0.05681866
v -0.04110525 0.07845075 -0.05906790
v -0.03828285 0.07058691 -0.05957585
v -0.04406689 0.08643171 -0.06671089
v -0.04373203 0.07924260 -0.06409734
v -0.04389570 0.07927001 -0.07394927
v -0.04086993 0.07087011 -0.06345266
v -0.04359136 0.07471052 -0.06671875
v -0.04403339 0.08057112 -0.07909721
v -0.04359995 0.07292058 -0.07164102
v -0.04375373 0.07471052 -0.07656079
v -0.04142485 0.07622862 -0.08389884
v -0.04088436 0.06787632 -0.07168573
v -0.04114161 0.07087010 -0.07991486
v -0.03892265 0.07535383 -0.08662575
v -0.03868387 0.07058690 -0.08387488
v -0.03847073 0.06704876 -0.07965785
v -0.03830884 0.06516614 -0.07448309
v -0.03821800 0.06516614 -0.06897503
v -0.03820894 0.06704877 -0.06379777
v -0.02215658 0.08892530 -0.10570734
v -0.02780984 0.08879362 -0.10211461
v -0.02240525 0.09238598 -0.10197872
v 0.04909422 -0.03883028 0.08728713
v 0.04909422 -0.03883028 0.08728713
v -0.03579734 -0.01926180 0.11296100
v -0.04064117 -0.03361498 0.11221701
v -0.04017041 -0.04069788 0.10575098
v 0.05647828 -0.03471018 0.07793361
v 0.05647828 -0.03471018 0.07793361
v 0.05647816 -0.03863649 0.07793361
v 0.05647816 -0.03863649 0.07793361
v 0.04899098 -0.03068484 0.08728713
v 0.04953052 -0.02881975 0.08007712
v -0.03089641 -0.01516917 0.10575098
v 0.04807617 -0.02881975 0.05179578
v 0.05565490 -0.03368052 0.04660052
v -0.02900646 -0.01603647 0.06287271
v -0.03848324 -0.01651049 0.10575098
v -0.03659330 -0.01737779 0.06287271
v -0.04412804 -0.03391451 0.10575098
v -0.04223810 -0.03478182 0.06287271
v -0.02921949 -0.01725817 0.05390138
v -0.03828059 -0.04156519 0.06287271
v 0.04776146 -0.02907770 0.04383618
v -0.03627930 -0.03827783 0.05262453
v 0.04706396 -0.04130381 0.04392487
v 0.04917409 -0.04130381 0.05179578
v 0.05062844 -0.04130381 0.08007712
v 0.05576577 -0.04089892 0.04660052
v -0.02861391 0.11244054 -0.05611485
v -0.03027771 0.11623135 -0.06914478
v -0.03015004 0.11542051 -0.07984477
v -0.02967451 0.11032665 -0.08952576
v -0.02805517 0.10514769 -0.09522515
v -0.02646850 0.09986524 -0.09905868
v -0.02437363 0.09381673 -0.10357505
v -0.01862643 0.09245123 -0.10609811
v 0.00178482 0.09254384 -0.10611289
v 0.00551893 0.09308217 -0.10518640
v 0.00873806 0.09519765 -0.10268217
v 0.00988998 0.10568662 -0.09530431
v 0.01229765 0.11044933 -0.08724922
v 0.01381387 0.11327679 -0.07997995
v 0.01446726 0.11378613 -0.06964546
v 0.01417305 0.11067152 -0.06120270
v 0.01336529 0.10329214 -0.05063885
v 0.01233031 0.09291472 -0.04193526
v 0.00940313 0.08874853 -0.03870922
v 0.00601806 0.08794576 -0.03708809
v -0.01605950 0.08727674 -0.03647059
v -0.01961182 0.08738369 -0.03760427
v -0.02260743 0.08937162 -0.03927975
v -0.02374325 0.09118040 -0.04009157
v -0.02623056 0.10339445 -0.04627794
v -0.02083502 0.10363804 -0.10034114
v 0.00532474 0.10423552 -0.10143441
v -0.01806186 0.13089032 -0.09670561
v 0.00292184 0.13088697 -0.09573191
v 0.00963630 0.13124006 -0.08969813
v -0.02420972 0.13258985 -0.08974355
v 0.01198854 0.13135208 -0.08265560
v -0.02799950 0.13254057 -0.08090549
v 0.01388909 0.13113172 -0.06923264
v -0.02871583 0.13151792 -0.06813961
v 0.01225974 0.13056630 -0.06001800
v -0.02719591 0.13011174 -0.05605322
v -0.00716422 0.13216673 -0.07243937
v -0.02160917 0.12967764 -0.04634565
v 0.00723483 0.12987150 -0.04782480
v 0.00309648 0.13089025 -0.04547995
v -0.01720188 0.09147283 -0.03843146
v 0.00641205 0.09178907 -0.03822404
v 0.00912775 0.09239361 -0.03990715
vt 0.97151882 0.00367004
vt 0.91171884 0.00910449
vt 0.90297431 0.01120222
vt 0.94179034 0.06947702
vt 0.90297431 0.01120222
vt 0.90208930 0.02029264
vt 0.88178688 0.02809757
vt 0.87857276 0.02121562
vt 0.87389308 0.02611464
vt 0.86908585 0.03137702
vt 0.96074289 0.13846987
vt 0.89595854 0.23545462
vt 0.96337557 0.13723999
vt 0.89887995 0.23700118
vt 0.95324630 0.14429212
vt 0.88687289 0.23228115
vt 0.90318274 0.23933458
vt 0.96746272 0.13840723
vt 0.95284241 0.14753121
vt 0.88884425 0.22115588
vt 0.94191855 0.14947009
vt 0.96235079 0.15639108
vt 0.90942663 0.24209499
vt 0.97163886 0.14234859
vt 0.97551715 0.14666140
vt 0.91586733 0.24466073
vt 0.93059635 0.24805415
vt 0.98343563 0.15681219
vt 0.94309270 0.15305984
vt 0.93718225 0.15143675
vt 0.88659382 0.21577835
vt 0.97338861 0.16674483
vt 0.99290657 0.17351145
vt 0.95133334 0.24835145
vt 0.95487231 0.16316354
vt 0.98238635 0.17878705
vt 0.96514696 0.24572957
vt 0.99586898 0.18609810
vt 0.96727639 0.17477208
vt 0.98975289 0.19354945
vt 0.99549752 0.19438726
vt 0.97254699 0.24370301
vt 0.97669125 0.18843776
vt 0.96447647 0.17661732
vt 0.99075168 0.19493091
vt 0.98495567 0.20600098
vt 0.98562509 0.20802039
vt 0.97652495 0.22980672
vt 0.97426885 0.19066918
vt 0.98181421 0.20707148
vt 0.97350472 0.19106686
vt 0.98237842 0.21127796
vt 0.98077840 0.20762622
vt 0.98296243 0.21254021
vt 0.97694272 0.22587681
vt 0.98133147 0.21349543
vt 0.97401231 0.22766739
vt 0.98115832 0.21170813
vt 0.97648716 0.22416145
vt 0.97528166 0.21150130
vt 0.97505468 0.21271199
vt 0.97432786 0.23098296
vt 0.97168398 0.22902197
vt 0.97155601 0.23245805
vt 0.96587378 0.23514509
vt 0.96610957 0.23172235
vt 0.97348696 0.22642970
vt 0.97101444 0.22788441
vt 0.96899968 0.22180682
vt 0.97061545 0.22033709
vt 0.96757275 0.22293478
vt 0.96534562 0.23060316
vt 0.95662683 0.23479390
vt 0.96231180 0.22511178
vt 0.95591265 0.23829788
vt 0.95633548 0.23338777
vt 0.92998135 0.23465604
vt 0.92946976 0.23832071
vt 0.91270119 0.23291481
vt 0.91375130 0.22929937
vt 0.90599912 0.22943336
vt 0.91437095 0.22784746
vt 0.90168899 0.22669226
vt 0.90771747 0.22611135
vt 0.90331471 0.22395343
vt 0.89832133 0.22498077
vt 0.89941585 0.22155881
vt 0.88857001 0.21630943
vt 0.93482083 0.15267837
vt 0.88705856 0.21310449
vt 0.90377492 0.22231412
vt 0.88910139 0.21357566
vt 0.89582360 0.19581246
vt 0.91985094 0.16520101
vt 0.89957946 0.21978349
vt 0.89692628 0.19676155
vt 0.90240478 0.18868142
vt 0.91526562 0.17219275
vt 0.90453655 0.20546240
vt 0.90766388 0.20760339
vt 0.90799069 0.22456616
vt 0.91327631 0.20850366
vt 0.90986639 0.20254213
vt 0.90758228 0.20010674
vt 0.90308124 0.18981284
vt 0.91171342 0.18199176
vt 0.91208935 0.19944018
vt 0.91158664 0.19689995
vt 0.91093022 0.18435991
vt 0.91751510 0.18572360
vt 0.91589320 0.19633913
vt 0.91471010 0.20275313
vt 0.91567540 0.19909769
vt 0.91807938 0.20885181
vt 0.91913092 0.20308310
vt 0.91980058 0.19968826
vt 0.92035723 0.19694215
vt 0.93238682 0.20432007
vt 0.93214357 0.20705539
vt 0.93172717 0.21280187
vt 0.93003684 0.23295873
vt 0.94586617 0.21773815
vt 0.94431835 0.21166235
vt 0.95492035 0.22091836
vt 0.95555311 0.21664763
vt 0.96385467 0.22045338
vt 0.96485370 0.21890128
vt 0.95601058 0.21518886
vt 0.94451803 0.20983070
vt 0.96578467 0.21746874
vt 0.93278980 0.20187163
vt 0.95694262 0.21331507
vt 0.94511223 0.20742637
vt 0.93585104 0.19467473
vt 0.94831896 0.20080179
vt 0.96072447 0.20659304
vt 0.96959853 0.21088243
vt 0.94881529 0.19997519
vt 0.96129328 0.20583373
vt 0.96984750 0.20989835
vt 0.97365290 0.20760477
vt 0.96394789 0.20277113
vt 0.95129847 0.19692069
vt 0.96449578 0.20170879
vt 0.95188099 0.19596559
vt 0.93899858 0.19116008
vt 0.97397101 0.20593274
vt 0.97940910 0.20647359
vt 0.97263485 0.19115066
vt 0.96320128 0.17720842
vt 0.96255213 0.17766243
vt 0.95119888 0.16515678
vt 0.93967009 0.19027060
vt 0.93901414 0.15512359
vt 0.95015848 0.16600054
vt 0.93686450 0.15679359
vt 0.94955134 0.16693699
vt 0.93678564 0.15873975
vt 0.93105948 0.16059583
vt 0.92658401 0.18223292
vt 0.92314923 0.16738880
vt 0.92212838 0.17851716
vt 0.93170244 0.16202253
vt 0.92478663 0.16813546
vt 0.92064530 0.17475176
vt 0.91841167 0.17539918
vt 0.92061484 0.17951471
vt 0.91806668 0.18446976
vt 0.92570525 0.18315935
vt 0.92203069 0.18763637
vt 0.92264491 0.18662912
vt 0.93625951 0.19378585
vt 0.88178688 0.02809757
vt 0.87857276 0.02121562
vt 0.87389308 0.02611464
vt 0.86908585 0.03137702
vt 0.83400565 0.22388852
vt 0.77956396 0.22311431
vt 0.86995727 0.21459782
vt 0.75933748 0.24443829
vt 0.88826567 0.19959277
vt 0.75082928 0.22945529
vt 0.79278332 0.18391031
vt 0.91245776 0.16788364
vt 0.73413402 0.18969774
vt 0.80030853 0.19878501
vt 0.77613002 0.15702516
vt 0.92092377 0.16078001
vt 0.73095089 0.17740315
vt 0.79415327 0.18225110
vt 0.76975471 0.14735913
vt 0.73013097 0.17273295
vt 0.92459887 0.15826881
vt 0.77772075 0.15523225
vt 0.76712495 0.14351070
vt 0.77123624 0.14577430
vt 0.76461822 0.13951713
vt 0.92490584 0.15363067
vt 0.72841793 0.16878867
vt 0.76743329 0.14172959
vt 0.75494844 0.13949162
vt 0.63908857 0.03781599
vt 0.92676801 0.14732236
vt 0.72815841 0.16355479
vt 0.76952219 0.13579214
vt 0.74899006 0.13310599
vt 0.64383972 0.04226106
vt 0.72550535 0.15995151
vt 0.75720102 0.13644731
vt 0.73867947 0.13957328
vt 0.64347869 0.04956096
vt 0.72092396 0.16030395
vt 0.77226621 0.13800871
vt 0.73652607 0.13845658
vt 0.64381135 0.05326062
vt 0.71890444 0.15930670
vt 0.64250153 0.05477703
vt 0.71717942 0.15837586
vt 0.74796641 0.12370825
vt 0.73442382 0.13755775
vt 0.66615039 0.07697302
vt 0.69949418 0.13963556
vt 0.74383706 0.12353921
vt 0.71165234 0.12284797
vt 0.69310099 0.13175643
vt 0.67661029 0.08350736
vt 0.72312886 0.11088055
vt 0.74565059 0.12295353
vt 0.69085580 0.12331367
vt 0.68505412 0.08894187
vt 0.69104987 0.11883378
vt 0.68947476 0.09168017
vt 0.70374256 0.11616910
vt 0.69729859 0.09747344
vt 0.69628221 0.11056846
vt 0.71479982 0.10615802
vt 0.70567149 0.10325873
vt 0.70306605 0.10110909
vt 0.70186454 0.10538596
vt 0.72473997 0.10898834
vt 0.71632391 0.10425597
vt 0.74734527 0.11714500
vt 0.73000365 0.10444492
vt 0.70731336 0.10069042
vt 0.74940926 0.11851054
vt 0.72142822 0.09939820
vt 0.75114876 0.11091560
vt 0.73549801 0.09857547
vt 0.75301981 0.13018262
vt 0.75324756 0.11239266
vt 0.76402646 0.12457305
vt 0.76036447 0.11889333
vt 0.76666897 0.08228487
vt 0.77462012 0.12530422
vt 0.77847630 0.09264511
vt 0.77796251 0.12682837
vt 0.78296047 0.09431297
vt 0.78647029 0.09584236
vt 0.77212626 0.08419967
vt 0.78344399 0.07996005
vt 0.77485472 0.07419521
vt 0.78803343 0.08167392
vt 0.79016018 0.07047588
vt 0.79030138 0.08345288
vt 0.79436213 0.07734853
vt 0.79870182 0.08749908
vt 0.79294968 0.07335621
vt 0.80181342 0.08027548
vt 0.80399090 0.07704371
vt 0.79851443 0.09695625
vt 0.81180245 0.09286588
vt 0.79929453 0.11971498
vt 0.81242806 0.11300474
vt 0.78321952 0.13410866
vt 0.80351478 0.13383716
vt 0.77585381 0.14181757
vt 0.78891438 0.14489317
vt 0.78198797 0.15184939
vt 0.80157620 0.17440969
vt 0.79697329 0.17912120
vt 0.80158752 0.19786078
vt 0.80483097 0.19378269
vt 0.83435589 0.22201747
vt 0.80770522 0.19723719
vt 0.80777913 0.18930453
vt 0.80899817 0.19245213
vt 0.81032449 0.16801947
vt 0.81376845 0.18278211
vt 0.82614309 0.12696123
vt 0.82856065 0.16408777
vt 0.81397206 0.18651515
vt 0.82900441 0.17966425
vt 0.83594507 0.12887102
vt 0.83632571 0.16435498
vt 0.82613617 0.10736769
vt 0.83760411 0.11086428
vt 0.82737178 0.09502137
vt 0.83862883 0.09858537
vt 0.81418949 0.08311331
vt 0.82910669 0.08744913
vt 0.81526643 0.08045363
vt 0.84159929 0.09164542
vt 0.82980502 0.08505338
vt 0.81624418 0.07805771
vt 0.83047408 0.08252561
vt 0.84308082 0.08951956
vt 0.85587913 0.10349077
vt 0.85544783 0.09624416
vt 0.84327847 0.08615386
vt 0.85563546 0.11587209
vt 0.85566574 0.09406412
vt 0.85533386 0.13236183
vt 0.86142355 0.09770840
vt 0.85692412 0.09141833
vt 0.86216980 0.09554654
vt 0.86153275 0.10379124
vt 0.86295992 0.09282774
vt 0.86842674 0.09602386
vt 0.86863166 0.09853929
vt 0.86094171 0.11646116
vt 0.86931092 0.10416055
vt 0.86134011 0.13353068
vt 0.87207633 0.11745793
vt 0.87169939 0.13646334
vt 0.85729820 0.16920727
vt 0.86353904 0.17263848
vt 0.85291344 0.16767579
vt 0.85477668 0.18303263
vt 0.84428698 0.18085241
vt 0.86035901 0.18634170
vt 0.82925469 0.18324298
vt 0.85436326 0.18626601
vt 0.84382564 0.18473190
vt 0.85906249 0.18887466
vt 0.86286122 0.18917555
vt 0.85212356 0.19274515
vt 0.85453922 0.19283670
vt 0.84230524 0.19346297
vt 0.85852843 0.20526701
vt 0.85678822 0.19444793
vt 0.82910591 0.19211906
vt 0.83529288 0.20868844
vt 0.81499153 0.19118327
vt 0.81257421 0.19518614
vt 0.81252795 0.19346029
vt 0.83467323 0.21724921
vt 0.86569244 0.21009648
vt 0.85995489 0.20369202
vt 0.86914372 0.21213329
vt 0.86608774 0.20614022
vt 0.88705403 0.19706512
vt 0.86888963 0.20515394
vt 0.88269693 0.19278461
vt 0.86543089 0.19333142
vt 0.85817272 0.19679862
vt 0.86361867 0.19521225
vt 0.86153132 0.19151384
vt 0.87343222 0.18041998
vt 0.86816412 0.17616969
vt 0.88007742 0.13924807
vt 0.90635020 0.15910608
vt 0.88988644 0.14256376
vt 0.88446814 0.13115895
vt 0.91119093 0.16548610
vt 0.91960317 0.15845537
vt 0.91493720 0.15171593
vt 0.92346054 0.15638900
vt 0.91788107 0.14982486
vt 0.89995271 0.12927169
vt 0.92107254 0.14843422
vt 0.67491466 0.01797301
vt 0.91190153 0.10989243
vt 0.90090996 0.11244220
vt 0.90436846 0.11240405
vt 0.90263683 0.10124642
vt 0.68409091 0.01121885
vt 0.89834887 0.10384375
vt 0.89313203 0.11488712
vt 0.89265054 0.09793168
vt 0.89519077 0.09394550
vt 0.68827301 0.00626081
vt 0.89608461 0.10495955
vt 0.89207965 0.10029864
vt 0.88827091 0.10503513
vt 0.88149625 0.11750227
vt 0.87854868 0.10436088
vt 0.88654023 0.09989595
vt 0.87792689 0.09871739
vt 0.88659030 0.09613281
vt 0.87833863 0.09499806
vt 0.88623339 0.09256369
vt 0.87743050 0.09166878
vt 0.86821240 0.09333283
vt 0.87778908 0.09003919
vt 0.88570362 0.09010065
vt 0.68959862 0.00294417
vt 0.89340836 0.08966392
vt 0.87074858 0.08806175
vt 0.88705689 0.08611268
vt 0.87748939 0.08321792
vt 0.88830501 0.08442229
vt 0.89306575 0.08881873
vt 0.69036895 0.00166810
vt 0.85919911 0.08555138
vt 0.84501415 0.08189350
vt 0.86323673 0.08078694
vt 0.83042651 0.07732189
vt 0.84226090 0.07514471
vt 0.87304598 0.08282548
vt 0.86551720 0.08063537
vt 0.87512499 0.08153147
vt 0.87286216 0.08161205
vt 0.87806445 0.08215129
vt 0.89152461 0.07576901
vt 0.89608937 0.07088661
vt 0.87520200 0.07751650
vt 0.87344223 0.07769418
vt 0.87565070 0.07314926
vt 0.90193778 0.06792766
vt 0.86573201 0.07667726
vt 0.87189513 0.07771271
vt 0.87397319 0.07272345
vt 0.90812212 0.06718975
vt 0.87762743 0.06875408
vt 0.87253457 0.07236403
vt 0.87608105 0.06796950
vt 0.87910301 0.06326395
vt 0.88054758 0.06423128
vt 0.91393477 0.06847954
vt 0.87474209 0.06734663
vt 0.86704117 0.07076669
vt 0.86342984 0.07634884
vt 0.86961561 0.06506354
vt 0.86498457 0.07012802
vt 0.84488684 0.07029706
vt 0.87299067 0.05965352
vt 0.84879571 0.06321371
vt 0.86771065 0.06421250
vt 0.85284215 0.05645543
vt 0.84287077 0.06901151
vt 0.84695417 0.06211144
vt 0.85706049 0.05004203
vt 0.85111338 0.05533838
vt 0.87118655 0.05862522
vt 0.85538870 0.04886764
vt 0.84611446 0.05170763
vt 0.86144739 0.04397082
vt 0.84174091 0.05850095
vt 0.85050494 0.04512542
vt 0.83695656 0.06538975
vt 0.85981423 0.04272932
vt 0.84035212 0.07332009
vt 0.83727753 0.07262301
vt 0.83155686 0.06976432
vt 0.83579093 0.06425983
vt 0.84057671 0.05756819
vt 0.84495217 0.05080461
vt 0.75965315 0.00320601
vt 0.83923989 0.05642670
vt 0.83460170 0.06290025
vt 0.76502353 0.00196427
vt 0.75523764 0.00607771
vt 0.84358984 0.04970908
vt 0.82800633 0.06786931
vt 0.77076441 0.00249654
vt 0.84935909 0.04420626
vt 0.75221831 0.01038450
vt 0.84801251 0.04309154
vt 0.82870776 0.06957006
vt 0.77622968 0.00476497
vt 0.81877023 0.06939119
vt 0.81886965 0.07118267
vt 0.80907422 0.07046604
vt 0.78076059 0.00860310
vt 0.80872995 0.06865042
vt 0.81780964 0.07478923
vt 0.79796725 0.06836474
vt 0.79824907 0.06687051
vt 0.78376895 0.01368022
vt 0.80522972 0.07251012
vt 0.80453235 0.07563978
vt 0.79355246 0.07040507
vt 0.78783137 0.06399941
vt 0.78481084 0.01954317
vt 0.78866535 0.06265467
vt 0.78107983 0.05594164
vt 0.78356177 0.02566296
vt 0.78019744 0.05722171
vt 0.77566582 0.04733306
vt 0.77970701 0.03151697
vt 0.77844650 0.05956244
vt 0.77720863 0.06175345
vt 0.77452785 0.04866797
vt 0.77382100 0.06110513
vt 0.76980835 0.05142641
vt 0.77208096 0.04987806
vt 0.77120000 0.03852981
vt 0.77254182 0.03645062
vt 0.76549417 0.04377919
vt 0.76860815 0.04073220
vt 0.76760489 0.05157596
vt 0.76934057 0.06110889
vt 0.76241642 0.04399681
vt 0.76374942 0.08095688
vt 0.76393610 0.05272520
vt 0.75333697 0.07501668
vt 0.74622279 0.07114547
vt 0.75912005 0.04578596
vt 0.72774082 0.09370393
vt 0.73909766 0.06825918
vt 0.71895891 0.08900887
vt 0.71267205 0.09483820
vt 0.71326333 0.08600456
vt 0.70865971 0.09262437
vt 0.70469147 0.09896106
vt 0.70295149 0.08963782
vt 0.69880646 0.09519392
vt 0.69078296 0.08946764
vt 0.69520670 0.08427411
vt 0.68654269 0.08691084
vt 0.70773512 0.08270717
vt 0.68962151 0.08062297
vt 0.67757696 0.08179200
vt 0.69993645 0.07793111
vt 0.66711432 0.07540154
vt 0.68132192 0.07554525
vt 0.65008658 0.04982114
vt 0.67104179 0.06838471
vt 0.64916050 0.04770917
vt 0.65781838 0.04503202
vt 0.67685849 0.06133229
vt 0.65020806 0.03762412
vt 0.65670306 0.04283428
vt 0.67813331 0.02787530
vt 0.68003160 0.03514874
vt 0.68092090 0.03709143
vt 0.69476563 0.02846324
vt 0.69646591 0.03256971
vt 0.69256836 0.04373312
vt 0.69687039 0.03515565
vt 0.68661267 0.06803501
vt 0.70094806 0.04793644
vt 0.69421488 0.07374197
vt 0.70991856 0.05268729
vt 0.70754439 0.03381962
vt 0.70686084 0.03067291
vt 0.71936279 0.02996784
vt 0.71660310 0.05687004
vt 0.73187786 0.02494383
vt 0.71868640 0.02695537
vt 0.72438866 0.06175160
vt 0.73796922 0.02850854
vt 0.73208290 0.06524628
vt 0.74410158 0.03208423
vt 0.75583500 0.03786039
vt 0.74977976 0.03508055
vt 0.74499577 0.02971238
vt 0.75813502 0.03723955
vt 0.75055689 0.03298593
vt 0.75642866 0.03609848
vt 0.76042229 0.03602225
vt 0.75840265 0.03433514
vt 0.75407320 0.03176695
vt 0.76520580 0.03557694
vt 0.76292908 0.03506768
vt 0.75836956 0.02982193
vt 0.76332003 0.03407526
vt 0.76684028 0.03489864
vt 0.76520830 0.03384393
vt 0.87868077 0.01273197
vt 0.87926132 0.01883858
vt 0.75883073 0.02896768
vt 0.76645547 0.03265542
vt 0.87797075 0.01209170
vt 0.88390404 0.02085316
vt 0.75614291 0.02592266
vt 0.75509983 0.02701437
vt 0.87692672 0.01077294
vt 0.76737338 0.03252470
vt 0.88863856 0.02393156
vt 0.75160485 0.02176756
vt 0.77193171 0.02739578
vt 0.75002915 0.02281237
vt 0.76878196 0.02698052
vt 0.76377445 0.02890080
vt 0.87212902 0.01473290
vt 0.74329549 0.01782584
vt 0.74418312 0.01561064
vt 0.89319474 0.02815449
vt 0.74758249 0.02738553
vt 0.73889357 0.01502275
vt 0.73926407 0.01255757
vt 0.89571410 0.03132999
vt 0.74041325 0.02275419
vt 0.73924702 0.02602518
vt 0.73593575 0.02037442
vt 0.73447782 0.01274431
vt 0.73423868 0.01042044
vt 0.89807945 0.03496253
vt 0.73083311 0.01100278
vt 0.90091211 0.03505892
vt 0.73228139 0.02259052
vt 0.73084599 0.01886916
vt 0.72750312 0.01452410
vt 0.72779328 0.01134086
vt 0.90339333 0.03432399
vt 0.73105246 0.02268660
vt 0.72846347 0.01891172
vt 0.91882461 0.09781808
vt 0.72438407 0.01128870
vt 0.72616821 0.01053572
vt 0.90463620 0.03530502
vt 0.92037517 0.09716219
vt 0.71779853 0.02378279
vt 0.72483188 0.01363683
vt 0.72145373 0.01589811
vt 0.71959525 0.01320076
vt 0.91498500 0.09970897
vt 0.71952182 0.01256186
vt 0.70814758 0.02727354
vt 0.71271378 0.01647747
vt 0.71334392 0.01364374
vt 0.71321732 0.01318169
vt 0.90962058 0.10092479
vt 0.70590764 0.01607579
vt 0.70677072 0.01312101
vt 0.90426928 0.10058838
vt 0.70675713 0.01251882
vt 0.70066172 0.00987846
vt 0.90056926 0.09656352
vt 0.70002657 0.01066738
vt 0.89742428 0.09336120
vt 0.69520050 0.00604075
vt 0.69876677 0.01347691
vt 0.69420368 0.00676501
vt 0.69180256 0.00853950
vt 0.90082222 0.04005277
vt 0.92366987 0.09223741
vt 0.89945561 0.03897649
vt 0.92511898 0.08670920
vt 0.89653689 0.04499978
vt 0.89834505 0.03800410
vt 0.89519745 0.04388106
vt 0.89419347 0.03416002
vt 0.89087087 0.04881120
vt 0.92473012 0.08106685
vt 0.89220363 0.04993969
vt 0.89406043 0.04292351
vt 0.89302450 0.03256750
vt 0.88977343 0.03920346
vt 0.88722664 0.02754861
vt 0.88822085 0.03780138
vt 0.88039476 0.02216119
vt 0.87548310 0.02740282
vt 0.87422377 0.01711077
vt 0.87065846 0.03271192
vt 0.87322694 0.01606649
vt 0.76087529 0.02575207
vt 0.86714607 0.01961046
vt 0.86832434 0.02088606
vt 0.86449319 0.02721572
vt 0.86342984 0.02619880
vt 0.86219627 0.02497250
vt 0.75830919 0.02314556
vt 0.85860974 0.03187704
vt 0.85733253 0.03069270
vt 0.75469643 0.02065003
vt 0.86438495 0.03690845
vt 0.85970360 0.03286022
vt 0.85391003 0.03788394
vt 0.85259515 0.03673649
vt 0.75114304 0.01585805
vt 0.85503155 0.03883338
vt 0.86598450 0.03821003
vt 0.88368803 0.04296952
vt 0.87930661 0.04809725
vt 0.88531858 0.04428047
vt 0.87510926 0.05328608
vt 0.88972431 0.04786479
vt 0.88098460 0.04934520
vt 0.88549668 0.05277741
vt 0.87684065 0.05444556
vt 0.88149458 0.05764526
vt 0.88666230 0.05369848
vt 0.92257696 0.07583088
vt 0.88800913 0.05481011
vt 0.87784630 0.06248301
vt 0.88269526 0.05851686
vt 0.88407761 0.05958134
vt 0.91888100 0.07148629
vt 0.77482611 0.02574551
vt 0.77680832 0.02289546
vt 0.77414602 0.02295220
vt 0.77758342 0.01951903
vt 0.77527946 0.01802701
vt 0.77707869 0.01610810
vt 0.77543598 0.01307368
vt 0.77284163 0.01341063
vt 0.77288443 0.01073802
vt 0.76977307 0.00932848
vt 0.76648647 0.00897968
vt 0.76817662 0.01121831
vt 0.76343757 0.00969851
vt 0.77086383 0.01559472
vt 0.76101047 0.01137441
vt 0.76362687 0.01226461
vt 0.75956136 0.01376683
vt 0.76823360 0.01427847
vt 0.75933272 0.01647317
vt 0.76565319 0.01484460
vt 0.76020390 0.01907438
vt 0.76147598 0.01577193
vt 0.76167351 0.02142632
vt 0.76437050 0.01686174
vt 0.76244885 0.01990211
vt 0.76352221 0.02363724
vt 0.76551348 0.02346987
vt 0.76583916 0.02563715
vt 0.77004212 0.02515531
vt 0.76672751 0.02146542
vt 0.76938444 0.02222401
vt 0.76483160 0.01936561
vt 0.77164012 0.02095962
vt 0.77223569 0.01825100
vt 0.91740996 0.08258432
vt 0.91608316 0.07947904
vt 0.91765505 0.08592677
vt 0.91379935 0.07693577
vt 0.91679197 0.08915597
vt 0.91532022 0.08432531
vt 0.91490227 0.09191781
vt 0.91402203 0.08920783
vt 0.91324347 0.07958055
vt 0.91200143 0.08440322
vt 0.91076475 0.07524484
vt 0.91075784 0.08165699
vt 0.90727502 0.07462054
vt 0.90855140 0.07705492
vt 0.90369755 0.07520473
vt 0.90441996 0.07730711
vt 0.90047890 0.07701844
vt 0.90568143 0.08041298
vt 0.89817339 0.07988560
vt 0.90116745 0.07980603
vt 0.89742094 0.08329284
vt 0.90800625 0.08023268
vt 0.90389305 0.08180439
vt 0.90809423 0.08598959
vt 0.90017050 0.08477664
vt 0.90331489 0.08461958
vt 0.91073781 0.08769101
vt 0.90475279 0.08739406
vt 0.90746456 0.08882993
vt 0.91118008 0.09172159
vt 0.90287298 0.08953160
vt 0.90738756 0.09212500
vt 0.91217619 0.09381688
vt 0.90898830 0.09453344
vt 0.90572888 0.09401029
vt 0.90288264 0.09222037
vt 0.90056044 0.08965272
vt 0.89870602 0.08661097
vt 0.89571410 0.03132999
vt 0.89807945 0.03496253
vt 0.88178688 0.02809757
vt 0.97151882 0.00367004
vt 0.94179034 0.06947702
vt 0.91171884 0.00910449
vt 0.90297431 0.01120222
vt 0.90208930 0.02029264
vt 0.97745490 0.01477313
vt 0.95394850 0.07255721
vt 0.95199543 0.07087916
vt 0.97860134 0.01180536
vt 0.97087979 0.00856167
vt 0.97246557 0.01343733
vt 0.91761971 0.01041508
vt 0.96982640 0.03580254
vt 0.97158062 0.04551339
vt 0.93505174 0.02170694
vt 0.91433841 0.01195222
vt 0.93126661 0.02232319
vt 0.90465307 0.01524270
vt 0.92474294 0.02618659
vt 0.93606925 0.02512920
vt 0.92413265 0.02919382
vt 0.96532220 0.04047054
vt 0.92959499 0.02868456
vt 0.96155971 0.04857367
vt 0.96099502 0.05516261
vt 0.94678867 0.06835103
vt 0.96719277 0.05110562
vt 0.57444024 0.00238734
vt 0.58757377 0.00210625
vt 0.59777701 0.00539714
vt 0.60632414 0.01056379
vt 0.61106467 0.01418930
vt 0.61532247 0.01718968
vt 0.61955035 0.02041161
vt 0.61994946 0.02463561
vt 0.61628503 0.03810358
vt 0.61507142 0.04045534
vt 0.61278033 0.04242021
vt 0.60360467 0.04293031
vt 0.59542477 0.04484528
vt 0.58772361 0.04557431
vt 0.57770079 0.04356211
vt 0.56929433 0.04151595
vt 0.55971551 0.03570956
vt 0.55173361 0.03097725
vt 0.54881728 0.02779543
vt 0.54829413 0.02520013
vt 0.55022454 0.00957954
vt 0.55118144 0.00709844
vt 0.55338240 0.00530958
vt 0.55489945 0.00468296
vt 0.56367111 0.00398552
vt 0.61281467 0.02069771
vt 0.60788464 0.03890800
vt 0.59876007 0.02071613
vt 0.59517705 0.03197294
vt 0.59154022 0.03508884
vt 0.59662902 0.01582867
vt 0.58791274 0.03536409
vt 0.59291899 0.01259863
vt 0.58105481 0.03542954
vt 0.58665657 0.01016176
vt 0.57691562 0.03297174
vt 0.58010566 0.01007307
vt 0.58574635 0.02324826
vt 0.57490629 0.01289296
vt 0.57179564 0.02900147
vt 0.57159007 0.02632737
vt 0.55317771 0.00921637
vt 0.55080682 0.02591079
vt 0.55134404 0.02822554
f 1/1 2/2 3/3
f 6/6 4/4 5/5
f 9/9 10/10 7/7
f 7/7 8/8 9/9
f 43/43 46/46 49/49
f 36/36 38/38 40/40
f 36/36 39/39 32/32
f 39/39 35/35 32/32
f 38/38 36/36 33/33
f 11/11 13/13 15/15
f 54/54 55/55 59/59
f 53/53 52/52 58/58
f 52/52 56/56 58/58
f 48/48 57/57 55/55
f 56/56 52/52 54/54
f 47/47 48/48 55/55
f 55/55 54/54 47/47
f 52/52 47/47 54/54
f 18/18 15/15 13/13
f 63/63 67/67 57/57
f 22/22 32/32 35/35
f 35/35 19/19 22/22
f 28/28 33/33 32/32
f 22/22 28/28 32/32
f 29/29 30/30 21/21
f 21/21 19/19 29/29
f 28/28 22/22 25/25
f 22/22 24/24 25/25
f 22/22 18/18 24/24
f 22/22 19/19 18/18
f 19/19 21/21 15/15
f 15/15 18/18 19/19
f 52/52 50/50 46/46
f 50/50 51/51 49/49
f 51/51 44/44 49/49
f 19/19 35/35 29/29
f 80/80 81/81 84/84
f 12/12 83/83 14/14
f 81/81 14/14 83/83
f 82/82 77/77 80/80
f 14/14 81/81 17/17
f 68/68 72/72 71/71
f 72/72 68/68 66/66
f 69/69 68/68 71/71
f 61/61 59/59 70/70
f 59/59 69/69 70/70
f 68/68 69/69 67/67
f 69/69 59/59 67/67
f 63/63 66/66 68/68
f 67/67 63/63 68/68
f 17/17 79/79 23/23
f 26/26 23/23 79/79
f 87/87 88/88 95/95
f 90/90 93/93 92/92
f 92/92 88/88 90/90
f 87/87 91/91 85/85
f 88/88 31/31 90/90
f 77/77 76/76 73/73
f 77/77 73/73 75/75
f 72/72 76/76 74/74
f 72/72 73/73 76/76
f 87/87 83/83 86/86
f 86/86 12/12 20/20
f 83/83 12/12 86/86
f 12/12 16/16 20/20
f 85/85 81/81 83/83
f 81/81 85/85 84/84
f 84/84 82/82 80/80
f 100/100 103/103 102/102
f 103/103 100/100 99/99
f 101/101 102/102 82/82
f 100/100 102/102 101/101
f 101/101 82/82 84/84
f 81/81 80/80 79/79
f 79/79 17/17 81/81
f 78/78 80/80 77/77
f 80/80 78/78 79/79
f 100/100 91/91 95/95
f 99/99 92/92 96/96
f 92/92 99/99 95/95
f 93/93 97/97 96/96
f 96/96 92/92 93/93
f 91/91 87/87 95/95
f 95/95 88/88 92/92
f 112/112 102/102 103/103
f 112/112 103/103 107/107
f 110/110 111/111 108/108
f 111/111 107/107 108/108
f 110/110 109/109 106/106
f 31/31 88/88 20/20
f 86/86 88/88 87/87
f 88/88 86/86 20/20
f 83/83 87/87 85/85
f 105/105 108/108 104/104
f 107/107 103/103 104/104
f 106/106 105/105 97/97
f 104/104 96/96 105/105
f 105/105 96/96 97/97
f 103/103 99/99 104/104
f 99/99 96/96 104/104
f 82/82 120/120 121/121
f 114/114 119/119 120/120
f 120/120 82/82 114/114
f 119/119 115/115 118/118
f 119/119 114/114 115/115
f 85/85 101/101 84/84
f 91/91 100/100 101/101
f 101/101 85/85 91/91
f 100/100 95/95 99/99
f 116/116 113/113 111/111
f 114/114 112/112 115/115
f 113/113 115/115 112/112
f 102/102 114/114 82/82
f 112/112 114/114 102/102
f 112/112 107/107 113/113
f 107/107 111/111 113/113
f 125/125 127/127 126/126
f 69/69 126/126 127/127
f 126/126 69/69 71/71
f 126/126 71/71 74/74
f 126/126 124/124 125/125
f 108/108 109/109 110/110
f 105/105 106/106 109/109
f 108/108 105/105 109/109
f 104/104 108/108 107/107
f 124/124 76/76 122/122
f 120/120 123/123 122/122
f 119/119 123/123 120/120
f 121/121 122/122 76/76
f 121/121 120/120 122/122
f 76/76 77/77 121/121
f 77/77 82/82 121/121
f 134/134 133/133 131/131
f 131/131 117/117 134/134
f 132/132 129/129 133/133
f 129/129 131/131 133/133
f 130/130 128/128 132/132
f 118/118 116/116 117/117
f 116/116 118/118 115/115
f 116/116 111/111 117/117
f 115/115 113/113 116/116
f 128/128 130/130 127/127
f 118/118 129/129 119/119
f 129/129 128/128 123/123
f 119/119 129/129 123/123
f 127/127 125/125 128/128
f 125/125 123/123 128/128
f 127/127 70/70 69/69
f 141/141 53/53 60/60
f 60/60 140/140 141/141
f 61/61 140/140 60/60
f 137/137 139/139 140/140
f 140/140 61/61 137/137
f 124/124 126/126 74/74
f 123/123 125/125 122/122
f 122/122 125/125 124/124
f 74/74 76/76 124/124
f 70/70 137/137 61/61
f 130/130 136/136 137/137
f 137/137 70/70 130/130
f 132/132 135/135 136/136
f 136/136 130/130 132/132
f 133/133 134/134 135/135
f 135/135 132/132 133/133
f 149/149 147/147 144/144
f 148/148 149/149 51/51
f 148/148 147/147 149/149
f 51/51 53/53 148/148
f 53/53 147/147 148/148
f 129/129 132/132 128/128
f 118/118 117/117 131/131
f 131/131 129/129 118/118
f 70/70 127/127 130/130
f 145/145 144/144 142/142
f 142/142 143/143 145/145
f 141/141 142/142 144/144
f 139/139 138/138 143/143
f 143/143 142/142 139/139
f 140/140 142/142 141/141
f 142/142 140/140 139/139
f 154/154 155/155 156/156
f 30/30 154/154 156/156
f 152/152 150/150 155/155
f 155/155 154/154 152/152
f 154/154 30/30 29/29
f 136/136 138/138 139/139
f 137/137 136/136 139/139
f 134/134 138/138 135/135
f 136/136 135/135 138/138
f 35/35 44/44 152/152
f 150/150 152/152 44/44
f 151/151 144/144 145/145
f 150/150 149/149 151/151
f 144/144 151/151 149/149
f 44/44 51/51 150/150
f 149/149 150/150 51/51
f 159/159 158/158 163/163
f 162/162 158/158 157/157
f 162/162 157/157 160/160
f 98/98 94/94 161/161
f 159/159 161/161 94/94
f 147/147 53/53 141/141
f 144/144 147/147 141/141
f 146/146 145/145 143/143
f 146/146 143/143 138/138
f 156/156 159/159 89/89
f 158/158 155/155 157/157
f 155/155 158/158 156/156
f 153/153 157/157 151/151
f 157/157 150/150 151/151
f 150/150 157/157 155/155
f 156/156 89/89 30/30
f 169/169 168/168 167/167
f 169/169 167/167 162/162
f 110/110 106/106 168/168
f 168/168 106/106 167/167
f 165/165 162/162 167/167
f 29/29 152/152 154/154
f 145/145 146/146 153/153
f 151/151 145/145 153/153
f 29/29 35/35 152/152
f 161/161 166/166 98/98
f 165/165 161/161 164/164
f 162/162 165/165 164/164
f 159/159 164/164 161/161
f 162/162 164/164 163/163
f 164/164 159/159 163/163
f 162/162 163/163 158/158
f 39/39 36/36 43/43
f 38/38 41/41 40/40
f 138/138 134/134 172/172
f 138/138 172/172 146/146
f 134/134 170/170 172/172
f 146/146 160/160 153/153
f 157/157 153/153 160/160
f 159/159 94/94 89/89
f 159/159 156/156 158/158
f 168/168 169/169 171/171
f 117/117 170/170 134/134
f 170/170 117/117 111/111
f 111/111 110/110 170/170
f 170/170 110/110 168/168
f 160/160 146/146 169/169
f 169/169 162/162 160/160
f 172/172 171/171 169/169
f 170/170 168/168 171/171
f 166/166 167/167 106/106
f 167/167 166/166 165/165
f 166/166 106/106 98/98
f 161/161 165/165 166/166
f 49/49 44/44 43/43
f 47/47 41/41 48/48
f 46/46 45/45 47/47
f 41/41 47/47 45/45
f 45/45 46/46 40/40
f 43/43 40/40 46/46
f 41/41 45/45 40/40
f 39/39 43/43 44/44
f 44/44 35/35 39/39
f 40/40 43/43 36/36
f 64/64 65/65 66/66
f 63/63 64/64 66/66
f 42/42 37/37 65/65
f 42/42 65/65 64/64
f 64/64 63/63 62/62
f 42/42 64/64 62/62
f 57/57 62/62 63/63
f 42/42 62/62 48/48
f 53/53 58/58 60/60
f 56/56 60/60 58/58
f 57/57 59/59 55/55
f 52/52 53/53 50/50
f 51/51 50/50 53/53
f 47/47 52/52 46/46
f 172/172 169/169 146/146
f 171/171 172/172 170/170
f 26/26 79/79 78/78
f 27/27 26/26 78/78
f 78/78 34/34 27/27
f 77/77 75/75 78/78
f 34/34 78/78 75/75
f 37/37 34/34 75/75
f 37/37 75/75 65/65
f 65/65 75/75 73/73
f 72/72 74/74 71/71
f 73/73 66/66 65/65
f 73/73 72/72 66/66
f 59/59 57/57 67/67
f 62/62 57/57 48/48
f 60/60 56/56 61/61
f 59/59 61/61 56/56
f 59/59 56/56 54/54
f 33/33 36/36 32/32
f 50/50 49/49 46/46
f 502/502 501/501 494/494
f 518/518 230/230 520/520
f 519/519 516/516 518/518
f 230/230 518/518 232/232
f 516/516 517/517 518/518
f 517/517 232/232 518/518
f 232/232 517/517 234/234
f 207/207 532/532 529/529
f 516/516 515/515 517/517
f 519/519 521/521 516/516
f 501/501 499/499 495/495
f 494/494 501/501 495/495
f 496/496 499/499 500/500
f 497/497 496/496 500/500
f 499/499 496/496 495/495
f 489/489 497/497 498/498
f 244/244 514/514 512/512
f 513/513 511/511 512/512
f 248/248 506/506 504/504
f 507/507 505/505 506/506
f 248/248 507/507 506/506
f 505/505 508/508 503/503
f 507/507 508/508 505/505
f 507/507 248/248 509/509
f 509/509 248/248 246/246
f 521/521 519/519 524/524
f 539/539 531/531 536/536
f 525/525 226/226 221/221
f 217/217 525/525 221/221
f 525/525 217/217 215/215
f 525/525 526/526 523/523
f 522/522 523/523 526/526
f 525/525 215/215 527/527
f 502/502 505/505 501/501
f 410/410 412/412 409/409
f 411/411 409/409 412/412
f 411/411 413/413 400/400
f 401/401 400/400 413/413
f 416/416 413/413 411/411
f 411/411 417/417 416/416
f 417/417 411/411 412/412
f 418/418 416/416 417/417
f 420/420 412/412 410/410
f 517/517 238/238 234/234
f 412/412 421/421 417/417
f 412/412 420/420 421/421
f 502/502 253/253 504/504
f 247/247 504/504 253/253
f 504/504 247/247 248/248
f 527/527 215/215 211/211
f 505/505 503/503 501/501
f 502/502 504/504 506/506
f 506/506 505/505 502/502
f 486/486 483/483 488/488
f 488/488 489/489 486/486
f 263/263 491/491 483/483
f 483/483 491/491 488/488
f 263/263 492/492 491/491
f 263/263 261/261 492/492
f 525/525 523/523 226/226
f 246/246 511/511 509/509
f 510/510 509/509 511/511
f 511/511 246/246 512/512
f 246/246 244/244 512/512
f 513/513 510/510 511/511
f 546/546 540/540 538/538
f 549/549 548/548 544/544
f 549/549 544/544 547/547
f 548/548 521/521 524/524
f 548/548 524/524 544/544
f 547/547 545/545 546/546
f 544/544 545/545 547/547
f 546/546 538/538 537/537
f 561/561 500/500 499/499
f 533/533 535/535 530/530
f 531/531 526/526 528/528
f 530/530 527/527 529/529
f 530/530 528/528 527/527
f 211/211 207/207 529/529
f 527/527 211/211 529/529
f 527/527 528/528 525/525
f 528/528 526/526 525/525
f 541/541 539/539 542/542
f 535/535 533/533 534/534
f 536/536 530/530 535/535
f 531/531 530/530 536/536
f 537/537 535/535 534/534
f 534/534 376/376 537/537
f 538/538 536/536 535/535
f 510/510 513/513 553/553
f 567/567 572/572 569/569
f 554/554 553/553 551/551
f 553/553 555/555 510/510
f 508/508 510/510 555/555
f 553/553 554/554 556/556
f 555/555 553/553 556/556
f 552/552 557/557 554/554
f 556/556 554/554 557/557
f 376/376 534/534 371/371
f 513/513 512/512 514/514
f 514/514 244/244 515/515
f 515/515 244/244 237/237
f 515/515 237/237 238/238
f 516/516 514/514 515/515
f 516/516 513/513 514/514
f 517/517 515/515 238/238
f 528/528 530/530 531/531
f 540/540 546/546 545/545
f 532/532 207/207 202/202
f 202/202 371/371 532/532
f 533/533 529/529 532/532
f 530/530 529/529 533/533
f 534/534 532/532 371/371
f 533/533 532/532 534/534
f 400/400 409/409 411/411
f 513/513 516/516 521/521
f 518/518 522/522 519/519
f 522/522 518/518 520/520
f 523/523 520/520 230/230
f 523/523 522/522 520/520
f 523/523 230/230 226/226
f 522/522 524/524 519/519
f 535/535 537/537 538/538
f 551/551 552/552 554/554
f 536/536 538/538 540/540
f 540/540 539/539 536/536
f 539/539 541/541 531/531
f 541/541 526/526 531/531
f 541/541 522/522 526/526
f 540/540 542/542 539/539
f 730/730 733/733 726/726
f 734/734 751/751 748/748
f 749/749 747/747 750/750
f 748/748 750/750 747/747
f 744/744 749/749 745/745
f 749/749 744/744 747/747
f 630/630 761/761 760/760
f 747/747 746/746 748/748
f 733/733 728/728 726/726
f 734/734 732/732 751/751
f 732/732 729/729 731/731
f 730/730 729/729 732/732
f 609/609 731/731 613/613
f 745/745 402/402 401/401
f 754/754 758/758 756/756
f 401/401 743/743 745/745
f 740/740 742/742 744/744
f 744/744 743/743 741/741
f 750/750 748/748 752/752
f 749/749 762/762 745/745
f 748/748 751/751 753/753
f 419/419 737/737 739/739
f 739/739 415/415 419/419
f 740/740 737/737 738/738
f 737/737 740/740 739/739
f 415/415 739/739 741/741
f 749/749 752/752 755/755
f 731/731 754/754 732/732
f 753/753 755/755 752/752
f 755/755 753/753 756/756
f 754/754 731/731 757/757
f 731/731 609/609 757/757
f 618/618 757/757 609/609
f 407/407 405/405 309/309
f 210/210 208/208 212/212
f 423/423 735/735 737/737
f 737/737 419/419 423/423
f 735/735 733/733 738/738
f 399/399 394/394 400/400
f 398/398 400/400 394/394
f 401/401 397/397 399/399
f 399/399 400/400 401/401
f 397/397 401/401 402/402
f 404/404 398/398 317/317
f 748/748 736/736 734/734
f 314/314 405/405 404/404
f 405/405 314/314 309/309
f 406/406 398/398 404/404
f 405/405 406/406 404/404
f 618/618 624/624 757/757
f 309/309 305/305 407/407
f 304/304 407/407 305/305
f 408/408 406/406 405/405
f 407/407 408/408 405/405
f 752/752 749/749 750/750
f 738/738 733/733 736/736
f 725/725 685/685 646/646
f 640/640 725/725 646/646
f 685/685 725/725 726/726
f 740/740 741/741 739/739
f 754/754 756/756 753/753
f 738/738 742/742 740/740
f 414/414 741/741 743/743
f 743/743 401/401 414/414
f 740/740 744/744 741/741
f 497/497 489/489 493/493
f 761/761 630/630 632/632
f 402/402 761/761 632/632
f 762/762 755/755 761/761
f 761/761 402/402 762/762
f 755/755 762/762 749/749
f 402/402 745/745 762/762
f 748/748 753/753 752/752
f 477/477 480/480 482/482
f 482/482 267/267 263/263
f 406/406 420/420 410/410
f 495/495 491/491 492/492
f 495/495 492/492 494/494
f 491/491 496/496 488/488
f 491/491 495/495 496/496
f 496/496 493/493 488/488
f 755/755 760/760 761/761
f 496/496 497/497 493/493
f 475/475 477/477 478/478
f 473/473 476/476 480/480
f 480/480 476/476 304/304
f 480/480 477/477 473/473
f 304/304 481/481 480/480
f 304/304 269/269 481/481
f 267/267 481/481 269/269
f 253/253 502/502 494/494
f 489/489 488/488 493/493
f 510/510 508/508 507/507
f 507/507 509/509 510/510
f 398/398 406/406 409/409
f 400/400 398/398 409/409
f 410/410 409/409 406/406
f 463/463 466/466 457/457
f 758/758 754/754 757/757
f 624/624 758/758 757/757
f 624/624 759/759 758/758
f 742/742 738/738 746/746
f 738/738 736/736 746/746
f 742/742 747/747 744/744
f 747/747 742/742 746/746
f 736/736 748/748 746/746
f 756/756 760/760 755/755
f 482/482 483/483 477/477
f 483/483 478/478 477/477
f 483/483 482/482 263/263
f 478/478 483/483 485/485
f 483/483 486/486 485/485
f 455/455 464/464 460/460
f 541/541 543/543 522/522
f 457/457 466/466 449/449
f 466/466 463/463 468/468
f 464/464 455/455 469/469
f 455/455 454/454 469/469
f 469/469 471/471 464/464
f 494/494 492/492 261/261
f 253/253 494/494 261/261
f 732/732 754/754 751/751
f 753/753 751/751 754/754
f 501/501 503/503 499/499
f 758/758 759/759 756/756
f 759/759 624/624 627/627
f 630/630 759/759 627/627
f 760/760 756/756 759/759
f 759/759 630/630 760/760
f 648/648 677/677 650/650
f 174/174 173/173 655/655
f 176/176 668/668 661/661
f 663/663 665/665 666/666
f 661/661 665/665 662/662
f 665/665 663/663 662/662
f 659/659 662/662 663/663
f 660/660 661/661 662/662
f 662/662 659/659 660/660
f 656/656 175/175 654/654
f 677/677 652/652 650/650
f 656/656 674/674 668/668
f 580/580 589/589 651/651
f 589/589 649/649 651/651
f 650/650 649/649 644/644
f 648/648 650/650 644/644
f 589/589 593/593 649/649
f 593/593 644/644 649/649
f 654/654 652/652 656/656
f 175/175 656/656 176/176
f 570/570 655/655 657/657
f 173/173 657/657 655/655
f 678/678 676/676 680/680
f 668/668 176/176 656/656
f 661/661 669/669 665/665
f 661/661 668/668 669/669
f 670/670 666/666 665/665
f 669/669 670/670 665/665
f 666/666 670/670 671/671
f 670/670 468/468 671/671
f 681/681 645/645 684/684
f 683/683 681/681 684/684
f 669/669 673/673 670/670
f 606/606 637/637 639/639
f 631/631 626/626 625/625
f 633/633 629/629 631/631
f 625/625 634/634 631/631
f 625/625 537/537 634/634
f 649/649 650/650 652/652
f 651/651 575/575 580/580
f 651/651 653/653 575/575
f 653/653 571/571 575/575
f 654/654 653/653 651/651
f 652/652 654/654 651/651
f 653/653 174/174 571/571
f 654/654 174/174 653/653
f 655/655 571/571 174/174
f 636/636 376/376 381/381
f 637/637 606/606 612/612
f 673/673 449/449 466/466
f 639/639 601/601 606/606
f 641/641 639/639 637/637
f 601/601 639/639 642/642
f 599/599 601/601 642/642
f 586/586 578/578 574/574
f 657/657 574/574 570/570
f 468/468 670/670 466/466
f 673/673 466/466 670/670
f 655/655 570/570 571/571
f 174/174 654/654 175/175
f 659/659 586/586 657/657
f 657/657 173/173 660/660
f 657/657 660/660 659/659
f 661/661 660/660 173/173
f 173/173 176/176 661/661
f 408/408 440/440 435/435
f 420/420 425/425 421/421
f 421/421 425/425 422/422
f 424/424 418/418 422/422
f 422/422 417/417 421/421
f 417/417 422/422 418/418
f 442/442 438/438 439/439
f 440/440 441/441 437/437
f 441/441 439/439 437/437
f 435/435 432/432 408/408
f 437/437 435/435 440/440
f 434/434 439/439 438/438
f 436/436 433/433 438/438
f 683/683 687/687 682/682
f 682/682 687/687 436/436
f 647/647 686/686 684/684
f 684/684 645/645 647/647
f 680/680 683/683 682/682
f 436/436 430/430 433/433
f 437/437 432/432 435/435
f 422/422 426/426 424/424
f 430/430 427/427 426/426
f 425/425 420/420 431/431
f 431/431 430/430 425/425
f 420/420 406/406 432/432
f 432/432 431/431 420/420
f 406/406 408/408 432/432
f 439/439 434/434 437/437
f 432/432 437/437 434/434
f 426/426 422/422 425/425
f 196/196 194/194 191/191
f 433/433 434/434 438/438
f 687/687 683/683 688/688
f 444/444 447/447 678/678
f 451/451 449/449 673/673
f 669/669 451/451 673/673
f 668/668 451/451 669/669
f 674/674 451/451 668/668
f 687/687 430/430 436/436
f 427/427 430/430 687/687
f 683/683 684/684 688/688
f 451/451 674/674 447/447
f 656/656 675/675 674/674
f 675/675 656/656 652/652
f 674/674 676/676 447/447
f 676/676 674/674 675/675
f 652/652 677/677 675/675
f 677/677 676/676 675/675
f 678/678 447/447 676/676
f 629/629 626/626 631/631
f 677/677 648/648 679/679
f 648/648 645/645 679/679
f 676/676 677/677 680/680
f 679/679 680/680 677/677
f 688/688 684/684 686/686
f 687/687 688/688 427/427
f 686/686 689/689 688/688
f 688/688 428/428 427/427
f 428/428 688/688 689/689
f 681/681 679/679 645/645
f 680/680 679/679 681/681
f 444/444 678/678 682/682
f 678/678 680/680 682/682
f 682/682 436/436 444/444
f 683/683 680/680 681/681
f 610/610 611/611 605/605
f 566/566 565/565 562/562
f 587/587 590/590 594/594
f 592/592 588/588 591/591
f 587/587 591/591 588/588
f 559/559 557/557 590/590
f 563/563 559/559 590/590
f 577/577 563/563 590/590
f 583/583 590/590 587/587
f 566/566 562/562 563/563
f 581/581 587/587 588/588
f 503/503 558/558 561/561
f 555/555 559/559 560/560
f 558/558 555/555 560/560
f 556/556 557/557 559/559
f 555/555 556/556 559/559
f 508/508 558/558 503/503
f 558/558 508/508 555/555
f 567/567 564/564 565/565
f 566/566 567/567 565/565
f 568/568 500/500 564/564
f 500/500 568/568 497/497
f 564/564 567/567 569/569
f 597/597 592/592 591/591
f 622/622 619/619 617/617
f 598/598 592/592 597/597
f 597/597 600/600 598/598
f 596/596 595/595 602/602
f 595/595 549/549 602/602
f 597/597 596/596 603/603
f 602/602 603/603 596/596
f 600/600 597/597 604/604
f 498/498 573/573 579/579
f 547/547 546/546 550/550
f 524/524 522/522 543/543
f 541/541 544/544 543/543
f 544/544 524/524 543/543
f 544/544 541/541 542/542
f 542/542 540/540 545/545
f 545/545 544/544 542/542
f 561/561 499/499 503/503
f 583/583 577/577 590/590
f 560/560 562/562 558/558
f 561/561 558/558 562/562
f 560/560 559/559 563/563
f 562/562 560/560 563/563
f 500/500 561/561 564/564
f 562/562 565/565 561/561
f 565/565 564/564 561/561
f 577/577 581/581 576/576
f 549/549 547/547 550/550
f 521/521 548/548 551/551
f 551/551 513/513 521/521
f 552/552 548/548 549/549
f 552/552 551/551 548/548
f 513/513 551/551 553/553
f 569/569 568/568 564/564
f 597/597 591/591 596/596
f 567/567 566/566 572/572
f 568/568 569/569 573/573
f 497/497 568/568 573/573
f 566/566 576/576 572/572
f 573/573 498/498 497/497
f 576/576 566/566 577/577
f 577/577 566/566 563/563
f 619/619 610/610 617/617
f 549/549 607/607 602/602
f 607/607 603/603 602/602
f 549/549 550/550 607/607
f 603/603 607/607 608/608
f 550/550 608/608 607/607
f 631/631 635/635 633/633
f 652/652 651/651 649/649
f 635/635 403/403 633/633
f 403/403 635/635 396/396
f 635/635 381/381 396/396
f 537/537 636/636 634/634
f 635/635 634/634 636/636
f 381/381 635/635 636/636
f 376/376 636/636 537/537
f 617/617 615/615 616/616
f 604/604 605/605 600/600
f 550/550 620/620 614/614
f 620/620 616/616 614/614
f 550/550 546/546 620/620
f 537/537 620/620 546/546
f 616/616 621/621 617/617
f 639/639 641/641 643/643
f 574/574 657/657 586/586
f 644/644 599/599 642/642
f 645/645 643/643 641/641
f 641/641 647/647 645/645
f 642/642 643/643 648/648
f 648/648 644/644 642/642
f 645/645 648/648 643/643
f 628/628 623/623 626/626
f 626/626 629/629 628/628
f 591/591 587/587 594/594
f 579/579 582/582 498/498
f 581/581 577/577 583/583
f 579/579 584/584 582/582
f 585/585 584/584 579/579
f 587/587 581/581 583/583
f 604/604 603/603 608/608
f 634/634 635/635 631/631
f 604/604 610/610 605/605
f 608/608 550/550 614/614
f 610/610 604/604 615/615
f 616/616 604/604 608/608
f 615/615 604/604 616/616
f 608/608 614/614 616/616
f 615/615 617/617 610/610
f 557/557 594/594 590/590
f 733/733 734/734 736/736
f 594/594 557/557 595/595
f 557/557 552/552 595/595
f 549/549 595/595 552/552
f 591/591 594/594 596/596
f 594/594 595/595 596/596
f 616/616 620/620 621/621
f 643/643 642/642 639/639
f 617/617 621/621 622/622
f 619/619 622/622 623/623
f 620/620 625/625 621/621
f 625/625 620/620 537/537
f 621/621 626/626 622/622
f 626/626 623/623 622/622
f 626/626 621/621 625/625
f 604/604 597/597 603/603
f 290/290 288/288 287/287
f 293/293 312/312 294/294
f 293/293 310/310 312/312
f 293/293 290/290 289/289
f 292/292 291/291 288/288
f 288/288 290/290 292/292
f 285/285 291/291 286/286
f 291/291 285/285 288/288
f 289/289 290/290 287/287
f 273/273 295/295 289/289
f 289/289 275/275 273/273
f 289/289 287/287 275/275
f 285/285 287/287 288/288
f 279/279 275/275 287/287
f 287/287 285/285 279/279
f 286/286 282/282 285/285
f 282/282 286/286 284/284
f 301/301 303/303 300/300
f 271/271 295/295 273/273
f 289/289 296/296 293/293
f 296/296 289/289 295/295
f 295/295 271/271 297/297
f 295/295 298/298 296/296
f 295/295 297/297 298/298
f 299/299 297/297 271/271
f 271/271 268/268 299/299
f 269/269 299/299 268/268
f 297/297 299/299 300/300
f 300/300 298/298 297/297
f 299/299 269/269 301/301
f 300/300 299/299 301/301
f 321/321 316/316 319/319
f 321/321 320/320 316/316
f 290/290 293/293 294/294
f 268/268 271/271 266/266
f 270/270 266/266 271/271
f 270/270 272/272 258/258
f 272/272 256/256 258/258
f 271/271 273/273 270/270
f 272/272 270/270 273/273
f 256/256 272/272 274/274
f 274/274 213/213 256/256
f 275/275 272/272 273/273
f 275/275 274/274 272/272
f 213/213 274/274 276/276
f 213/213 276/276 196/196
f 276/276 194/194 196/196
f 274/274 277/277 276/276
f 292/292 290/290 294/294
f 303/303 302/302 300/300
f 277/277 278/278 276/276
f 190/190 194/194 278/278
f 279/279 278/278 277/277
f 275/275 279/279 277/277
f 278/278 280/280 190/190
f 278/278 279/279 280/280
f 280/280 281/281 190/190
f 186/186 190/190 281/281
f 279/279 282/282 280/280
f 281/281 280/280 282/282
f 283/283 186/186 281/281
f 186/186 283/283 177/177
f 283/283 179/179 177/177
f 281/281 282/282 284/284
f 298/298 300/300 302/302
f 446/446 445/445 443/443
f 334/334 330/330 335/335
f 326/326 335/335 330/330
f 328/328 334/334 332/332
f 294/294 327/327 329/329
f 326/326 328/328 325/325
f 325/325 328/328 327/327
f 471/471 469/469 472/472
f 454/454 472/472 469/469
f 322/322 310/310 320/320
f 443/443 441/441 446/446
f 442/442 443/443 445/445
f 438/438 444/444 436/436
f 438/438 442/442 444/444
f 443/443 442/442 439/439
f 441/441 443/443 439/439
f 456/456 463/463 457/457
f 463/463 456/456 459/459
f 310/310 322/322 312/312
f 321/321 323/323 320/320
f 320/320 324/324 322/322
f 324/324 320/320 323/323
f 322/322 325/325 312/312
f 326/326 322/322 324/324
f 322/322 326/326 325/325
f 312/312 325/325 327/327
f 312/312 327/327 294/294
f 448/448 455/455 456/456
f 446/446 456/456 457/457
f 449/449 446/446 457/457
f 472/472 407/407 476/476
f 476/476 473/473 472/472
f 735/735 423/423 429/429
f 311/311 313/313 308/308
f 269/269 304/304 301/301
f 301/301 305/305 303/303
f 305/305 301/301 304/304
f 303/303 306/306 302/302
f 305/305 306/306 303/303
f 302/302 307/307 298/298
f 307/307 296/296 298/298
f 306/306 308/308 302/302
f 307/307 302/302 308/308
f 306/306 305/305 309/309
f 296/296 307/307 310/310
f 310/310 293/293 296/296
f 308/308 306/306 311/311
f 328/328 329/329 327/327
f 294/294 329/329 292/292
f 279/279 285/285 282/282
f 313/313 307/307 308/308
f 306/306 314/314 311/311
f 314/314 306/306 309/309
f 313/313 311/311 315/315
f 314/314 315/315 311/311
f 307/307 313/313 316/316
f 315/315 314/314 317/317
f 318/318 313/313 315/315
f 317/317 318/318 315/315
f 313/313 319/319 316/316
f 313/313 318/318 319/319
f 316/316 320/320 307/307
f 307/307 320/320 310/310
f 455/455 459/459 456/456
f 459/459 455/455 460/460
f 201/201 199/199 204/204
f 242/242 219/219 228/228
f 206/206 208/208 210/210
f 205/205 197/197 209/209
f 201/201 206/206 209/209
f 201/201 209/209 197/197
f 208/208 206/206 204/204
f 201/201 204/204 206/206
f 200/200 197/197 205/205
f 241/241 243/243 240/240
f 197/197 199/199 201/201
f 200/200 195/195 197/197
f 200/200 196/196 195/195
f 199/199 197/197 192/192
f 195/195 192/192 197/197
f 191/191 195/195 196/196
f 219/219 214/214 228/228
f 227/227 228/228 223/223
f 196/196 200/200 213/213
f 210/210 212/212 214/214
f 216/216 214/214 212/212
f 214/214 216/216 218/218
f 206/206 210/210 219/219
f 214/214 219/219 210/210
f 214/214 218/218 220/220
f 222/222 220/220 218/218
f 223/223 214/214 220/220
f 220/220 222/222 224/224
f 224/224 222/222 225/225
f 220/220 227/227 223/223
f 227/227 220/220 224/224
f 214/214 223/223 228/228
f 249/249 251/251 209/209
f 456/456 446/446 448/448
f 213/213 200/200 205/205
f 178/178 180/180 182/182
f 183/183 178/178 182/182
f 185/185 183/183 182/182
f 186/186 178/178 183/183
f 183/183 185/185 187/187
f 187/187 185/185 189/189
f 190/190 186/186 183/183
f 187/187 190/190 183/183
f 187/187 189/189 191/191
f 191/191 189/189 192/192
f 190/190 187/187 194/194
f 187/187 191/191 194/194
f 191/191 192/192 195/195
f 454/454 455/455 450/450
f 250/250 252/252 249/249
f 427/427 424/424 426/426
f 424/424 427/427 428/428
f 447/447 444/444 442/442
f 445/445 447/447 442/442
f 446/446 441/441 448/448
f 441/441 440/440 448/448
f 445/445 446/446 449/449
f 448/448 440/440 450/450
f 449/449 451/451 445/445
f 447/447 445/445 451/451
f 452/452 450/450 440/440
f 430/430 431/431 433/433
f 431/431 432/432 434/434
f 433/433 431/431 434/434
f 426/426 425/425 430/430
f 194/194 276/276 278/278
f 251/251 249/249 252/252
f 247/247 253/253 250/250
f 252/252 250/250 253/253
f 254/254 209/209 251/251
f 209/209 254/254 205/205
f 252/252 255/255 251/251
f 205/205 254/254 256/256
f 256/256 213/213 205/205
f 251/251 257/257 254/254
f 257/257 251/251 255/255
f 254/254 258/258 256/256
f 258/258 254/254 257/257
f 255/255 252/252 259/259
f 259/259 252/252 253/253
f 274/274 275/275 277/277
f 258/258 266/266 270/270
f 259/259 253/253 261/261
f 260/260 259/259 261/261
f 262/262 257/257 260/260
f 261/261 263/263 260/260
f 263/263 262/262 260/260
f 264/264 257/257 262/262
f 257/257 264/264 258/258
f 262/262 265/265 264/264
f 266/266 258/258 264/264
f 265/265 266/266 264/264
f 262/262 267/267 265/265
f 262/262 263/263 267/267
f 266/266 265/265 268/268
f 267/267 269/269 265/265
f 284/284 283/283 281/281
f 260/260 257/257 255/255
f 229/229 231/231 225/225
f 231/231 233/233 225/225
f 224/224 225/225 233/233
f 231/231 235/235 233/233
f 224/224 233/233 236/236
f 227/227 224/224 236/236
f 237/237 233/233 235/235
f 239/239 237/237 235/235
f 237/237 236/236 233/233
f 236/236 240/240 227/227
f 228/228 227/227 240/240
f 237/237 241/241 236/236
f 240/240 236/236 241/241
f 228/228 240/240 242/242
f 259/259 260/260 255/255
f 407/407 304/304 476/476
f 243/243 242/242 240/240
f 241/241 237/237 244/244
f 219/219 242/242 245/245
f 243/243 241/241 246/246
f 244/244 246/246 241/241
f 243/243 247/247 242/242
f 247/247 245/245 242/242
f 248/248 243/243 246/246
f 247/247 243/243 248/248
f 249/249 219/219 245/245
f 219/219 249/249 206/206
f 249/249 209/209 206/206
f 245/245 247/247 250/250
f 250/250 249/249 245/245
f 265/265 269/269 268/268
f 699/699 465/465 470/470
f 713/713 717/717 716/716
f 717/717 713/713 715/715
f 664/664 716/716 658/658
f 724/724 714/714 710/710
f 715/715 712/712 714/714
f 715/715 713/713 711/711
f 712/712 715/715 711/711
f 465/465 699/699 700/700
f 718/718 658/658 716/716
f 698/698 699/699 697/697
f 470/470 697/697 699/699
f 706/706 712/712 707/707
f 712/712 709/709 707/707
f 711/711 664/664 667/667
f 667/667 709/709 711/711
f 706/706 708/708 710/710
f 704/704 710/710 708/708
f 717/717 718/718 716/716
f 658/658 718/718 585/585
f 584/584 585/585 718/718
f 705/705 467/467 462/462
f 703/703 702/702 706/706
f 706/706 705/705 703/703
f 467/467 705/705 707/707
f 717/717 721/721 719/719
f 721/721 717/717 720/720
f 720/720 715/715 722/722
f 720/720 722/722 721/721
f 390/390 387/387 388/388
f 723/723 719/719 721/721
f 722/722 723/723 721/721
f 719/719 723/723 693/693
f 379/379 377/377 383/383
f 702/702 703/703 701/701
f 703/703 462/462 458/458
f 702/702 698/698 704/704
f 695/695 704/704 698/698
f 370/370 374/374 372/372
f 374/374 370/370 373/373
f 374/374 375/375 372/372
f 373/373 377/377 374/374
f 375/375 374/374 377/377
f 369/369 378/378 373/373
f 379/379 375/375 377/377
f 380/380 375/375 379/379
f 716/716 664/664 713/713
f 378/378 382/382 373/373
f 383/383 377/377 382/382
f 723/723 722/722 714/714
f 382/382 378/378 384/384
f 383/383 382/382 384/384
f 369/369 385/385 378/378
f 385/385 384/384 378/378
f 462/462 703/703 705/705
f 692/692 490/490 691/691
f 692/692 487/487 490/490
f 582/582 693/693 691/691
f 693/693 692/692 691/691
f 706/706 707/707 705/705
f 707/707 672/672 467/467
f 708/708 706/706 702/702
f 715/715 714/714 722/722
f 672/672 707/707 709/709
f 709/709 667/667 672/672
f 394/394 391/391 392/392
f 397/397 395/395 399/399
f 394/394 399/399 395/395
f 317/317 398/398 393/393
f 393/393 398/398 394/394
f 404/404 317/317 314/314
f 391/391 394/394 395/395
f 380/380 391/391 395/395
f 393/393 394/394 392/392
f 738/738 737/737 735/735
f 318/318 317/317 393/393
f 390/390 393/393 392/392
f 390/390 318/318 393/393
f 389/389 392/392 391/391
f 392/392 389/389 390/390
f 391/391 380/380 379/379
f 379/379 389/389 391/391
f 726/726 725/725 730/730
f 726/726 690/690 685/685
f 725/725 640/640 727/727
f 638/638 727/727 640/640
f 690/690 726/726 728/728
f 728/728 429/429 690/690
f 727/727 638/638 729/729
f 613/613 729/729 638/638
f 730/730 725/725 727/727
f 729/729 730/730 727/727
f 744/744 745/745 743/743
f 741/741 414/414 415/415
f 732/732 734/734 730/730
f 733/733 730/730 734/734
f 429/429 728/728 735/735
f 733/733 735/735 728/728
f 385/385 369/369 363/363
f 724/724 693/693 723/723
f 714/714 724/724 723/723
f 712/712 711/711 709/709
f 710/710 712/712 706/706
f 664/664 711/711 713/713
f 710/710 714/714 712/712
f 718/718 719/719 584/584
f 719/719 718/718 717/717
f 719/719 582/582 584/584
f 693/693 582/582 719/719
f 715/715 720/720 717/717
f 380/380 395/395 397/397
f 693/693 724/724 695/695
f 710/710 704/704 724/724
f 704/704 695/695 724/724
f 458/458 701/701 703/703
f 385/385 363/363 323/323
f 386/386 385/385 323/323
f 384/384 385/385 386/386
f 386/386 323/323 321/321
f 387/387 383/383 384/384
f 386/386 387/387 384/384
f 321/321 388/388 386/386
f 387/387 386/386 388/388
f 388/388 321/321 319/319
f 389/389 383/383 387/387
f 383/383 389/389 379/379
f 729/729 613/613 731/731
f 319/319 390/390 388/388
f 387/387 390/390 389/389
f 390/390 319/319 318/318
f 344/344 345/345 343/343
f 346/346 347/347 283/283
f 346/346 339/339 347/347
f 283/283 284/284 346/346
f 360/360 359/359 326/326
f 284/284 342/342 346/346
f 342/342 284/284 344/344
f 286/286 344/344 284/284
f 344/344 286/286 345/345
f 348/348 347/347 339/339
f 286/286 343/343 345/345
f 344/344 341/341 342/342
f 341/341 344/344 343/343
f 343/343 286/286 291/291
f 291/291 341/341 343/343
f 341/341 338/338 342/342
f 339/339 342/342 338/338
f 341/341 291/291 331/331
f 339/339 340/340 348/348
f 349/349 283/283 347/347
f 283/283 349/349 179/179
f 347/347 348/348 350/350
f 349/349 351/351 179/179
f 181/181 179/179 351/351
f 184/184 181/181 351/351
f 347/347 352/352 349/349
f 352/352 347/347 350/350
f 353/353 349/349 352/352
f 349/349 353/353 351/351
f 362/362 366/366 361/361
f 354/354 353/353 352/352
f 355/355 350/350 348/348
f 348/348 340/340 355/355
f 332/332 337/337 336/336
f 440/440 408/408 452/452
f 453/453 452/452 408/408
f 408/408 407/407 453/453
f 452/452 453/453 454/454
f 450/450 452/452 454/454
f 407/407 454/454 453/453
f 455/455 448/448 450/450
f 482/482 480/480 481/481
f 481/481 267/267 482/482
f 331/331 329/329 333/333
f 329/329 332/332 333/333
f 334/334 328/328 330/330
f 339/339 346/346 342/342
f 336/336 333/333 332/332
f 332/332 334/334 337/337
f 350/350 355/355 356/356
f 333/333 336/336 338/338
f 338/338 331/331 333/333
f 336/336 337/337 339/339
f 339/339 338/338 336/336
f 334/334 340/340 337/337
f 328/328 326/326 330/330
f 329/329 331/331 292/292
f 291/291 292/292 331/331
f 332/332 329/329 328/328
f 407/407 472/472 454/454
f 473/473 471/471 472/472
f 471/471 473/473 475/475
f 354/354 352/352 350/350
f 340/340 339/339 337/337
f 331/331 338/338 341/341
f 692/692 695/695 694/694
f 477/477 475/475 473/473
f 365/365 368/368 367/367
f 367/367 368/368 198/198
f 368/368 365/365 366/366
f 366/366 362/362 369/369
f 369/369 368/368 366/366
f 369/369 362/362 363/363
f 198/198 368/368 370/370
f 370/370 203/203 198/198
f 372/372 203/203 370/370
f 368/368 373/373 370/370
f 368/368 369/369 373/373
f 377/377 373/373 382/382
f 694/694 487/487 692/692
f 487/487 694/694 484/484
f 198/198 193/193 367/367
f 695/695 692/692 693/693
f 696/696 484/484 694/694
f 695/695 696/696 694/694
f 484/484 696/696 479/479
f 697/697 479/479 696/696
f 479/479 697/697 474/474
f 697/697 470/470 474/474
f 696/696 698/698 697/697
f 698/698 696/696 695/695
f 698/698 700/700 699/699
f 700/700 461/461 465/465
f 461/461 700/700 701/701
f 702/702 704/704 708/708
f 698/698 702/702 700/700
f 702/702 701/701 700/700
f 358/358 361/361 353/353
f 340/340 356/356 355/355
f 350/350 356/356 354/354
f 356/356 340/340 357/357
f 357/357 354/354 356/356
f 357/357 340/340 334/334
f 335/335 357/357 334/334
f 354/354 357/357 335/335
f 335/335 358/358 354/354
f 358/358 353/353 354/354
f 335/335 359/359 358/358
f 335/335 326/326 359/359
f 498/498 582/582 691/691
f 360/360 358/358 359/359
f 326/326 324/324 360/360
f 188/188 367/367 193/193
f 361/361 351/351 353/353
f 358/358 360/360 362/362
f 358/358 362/362 361/361
f 324/324 363/363 360/360
f 360/360 363/363 362/362
f 324/324 323/323 363/363
f 351/351 361/361 364/364
f 351/351 364/364 184/184
f 364/364 188/188 184/184
f 361/361 365/365 364/364
f 364/364 365/365 188/188
f 490/490 498/498 691/691
f 701/701 458/458 461/461
f 365/365 361/361 366/366
f 367/367 188/188 365/365
f 173/173 174/174 175/175
f 175/175 176/176 173/173
f 763/763 764/764 765/765
f 782/782 783/783 781/781
f 768/768 783/783 769/769
f 790/790 786/786 788/788
f 788/788 789/789 790/790
f 768/768 766/766 775/775
f 775/775 771/771 776/776
f 771/771 766/766 774/774
f 766/766 771/771 775/775
f 777/777 775/775 776/776
f 775/775 777/777 768/768
f 773/773 790/790 792/792
f 779/779 773/773 792/792
f 789/789 779/779 792/792
f 792/792 790/790 789/789
f 777/777 782/782 781/781
f 781/781 783/783 768/768
f 784/784 788/788 786/786
f 789/789 785/785 787/787
f 786/786 791/791 770/770
f 791/791 786/786 790/790
f 767/767 770/770 791/791
f 773/773 767/767 791/791
f 790/790 773/773 791/791
f 773/773 779/779 772/772
f 780/780 778/778 785/785
f 784/784 782/782 785/785
f 780/780 785/785 782/782
f 784/784 770/770 783/783
f 783/783 782/782 784/784
f 783/783 770/770 769/769
f 785/785 789/789 788/788
f 779/779 789/789 787/787
f 780/780 776/776 778/778
f 776/776 780/780 777/777
f 782/782 777/777 780/780
f 781/781 768/768 777/777
f 770/770 784/784 786/786
f 787/787 785/785 778/778
f 778/778 771/771 779/779
f 771/771 778/778 776/776
f 779/779 787/787 778/778
f 785/785 788/788 784/784
f 833/833 835/835 834/834
f 835/835 813/813 834/834
f 834/834 831/831 833/833
f 834/834 817/817 831/831
f 836/836 810/810 811/811
f 832/832 809/809 810/810
f 832/832 833/833 830/830
f 833/833 831/831 830/830
f 816/816 834/834 815/815
f 817/817 834/834 816/816
f 797/797 798/798 818/818
f 800/800 801/801 818/818
f 823/823 825/825 795/795
f 806/806 824/824 822/822
f 821/821 819/819 804/804
f 820/820 818/818 819/819
f 820/820 797/797 818/818
f 804/804 819/819 803/803
f 802/802 803/803 819/819
f 802/802 819/819 818/818
f 801/801 802/802 818/818
f 824/824 826/826 830/830
f 822/822 824/824 830/830
f 798/798 799/799 818/818
f 799/799 800/800 818/818
f 829/829 794/794 827/827
f 828/828 807/807 808/808
f 807/807 828/828 826/826
f 795/795 827/827 794/794
f 827/827 795/795 825/825
f 826/826 806/806 807/807
f 824/824 806/806 826/826
f 813/813 814/814 834/834
f 815/815 834/834 814/814
f 823/823 795/795 796/796
f 823/823 796/796 797/797
f 797/797 820/820 823/823
f 806/806 822/822 805/805
f 822/822 804/804 805/805
f 804/804 822/822 821/821
f 821/821 820/820 819/819
f 832/832 808/808 809/809
f 832/832 828/828 808/808
f 828/828 832/832 830/830
f 793/793 831/831 817/817
f 831/831 829/829 830/830
f 831/831 793/793 829/829
f 826/826 828/828 830/830
f 821/821 822/822 830/830
f 820/820 821/821 830/830
f 823/823 820/820 830/830
f 825/825 823/823 830/830
f 829/829 827/827 830/830
f 827/827 825/825 830/830
f 794/794 829/829 793/793
f 835/835 836/836 811/811
f 835/835 832/832 836/836
f 835/835 811/811 812/812
f 813/813 835/835 812/812
f 832/832 835/835 833/833
f 810/810 836/836 832/832

