# https://github.com/mikedh/trimesh
mtllib material.mtl
usemtl M_UE4Man_ChestLogo
v 0.00000000 0.01565482 0.13753872
v 0.01385593 0.01603807 0.13713066
v 0.00000000 0.01544155 0.13191883
v 0.01537847 0.01606978 0.13153450
v 0.01534664 0.01616014 0.13699309
v 0.01712155 0.01633109 0.13684289
v 0.00000000 0.01564492 0.12427823
v 0.03420412 0.01874555 0.13361482
v 0.03845048 0.01832081 0.11760525
v 0.05569088 0.02397264 0.12918942
v 0.02783203 0.02712573 0.08751921
v 0.00000000 0.02517380 0.09181182
v 0.00000000 -0.01181237 -0.00857182
v 0.05256223 0.03175212 0.07527248
v 0.07474196 0.02574993 0.09851710
v 0.07865476 0.03095640 0.12025361
v 0.09777832 0.03836144 0.10888033
v 0.07053828 0.03944136 0.05472903
v 0.10078740 0.03676928 0.06718843
v 0.11671877 0.04673375 0.09309165
v 0.12585246 0.05223037 0.08147351
v 0.13421130 0.05978872 0.06379740
v 0.08121943 0.04921187 0.02967684
v 0.11049056 0.04653610 0.03386132
v 0.13819337 0.06683029 0.04430513
v 0.13994384 0.07408894 0.02349703
v 0.11053836 0.05885304 0.00010495
v 0.13943028 0.07977261 0.00522308
v 0.13688969 0.08360399 -0.00854893
v 0.12552488 0.08823778 -0.03024085
v 0.08077514 0.05900992 0.00325648
v 0.09376311 0.07091357 -0.03190644
v 0.11156249 0.08991744 -0.04846199
v 0.09628904 0.09070100 -0.06093140
v 0.07079828 0.06846966 -0.02163847
v 0.06489503 0.07939257 -0.05581637
v 0.08340823 0.09005906 -0.06803008
v 0.06970465 0.08842815 -0.07198401
v 0.05379605 0.08702434 -0.07478185
v 0.05355537 0.07650556 -0.04211362
v 0.03331625 0.08406533 -0.06745501
v 0.03594577 0.08526541 -0.07410152
v 0.02421188 0.08493568 -0.07348462
v 0.02873778 0.08097888 -0.05488069
v 0.00000000 0.08271529 -0.05994900
v 0.00000000 0.08388437 -0.07110317
v 0.00000000 0.08458544 -0.07306333
v -0.01385594 0.01603807 0.13713066
v -0.01537836 0.01606978 0.13153450
v -0.01534665 0.01616014 0.13699309
v -0.01712156 0.01633109 0.13684289
v -0.03420413 0.01874555 0.13361482
v -0.03845048 0.01832081 0.11760525
v -0.05569089 0.02397264 0.12918942
v -0.02783203 0.02712573 0.08751921
v -0.05256224 0.03175212 0.07527248
v -0.07474196 0.02574993 0.09851710
v -0.07865477 0.03095640 0.12025361
v -0.09777832 0.03836144 0.10888033
v -0.07053829 0.03944136 0.05472903
v -0.10078740 0.03676928 0.06718843
v -0.11671877 0.04673375 0.09309165
v -0.12585247 0.05223037 0.08147351
v -0.13421130 0.05978872 0.06379740
v -0.08121944 0.04921187 0.02967684
v -0.11049056 0.04653610 0.03386132
v -0.13819337 0.06683029 0.04430513
v -0.13994384 0.07408894 0.02349703
v -0.11053837 0.05885304 0.00010495
v -0.13943029 0.07977261 0.00522308
v -0.13688970 0.08360399 -0.00854893
v -0.12552488 0.08823778 -0.03024085
v -0.08077514 0.05900992 0.00325648
v -0.09376312 0.07091357 -0.03190644
v -0.11156249 0.08991744 -0.04846199
v -0.09628904 0.09070100 -0.06093140
v -0.07079828 0.06846966 -0.02163847
v -0.06489504 0.07939257 -0.05581637
v -0.08340824 0.09005906 -0.06803008
v -0.06970454 0.08842815 -0.07198401
v -0.05379606 0.08702434 -0.07478185
v -0.05355537 0.07650556 -0.04211362
v -0.03331626 0.08406533 -0.06745501
v -0.03594578 0.08526541 -0.07410152
v -0.02421189 0.08493568 -0.07348462
v -0.02873779 0.08097888 -0.05488069
v 0.00000000 0.01565482 0.13753872
v 0.01385593 0.01603807 0.13713066
v 0.01534664 0.01616014 0.13699309
v 0.01712155 0.01633109 0.13684289
v 0.03420412 0.01874555 0.13361482
v 0.05569088 0.02397264 0.12918942
v 0.07865476 0.03095640 0.12025361
v 0.09777832 0.03836144 0.10888033
v 0.11671877 0.04673375 0.09309165
v 0.12585246 0.05223037 0.08147351
v 0.13421130 0.05978872 0.06379740
v 0.13819337 0.06683029 0.04430513
v 0.13994384 0.07408894 0.02349703
v 0.13943028 0.07977261 0.00522308
v 0.13688969 0.08360399 -0.00854893
v 0.12552488 0.08823778 -0.03024085
v 0.11156249 0.08991744 -0.04846199
v 0.09628904 0.09070100 -0.06093140
v 0.08340823 0.09005906 -0.06803008
v 0.06970465 0.08842815 -0.07198401
v 0.05379605 0.08702434 -0.07478185
v 0.03594577 0.08526541 -0.07410152
v 0.02421188 0.08493568 -0.07348462
v 0.00000000 0.08458544 -0.07306333
v -0.01385594 0.01603807 0.13713066
v -0.01534665 0.01616014 0.13699309
v -0.01712156 0.01633109 0.13684289
v -0.03420413 0.01874555 0.13361482
v -0.05569089 0.02397264 0.12918942
v -0.07865477 0.03095640 0.12025361
v -0.09777832 0.03836144 0.10888033
v -0.11671877 0.04673375 0.09309165
v -0.12585247 0.05223037 0.08147351
v -0.13421130 0.05978872 0.06379740
v -0.13819337 0.06683029 0.04430513
v -0.13994384 0.07408894 0.02349703
v -0.13943029 0.07977261 0.00522308
v -0.13688970 0.08360399 -0.00854893
v -0.12552488 0.08823778 -0.03024085
v -0.11156249 0.08991744 -0.04846199
v -0.09628904 0.09070100 -0.06093140
v -0.08340824 0.09005906 -0.06803008
v -0.06970454 0.08842815 -0.07198401
v -0.05379606 0.08702434 -0.07478185
v -0.03594578 0.08526541 -0.07410152
v -0.02421189 0.08493568 -0.07348462
v 0.00391292 -0.16561966 0.00917987
v 0.00391292 -0.16561966 0.00917987
v 0.00000000 -0.16772722 0.02956943
v 0.00000000 -0.16579543 0.00943093
v 0.00000000 -0.16579543 0.00943093
v 0.00509584 -0.16739212 0.02998809
v 0.00000000 -0.16847788 0.05411486
v 0.01037287 -0.16578321 0.02984373
v 0.01028478 -0.16514359 0.00881271
v 0.01028478 -0.16514359 0.00881271
v 0.00627911 -0.16829847 0.05465858
v 0.01467526 -0.16529863 0.00880222
v 0.01467526 -0.16529863 0.00880222
v 0.00000000 -0.17021315 0.07893638
v 0.01541674 -0.16417353 0.03006808
v 0.01785040 -0.16129927 0.00868194
v 0.01785040 -0.16129927 0.00868194
v 0.01293218 -0.16621779 0.05579714
v 0.00775575 -0.16938917 0.07886986
v 0.01841795 -0.15981458 0.03000609
v 0.01669430 -0.15842639 0.00940637
v 0.01669430 -0.15842639 0.00940637
v 0.01692378 -0.15760820 0.03024261
v 0.02048588 -0.15789567 0.05462186
v 0.01903081 -0.15612321 0.05485193
v 0.01742184 -0.16278641 0.05544345
v 0.02293825 -0.15644793 0.07434933
v 0.02128911 -0.15431593 0.07455043
v 0.02055907 -0.16196124 0.07723717
v 0.02840209 -0.15232496 0.09237604
v 0.02605223 -0.14967851 0.09265165
v 0.01673519 -0.16579543 0.07828943
v 0.03499639 -0.14134692 0.10871641
v 0.03397464 -0.13981520 0.10712974
v 0.02565300 -0.15943538 0.09614997
v 0.03121090 -0.14786820 0.11309449
v 0.03885865 -0.12812303 0.11731081
v 0.03901362 -0.12708084 0.11568205
v 0.02075445 -0.16232680 0.09820644
v 0.01338863 -0.16763626 0.07841031
v 0.01481533 -0.16474561 0.10041587
v 0.02598965 -0.15157072 0.11674218
v 0.00872433 -0.16585891 0.10162441
v 0.00000000 -0.16672681 0.10230796
v 0.01528895 -0.15396683 0.11959068
v 0.00838351 -0.15809886 0.12176256
v 0.00000000 -0.15935634 0.12280719
v 0.01372647 -0.14565019 0.13312475
v 0.00873470 -0.14965467 0.13326995
v 0.00000000 -0.15127395 0.13412933
v 0.01941776 -0.13850908 0.13316004
v 0.00909674 -0.14703445 0.13678317
v 0.00000000 -0.14856033 0.13749353
v 0.00000000 -0.14589308 0.13934474
v 0.01358401 -0.14421539 0.13592009
v 0.00863957 -0.14456867 0.13867096
v 0.00000000 -0.12180267 0.14826755
v 0.01272189 -0.14086013 0.13823704
v 0.01049292 -0.12128143 0.14765136
v 0.00000000 -0.09848826 0.15353124
v 0.01793849 -0.13765048 0.13657622
v 0.01622498 -0.13657670 0.13861541
v 0.01195979 -0.09777354 0.15237884
v 0.00000000 -0.07210349 0.15399746
v 0.02043104 -0.11910372 0.14499240
v 0.01370179 -0.07231914 0.15321867
v 0.00000000 -0.05324023 0.15338866
v 0.02393305 -0.09574716 0.14916341
v 0.02294111 -0.11849319 0.14272778
v 0.01522183 -0.05311678 0.15268306
v 0.00000000 -0.03437696 0.15159754
v 0.02806949 -0.07131575 0.15048735
v 0.02614844 -0.09441607 0.14760570
v 0.02486705 -0.11696731 0.13895838
v 0.03015005 -0.07141219 0.14876847
v 0.02909922 -0.13446491 0.12716155
v 0.02830326 -0.09401129 0.14402108
v 0.03228247 -0.11473708 0.13438444
v 0.03591549 -0.13196121 0.12287752
v 0.04010498 -0.11258315 0.13051109
v 0.03501224 -0.09290241 0.14059166
v 0.03322541 -0.07061158 0.14563994
v 0.04321539 -0.11036103 0.12433092
v 0.04271245 -0.10958396 0.12255923
v 0.04744506 -0.09349869 0.12945895
v 0.04437017 -0.09295242 0.12620751
v 0.04391598 -0.09374772 0.13601653
v 0.05288696 -0.07644533 0.12980072
v 0.05023193 -0.07576554 0.12577729
v 0.04100680 -0.07271074 0.14218835
v 0.04883825 -0.07560603 0.13802867
v 0.06038081 -0.06097453 0.12867872
v 0.05801868 -0.05977039 0.12379019
v 0.04989958 -0.05492751 0.14071898
v 0.06952822 -0.04531144 0.12645440
v 0.06681704 -0.04236286 0.12112658
v 0.05681157 -0.05873107 0.13675801
v 0.07870030 -0.03253131 0.11828284
v 0.06635737 -0.04185622 0.13430504
v 0.08005249 -0.03488420 0.12371974
v 0.09052705 -0.02296095 0.11528055
v 0.07792246 -0.03000854 0.13163523
v 0.09239685 -0.02458511 0.11988191
v 0.06036496 -0.03714435 0.13806729
v 0.11926996 -0.00758623 0.10518901
v 0.11694824 -0.00624709 0.10115532
v 0.13384640 0.00135304 0.08572237
v 0.09104395 -0.01930551 0.12700121
v 0.13751948 0.00019337 0.08817629
v 0.14228999 0.00356747 0.07477681
v 0.11737549 -0.00183605 0.11186616
v 0.13914549 0.00738121 0.09220056
v 0.14651942 0.00264348 0.07688920
v 0.14958441 0.00560988 0.05761747
v 0.14859426 0.00968744 0.07969956
v 0.13615727 0.01414801 0.09437434
v 0.14562058 0.01663329 0.08200078
v 0.15689408 0.01182176 0.06098477
v 0.11401617 0.00406791 0.11366789
v 0.15437019 0.00492145 0.05938832
v 0.13379156 0.01671554 0.09473722
v 0.15833246 0.00418366 0.03983359
v 0.15387213 0.00497855 0.03870146
v 0.16121089 0.01157142 0.03984706
v 0.15934324 0.00178875 0.02050416
v 0.15530765 0.00224651 0.01981453
v 0.16220951 0.00872256 0.01959805
v 0.15889859 -0.00129663 0.00424759
v 0.15487063 -0.00080036 0.00404768
v 0.15645015 -0.00610475 -0.01536258
v 0.15271961 -0.00536011 -0.01552232
v 0.16179251 0.00503541 0.00218360
v 0.15322995 -0.01357012 -0.03350385
v 0.14921391 -0.01314651 -0.03380771
v 0.15915775 -0.00033473 -0.01807650
v 0.14709317 -0.02257769 -0.05233760
v 0.14342653 -0.02170853 -0.05256422
v 0.15614831 -0.00829552 -0.03667195
v 0.13839471 -0.03252153 -0.06985982
v 0.13430476 -0.03132276 -0.07020338
v 0.14996195 -0.01760553 -0.05717774
v 0.12721264 -0.04419021 -0.08460160
v 0.12350654 -0.04287253 -0.08449407
v 0.14152515 -0.02874534 -0.07478269
v 0.11584842 -0.05567704 -0.09593566
v 0.11196780 -0.05312209 -0.09448977
v 0.12922609 -0.04065852 -0.08937045
v 0.10278320 -0.06962846 -0.10350807
v 0.09891844 -0.06578814 -0.10128696
v 0.11694085 -0.05308061 -0.10114534
v 0.12745356 -0.03636925 -0.09384795
v 0.13835835 -0.02184974 -0.07910259
v 0.14741015 -0.00993846 -0.06096764
v 0.12106192 -0.02946304 -0.09818454
v 0.15356445 -0.00007950 -0.03963776
v 0.13170075 -0.01522492 -0.08265253
v 0.15783441 0.00813891 -0.02073403
v 0.14763188 0.00760306 -0.04313262
v 0.14073264 -0.00285636 -0.06461461
v 0.15938472 0.01376392 0.00036745
v 0.15472161 0.01481880 -0.02153476
v 0.16145920 0.01702012 0.01988201
v 0.15615964 0.01867236 -0.00070770
v 0.15969968 0.01935531 0.04102389
v 0.15689456 0.02353145 0.01916043
v 0.15414011 0.01987196 0.06349854
v 0.15702390 0.02462329 0.04132418
v 0.14312792 0.01972128 0.08227150
v 0.15152049 0.02348031 0.06367712
v 0.15354979 0.03561510 0.01963584
v 0.12980473 0.02294482 0.09482269
v 0.15330326 0.03585495 0.04287140
v 0.13876390 0.02727248 0.08289556
v 0.14677930 0.03235365 0.06483976
v 0.14559066 0.04029716 0.06545941
v 0.13684499 0.03396775 0.08426373
v 0.12732422 0.02970017 0.09701018
v 0.15173828 0.04606975 0.04320519
v 0.13705980 0.04266323 0.08509044
v 0.14571273 0.05021359 0.06586532
v 0.12763178 0.03717460 0.09825770
v 0.15112304 0.05601980 0.04334061
v 0.12217772 0.04808201 0.09868555
v 0.13240337 0.05386127 0.08595137
v 0.14185404 0.06170250 0.06715946
v 0.13120281 0.05454565 0.08561973
v 0.15245557 0.05013610 0.02135090
v 0.14065206 0.06239559 0.06690292
v 0.14671361 0.06916095 0.04549567
v 0.15175044 0.06180896 0.02235441
v 0.15034175 0.05222215 0.00084679
v 0.14529359 0.06974710 0.04536037
v 0.14866721 0.07544829 0.02520744
v 0.14727568 0.07607879 0.02537553
v 0.15044200 0.06680418 0.00177662
v 0.15120113 0.03699149 -0.00034340
v 0.14844072 0.08096649 0.00473301
v 0.15341794 0.02724291 -0.00089081
v 0.14541256 0.05367459 -0.01825722
v 0.14743650 0.03569533 -0.02067538
v 0.15080082 0.02434088 -0.02152379
v 0.13654291 0.03399767 -0.04465981
v 0.14123046 0.01801373 -0.04482944
v 0.13504886 0.05636395 -0.04114898
v 0.13307023 0.00582625 -0.06742974
v 0.12407183 0.03007914 -0.06819351
v 0.12424171 -0.00649260 -0.08586557
v 0.12800538 0.01340140 -0.06887122
v 0.11592793 0.00574721 -0.08821102
v 0.11383533 -0.02160494 -0.10289033
v 0.10404563 -0.00857477 -0.10640986
v 0.11043763 0.02540471 -0.08742268
v 0.09491336 0.01873423 -0.10258706
v 0.09350812 -0.02019869 -0.11777742
v 0.09207046 0.05465259 -0.08954986
v 0.10294926 -0.03528743 -0.11451204
v 0.08192086 0.01131715 -0.11469980
v 0.10978257 -0.04487173 -0.11046858
v 0.08287406 -0.02895723 -0.12345107
v 0.11426329 -0.05003373 -0.10516758
v 0.09121215 -0.04650156 -0.12109788
v 0.09686756 -0.05951809 -0.11742874
v 0.10009157 -0.06562452 -0.11310335
v 0.10198486 -0.06926714 -0.10962434
v 0.08248698 -0.07335971 -0.11987229
v 0.08809447 -0.08410232 -0.10697182
v 0.08311033 -0.08067583 -0.10538967
v 0.06931150 -0.09568070 -0.10447784
v 0.08522153 -0.08004348 -0.11641760
v 0.08788812 -0.08339797 -0.11249633
v 0.07147252 -0.09970902 -0.10663660
v 0.05273366 -0.11026912 -0.09784015
v 0.07119441 -0.09906207 -0.11112948
v 0.06890690 -0.09576862 -0.11436994
v 0.05500841 -0.11452060 -0.09957989
v 0.04264962 -0.12091957 -0.08869989
v 0.05420410 -0.11420368 -0.10467322
v 0.04389786 -0.12508302 -0.09056755
v 0.03251219 -0.13323073 -0.07535704
v 0.04161131 -0.12515335 -0.09599276
v 0.05228567 -0.10997759 -0.10817166
v 0.03195357 -0.13802032 -0.07717331
v 0.02369868 -0.14523636 -0.05753453
v 0.02759099 -0.13912063 -0.08049841
v 0.02359867 -0.14899306 -0.05881198
v 0.02003169 -0.15273147 -0.03862341
v 0.01896119 -0.15111528 -0.06164308
v 0.02028072 -0.15557300 -0.03884907
v 0.01797795 -0.15606742 -0.01514275
v 0.01591062 -0.15978591 -0.03999670
v 0.01858890 -0.15890394 -0.01562353
v 0.01470220 -0.16349809 -0.01633699
v 0.01014280 -0.16208939 -0.01750489
v 0.01156378 -0.15825884 -0.04078646
v 0.00310123 -0.15939163 -0.01823016
v 0.00000000 -0.15883498 -0.01840933
v 0.01523840 -0.14833693 -0.06341680
v 0.00291824 -0.15274964 -0.04241713
v 0.00000000 -0.15227013 -0.04236265
v 0.00000000 -0.13565140 -0.06688018
v 0.01090300 -0.14277540 -0.06631382
v 0.02278506 -0.13367872 -0.08274265
v 0.00429201 -0.13718216 -0.06723602
v 0.01878321 -0.12567096 -0.08606477
v 0.03943801 -0.12001662 -0.09955664
v 0.00431061 -0.11186098 -0.08724804
v 0.00000000 -0.11246757 -0.08653994
v 0.03485810 -0.10987990 -0.10352452
v 0.01402974 -0.09413772 -0.10131534
v 0.00459158 -0.08611040 -0.10042460
v 0.00000000 -0.08532183 -0.10038968
v 0.00710475 -0.05586557 -0.11457403
v 0.00000000 -0.05576281 -0.11399336
v 0.00000000 -0.02363770 -0.11985631
v 0.00830793 -0.02186118 -0.12077506
v 0.00000000 0.00248457 -0.11678620
v 0.01712966 -0.05492918 -0.12092765
v 0.00749385 0.00312914 -0.11713775
v 0.00000000 0.04777385 -0.10197421
v 0.02971279 -0.08949904 -0.11221166
v 0.00794446 0.04826952 -0.10200103
v 0.00000000 0.06893600 -0.09168120
v 0.04853320 -0.10092728 -0.11221345
v 0.04373729 -0.08112483 -0.12149640
v 0.06517613 -0.08799027 -0.11814614
v 0.05980754 -0.06997512 -0.12443514
v 0.03458202 -0.05044709 -0.12797614
v 0.07714426 -0.05913805 -0.12437661
v 0.05189252 -0.04436664 -0.12893708
v 0.06891787 -0.03763889 -0.12772961
v 0.02689504 -0.01782952 -0.12682946
v 0.04638719 -0.01464753 -0.12866612
v 0.06251526 -0.01286625 -0.12658759
v 0.07412708 -0.01083659 -0.12303527
v 0.05963897 0.00951768 -0.12071450
v 0.04162109 0.00767697 -0.12240882
v 0.02390623 0.00599994 -0.12089010
v 0.02359867 0.04951335 -0.10424955
v 0.04142070 0.05067922 -0.10524817
v 0.05825543 0.05168869 -0.10399087
v 0.00884497 0.06930710 -0.09167393
v 0.00000000 0.08875777 -0.08083542
v 0.02388644 0.06953169 -0.09328742
v 0.00798988 0.08892383 -0.08075042
v 0.00000000 0.08853330 -0.07933636
v 0.02231395 0.08899702 -0.08221991
v 0.00813997 0.08885087 -0.07920523
v 0.00000000 0.08694233 -0.07439812
v 0.02196634 0.08927049 -0.08054741
v 0.02265179 0.08768453 -0.07554837
v 0.03639006 0.08864058 -0.07722075
v 0.03687417 0.08965577 -0.08251603
v 0.05366206 0.08987357 -0.07724519
v 0.06807613 0.09086467 -0.07457252
v 0.05323755 0.09047104 -0.08295937
v 0.08382320 0.09209765 -0.06953462
v 0.07021689 0.09111418 -0.08000751
v 0.09739256 0.09273483 -0.06256385
v 0.08650017 0.09191371 -0.07490058
v 0.05364215 0.09009947 -0.08419366
v 0.11304438 0.09247853 -0.04985841
v 0.03729021 0.08942224 -0.08377202
v 0.03972006 0.07029582 -0.09474953
v 0.05712926 0.07123937 -0.09399946
v 0.07058751 0.09057714 -0.08126028
v 0.07329261 0.07222713 -0.08946164
v 0.08711445 0.09122063 -0.07591219
v 0.10092795 0.09255744 -0.06721933
v 0.07621944 0.05352952 -0.09806068
v 0.09113073 0.07321931 -0.08291872
v 0.10551882 0.05569924 -0.07862945
v 0.10168349 0.09177567 -0.06808670
v 0.10593319 0.07403554 -0.07365497
v 0.12105226 0.05643166 -0.06136628
v 0.12075197 0.07475759 -0.05789955
v 0.11801874 0.09168650 -0.05418463
v 0.13559568 0.07376875 -0.03843172
v 0.11706090 0.09250273 -0.05341072
v 0.14589107 0.07020844 -0.01492460
v 0.13332939 0.09047498 -0.03390689
v 0.14476168 0.08548762 -0.00995131
v 0.13218653 0.09103753 -0.03318663
v 0.14358616 0.08623780 -0.00948782
v 0.12757814 0.09088673 -0.03076811
v 0.13817382 0.08572806 -0.00777741
v 0.14712262 0.08171536 0.00501065
v 0.14114868 0.08167530 0.00562589
v 0.14177704 0.07537450 0.02562837
v 0.13983881 0.06834270 0.04494230
v 0.13582015 0.06191398 0.06499617
v 0.12696004 0.05390443 0.08282153
v 0.11732495 0.04795684 0.09458904
v 0.12097847 0.04875733 0.09827869
v 0.09791505 0.03961171 0.11088531
v 0.10192585 0.03929020 0.11469214
v 0.10295665 0.03859009 0.11552505
v 0.07897699 0.03206159 0.12176661
v 0.10727536 0.02802838 0.11587493
v 0.05616212 0.02511527 0.13092105
v 0.08236897 0.03177227 0.12657778
v 0.05864751 0.02399100 0.13659029
v 0.03352785 0.02006520 0.13576476
v 0.03565418 0.01903523 0.14207582
v 0.01614451 0.01774944 0.13866608
v 0.01691651 0.01713909 0.14352135
v 0.03605723 0.01802029 0.14319698
v 0.01514005 0.01740278 0.13860683
v 0.05921626 0.02282394 0.13714687
v 0.01590490 0.01685597 0.14340417
v 0.01711666 0.01585735 0.14501063
v 0.01379251 0.01690723 0.13884549
v 0.00000000 0.01631881 0.13892428
v 0.00000000 0.01569630 0.14083831
v 0.01390195 0.01603438 0.14112882
v 0.00000000 0.01463331 0.14137940
v 0.01439273 0.01454879 0.14187829
v 0.01619446 0.01536669 0.14461701
v 0.01380253 0.00611867 0.14109222
v 0.00000000 0.00546802 0.14096229
v 0.01644957 0.00597216 0.14413778
v 0.01762938 0.00576664 0.14442472
v 0.01234686 -0.00627397 0.14241294
v 0.00000000 -0.00714640 0.14171509
v 0.01500308 -0.00866453 0.14710276
v 0.03683769 0.00740279 0.14318411
v 0.01668215 -0.00902681 0.14739339
v 0.01397645 -0.01232849 0.14760582
v 0.01087343 -0.01343046 0.14754479
v 0.00000000 -0.01381300 0.14707856
v 0.00000000 -0.01636188 0.14898769
v 0.01149356 -0.01568393 0.14880220
v 0.01540768 -0.01456480 0.14852135
v 0.01674199 -0.03391437 0.15096526
v 0.03554988 -0.01439165 0.14567713
v 0.03436279 -0.03371112 0.14777426
v 0.03121614 -0.05251341 0.14972190
v 0.03637242 -0.05267029 0.14762227
v 0.04416752 -0.03392838 0.14529388
v 0.04077518 -0.05264716 0.14414756
v 0.04989743 -0.03468280 0.14147310
v 0.05780744 -0.01378189 0.14019124
v 0.06424248 -0.01751392 0.13640515
v 0.07358944 -0.02308135 0.13401453
v 0.08790648 -0.00982057 0.12869422
v 0.08648193 -0.00077830 0.12778167
v 0.11171138 0.00795449 0.11384360
v 0.10915279 0.01382126 0.11372642
v 0.08554077 0.00860657 0.12803201
v 0.10751462 0.02066971 0.11471276
v 0.05966186 0.01157559 0.13745205
v 0.08515012 0.01843335 0.12802581
v 0.08325803 0.03099526 0.12749903
v -0.00391293 -0.16561966 0.00917987
v -0.00391293 -0.16561966 0.00917987
v -0.00509584 -0.16739212 0.02998809
v -0.01037288 -0.16578321 0.02984373
v -0.01028478 -0.16514359 0.00881271
v -0.01028478 -0.16514359 0.00881271
v -0.00627911 -0.16829847 0.05465858
v -0.01467526 -0.16529863 0.00880222
v -0.01467526 -0.16529863 0.00880222
v -0.01541674 -0.16417353 0.03006808
v -0.01785028 -0.16129927 0.00868194
v -0.01785028 -0.16129927 0.00868194
v -0.01293218 -0.16621779 0.05579714
v -0.00775576 -0.16938917 0.07886986
v -0.01841796 -0.15981458 0.03000609
v -0.01669431 -0.15842639 0.00940637
v -0.01669431 -0.15842639 0.00940637
v -0.01692379 -0.15760820 0.03024261
v -0.02048588 -0.15789567 0.05462186
v -0.01903081 -0.15612321 0.05485193
v -0.01742184 -0.16278641 0.05544345
v -0.02293825 -0.15644793 0.07434933
v -0.02128911 -0.15431593 0.07455043
v -0.02055908 -0.16196124 0.07723717
v -0.02840209 -0.15232496 0.09237604
v -0.02605224 -0.14967851 0.09265165
v -0.01673520 -0.16579543 0.07828943
v -0.03499639 -0.14134692 0.10871641
v -0.03397465 -0.13981520 0.10712974
v -0.02565301 -0.15943538 0.09614997
v -0.03121090 -0.14786820 0.11309449
v -0.03885865 -0.12812303 0.11731081
v -0.03901363 -0.12708084 0.11568205
v -0.02075434 -0.16232680 0.09820644
v -0.01338864 -0.16763626 0.07841031
v -0.01481533 -0.16474561 0.10041587
v -0.02598965 -0.15157072 0.11674218
v -0.00872433 -0.16585891 0.10162441
v -0.01528895 -0.15396683 0.11959068
v -0.00838352 -0.15809886 0.12176256
v -0.01941777 -0.13850908 0.13316004
v -0.00873471 -0.14965467 0.13326995
v -0.01372648 -0.14565019 0.13312475
v -0.00909663 -0.14703445 0.13678317
v -0.01358402 -0.14421539 0.13592009
v -0.00863958 -0.14456867 0.13867096
v -0.01272190 -0.14086013 0.13823704
v -0.01049280 -0.12128143 0.14765136
v -0.01793850 -0.13765048 0.13657622
v -0.01622498 -0.13657670 0.13861541
v -0.01195979 -0.09777354 0.15237884
v -0.02043104 -0.11910372 0.14499240
v -0.01370180 -0.07231914 0.15321867
v -0.02393306 -0.09574716 0.14916341
v -0.02294112 -0.11849319 0.14272778
v -0.01522184 -0.05311678 0.15268306
v -0.02806950 -0.07131575 0.15048735
v -0.02614832 -0.09441607 0.14760570
v -0.02486706 -0.11696731 0.13895838
v -0.03014994 -0.07141219 0.14876847
v -0.02909923 -0.13446491 0.12716155
v -0.02830327 -0.09401129 0.14402108
v -0.03228236 -0.11473708 0.13438444
v -0.03591550 -0.13196121 0.12287752
v -0.04010499 -0.11258315 0.13051109
v -0.03501225 -0.09290241 0.14059166
v -0.04321528 -0.11036103 0.12433092
v -0.04271245 -0.10958396 0.12255923
v -0.04744506 -0.09349869 0.12945895
v -0.04437006 -0.09295242 0.12620751
v -0.04391599 -0.09374772 0.13601653
v -0.05288697 -0.07644533 0.12980072
v -0.05023194 -0.07576554 0.12577729
v -0.04100681 -0.07271074 0.14218835
v -0.06038082 -0.06097453 0.12867872
v -0.05801869 -0.05977039 0.12379019
v -0.04883814 -0.07560603 0.13802867
v -0.06952822 -0.04531144 0.12645440
v -0.06681705 -0.04236286 0.12112658
v -0.07870031 -0.03253131 0.11828284
v -0.05681157 -0.05873107 0.13675801
v -0.08005250 -0.03488420 0.12371974
v -0.09052706 -0.02296095 0.11528055
v -0.06635738 -0.04185622 0.13430504
v -0.04989958 -0.05492751 0.14071898
v -0.07792247 -0.03000854 0.13163523
v -0.06036496 -0.03714435 0.13806729
v -0.09239686 -0.02458511 0.11988191
v -0.11926997 -0.00758623 0.10518901
v -0.11694825 -0.00624709 0.10115532
v -0.13384640 0.00135304 0.08572237
v -0.09104395 -0.01930551 0.12700121
v -0.13751948 0.00019337 0.08817629
v -0.14229000 0.00356747 0.07477681
v -0.11737550 -0.00183605 0.11186616
v -0.13914550 0.00738121 0.09220056
v -0.14651943 0.00264348 0.07688920
v -0.14958442 0.00560988 0.05761747
v -0.14859426 0.00968744 0.07969956
v -0.15437019 0.00492145 0.05938832
v -0.15689409 0.01182176 0.06098477
v -0.15833247 0.00418366 0.03983359
v -0.15387214 0.00497855 0.03870146
v -0.16121090 0.01157142 0.03984706
v -0.15934325 0.00178875 0.02050416
v -0.15530765 0.00224651 0.01981453
v -0.16220951 0.00872256 0.01959805
v -0.15889859 -0.00129663 0.00424759
v -0.15487063 -0.00080036 0.00404768
v -0.15645016 -0.00610475 -0.01536258
v -0.15271962 -0.00536011 -0.01552232
v -0.16179252 0.00503541 0.00218360
v -0.15322995 -0.01357012 -0.03350385
v -0.14921391 -0.01314651 -0.03380771
v -0.15915776 -0.00033473 -0.01807650
v -0.14709318 -0.02257769 -0.05233760
v -0.14342654 -0.02170853 -0.05256422
v -0.15614832 -0.00829552 -0.03667195
v -0.13839472 -0.03252153 -0.06985982
v -0.13430476 -0.03132276 -0.07020338
v -0.14996195 -0.01760553 -0.05717774
v -0.12721265 -0.04419021 -0.08460160
v -0.12350655 -0.04287253 -0.08449407
v -0.14152515 -0.02874534 -0.07478269
v -0.11584842 -0.05567704 -0.09593566
v -0.11196780 -0.05312209 -0.09448977
v -0.12922609 -0.04065852 -0.08937045
v -0.10278321 -0.06962846 -0.10350807
v -0.09891844 -0.06578814 -0.10128696
v -0.11694086 -0.05308061 -0.10114534
v -0.12745357 -0.03636925 -0.09384795
v -0.08809448 -0.08410232 -0.10697182
v -0.08311034 -0.08067583 -0.10538967
v -0.06931150 -0.09568070 -0.10447784
v -0.10198486 -0.06926714 -0.10962434
v -0.07147253 -0.09970902 -0.10663660
v -0.05273366 -0.11026912 -0.09784015
v -0.08788812 -0.08339797 -0.11249633
v -0.05500830 -0.11452060 -0.09957989
v -0.04264963 -0.12091957 -0.08869989
v -0.07119441 -0.09906207 -0.11112948
v -0.05420411 -0.11420368 -0.10467322
v -0.04389787 -0.12508302 -0.09056755
v -0.03251219 -0.13323073 -0.07535704
v -0.04161132 -0.12515335 -0.09599276
v -0.03195358 -0.13802032 -0.07717331
v -0.02369869 -0.14523636 -0.05753453
v -0.02759099 -0.13912063 -0.08049841
v -0.02359867 -0.14899306 -0.05881198
v -0.02003169 -0.15273147 -0.03862341
v -0.01896119 -0.15111528 -0.06164308
v -0.02028072 -0.15557300 -0.03884907
v -0.01797796 -0.15606742 -0.01514275
v -0.01591063 -0.15978591 -0.03999670
v -0.01858890 -0.15890394 -0.01562353
v -0.01470220 -0.16349809 -0.01633699
v -0.01014281 -0.16208939 -0.01750489
v -0.01156366 -0.15825884 -0.04078646
v -0.00310123 -0.15939163 -0.01823016
v -0.00291825 -0.15274964 -0.04241713
v -0.01523829 -0.14833693 -0.06341680
v -0.01090300 -0.14277540 -0.06631382
v -0.02278507 -0.13367872 -0.08274265
v -0.00429201 -0.13718216 -0.06723602
v -0.01878321 -0.12567096 -0.08606477
v -0.03943801 -0.12001662 -0.09955664
v -0.00431061 -0.11186098 -0.08724804
v -0.05228555 -0.10997759 -0.10817166
v -0.00459159 -0.08611040 -0.10042460
v -0.01402974 -0.09413772 -0.10131534
v -0.00710476 -0.05586557 -0.11457403
v -0.03485811 -0.10987990 -0.10352452
v -0.00830794 -0.02186118 -0.12077506
v -0.01712966 -0.05492918 -0.12092765
v -0.02971280 -0.08949904 -0.11221166
v -0.04853320 -0.10092728 -0.11221345
v -0.04373730 -0.08112483 -0.12149640
v -0.06890691 -0.09576862 -0.11436994
v -0.06517613 -0.08799027 -0.11814614
v -0.08522153 -0.08004348 -0.11641760
v -0.05980754 -0.06997512 -0.12443514
v -0.10009158 -0.06562452 -0.11310335
v -0.08248699 -0.07335971 -0.11987229
v -0.11426330 -0.05003373 -0.10516758
v -0.09686756 -0.05951809 -0.11742874
v -0.07714427 -0.05913805 -0.12437661
v -0.03458202 -0.05044709 -0.12797614
v -0.05189252 -0.04436664 -0.12893708
v -0.02689505 -0.01782952 -0.12682946
v -0.06891787 -0.03763889 -0.12772961
v -0.00749386 0.00312914 -0.11713775
v -0.04638720 -0.01464753 -0.12866612
v -0.00794447 0.04826952 -0.10200103
v -0.02390611 0.00599994 -0.12089010
v -0.04162109 0.00767697 -0.12240882
v -0.02359867 0.04951335 -0.10424955
v -0.00884497 0.06930710 -0.09167393
v -0.04142070 0.05067922 -0.10524817
v -0.00798989 0.08892383 -0.08075042
v -0.02388644 0.06953169 -0.09328742
v -0.02231396 0.08899702 -0.08221991
v -0.00813997 0.08885087 -0.07920523
v -0.02196634 0.08927049 -0.08054741
v -0.02265179 0.08768453 -0.07554837
v -0.03639007 0.08864058 -0.07722075
v -0.03687418 0.08965577 -0.08251603
v -0.05366206 0.08987357 -0.07724519
v -0.06807614 0.09086467 -0.07457252
v -0.05323756 0.09047104 -0.08295937
v -0.08382321 0.09209765 -0.06953462
v -0.07021690 0.09111418 -0.08000751
v -0.09739256 0.09273483 -0.06256385
v -0.08650017 0.09191371 -0.07490058
v -0.05364216 0.09009947 -0.08419366
v -0.11304438 0.09247853 -0.04985841
v -0.07058752 0.09057714 -0.08126028
v -0.10092795 0.09255744 -0.06721933
v -0.08711446 0.09122063 -0.07591219
v -0.12757814 0.09088673 -0.03076811
v -0.11706090 0.09250273 -0.05341072
v -0.10168350 0.09177567 -0.06808670
v -0.13817382 0.08572806 -0.00777741
v -0.13218653 0.09103753 -0.03318663
v -0.11801875 0.09168650 -0.05418463
v -0.14114869 0.08167530 0.00562589
v -0.14358616 0.08623780 -0.00948782
v -0.14177704 0.07537450 0.02562837
v -0.14712262 0.08171536 0.00501065
v -0.13983882 0.06834270 0.04494230
v -0.14727569 0.07607879 0.02537553
v -0.14529360 0.06974710 0.04536037
v -0.13582015 0.06191398 0.06499617
v -0.12696004 0.05390443 0.08282153
v -0.14065206 0.06239559 0.06690292
v -0.11732495 0.04795684 0.09458904
v -0.13120282 0.05454565 0.08561973
v -0.09791506 0.03961171 0.11088531
v -0.12097848 0.04875733 0.09827869
v -0.07897699 0.03206159 0.12176661
v -0.10192585 0.03929020 0.11469214
v -0.08236897 0.03177227 0.12657778
v -0.05616212 0.02511527 0.13092105
v -0.05864752 0.02399100 0.13659029
v -0.03352785 0.02006520 0.13576476
v -0.03565419 0.01903523 0.14207582
v -0.01614452 0.01774944 0.13866608
v -0.01691652 0.01713909 0.14352135
v -0.03605724 0.01802029 0.14319698
v -0.01711667 0.01585735 0.14501063
v -0.01590479 0.01685597 0.14340417
v -0.01514006 0.01740278 0.13860683
v -0.01379252 0.01690723 0.13884549
v -0.01390195 0.01603438 0.14112882
v -0.01439274 0.01454879 0.14187829
v -0.01619447 0.01536669 0.14461701
v -0.01380253 0.00611867 0.14109222
v -0.01644957 0.00597216 0.14413778
v -0.01234675 -0.00627397 0.14241294
v -0.01762939 0.00576664 0.14442472
v -0.01500309 -0.00866453 0.14710276
v -0.01087344 -0.01343046 0.14754479
v -0.01397646 -0.01232849 0.14760582
v -0.01149357 -0.01568393 0.14880220
v -0.01668215 -0.00902681 0.14739339
v -0.01540768 -0.01456480 0.14852135
v -0.01674199 -0.03391437 0.15096526
v -0.03683770 0.00740279 0.14318411
v -0.03121615 -0.05251341 0.14972190
v -0.03436280 -0.03371112 0.14777426
v -0.03637243 -0.05267029 0.14762227
v -0.03554988 -0.01439165 0.14567713
v -0.04416752 -0.03392838 0.14529388
v -0.05780745 -0.01378189 0.14019124
v -0.03322542 -0.07061158 0.14563994
v -0.04077518 -0.05264716 0.14414756
v -0.04989744 -0.03468280 0.14147310
v -0.06424248 -0.01751392 0.13640515
v -0.07358945 -0.02308135 0.13401453
v -0.08790636 -0.00982057 0.12869422
v -0.08648193 -0.00077830 0.12778167
v -0.11401618 0.00406791 0.11366789
v -0.11171139 0.00795449 0.11384360
v -0.13615728 0.01414801 0.09437434
v -0.13379157 0.01671554 0.09473722
v -0.14562059 0.01663329 0.08200078
v -0.12980473 0.02294482 0.09482269
v -0.15414012 0.01987196 0.06349854
v -0.14312792 0.01972128 0.08227150
v -0.15969968 0.01935531 0.04102389
v -0.15152049 0.02348031 0.06367712
v -0.16145921 0.01702012 0.01988201
v -0.15702391 0.02462329 0.04132418
v -0.15689457 0.02353145 0.01916043
v -0.15938473 0.01376392 0.00036745
v -0.15615964 0.01867236 -0.00070770
v -0.15783441 0.00813891 -0.02073403
v -0.15472162 0.01481880 -0.02153476
v -0.15356446 -0.00007950 -0.03963776
v -0.14763189 0.00760306 -0.04313262
v -0.14741016 -0.00993846 -0.06096764
v -0.14123047 0.01801373 -0.04482944
v -0.13835836 -0.02184974 -0.07910259
v -0.14073265 -0.00285636 -0.06461461
v -0.13170076 -0.01522492 -0.08265253
v -0.12106192 -0.02946304 -0.09818454
v -0.13307023 0.00582625 -0.06742974
v -0.12424171 -0.00649260 -0.08586557
v -0.11383534 -0.02160494 -0.10289033
v -0.10978258 -0.04487173 -0.11046858
v -0.10294926 -0.03528743 -0.11451204
v -0.09121216 -0.04650156 -0.12109788
v -0.08287406 -0.02895723 -0.12345107
v -0.09350813 -0.02019869 -0.11777742
v -0.06251526 -0.01286625 -0.12658759
v -0.07412708 -0.01083659 -0.12303527
v -0.05963898 0.00951768 -0.12071450
v -0.08192087 0.01131715 -0.11469980
v -0.10404563 -0.00857477 -0.10640986
v -0.05825544 0.05168869 -0.10399087
v -0.11592782 0.00574721 -0.08821102
v -0.09491337 0.01873423 -0.10258706
v -0.12800539 0.01340140 -0.06887122
v -0.11043763 0.02540471 -0.08742268
v -0.07621944 0.05352952 -0.09806068
v -0.09207046 0.05465259 -0.08954986
v -0.12407184 0.03007914 -0.06819351
v -0.10551882 0.05569924 -0.07862945
v -0.09113062 0.07321931 -0.08291872
v -0.07329262 0.07222713 -0.08946164
v -0.05712927 0.07123937 -0.09399946
v -0.10593319 0.07403554 -0.07365497
v -0.03971994 0.07029582 -0.09474953
v -0.03729022 0.08942224 -0.08377202
v -0.12105227 0.05643166 -0.06136628
v -0.12075198 0.07475759 -0.05789955
v -0.13654292 0.03399767 -0.04465981
v -0.13504887 0.05636395 -0.04114898
v -0.13559568 0.07376875 -0.03843172
v -0.15080083 0.02434088 -0.02152379
v -0.14743650 0.03569533 -0.02067538
v -0.15341795 0.02724291 -0.00089081
v -0.14541257 0.05367459 -0.01825722
v -0.15120113 0.03699149 -0.00034340
v -0.15354979 0.03561510 0.01963584
v -0.15034175 0.05222215 0.00084679
v -0.14589107 0.07020844 -0.01492460
v -0.15330327 0.03585495 0.04287140
v -0.13332939 0.09047498 -0.03390689
v -0.14476168 0.08548762 -0.00995131
v -0.15044201 0.06680418 0.00177662
v -0.14844072 0.08096649 0.00473301
v -0.14866722 0.07544829 0.02520744
v -0.15175045 0.06180896 0.02235441
v -0.14671362 0.06916095 0.04549567
v -0.15245557 0.05013610 0.02135090
v -0.15112305 0.05601980 0.04334061
v -0.14185405 0.06170250 0.06715946
v -0.15173829 0.04606975 0.04320519
v -0.14571274 0.05021359 0.06586532
v -0.13240338 0.05386127 0.08595137
v -0.14559067 0.04029716 0.06545941
v -0.13705981 0.04266323 0.08509044
v -0.12217772 0.04808201 0.09868555
v -0.14677930 0.03235365 0.06483976
v -0.10295666 0.03859009 0.11552505
v -0.13876391 0.02727248 0.08289556
v -0.13684500 0.03396775 0.08426373
v -0.12732423 0.02970017 0.09701018
v -0.12763179 0.03717460 0.09825770
v -0.10727537 0.02802838 0.11587493
v -0.10751462 0.02066971 0.11471276
v -0.08325804 0.03099526 0.12749903
v -0.08515013 0.01843335 0.12802581
v -0.05921626 0.02282394 0.13714687
v -0.05966187 0.01157559 0.13745205
v -0.08554077 0.00860657 0.12803201
v -0.10915280 0.01382126 0.11372642
vt 0.28620246 0.37274683
vt 0.28963396 0.36494100
vt 0.28947637 0.37408316
vt 0.29323307 0.36533833
vt 0.29003391 0.36412859
vt 0.29050657 0.36315834
vt 0.29424122 0.37582845
vt 0.29594538 0.35402131
vt 0.30671060 0.35507667
vt 0.30233219 0.34205627
vt 0.32385421 0.36764956
vt 0.31417966 0.38318813
vt 0.38571256 0.40871763
vt 0.33664563 0.35376859
vt 0.32452726 0.33671737
vt 0.31137809 0.32941842
vt 0.32102784 0.31875890
vt 0.35327840 0.34385598
vt 0.34717789 0.32361400
vt 0.33301112 0.30809951
vt 0.34127423 0.30298781
vt 0.35323355 0.29792845
vt 0.37208888 0.33734143
vt 0.36910140 0.31881857
vt 0.36620733 0.29538560
vt 0.38008913 0.29402793
vt 0.39144900 0.31770545
vt 0.39211717 0.29428577
vt 0.40100530 0.29565102
vt 0.41514561 0.30185551
vt 0.39145848 0.33677298
vt 0.41428500 0.32492244
vt 0.42679265 0.30980492
vt 0.43553403 0.31802428
vt 0.41044280 0.34089953
vt 0.43410423 0.33902383
vt 0.44087878 0.32510591
vt 0.44460192 0.33277190
vt 0.44872150 0.34138346
vt 0.42767325 0.34866500
vt 0.44839010 0.35477889
vt 0.45172086 0.35179889
vt 0.45451751 0.35793746
vt 0.44180343 0.36104929
vt 0.45379856 0.37540293
vt 0.46049812 0.37162673
vt 0.46163395 0.37098825
vt 0.28963396 0.36494100
vt 0.29323307 0.36533833
vt 0.29003391 0.36412859
vt 0.29050657 0.36315834
vt 0.29594538 0.35402131
vt 0.30671060 0.35507667
vt 0.30233219 0.34205627
vt 0.32385421 0.36764956
vt 0.33664563 0.35376859
vt 0.32452726 0.33671737
vt 0.31137809 0.32941842
vt 0.32102784 0.31875890
vt 0.35327840 0.34385598
vt 0.34717789 0.32361400
vt 0.33301112 0.30809951
vt 0.34127423 0.30298781
vt 0.35323355 0.29792845
vt 0.37208888 0.33734143
vt 0.36910140 0.31881857
vt 0.36620733 0.29538560
vt 0.38008913 0.29402793
vt 0.39144900 0.31770545
vt 0.39211717 0.29428577
vt 0.40100530 0.29565102
vt 0.41514561 0.30185551
vt 0.39145848 0.33677298
vt 0.41428500 0.32492244
vt 0.42679265 0.30980492
vt 0.43553403 0.31802428
vt 0.41044280 0.34089953
vt 0.43410423 0.33902383
vt 0.44087878 0.32510591
vt 0.44460192 0.33277190
vt 0.44872150 0.34138346
vt 0.42767325 0.34866500
vt 0.44839010 0.35477889
vt 0.45172086 0.35179889
vt 0.45451751 0.35793746
vt 0.44180343 0.36104929
vt 0.12294325 0.45125580
vt 0.13116723 0.44863307
vt 0.13208631 0.44873226
vt 0.13336900 0.44875085
vt 0.14394538 0.44641912
vt 0.15660009 0.44275486
vt 0.17107128 0.44167018
vt 0.18448870 0.44299054
vt 0.19960423 0.44612950
vt 0.20878483 0.44899589
vt 0.22058271 0.45402825
vt 0.23216671 0.45960951
vt 0.24387547 0.46605909
vt 0.25384781 0.47207689
vt 0.26162890 0.47715783
vt 0.27450383 0.48604655
vt 0.28694221 0.49357212
vt 0.29742143 0.50060779
vt 0.30517363 0.50646204
vt 0.31222010 0.51287466
vt 0.32019970 0.52031815
vt 0.32862371 0.52910417
vt 0.33453351 0.53430814
vt 0.34722277 0.54338437
vt 0.13116723 0.44863307
vt 0.13208631 0.44873226
vt 0.13336900 0.44875085
vt 0.14394538 0.44641912
vt 0.15660009 0.44275486
vt 0.17107128 0.44167018
vt 0.18448870 0.44299054
vt 0.19960423 0.44612950
vt 0.20878483 0.44899589
vt 0.22058271 0.45402825
vt 0.23216671 0.45960951
vt 0.24387547 0.46605909
vt 0.25384781 0.47207689
vt 0.26162890 0.47715783
vt 0.27450383 0.48604655
vt 0.28694221 0.49357212
vt 0.29742143 0.50060779
vt 0.30517363 0.50646204
vt 0.31222010 0.51287466
vt 0.32019970 0.52031815
vt 0.32862371 0.52910417
vt 0.33453351 0.53430814
vt 0.00768006 0.32811296
vt 0.51341021 0.43810344
vt 0.01651486 0.33762586
vt 0.00629288 0.33011031
vt 0.51400900 0.44048035
vt 0.01869552 0.33525348
vt 0.02854869 0.34664535
vt 0.02068607 0.33239311
vt 0.00990072 0.32491565
vt 0.51265538 0.43421054
vt 0.03131644 0.34379828
vt 0.51240289 0.43151009
vt 0.01143960 0.32275355
vt 0.03929411 0.35646796
vt 0.02274534 0.32974798
vt 0.01310653 0.32006943
vt 0.51185572 0.42833865
vt 0.03465046 0.34081566
vt 0.04263346 0.35289812
vt 0.02461498 0.32686961
vt 0.51215231 0.42633843
vt 0.01442449 0.31862545
vt 0.02558166 0.32543498
vt 0.03845976 0.33461612
vt 0.03930994 0.33334750
vt 0.03670189 0.33788765
vt 0.04988999 0.34142017
vt 0.05082621 0.33995289
vt 0.04868380 0.34548306
vt 0.06185599 0.34782785
vt 0.06321856 0.34592271
vt 0.04670757 0.34835446
vt 0.07537293 0.35453105
vt 0.07574341 0.35304111
vt 0.05927300 0.35247052
vt 0.07175124 0.35853350
vt 0.08652161 0.35959071
vt 0.08716991 0.35856247
vt 0.05714962 0.35554862
vt 0.04503861 0.35008246
vt 0.05483947 0.35904872
vt 0.06905899 0.36211705
vt 0.05245195 0.36218309
vt 0.04875590 0.36626536
vt 0.06457015 0.36765587
vt 0.06086962 0.37135738
vt 0.05730735 0.37532604
vt 0.07044930 0.37489885
vt 0.06688431 0.37666428
vt 0.06299016 0.38068783
vt 0.07593973 0.37346888
vt 0.06872683 0.37820542
vt 0.06474955 0.38234711
vt 0.06616036 0.38351929
vt 0.07142341 0.37641335
vt 0.06986108 0.37947977
vt 0.07766104 0.39193374
vt 0.07292682 0.37823677
vt 0.08175921 0.38675129
vt 0.08796241 0.39980644
vt 0.07603678 0.37584287
vt 0.07611720 0.37762404
vt 0.09296393 0.39413011
vt 0.09838308 0.40895343
vt 0.08632375 0.38203633
vt 0.10421182 0.40259075
vt 0.10482801 0.41599059
vt 0.09870119 0.38866371
vt 0.08755415 0.38028204
vt 0.11200983 0.40971661
vt 0.11047203 0.42366326
vt 0.11112987 0.39649797
vt 0.10032693 0.38770205
vt 0.08928265 0.37808120
vt 0.11225539 0.39523596
vt 0.08066981 0.36765504
vt 0.10187678 0.38553590
vt 0.09300368 0.37377054
vt 0.08372941 0.36324227
vt 0.09699814 0.36977863
vt 0.10535512 0.38230658
vt 0.11448953 0.39355385
vt 0.09966919 0.36607111
vt 0.10028356 0.36497199
vt 0.11117278 0.37306786
vt 0.11201683 0.37022245
vt 0.10882402 0.37715089
vt 0.12323236 0.37879747
vt 0.12435389 0.37588292
vt 0.11747856 0.38892454
vt 0.12022800 0.38373887
vt 0.13484615 0.38447583
vt 0.13660967 0.38137501
vt 0.12966940 0.39433426
vt 0.14712360 0.39027590
vt 0.14981811 0.38663870
vt 0.13215521 0.38946724
vt 0.16004050 0.39116466
vt 0.14459626 0.39567757
vt 0.15749471 0.39443767
vt 0.17063409 0.39537275
vt 0.15548553 0.40006208
vt 0.16883540 0.39851391
vt 0.14223860 0.40063131
vt 0.19235185 0.40530229
vt 0.19377200 0.40236157
vt 0.21029061 0.40536004
vt 0.16683236 0.40381932
vt 0.21004614 0.40832692
vt 0.22042298 0.40687901
vt 0.18939288 0.41015899
vt 0.20912653 0.41360426
vt 0.22009018 0.40997595
vt 0.23367843 0.40859675
vt 0.21918012 0.41478860
vt 0.20724787 0.41806185
vt 0.21704418 0.41920787
vt 0.23228620 0.41666937
vt 0.18780784 0.41428924
vt 0.23312890 0.41193891
vt 0.20618826 0.41998893
vt 0.24662840 0.41323304
vt 0.24717513 0.41016573
vt 0.24614403 0.41823047
vt 0.25991458 0.41410309
vt 0.26043442 0.41142786
vt 0.25957620 0.41885292
vt 0.27126485 0.41465950
vt 0.27164868 0.41210997
vt 0.28529626 0.41528237
vt 0.28562254 0.41284853
vt 0.27134827 0.41938931
vt 0.29919812 0.41487992
vt 0.29985511 0.41231477
vt 0.28550598 0.41981185
vt 0.31460568 0.41430640
vt 0.31538841 0.41199374
vt 0.29932108 0.41919649
vt 0.33055860 0.41441274
vt 0.33179688 0.41179508
vt 0.31515920 0.41910195
vt 0.34679315 0.41504621
vt 0.34794655 0.41253388
vt 0.33055440 0.41880059
vt 0.36175251 0.41622561
vt 0.36221412 0.41297787
vt 0.34632883 0.41903698
vt 0.37735504 0.41728646
vt 0.37735817 0.41352928
vt 0.36141139 0.41993678
vt 0.34688941 0.42302513
vt 0.33104324 0.42419928
vt 0.31540394 0.42466950
vt 0.34772691 0.42942691
vt 0.29933104 0.42492616
vt 0.33211735 0.43035871
vt 0.28544325 0.42552078
vt 0.30030367 0.43137026
vt 0.31657308 0.43105817
vt 0.27108109 0.42519891
vt 0.28478241 0.43020254
vt 0.25822350 0.42388785
vt 0.27099362 0.42897427
vt 0.24453361 0.42301512
vt 0.25767785 0.42887294
vt 0.22985229 0.42162752
vt 0.24354300 0.42660940
vt 0.21609332 0.42149478
vt 0.22898158 0.42426550
vt 0.25557450 0.43648487
vt 0.20478019 0.42439866
vt 0.24106018 0.43372309
vt 0.21437511 0.42668605
vt 0.22679125 0.43019438
vt 0.22585256 0.43512321
vt 0.21311884 0.43092609
vt 0.20316599 0.42882061
vt 0.23963784 0.44011784
vt 0.21278264 0.43639982
vt 0.22517393 0.44126505
vt 0.20311973 0.43355113
vt 0.23845959 0.44628120
vt 0.20115213 0.44091988
vt 0.21078916 0.44377756
vt 0.22297147 0.44857001
vt 0.21044548 0.44460183
vt 0.25233892 0.44517112
vt 0.22267114 0.44939452
vt 0.23527370 0.45453572
vt 0.24998346 0.45219147
vt 0.26422986 0.44960475
vt 0.23489155 0.45542932
vt 0.24625349 0.46039754
vt 0.24578615 0.46124333
vt 0.26097691 0.45821816
vt 0.26769620 0.44056237
vt 0.25692606 0.46649444
vt 0.26969460 0.43452585
vt 0.27543941 0.45421690
vt 0.28048292 0.44374454
vt 0.28309903 0.43658459
vt 0.29618067 0.44928670
vt 0.29962775 0.43916559
vt 0.28891182 0.46178752
vt 0.31703150 0.43855339
vt 0.31212595 0.45449591
vt 0.33244798 0.43782556
vt 0.31656027 0.44439304
vt 0.33144528 0.44731653
vt 0.34856594 0.43666971
vt 0.34776121 0.44706255
vt 0.32606652 0.45924658
vt 0.33918634 0.46329367
vt 0.35976657 0.44733155
vt 0.32335478 0.48122788
vt 0.36207306 0.43641961
vt 0.35044020 0.46586317
vt 0.36283127 0.42874539
vt 0.36886662 0.44867200
vt 0.36209008 0.42343759
vt 0.37319952 0.43752003
vt 0.37660095 0.42914963
vt 0.37773076 0.42431587
vt 0.37833148 0.42105275
vt 0.38981616 0.43051100
vt 0.39307317 0.41897237
vt 0.39456138 0.41516304
vt 0.40966222 0.41897607
vt 0.39194593 0.42603207
vt 0.39253807 0.42248833
vt 0.40960535 0.42227304
vt 0.42639136 0.42199182
vt 0.40845671 0.42490161
vt 0.40726420 0.42787677
vt 0.42608052 0.42524493
vt 0.43839768 0.42448109
vt 0.42441487 0.42815077
vt 0.43831891 0.42749918
vt 0.45220163 0.42704809
vt 0.43659520 0.43093920
vt 0.42214215 0.43101382
vt 0.45278799 0.43029433
vt 0.46751046 0.42866248
vt 0.45249051 0.43386132
vt 0.46775681 0.43117476
vt 0.48112258 0.42861390
vt 0.46746990 0.43491781
vt 0.48147893 0.43035930
vt 0.49652716 0.42738497
vt 0.48193085 0.43421817
vt 0.49650079 0.42925423
vt 0.49672571 0.43313742
vt 0.49624506 0.43619382
vt 0.48164430 0.43712163
vt 0.49612492 0.44095945
vt 0.49624968 0.44292337
vt 0.46631327 0.43779564
vt 0.48064631 0.44351685
vt 0.48094568 0.44534516
vt 0.46340713 0.45004737
vt 0.46391821 0.44188297
vt 0.45057213 0.43819416
vt 0.46290186 0.44721818
vt 0.44711018 0.44299245
vt 0.43375099 0.43395501
vt 0.44513607 0.45543945
vt 0.44681320 0.45760560
vt 0.42959705 0.44000489
vt 0.43040478 0.45661700
vt 0.43036288 0.46449256
vt 0.43149877 0.46719921
vt 0.41313446 0.47475833
vt 0.41563216 0.47846472
vt 0.40013730 0.49059314
vt 0.39620635 0.48706341
vt 0.38819620 0.50076932
vt 0.40776706 0.46974444
vt 0.38499451 0.49733061
vt 0.36750826 0.51918209
vt 0.42013895 0.45026076
vt 0.36396986 0.51568919
vt 0.35822785 0.52835923
vt 0.41833943 0.43638748
vt 0.40925089 0.44653487
vt 0.40449828 0.43302500
vt 0.39750683 0.44301265
vt 0.39824417 0.46270513
vt 0.38526085 0.43909210
vt 0.38873526 0.45686763
vt 0.37883717 0.45165634
vt 0.38690612 0.47907722
vt 0.37780196 0.47107017
vt 0.37040490 0.46444690
vt 0.36439869 0.46003568
vt 0.36120269 0.47490728
vt 0.36950660 0.48228359
vt 0.37730700 0.49002099
vt 0.35705784 0.50874913
vt 0.34919441 0.50115115
vt 0.34162226 0.49420732
vt 0.35392007 0.52492028
vt 0.35013139 0.53838593
vt 0.34729666 0.51847231
vt 0.34599635 0.53560048
vt 0.34968582 0.53915256
vt 0.33905846 0.52957583
vt 0.34540752 0.53633398
vt 0.34809133 0.54193687
vt 0.33863601 0.53058374
vt 0.33648494 0.53307432
vt 0.33006558 0.52654219
vt 0.33187610 0.52363628
vt 0.32175973 0.51855236
vt 0.31450304 0.51207167
vt 0.32443845 0.51615822
vt 0.30614871 0.50518507
vt 0.31628996 0.50884801
vt 0.29839119 0.49913096
vt 0.30816865 0.50193179
vt 0.32482713 0.51539940
vt 0.28804183 0.49185479
vt 0.33217472 0.52282721
vt 0.34036359 0.51160586
vt 0.33249366 0.50425619
vt 0.31680775 0.50811738
vt 0.32447904 0.49783433
vt 0.30859071 0.50117135
vt 0.30020279 0.49594986
vt 0.33233011 0.48741818
vt 0.31540486 0.49067938
vt 0.31438932 0.47575217
vt 0.30060411 0.49517250
vt 0.30673152 0.48481941
vt 0.30213416 0.46876144
vt 0.29556173 0.47853416
vt 0.29002434 0.48810208
vt 0.28308156 0.47124720
vt 0.28962141 0.48894000
vt 0.26997489 0.46339744
vt 0.27730042 0.48047090
vt 0.26428163 0.47168779
vt 0.27686849 0.48126876
vt 0.26387343 0.47251308
vt 0.27541116 0.48414153
vt 0.26209661 0.47558629
vt 0.25649014 0.46736109
vt 0.25465500 0.47066367
vt 0.24384537 0.46411824
vt 0.23288064 0.45834094
vt 0.22139706 0.45239544
vt 0.20933504 0.44758785
vt 0.19981609 0.44487858
vt 0.20077042 0.44172931
vt 0.18439010 0.44152343
vt 0.18545969 0.43822181
vt 0.18566588 0.43730473
vt 0.17111531 0.44047856
vt 0.18657842 0.43016505
vt 0.15660998 0.44141042
vt 0.17173697 0.43681651
vt 0.15647411 0.43741971
vt 0.14323607 0.44500417
vt 0.14298190 0.44072735
vt 0.13261360 0.44749010
vt 0.13256195 0.44465751
vt 0.14281665 0.43975437
vt 0.13187926 0.44752741
vt 0.15643825 0.43652260
vt 0.13195238 0.44476897
vt 0.13237721 0.44357836
vt 0.13088964 0.44743848
vt 0.12268959 0.45034123
vt 0.12234072 0.44917083
vt 0.13047417 0.44586718
vt 0.12209473 0.44850326
vt 0.13026795 0.44470453
vt 0.13183688 0.44368947
vt 0.12781852 0.44015861
vt 0.12008401 0.44358468
vt 0.12981197 0.43857735
vt 0.13039142 0.43803608
vt 0.12394429 0.43420780
vt 0.11712020 0.43726242
vt 0.12533632 0.43095553
vt 0.14092396 0.43339580
vt 0.12608053 0.43021941
vt 0.12368018 0.42948002
vt 0.12168805 0.42987573
vt 0.11570285 0.43308544
vt 0.11515917 0.43163991
vt 0.12142401 0.42838377
vt 0.12384924 0.42774522
vt 0.11903657 0.41772067
vt 0.13466012 0.42149234
vt 0.12829757 0.41161799
vt 0.12009936 0.40353662
vt 0.12279703 0.40130174
vt 0.13355084 0.40807807
vt 0.12555245 0.39909816
vt 0.13695948 0.40540254
vt 0.14722888 0.41517585
vt 0.15042776 0.41107601
vt 0.15448731 0.40539306
vt 0.16663814 0.41024685
vt 0.16793641 0.41603410
vt 0.18708658 0.41702664
vt 0.18660052 0.42102313
vt 0.16922277 0.42192817
vt 0.18627454 0.42550147
vt 0.15441397 0.42974508
vt 0.17071655 0.42799807
vt 0.17185765 0.43588013
vt 0.00768006 0.32811296
vt 0.51341021 0.43810344
vt 0.01869552 0.33525348
vt 0.02068607 0.33239311
vt 0.51265538 0.43421054
vt 0.00990072 0.32491565
vt 0.03131644 0.34379828
vt 0.51240289 0.43151009
vt 0.01143960 0.32275355
vt 0.02274534 0.32974798
vt 0.51185572 0.42833865
vt 0.01310653 0.32006943
vt 0.03465046 0.34081566
vt 0.04263346 0.35289812
vt 0.02461498 0.32686961
vt 0.51215231 0.42633843
vt 0.01442449 0.31862545
vt 0.02558166 0.32543498
vt 0.03845976 0.33461612
vt 0.03930994 0.33334750
vt 0.03670189 0.33788765
vt 0.04988999 0.34142017
vt 0.05082621 0.33995289
vt 0.04868380 0.34548306
vt 0.06185599 0.34782785
vt 0.06321856 0.34592271
vt 0.04670757 0.34835446
vt 0.07537293 0.35453105
vt 0.07574341 0.35304111
vt 0.05927300 0.35247052
vt 0.07175124 0.35853350
vt 0.08652161 0.35959071
vt 0.08716991 0.35856247
vt 0.05714962 0.35554862
vt 0.04503861 0.35008246
vt 0.05483947 0.35904872
vt 0.06905899 0.36211705
vt 0.05245195 0.36218309
vt 0.06457015 0.36765587
vt 0.06086962 0.37135738
vt 0.07593973 0.37346888
vt 0.06688431 0.37666428
vt 0.07044930 0.37489885
vt 0.06872683 0.37820542
vt 0.07142341 0.37641335
vt 0.06986108 0.37947977
vt 0.07292682 0.37823677
vt 0.08175921 0.38675129
vt 0.07603678 0.37584287
vt 0.07611720 0.37762404
vt 0.09296393 0.39413011
vt 0.08632375 0.38203633
vt 0.10421182 0.40259075
vt 0.09870119 0.38866371
vt 0.08755415 0.38028204
vt 0.11200983 0.40971661
vt 0.11112987 0.39649797
vt 0.10032693 0.38770205
vt 0.08928265 0.37808120
vt 0.11225539 0.39523596
vt 0.08066981 0.36765504
vt 0.10187678 0.38553590
vt 0.09300368 0.37377054
vt 0.08372941 0.36324227
vt 0.09699814 0.36977863
vt 0.10535512 0.38230658
vt 0.09966919 0.36607111
vt 0.10028356 0.36497199
vt 0.11117278 0.37306786
vt 0.11201683 0.37022245
vt 0.10882402 0.37715089
vt 0.12323236 0.37879747
vt 0.12435389 0.37588292
vt 0.11747856 0.38892454
vt 0.13484615 0.38447583
vt 0.13660967 0.38137501
vt 0.12022800 0.38373887
vt 0.14712360 0.39027590
vt 0.14981811 0.38663870
vt 0.16004050 0.39116466
vt 0.13215521 0.38946724
vt 0.15749471 0.39443767
vt 0.17063409 0.39537275
vt 0.14459626 0.39567757
vt 0.12966940 0.39433426
vt 0.15548553 0.40006208
vt 0.14223860 0.40063131
vt 0.16883540 0.39851391
vt 0.19235185 0.40530229
vt 0.19377200 0.40236157
vt 0.21029061 0.40536004
vt 0.16683236 0.40381932
vt 0.21004614 0.40832692
vt 0.22042298 0.40687901
vt 0.18939288 0.41015899
vt 0.20912653 0.41360426
vt 0.22009018 0.40997595
vt 0.23367843 0.40859675
vt 0.21918012 0.41478860
vt 0.23312890 0.41193891
vt 0.23228620 0.41666937
vt 0.24662840 0.41323304
vt 0.24717513 0.41016573
vt 0.24614403 0.41823047
vt 0.25991458 0.41410309
vt 0.26043442 0.41142786
vt 0.25957620 0.41885292
vt 0.27126485 0.41465950
vt 0.27164868 0.41210997
vt 0.28529626 0.41528237
vt 0.28562254 0.41284853
vt 0.27134827 0.41938931
vt 0.29919812 0.41487992
vt 0.29985511 0.41231477
vt 0.28550598 0.41981185
vt 0.31460568 0.41430640
vt 0.31538841 0.41199374
vt 0.29932108 0.41919649
vt 0.33055860 0.41441274
vt 0.33179688 0.41179508
vt 0.31515920 0.41910195
vt 0.34679315 0.41504621
vt 0.34794655 0.41253388
vt 0.33055440 0.41880059
vt 0.36175251 0.41622561
vt 0.36221412 0.41297787
vt 0.34632883 0.41903698
vt 0.37735504 0.41728646
vt 0.37735817 0.41352928
vt 0.36141139 0.41993678
vt 0.34688941 0.42302513
vt 0.39307317 0.41897237
vt 0.39456138 0.41516304
vt 0.40966222 0.41897607
vt 0.37833148 0.42105275
vt 0.40960535 0.42227304
vt 0.42639136 0.42199182
vt 0.39253807 0.42248833
vt 0.42608052 0.42524493
vt 0.43839768 0.42448109
vt 0.40845671 0.42490161
vt 0.42441487 0.42815077
vt 0.43831891 0.42749918
vt 0.45220163 0.42704809
vt 0.43659520 0.43093920
vt 0.45278799 0.43029433
vt 0.46751046 0.42866248
vt 0.45249051 0.43386132
vt 0.46775681 0.43117476
vt 0.48112258 0.42861390
vt 0.46746990 0.43491781
vt 0.48147893 0.43035930
vt 0.49652716 0.42738497
vt 0.48193085 0.43421817
vt 0.49650079 0.42925423
vt 0.49672571 0.43313742
vt 0.49624506 0.43619382
vt 0.48164430 0.43712163
vt 0.49612492 0.44095945
vt 0.48064631 0.44351685
vt 0.46631327 0.43779564
vt 0.46391821 0.44188297
vt 0.45057213 0.43819416
vt 0.46290186 0.44721818
vt 0.44711018 0.44299245
vt 0.43375099 0.43395501
vt 0.44513607 0.45543945
vt 0.42214215 0.43101382
vt 0.43036288 0.46449256
vt 0.43040478 0.45661700
vt 0.41313446 0.47475833
vt 0.42959705 0.44000489
vt 0.39620635 0.48706341
vt 0.40776706 0.46974444
vt 0.42013895 0.45026076
vt 0.41833943 0.43638748
vt 0.40925089 0.44653487
vt 0.40726420 0.42787677
vt 0.40449828 0.43302500
vt 0.39194593 0.42603207
vt 0.39750683 0.44301265
vt 0.37773076 0.42431587
vt 0.38981616 0.43051100
vt 0.36209008 0.42343759
vt 0.37660095 0.42914963
vt 0.38526085 0.43909210
vt 0.39824417 0.46270513
vt 0.38873526 0.45686763
vt 0.38690612 0.47907722
vt 0.37883717 0.45165634
vt 0.38499451 0.49733061
vt 0.37780196 0.47107017
vt 0.36396986 0.51568919
vt 0.37730700 0.49002099
vt 0.36950660 0.48228359
vt 0.35705784 0.50874913
vt 0.35392007 0.52492028
vt 0.34919441 0.50115115
vt 0.34599635 0.53560048
vt 0.34729666 0.51847231
vt 0.33905846 0.52957583
vt 0.34540752 0.53633398
vt 0.33863601 0.53058374
vt 0.33648494 0.53307432
vt 0.33006558 0.52654219
vt 0.33187610 0.52363628
vt 0.32175973 0.51855236
vt 0.31450304 0.51207167
vt 0.32443845 0.51615822
vt 0.30614871 0.50518507
vt 0.31628996 0.50884801
vt 0.29839119 0.49913096
vt 0.30816865 0.50193179
vt 0.32482713 0.51539940
vt 0.28804183 0.49185479
vt 0.31680775 0.50811738
vt 0.30020279 0.49594986
vt 0.30859071 0.50117135
vt 0.27541116 0.48414153
vt 0.28962141 0.48894000
vt 0.30060411 0.49517250
vt 0.26209661 0.47558629
vt 0.27686849 0.48126876
vt 0.29002434 0.48810208
vt 0.25465500 0.47066367
vt 0.26387343 0.47251308
vt 0.24384537 0.46411824
vt 0.25649014 0.46736109
vt 0.23288064 0.45834094
vt 0.24578615 0.46124333
vt 0.23489155 0.45542932
vt 0.22139706 0.45239544
vt 0.20933504 0.44758785
vt 0.22267114 0.44939452
vt 0.19981609 0.44487858
vt 0.21044548 0.44460183
vt 0.18439010 0.44152343
vt 0.20077042 0.44172931
vt 0.17111531 0.44047856
vt 0.18545969 0.43822181
vt 0.17173697 0.43681651
vt 0.15660998 0.44141042
vt 0.15647411 0.43741971
vt 0.14323607 0.44500417
vt 0.14298190 0.44072735
vt 0.13261360 0.44749010
vt 0.13256195 0.44465751
vt 0.14281665 0.43975437
vt 0.13237721 0.44357836
vt 0.13195238 0.44476897
vt 0.13187926 0.44752741
vt 0.13088964 0.44743848
vt 0.13047417 0.44586718
vt 0.13026795 0.44470453
vt 0.13183688 0.44368947
vt 0.12781852 0.44015861
vt 0.12981197 0.43857735
vt 0.12394429 0.43420780
vt 0.13039142 0.43803608
vt 0.12533632 0.43095553
vt 0.12168805 0.42987573
vt 0.12368018 0.42948002
vt 0.12142401 0.42838377
vt 0.12608053 0.43021941
vt 0.12384924 0.42774522
vt 0.11903657 0.41772067
vt 0.14092396 0.43339580
vt 0.12009936 0.40353662
vt 0.12829757 0.41161799
vt 0.12279703 0.40130174
vt 0.13466012 0.42149234
vt 0.13355084 0.40807807
vt 0.14722888 0.41517585
vt 0.11448953 0.39355385
vt 0.12555245 0.39909816
vt 0.13695948 0.40540254
vt 0.15042776 0.41107601
vt 0.15448731 0.40539306
vt 0.16663814 0.41024685
vt 0.16793641 0.41603410
vt 0.18780784 0.41428924
vt 0.18708658 0.41702664
vt 0.20724787 0.41806185
vt 0.20618826 0.41998893
vt 0.21704418 0.41920787
vt 0.20478019 0.42439866
vt 0.22985229 0.42162752
vt 0.21609332 0.42149478
vt 0.24453361 0.42301512
vt 0.22898158 0.42426550
vt 0.25822350 0.42388785
vt 0.24354300 0.42660940
vt 0.25767785 0.42887294
vt 0.27108109 0.42519891
vt 0.27099362 0.42897427
vt 0.28544325 0.42552078
vt 0.28478241 0.43020254
vt 0.29933104 0.42492616
vt 0.30030367 0.43137026
vt 0.31540394 0.42466950
vt 0.29962775 0.43916559
vt 0.33104324 0.42419928
vt 0.31657308 0.43105817
vt 0.33211735 0.43035871
vt 0.34772691 0.42942691
vt 0.31703150 0.43855339
vt 0.33244798 0.43782556
vt 0.34856594 0.43666971
vt 0.36283127 0.42874539
vt 0.36207306 0.43641961
vt 0.37319952 0.43752003
vt 0.36886662 0.44867200
vt 0.35976657 0.44733155
vt 0.37040490 0.46444690
vt 0.36439869 0.46003568
vt 0.36120269 0.47490728
vt 0.35044020 0.46586317
vt 0.34776121 0.44706255
vt 0.34162226 0.49420732
vt 0.33144528 0.44731653
vt 0.33918634 0.46329367
vt 0.31656027 0.44439304
vt 0.32606652 0.45924658
vt 0.33233011 0.48741818
vt 0.32335478 0.48122788
vt 0.31212595 0.45449591
vt 0.31438932 0.47575217
vt 0.31540486 0.49067938
vt 0.32447904 0.49783433
vt 0.33249366 0.50425619
vt 0.30673152 0.48481941
vt 0.34036359 0.51160586
vt 0.33217472 0.52282721
vt 0.30213416 0.46876144
vt 0.29556173 0.47853416
vt 0.29618067 0.44928670
vt 0.28891182 0.46178752
vt 0.28308156 0.47124720
vt 0.28309903 0.43658459
vt 0.28048292 0.44374454
vt 0.26969460 0.43452585
vt 0.27543941 0.45421690
vt 0.26769620 0.44056237
vt 0.25557450 0.43648487
vt 0.26422986 0.44960475
vt 0.26997489 0.46339744
vt 0.24106018 0.43372309
vt 0.27730042 0.48047090
vt 0.26428163 0.47168779
vt 0.26097691 0.45821816
vt 0.25692606 0.46649444
vt 0.24625349 0.46039754
vt 0.24998346 0.45219147
vt 0.23527370 0.45453572
vt 0.25233892 0.44517112
vt 0.23845959 0.44628120
vt 0.22297147 0.44857001
vt 0.23963784 0.44011784
vt 0.22517393 0.44126505
vt 0.21078916 0.44377756
vt 0.22585256 0.43512321
vt 0.21278264 0.43639982
vt 0.20115213 0.44091988
vt 0.22679125 0.43019438
vt 0.18566588 0.43730473
vt 0.21437511 0.42668605
vt 0.21311884 0.43092609
vt 0.20316599 0.42882061
vt 0.20311973 0.43355113
vt 0.18657842 0.43016505
vt 0.18627454 0.42550147
vt 0.17185765 0.43588013
vt 0.17071655 0.42799807
vt 0.15643825 0.43652260
vt 0.15441397 0.42974508
vt 0.16922277 0.42192817
vt 0.18660052 0.42102313
f 46/46 86/86 45/45
f 9/9 15/15 14/14
f 36/36 34/34 37/37
f 36/36 35/35 32/32
f 32/32 34/34 36/36
f 31/31 35/35 13/13
f 56/56 53/53 55/55
f 12/12 13/13 55/55
f 11/11 12/12 7/7
f 7/7 9/9 11/11
f 30/30 33/33 32/32
f 32/32 31/31 27/27
f 27/27 30/30 32/32
f 23/23 31/31 13/13
f 23/23 27/27 31/31
f 83/83 82/82 86/86
f 30/30 27/27 29/29
f 86/86 13/13 45/45
f 28/28 29/29 27/27
f 26/26 28/28 27/27
f 27/27 23/23 24/24
f 24/24 26/26 27/27
f 3/3 48/48 1/1
f 43/43 47/47 46/46
f 46/46 41/41 43/43
f 83/83 81/81 78/78
f 82/82 83/83 78/78
f 81/81 83/83 84/84
f 83/83 85/85 84/84
f 82/82 13/13 86/86
f 1/1 2/2 3/3
f 15/15 9/9 10/10
f 11/11 14/14 13/13
f 11/11 9/9 14/14
f 12/12 11/11 13/13
f 31/31 32/32 35/35
f 33/33 34/34 32/32
f 8/8 10/10 9/9
f 4/4 9/9 7/7
f 9/9 4/4 8/8
f 6/6 8/8 4/4
f 7/7 3/3 4/4
f 5/5 6/6 4/4
f 5/5 4/4 2/2
f 4/4 3/3 2/2
f 15/15 10/10 16/16
f 26/26 24/24 25/25
f 24/24 22/22 25/25
f 23/23 19/19 24/24
f 22/22 24/24 19/19
f 44/44 46/46 45/45
f 44/44 45/45 13/13
f 19/19 21/21 22/22
f 20/20 21/21 19/19
f 17/17 20/20 19/19
f 19/19 18/18 15/15
f 17/17 19/19 15/15
f 14/14 18/18 13/13
f 15/15 18/18 14/14
f 16/16 17/17 15/15
f 52/52 53/53 54/54
f 61/61 60/60 65/65
f 60/60 13/13 65/65
f 86/86 46/46 83/83
f 83/83 46/46 85/85
f 66/66 67/67 64/64
f 66/66 68/68 67/67
f 68/68 66/66 69/69
f 65/65 69/69 66/66
f 3/3 49/49 48/48
f 50/50 48/48 49/49
f 50/50 49/49 51/51
f 7/7 49/49 3/3
f 49/49 52/52 51/51
f 49/49 53/53 52/52
f 49/49 7/7 53/53
f 61/61 64/64 63/63
f 7/7 55/55 53/53
f 55/55 7/7 12/12
f 73/73 13/13 77/77
f 74/74 78/78 76/76
f 55/55 13/13 56/56
f 53/53 57/57 54/54
f 53/53 56/56 57/57
f 54/54 57/57 58/58
f 37/37 38/38 36/36
f 38/38 39/39 36/36
f 35/35 40/40 13/13
f 35/35 36/36 40/40
f 39/39 41/41 36/36
f 41/41 40/40 36/36
f 41/41 39/39 42/42
f 72/72 74/74 75/75
f 47/47 85/85 46/46
f 46/46 44/44 41/41
f 18/18 23/23 13/13
f 19/19 23/23 18/18
f 66/66 61/61 65/65
f 64/64 61/61 66/66
f 40/40 41/41 44/44
f 40/40 44/44 13/13
f 68/68 69/69 70/70
f 70/70 69/69 71/71
f 69/69 72/72 71/71
f 69/69 65/65 73/73
f 65/65 13/13 73/73
f 72/72 69/69 74/74
f 73/73 74/74 69/69
f 41/41 42/42 43/43
f 75/75 74/74 76/76
f 74/74 73/73 77/77
f 77/77 78/78 74/74
f 76/76 78/78 79/79
f 79/79 78/78 80/80
f 80/80 78/78 81/81
f 77/77 13/13 82/82
f 78/78 77/77 82/82
f 58/58 57/57 59/59
f 57/57 56/56 60/60
f 56/56 13/13 60/60
f 57/57 61/61 59/59
f 61/61 57/57 60/60
f 59/59 61/61 62/62
f 62/62 61/61 63/63
f 775/775 778/778 776/776
f 754/754 127/127 128/128
f 752/752 751/751 755/755
f 755/755 754/754 752/752
f 753/753 755/755 751/751
f 754/754 756/756 127/127
f 756/756 126/126 127/127
f 754/754 755/755 757/757
f 757/757 756/756 754/754
f 758/758 755/755 753/753
f 126/126 756/756 759/759
f 755/755 758/758 760/760
f 760/760 757/757 755/755
f 756/756 757/757 761/761
f 761/761 759/759 756/756
f 777/777 118/118 119/119
f 767/767 770/770 766/766
f 763/763 126/126 759/759
f 126/126 763/763 125/125
f 759/759 761/761 764/764
f 763/763 759/759 764/764
f 761/761 762/762 765/765
f 765/765 764/764 761/761
f 766/766 125/125 763/763
f 125/125 766/766 124/124
f 763/763 764/764 767/767
f 766/766 763/763 767/767
f 764/764 765/765 768/768
f 767/767 764/764 768/768
f 769/769 124/124 766/766
f 124/124 769/769 123/123
f 746/746 747/747 748/748
f 737/737 741/741 414/414
f 741/741 737/737 740/740
f 741/741 434/434 414/414
f 739/739 742/742 740/740
f 434/434 741/741 743/743
f 743/743 437/437 434/434
f 744/744 741/741 740/740
f 744/744 740/740 742/742
f 745/745 743/743 741/741
f 745/745 741/741 744/744
f 437/437 743/743 746/746
f 440/440 437/437 746/746
f 743/743 745/745 747/747
f 757/757 760/760 762/762
f 762/762 761/761 757/757
f 115/115 783/783 786/786
f 440/440 748/748 110/110
f 132/132 110/110 748/748
f 749/749 132/132 748/748
f 747/747 749/749 748/748
f 132/132 749/749 131/131
f 749/749 130/130 131/131
f 747/747 750/750 749/749
f 750/750 747/747 745/745
f 749/749 751/751 130/130
f 750/750 751/751 749/749
f 752/752 130/130 751/751
f 130/130 752/752 129/129
f 750/750 753/753 751/751
f 769/769 122/122 123/123
f 792/792 793/793 789/789
f 785/785 781/781 784/784
f 87/87 796/796 504/504
f 796/796 505/505 504/504
f 787/787 783/783 785/785
f 783/783 787/787 786/786
f 786/786 788/788 114/114
f 113/113 114/114 788/788
f 789/789 786/786 787/787
f 786/786 789/789 788/788
f 788/788 790/790 113/113
f 790/790 112/112 113/113
f 791/791 788/788 789/789
f 788/788 791/791 790/790
f 787/787 792/792 789/789
f 791/791 789/789 793/793
f 781/781 785/785 783/783
f 790/790 791/791 794/794
f 793/793 803/803 799/799
f 801/801 804/804 802/802
f 803/803 804/804 801/801
f 515/515 802/802 805/805
f 515/515 805/805 521/521
f 805/805 522/522 521/521
f 796/796 795/795 797/797
f 505/505 796/796 797/797
f 795/795 794/794 797/797
f 797/797 507/507 505/505
f 797/797 794/794 798/798
f 507/507 797/797 798/798
f 794/794 795/795 790/790
f 119/119 776/776 777/777
f 786/786 114/114 115/115
f 769/769 766/766 770/770
f 122/122 769/769 771/771
f 121/121 122/122 771/771
f 770/770 772/772 769/769
f 121/121 771/771 773/773
f 773/773 120/120 121/121
f 769/769 774/774 771/771
f 774/774 769/769 772/772
f 771/771 775/775 773/773
f 775/775 771/771 774/774
f 120/120 773/773 776/776
f 776/776 773/773 775/775
f 776/776 119/119 120/120
f 740/740 738/738 739/739
f 793/793 794/794 791/791
f 112/112 790/790 795/795
f 778/778 777/777 776/776
f 118/118 777/777 779/779
f 779/779 117/117 118/118
f 777/777 778/778 780/780
f 780/780 779/779 777/777
f 117/117 779/779 781/781
f 116/116 117/117 781/781
f 779/779 780/780 782/782
f 116/116 781/781 783/783
f 115/115 116/116 783/783
f 779/779 784/784 781/781
f 784/784 779/779 782/782
f 705/705 692/692 707/707
f 549/549 701/701 546/546
f 701/701 698/698 702/702
f 698/698 695/695 702/702
f 546/546 701/701 703/703
f 701/701 702/702 703/703
f 546/546 703/703 137/137
f 137/137 703/703 388/388
f 703/703 704/704 388/388
f 703/703 702/702 704/704
f 406/406 715/715 717/717
f 408/408 406/406 717/717
f 702/702 695/695 705/705
f 692/692 705/705 695/695
f 702/702 706/706 704/704
f 705/705 706/706 702/702
f 698/698 701/701 700/700
f 705/705 707/707 706/706
f 692/692 689/689 707/707
f 704/704 706/706 708/708
f 392/392 704/704 708/708
f 709/709 706/706 707/707
f 709/709 708/708 706/706
f 689/689 710/710 707/707
f 707/707 710/710 709/709
f 689/689 686/686 710/710
f 722/722 724/724 723/723
f 679/679 724/724 682/682
f 392/392 711/711 399/399
f 710/710 686/686 712/712
f 686/686 685/685 712/712
f 695/695 690/690 692/692
f 680/680 676/676 685/685
f 682/682 685/685 676/676
f 683/683 680/680 686/686
f 685/685 686/686 680/680
f 683/683 687/687 684/684
f 688/688 684/684 687/687
f 686/686 689/689 683/683
f 388/388 704/704 391/391
f 704/704 392/392 391/391
f 690/690 691/691 688/688
f 689/689 692/692 687/687
f 687/687 692/692 690/690
f 691/691 690/690 693/693
f 693/693 694/694 691/691
f 713/713 399/399 711/711
f 690/690 695/695 693/693
f 694/694 693/693 696/696
f 697/697 694/694 696/696
f 695/695 698/698 693/693
f 696/696 693/693 698/698
f 560/560 697/697 555/555
f 696/696 699/699 697/697
f 699/699 555/555 697/697
f 711/711 392/392 708/708
f 709/709 711/711 708/708
f 700/700 696/696 698/698
f 555/555 700/700 552/552
f 700/700 549/549 552/552
f 549/549 700/700 701/701
f 732/732 733/733 731/731
f 674/674 726/726 679/679
f 724/724 727/727 723/723
f 726/726 727/727 724/724
f 725/725 723/723 727/727
f 726/726 674/674 728/728
f 674/674 675/675 728/728
f 727/727 726/726 729/729
f 726/726 728/728 729/729
f 725/725 727/727 730/730
f 727/727 729/729 730/730
f 731/731 721/721 725/725
f 718/718 721/721 731/731
f 743/743 747/747 746/746
f 746/746 748/748 440/440
f 733/733 718/718 731/731
f 724/724 679/679 726/726
f 718/718 733/733 717/717
f 732/732 730/730 734/734
f 733/733 735/735 717/717
f 717/717 735/735 408/408
f 411/411 408/408 735/735
f 733/733 732/732 736/736
f 734/734 736/736 732/732
f 735/735 737/737 411/411
f 414/414 411/411 737/737
f 735/735 733/733 738/738
f 737/737 735/735 738/738
f 738/738 733/733 739/739
f 754/754 129/129 752/752
f 129/129 754/754 128/128
f 714/714 716/716 719/719
f 403/403 399/399 713/713
f 713/713 711/711 714/714
f 709/709 714/714 711/711
f 715/715 403/403 713/713
f 714/714 715/715 713/713
f 405/405 403/403 715/715
f 715/715 406/406 405/405
f 710/710 716/716 709/709
f 714/714 709/709 716/716
f 710/710 712/712 716/716
f 731/731 725/725 732/732
f 732/732 725/725 730/730
f 714/714 718/718 715/715
f 715/715 718/718 717/717
f 796/796 112/112 795/795
f 718/718 714/714 719/719
f 719/719 716/716 720/720
f 716/716 712/712 720/720
f 718/718 719/719 721/721
f 719/719 720/720 721/721
f 712/712 722/722 720/720
f 712/712 685/685 722/722
f 685/685 682/682 722/722
f 720/720 722/722 723/723
f 720/720 723/723 721/721
f 724/724 722/722 682/682
f 733/733 736/736 739/739
f 738/738 740/740 737/737
f 721/721 723/723 725/725
f 438/438 436/436 441/441
f 430/430 428/428 429/429
f 413/413 429/429 410/410
f 428/428 423/423 429/429
f 423/423 410/410 429/429
f 427/427 424/424 428/428
f 416/416 415/415 412/412
f 366/366 373/373 415/415
f 400/400 415/415 373/373
f 400/400 412/412 415/415
f 414/414 413/413 411/411
f 413/413 410/410 411/411
f 412/412 400/400 401/401
f 401/401 409/409 412/412
f 425/425 351/351 422/422
f 421/421 423/423 424/424
f 430/430 429/429 413/413
f 440/440 439/439 437/437
f 436/436 437/437 439/439
f 438/438 433/433 436/436
f 433/433 438/438 435/435
f 436/436 434/434 437/437
f 420/420 421/421 422/422
f 420/420 422/422 353/353
f 421/421 420/420 418/418
f 421/421 418/418 419/419
f 420/420 353/353 354/354
f 357/357 420/420 354/354
f 357/357 418/418 420/420
f 416/416 419/419 418/418
f 431/431 428/428 430/430
f 410/410 423/423 407/407
f 848/848 852/852 849/849
f 852/852 848/848 851/851
f 415/415 417/417 366/366
f 412/412 409/409 416/416
f 396/396 393/393 395/395
f 394/394 393/393 396/396
f 390/390 392/392 395/395
f 390/390 395/395 393/393
f 394/394 372/372 376/376
f 394/394 389/389 393/393
f 389/389 394/394 376/376
f 393/393 386/386 390/390
f 411/411 410/410 408/408
f 410/410 407/407 408/408
f 424/424 422/422 421/421
f 431/431 427/427 428/428
f 409/409 407/407 423/423
f 423/423 419/419 409/409
f 423/423 421/421 419/419
f 422/422 351/351 353/353
f 401/401 402/402 404/404
f 403/403 404/404 402/402
f 402/402 399/399 403/403
f 398/398 402/402 401/401
f 399/399 402/402 398/398
f 396/396 401/401 400/400
f 401/401 396/396 398/398
f 397/397 400/400 373/373
f 419/419 416/416 409/409
f 418/418 357/357 417/417
f 439/439 442/442 441/441
f 448/448 106/106 105/105
f 106/106 448/448 446/446
f 453/453 460/460 450/450
f 459/459 451/451 460/460
f 451/451 450/450 460/460
f 459/459 458/458 457/457
f 459/459 457/457 451/451
f 456/456 457/457 458/458
f 444/444 441/441 443/443
f 108/108 107/107 443/443
f 443/443 109/109 108/108
f 442/442 443/443 441/441
f 109/109 443/443 442/442
f 442/442 110/110 109/109
f 110/110 442/442 440/440
f 432/432 349/349 427/427
f 452/452 455/455 454/454
f 435/435 454/454 455/455
f 465/465 466/466 463/463
f 466/466 338/338 463/463
f 462/462 464/464 465/465
f 465/465 463/463 462/462
f 464/464 459/459 460/460
f 464/464 462/462 459/459
f 450/450 451/451 448/448
f 451/451 449/449 448/448
f 103/103 450/450 104/104
f 450/450 448/448 104/104
f 449/449 447/447 445/445
f 449/449 446/446 448/448
f 439/439 440/440 442/442
f 447/447 444/444 445/445
f 446/446 107/107 106/106
f 107/107 446/446 445/445
f 443/443 445/445 444/444
f 445/445 443/443 107/107
f 441/441 444/444 438/438
f 423/423 428/428 424/424
f 427/427 349/349 426/426
f 424/424 427/427 425/425
f 427/427 426/426 425/425
f 346/346 426/426 349/349
f 426/426 346/346 351/351
f 351/351 425/425 426/426
f 422/422 424/424 425/425
f 851/851 847/847 850/850
f 439/439 441/441 436/436
f 454/454 435/435 438/438
f 452/452 454/454 447/447
f 454/454 438/438 444/444
f 444/444 447/447 454/454
f 453/453 450/450 103/103
f 447/447 449/449 452/452
f 436/436 433/433 434/434
f 435/435 430/430 433/433
f 435/435 431/431 430/430
f 434/434 433/433 414/414
f 433/433 413/413 414/414
f 433/433 430/430 413/413
f 432/432 427/427 431/431
f 814/814 812/812 813/813
f 804/804 803/803 808/808
f 806/806 809/809 807/807
f 808/808 809/809 806/806
f 203/203 807/807 810/810
f 821/821 820/820 817/817
f 631/631 821/821 822/822
f 630/630 631/631 822/822
f 636/636 630/630 822/822
f 822/822 823/823 636/636
f 823/823 822/822 821/821
f 600/600 812/812 601/601
f 601/601 812/812 604/604
f 810/810 813/813 812/812
f 809/809 813/813 810/810
f 814/814 604/604 812/812
f 808/808 806/806 804/804
f 815/815 809/809 808/808
f 809/809 815/815 813/813
f 808/808 811/811 815/815
f 815/815 816/816 813/813
f 829/829 640/640 827/827
f 828/828 829/829 827/827
f 640/640 829/829 643/643
f 826/826 830/830 828/828
f 831/831 643/643 829/829
f 643/643 831/831 645/645
f 610/610 818/818 618/618
f 819/819 818/818 814/814
f 618/618 818/818 819/819
f 814/814 816/816 819/819
f 800/800 802/802 511/511
f 111/111 112/112 796/796
f 87/87 111/111 796/796
f 810/810 807/807 809/809
f 810/810 600/600 203/203
f 811/811 808/808 803/803
f 793/793 811/811 803/803
f 811/811 793/793 792/792
f 810/810 812/812 600/600
f 794/794 799/799 798/798
f 794/794 793/793 799/799
f 800/800 507/507 798/798
f 507/507 800/800 511/511
f 799/799 801/801 798/798
f 801/801 800/800 798/798
f 629/629 618/618 819/819
f 802/802 800/800 801/801
f 511/511 802/802 515/515
f 799/799 803/803 801/801
f 816/816 814/814 813/813
f 811/811 817/817 815/815
f 817/817 816/816 815/815
f 604/604 814/814 818/818
f 818/818 606/606 604/604
f 818/818 610/610 606/606
f 802/802 804/804 806/806
f 802/802 806/806 805/805
f 522/522 805/805 807/807
f 805/805 806/806 807/807
f 807/807 203/203 522/522
f 839/839 841/841 838/838
f 833/833 645/645 831/831
f 645/645 833/833 648/648
f 831/831 832/832 834/834
f 835/835 648/648 833/833
f 648/648 835/835 651/651
f 831/831 836/836 833/833
f 836/836 831/831 834/834
f 675/675 849/849 853/853
f 728/728 675/675 853/853
f 729/729 728/728 853/853
f 853/853 849/849 854/854
f 849/849 852/852 854/854
f 729/729 853/853 855/855
f 840/840 656/656 838/838
f 656/656 840/840 659/659
f 830/830 832/832 828/828
f 840/840 838/838 841/841
f 842/842 659/659 840/840
f 659/659 842/842 662/662
f 840/840 843/843 842/842
f 843/843 840/840 841/841
f 844/844 662/662 842/842
f 843/843 844/844 842/842
f 846/846 844/844 848/848
f 848/848 844/844 847/847
f 846/846 849/849 675/675
f 849/849 846/846 848/848
f 843/843 850/850 847/847
f 850/850 843/843 845/845
f 847/847 851/851 848/848
f 823/823 825/825 639/639
f 820/820 819/819 816/816
f 629/629 819/819 820/820
f 816/816 817/817 820/820
f 631/631 629/629 820/820
f 821/821 631/631 820/820
f 835/835 833/833 837/837
f 836/836 837/837 833/833
f 838/838 651/651 835/835
f 651/651 838/838 656/656
f 837/837 839/839 835/835
f 838/838 835/835 839/839
f 639/639 636/636 823/823
f 824/824 821/821 817/817
f 821/821 824/824 823/823
f 684/684 681/681 683/683
f 826/826 823/823 824/824
f 826/826 825/825 823/823
f 825/825 827/827 639/639
f 639/639 827/827 640/640
f 826/826 828/828 825/825
f 825/825 828/828 827/827
f 662/662 844/844 665/665
f 841/841 845/845 843/843
f 846/846 665/665 844/844
f 665/665 846/846 668/668
f 675/675 668/668 846/846
f 844/844 843/843 847/847
f 829/829 828/828 832/832
f 832/832 831/831 829/829
f 150/150 164/164 172/172
f 180/180 178/178 177/177
f 200/200 198/198 195/195
f 195/195 197/197 200/200
f 199/199 196/196 198/198
f 195/195 198/198 196/196
f 193/193 197/197 194/194
f 197/197 195/195 191/191
f 175/175 146/146 151/151
f 175/175 151/151 173/173
f 171/171 174/174 173/173
f 171/171 168/168 174/174
f 173/173 151/151 172/172
f 173/173 172/172 171/171
f 151/151 150/150 172/172
f 171/171 172/172 164/164
f 181/181 179/179 178/178
f 168/168 171/171 167/167
f 187/187 190/190 188/188
f 189/189 186/186 188/188
f 184/184 187/187 188/188
f 188/188 186/186 184/184
f 183/183 187/187 180/180
f 181/181 187/187 184/184
f 162/162 167/167 161/161
f 165/165 163/163 166/166
f 163/163 165/165 162/162
f 150/150 161/161 164/164
f 160/160 163/163 162/162
f 159/159 162/162 161/161
f 160/160 162/162 159/159
f 188/188 191/191 189/189
f 215/215 170/170 216/216
f 170/170 215/215 169/169
f 212/212 169/169 215/215
f 209/209 214/214 207/207
f 213/213 214/214 209/209
f 213/213 210/210 212/212
f 194/194 197/197 191/191
f 196/196 192/192 195/195
f 191/191 195/195 192/192
f 190/190 193/193 194/194
f 194/194 191/191 190/190
f 193/193 187/187 183/183
f 187/187 193/193 190/190
f 192/192 189/189 191/191
f 191/191 188/188 190/190
f 161/161 150/150 158/158
f 205/205 206/206 209/209
f 168/168 208/208 174/174
f 174/174 208/208 183/183
f 208/208 206/206 183/183
f 204/204 205/205 207/207
f 183/183 206/206 193/193
f 187/187 181/181 180/180
f 185/185 184/184 186/186
f 182/182 184/184 185/185
f 184/184 182/182 181/181
f 183/183 177/177 174/174
f 177/177 183/183 180/180
f 182/182 179/179 181/181
f 178/178 180/180 181/181
f 326/326 321/321 325/325
f 315/315 311/311 316/316
f 312/312 316/316 311/311
f 146/146 139/139 143/143
f 145/145 140/140 141/141
f 156/156 159/159 158/158
f 157/157 159/159 156/156
f 150/150 147/147 158/158
f 158/158 147/147 156/156
f 155/155 157/157 156/156
f 152/152 156/156 147/147
f 310/310 307/307 304/304
f 305/305 309/309 303/303
f 323/323 302/302 328/328
f 327/327 325/325 322/322
f 322/322 323/323 327/327
f 316/316 312/312 317/317
f 321/321 326/326 324/324
f 321/321 322/322 325/325
f 303/303 300/300 305/305
f 301/301 305/305 300/300
f 302/302 304/304 299/299
f 304/304 301/301 299/299
f 300/300 303/303 253/253
f 302/302 299/299 297/297
f 300/300 298/298 301/301
f 299/299 301/301 298/298
f 320/320 316/316 317/317
f 310/310 302/302 319/319
f 336/336 332/332 334/334
f 335/335 293/293 290/290
f 147/147 150/150 140/140
f 161/161 158/158 159/159
f 157/157 160/160 159/159
f 176/176 178/178 179/179
f 178/178 175/175 177/177
f 178/178 176/176 175/175
f 177/177 173/173 174/174
f 177/177 175/175 173/173
f 146/146 175/175 176/176
f 155/155 156/156 152/152
f 154/154 155/155 152/152
f 154/154 152/152 148/148
f 148/148 152/152 147/147
f 150/150 151/151 143/143
f 143/143 151/151 146/146
f 197/197 193/193 201/201
f 140/140 150/150 143/143
f 148/148 147/147 145/145
f 140/140 145/145 147/147
f 164/164 167/167 171/171
f 169/169 166/166 170/170
f 166/166 169/169 165/165
f 162/162 168/168 167/167
f 168/168 162/162 165/165
f 167/167 164/164 161/161
f 253/253 249/249 300/300
f 298/298 300/300 249/249
f 310/310 319/319 314/314
f 315/315 316/316 318/318
f 314/314 317/317 312/312
f 249/249 248/248 244/244
f 237/237 233/233 238/238
f 239/239 237/237 238/238
f 235/235 240/240 234/234
f 241/241 237/237 239/239
f 239/239 242/242 241/241
f 243/243 235/235 237/237
f 235/235 243/243 240/240
f 237/237 241/241 244/244
f 244/244 243/243 237/237
f 268/268 265/265 266/266
f 266/266 269/269 268/268
f 270/270 267/267 265/265
f 268/268 270/270 265/265
f 271/271 268/268 269/269
f 269/269 272/272 271/271
f 233/233 237/237 235/235
f 245/245 250/250 247/247
f 248/248 251/251 243/243
f 250/250 245/245 252/252
f 252/252 245/245 246/246
f 251/251 248/248 253/253
f 249/249 253/253 248/248
f 254/254 252/252 246/246
f 246/246 255/255 254/254
f 256/256 252/252 254/254
f 280/280 277/277 278/278
f 280/280 278/278 281/281
f 282/282 279/279 277/277
f 277/277 280/280 282/282
f 283/283 276/276 279/279
f 225/225 228/228 227/227
f 212/212 217/217 219/219
f 212/212 219/219 213/213
f 220/220 217/217 218/218
f 220/220 219/219 217/217
f 218/218 221/221 220/220
f 219/219 222/222 213/213
f 214/214 213/213 222/222
f 245/245 241/241 242/242
f 242/242 246/246 245/245
f 241/241 247/247 244/244
f 247/247 241/241 245/245
f 243/243 244/244 248/248
f 244/244 247/247 249/249
f 227/227 224/224 225/225
f 282/282 283/283 279/279
f 223/223 224/224 229/229
f 227/227 229/229 224/224
f 223/223 229/229 226/226
f 230/230 227/227 228/228
f 231/231 229/229 227/227
f 231/231 226/226 229/229
f 227/227 230/230 232/232
f 232/232 231/231 227/227
f 256/256 250/250 252/252
f 257/257 254/254 255/255
f 255/255 258/258 257/257
f 259/259 256/256 254/254
f 259/259 254/254 257/257
f 260/260 257/257 258/258
f 223/223 226/226 222/222
f 226/226 231/231 236/236
f 232/232 235/235 234/234
f 232/232 233/233 235/235
f 231/231 232/232 234/234
f 233/233 232/232 230/230
f 210/210 213/213 209/209
f 212/212 211/211 169/169
f 210/210 211/211 212/212
f 211/211 165/165 169/169
f 211/211 168/168 165/165
f 210/210 208/208 211/211
f 208/208 168/168 211/211
f 209/209 206/206 210/210
f 206/206 208/208 210/210
f 207/207 205/205 209/209
f 234/234 236/236 231/231
f 221/221 225/225 224/224
f 224/224 223/223 220/220
f 224/224 220/220 221/221
f 222/222 219/219 223/223
f 219/219 220/220 223/223
f 206/206 205/205 201/201
f 201/201 193/193 206/206
f 204/204 200/200 205/205
f 200/200 201/201 205/205
f 204/204 202/202 198/198
f 198/198 200/200 204/204
f 203/203 199/199 202/202
f 202/202 199/199 198/198
f 201/201 200/200 197/197
f 290/290 285/285 291/291
f 260/260 259/259 257/257
f 258/258 261/261 260/260
f 262/262 260/260 261/261
f 261/261 263/263 262/262
f 259/259 260/260 264/264
f 262/262 264/264 260/260
f 265/265 262/262 263/263
f 263/263 266/266 265/265
f 264/264 262/262 267/267
f 265/265 267/267 262/262
f 289/289 264/264 267/267
f 285/285 290/290 287/287
f 290/290 289/289 287/287
f 288/288 291/291 285/285
f 334/334 333/333 335/335
f 264/264 289/289 292/292
f 273/273 270/270 268/268
f 271/271 273/273 268/268
f 274/274 271/271 272/272
f 274/274 272/272 275/275
f 276/276 273/273 271/271
f 271/271 274/274 276/276
f 277/277 274/274 275/275
f 277/277 275/275 278/278
f 279/279 276/276 274/274
f 274/274 277/277 279/279
f 217/217 216/216 218/218
f 217/217 212/212 215/215
f 216/216 217/217 215/215
f 631/631 630/630 628/628
f 616/616 615/615 621/621
f 621/621 619/619 616/616
f 615/615 618/618 621/621
f 622/622 620/620 619/619
f 623/623 620/620 622/622
f 622/622 624/624 623/623
f 619/619 621/621 625/625
f 626/626 627/627 624/624
f 622/622 625/625 628/628
f 628/628 626/626 622/622
f 621/621 629/629 625/625
f 628/628 625/625 629/629
f 629/629 621/621 618/618
f 626/626 628/628 630/630
f 628/628 629/629 631/631
f 620/620 617/617 619/619
f 627/627 626/626 632/632
f 626/626 630/630 632/632
f 633/633 627/627 632/632
f 650/650 652/652 653/653
f 652/652 654/654 653/653
f 632/632 630/630 636/636
f 633/633 637/637 635/635
f 638/638 635/635 637/637
f 632/632 639/639 633/633
f 639/639 632/632 636/636
f 633/633 640/640 637/637
f 639/639 640/640 633/633
f 638/638 637/637 641/641
f 641/641 642/642 638/638
f 134/134 385/385 142/142
f 374/374 375/375 377/377
f 389/389 386/386 393/393
f 392/392 390/390 391/391
f 404/404 407/407 409/409
f 409/409 401/401 404/404
f 408/408 407/407 406/406
f 407/407 404/404 406/406
f 406/406 404/404 405/405
f 404/404 403/403 405/405
f 137/137 387/387 134/134
f 386/386 385/385 387/387
f 385/385 134/134 387/387
f 386/386 379/379 382/382
f 382/382 385/385 386/386
f 640/640 643/643 637/637
f 385/385 382/382 384/384
f 142/142 385/385 384/384
f 397/397 396/396 400/400
f 398/398 392/392 399/399
f 416/416 418/418 417/417
f 361/361 417/417 357/357
f 417/417 361/361 366/366
f 415/415 416/416 417/417
f 609/609 610/610 615/615
f 616/616 614/614 613/613
f 615/615 616/616 613/613
f 617/617 614/614 616/616
f 618/618 615/615 610/610
f 619/619 617/617 616/616
f 672/672 670/670 669/669
f 658/658 660/660 661/661
f 659/659 662/662 657/657
f 660/660 657/657 662/662
f 660/660 663/663 661/661
f 661/661 663/663 664/664
f 662/662 665/665 660/660
f 683/683 689/689 687/687
f 687/687 690/690 688/688
f 664/664 666/666 667/667
f 665/665 668/668 663/663
f 666/666 663/663 668/668
f 669/669 667/667 666/666
f 670/670 667/667 669/669
f 668/668 671/671 666/666
f 669/669 666/666 671/671
f 657/657 660/660 658/658
f 670/670 672/672 673/673
f 669/669 671/671 674/674
f 674/674 672/672 669/669
f 668/668 675/675 671/671
f 675/675 674/674 671/671
f 676/676 673/673 672/672
f 696/696 700/700 699/699
f 555/555 699/699 700/700
f 672/672 674/674 679/679
f 676/676 672/672 679/679
f 678/678 676/676 680/680
f 680/680 681/681 678/678
f 679/679 682/682 676/676
f 681/681 680/680 683/683
f 646/646 649/649 647/647
f 634/634 627/627 633/633
f 635/635 634/634 633/633
f 622/622 619/619 625/625
f 624/624 622/622 626/626
f 663/663 660/660 665/665
f 666/666 664/664 663/663
f 643/643 641/641 637/637
f 642/642 641/641 644/644
f 645/645 641/641 643/643
f 641/641 645/645 644/644
f 644/644 646/646 642/642
f 642/642 646/646 647/647
f 645/645 648/648 644/644
f 646/646 644/644 648/648
f 378/378 377/377 375/375
f 647/647 649/649 650/650
f 646/646 651/651 649/649
f 651/651 646/646 648/648
f 649/649 652/652 650/650
f 651/651 652/652 649/649
f 677/677 673/673 676/676
f 676/676 678/678 677/677
f 653/653 654/654 655/655
f 651/651 656/656 652/652
f 654/654 652/652 656/656
f 654/654 657/657 655/655
f 655/655 657/657 658/658
f 656/656 659/659 654/654
f 657/657 654/654 659/659
f 364/364 363/363 360/360
f 351/351 348/348 353/353
f 350/350 353/353 348/348
f 283/283 282/282 352/352
f 350/350 283/283 352/352
f 348/348 351/351 346/346
f 332/332 330/330 333/333
f 333/333 330/330 295/295
f 331/331 328/328 332/332
f 332/332 328/328 330/330
f 327/327 323/323 331/331
f 328/328 331/331 323/323
f 297/297 295/295 330/330
f 302/302 297/297 330/330
f 341/341 345/345 344/344
f 345/345 341/341 343/343
f 354/354 350/350 352/352
f 358/358 360/360 363/363
f 361/361 356/356 362/362
f 356/356 358/358 362/362
f 357/357 355/355 361/361
f 356/356 361/361 355/355
f 337/337 341/341 340/340
f 341/341 337/337 339/339
f 338/338 335/335 340/340
f 340/340 335/335 337/337
f 339/339 291/291 288/288
f 291/291 339/339 337/337
f 338/338 334/334 335/335
f 337/337 290/290 291/291
f 282/282 355/355 352/352
f 344/344 340/340 341/341
f 293/293 335/335 333/333
f 333/333 334/334 332/332
f 333/333 295/295 293/293
f 311/311 315/315 313/313
f 312/312 310/310 314/314
f 313/313 308/308 311/311
f 308/308 313/313 309/309
f 312/312 311/311 307/307
f 310/310 312/312 307/307
f 308/308 307/307 311/311
f 302/302 310/310 304/304
f 328/328 302/302 330/330
f 325/325 327/327 329/329
f 344/344 338/338 340/340
f 353/353 350/350 354/354
f 343/343 339/339 342/342
f 339/339 343/343 341/341
f 342/342 288/288 286/286
f 288/288 342/342 339/339
f 317/317 324/324 320/320
f 324/324 317/317 321/321
f 323/323 319/319 302/302
f 323/323 322/322 319/319
f 322/322 321/321 314/314
f 322/322 314/314 319/319
f 317/317 314/314 321/321
f 316/316 320/320 318/318
f 290/290 337/337 335/335
f 332/332 336/336 331/331
f 362/362 366/366 361/361
f 376/376 372/372 370/370
f 376/376 370/370 374/374
f 388/388 391/391 390/390
f 387/387 390/390 386/386
f 390/390 387/387 388/388
f 389/389 376/376 379/379
f 386/386 389/389 379/379
f 387/387 137/137 388/388
f 371/371 370/370 368/368
f 370/370 367/367 368/368
f 363/363 367/367 369/369
f 369/369 365/365 363/363
f 368/368 367/367 364/364
f 363/363 364/364 367/367
f 366/366 362/362 365/365
f 352/352 355/355 354/354
f 384/384 144/144 142/142
f 144/144 384/384 149/149
f 395/395 398/398 396/396
f 392/392 398/398 395/395
f 397/397 373/373 369/369
f 369/369 372/372 397/397
f 396/396 397/397 394/394
f 372/372 394/394 397/397
f 377/377 380/380 382/382
f 382/382 379/379 377/377
f 378/378 381/381 380/380
f 377/377 378/378 380/380
f 379/379 374/374 377/377
f 379/379 376/376 374/374
f 358/358 363/363 365/365
f 375/375 374/374 371/371
f 374/374 370/370 371/371
f 373/373 366/366 365/365
f 365/365 369/369 373/373
f 367/367 370/370 372/372
f 372/372 369/369 367/367
f 283/283 350/350 286/286
f 348/348 286/286 350/350
f 346/346 349/349 343/343
f 345/345 343/343 349/349
f 286/286 348/348 342/342
f 346/346 342/342 348/348
f 345/345 347/347 344/344
f 342/342 346/346 343/343
f 449/449 445/445 446/446
f 358/358 365/365 362/362
f 380/380 384/384 382/382
f 383/383 149/149 384/384
f 384/384 380/380 383/383
f 381/381 149/149 383/383
f 383/383 380/380 381/381
f 149/149 381/381 153/153
f 360/360 358/358 359/359
f 358/358 281/281 359/359
f 281/281 358/358 280/280
f 358/358 356/356 280/280
f 355/355 357/357 354/354
f 356/356 282/282 280/280
f 355/355 282/282 356/356
f 904/904 903/903 906/906
f 914/914 912/912 915/915
f 914/914 916/916 909/909
f 916/916 784/784 909/909
f 785/785 784/784 916/916
f 916/916 914/914 917/917
f 917/917 914/914 915/915
f 918/918 785/785 916/916
f 917/917 918/918 916/916
f 830/830 915/915 912/912
f 906/906 903/903 905/905
f 904/904 907/907 780/780
f 907/907 904/904 906/906
f 782/782 780/780 907/907
f 905/905 891/891 908/908
f 908/908 891/891 834/834
f 919/919 920/920 817/817
f 917/917 915/915 920/920
f 910/910 912/912 911/911
f 909/909 782/782 907/907
f 782/782 909/909 784/784
f 834/834 910/910 908/908
f 910/910 834/834 832/832
f 832/832 830/830 910/910
f 911/911 905/905 908/908
f 911/911 908/908 910/910
f 906/906 905/905 911/911
f 817/817 920/920 824/824
f 889/889 888/888 899/899
f 898/898 897/897 900/900
f 900/900 897/897 899/899
f 901/901 775/775 898/898
f 900/900 901/901 898/898
f 775/775 901/901 778/778
f 888/888 902/902 899/899
f 918/918 917/917 919/919
f 143/143 138/138 140/140
f 138/138 143/143 139/139
f 610/610 609/609 607/607
f 576/576 609/609 611/611
f 601/601 598/598 597/597
f 785/785 918/918 787/787
f 792/792 787/787 918/918
f 919/919 792/792 918/918
f 140/140 133/133 141/141
f 792/792 919/919 811/811
f 811/811 919/919 817/817
f 919/919 917/917 920/920
f 600/600 601/601 597/597
f 602/602 599/599 598/598
f 598/598 601/601 602/602
f 603/603 593/593 599/599
f 602/602 603/603 599/599
f 913/913 911/911 912/912
f 921/921 920/920 915/915
f 920/920 921/921 824/824
f 915/915 830/830 921/921
f 824/824 921/921 826/826
f 830/830 826/826 921/921
f 133/133 135/135 136/136
f 912/912 910/910 830/830
f 913/913 906/906 911/911
f 770/770 895/895 772/772
f 907/907 906/906 913/913
f 913/913 909/909 907/907
f 914/914 913/913 912/912
f 909/909 913/913 914/914
f 135/135 133/133 138/138
f 139/139 135/135 138/138
f 133/133 140/140 138/138
f 890/890 892/892 882/882
f 768/768 765/765 875/875
f 742/742 874/874 876/876
f 876/876 874/874 758/758
f 876/876 744/744 742/742
f 888/888 889/889 887/887
f 882/882 886/886 890/890
f 891/891 888/888 836/836
f 891/891 836/836 834/834
f 875/875 872/872 871/871
f 768/768 882/882 892/892
f 767/767 768/768 892/892
f 893/893 767/767 892/892
f 892/892 890/890 893/893
f 875/875 879/879 768/768
f 878/878 870/870 880/880
f 870/870 845/845 880/880
f 879/879 878/878 881/881
f 884/884 881/881 880/880
f 867/867 866/866 870/870
f 845/845 870/870 866/866
f 869/869 867/867 871/871
f 871/871 867/867 870/870
f 872/872 868/868 869/869
f 883/883 880/880 845/845
f 845/845 841/841 883/883
f 841/841 839/839 883/883
f 881/881 878/878 880/880
f 880/880 883/883 884/884
f 885/885 883/883 839/839
f 883/883 885/885 884/884
f 837/837 885/885 839/839
f 881/881 884/884 886/886
f 760/760 758/758 874/874
f 872/872 875/875 765/765
f 903/903 902/902 905/905
f 889/889 886/886 887/887
f 900/900 899/899 902/902
f 902/902 888/888 891/891
f 901/901 900/900 903/903
f 903/903 900/900 902/902
f 901/901 904/904 778/778
f 904/904 901/901 903/903
f 780/780 778/778 904/904
f 837/837 836/836 888/888
f 905/905 902/902 891/891
f 767/767 893/893 770/770
f 890/890 886/886 894/894
f 894/894 893/893 890/890
f 894/894 886/886 889/889
f 895/895 770/770 893/893
f 893/893 894/894 895/895
f 897/897 898/898 896/896
f 882/882 768/768 879/879
f 882/882 879/879 881/881
f 896/896 772/772 895/895
f 894/894 896/896 895/895
f 772/772 896/896 774/774
f 897/897 894/894 889/889
f 896/896 894/894 897/897
f 898/898 774/774 896/896
f 593/593 603/603 585/585
f 774/774 898/898 775/775
f 897/897 889/889 899/899
f 886/886 882/882 881/881
f 887/887 884/884 885/885
f 886/886 884/884 887/887
f 888/888 885/885 837/837
f 887/887 885/885 888/888
f 139/139 547/547 135/135
f 586/586 584/584 179/179
f 557/557 568/568 565/565
f 566/566 569/569 567/567
f 492/492 500/500 544/544
f 544/544 488/488 487/487
f 544/544 487/487 492/492
f 135/135 545/545 136/136
f 545/545 135/135 547/547
f 583/583 585/585 581/581
f 548/548 545/545 547/547
f 545/545 548/548 550/550
f 574/574 575/575 569/569
f 572/572 576/576 573/573
f 577/577 573/573 576/576
f 574/574 571/571 578/578
f 578/578 575/575 574/574
f 557/557 579/579 571/571
f 562/562 561/561 559/559
f 592/592 590/590 189/189
f 592/592 591/591 590/590
f 579/579 578/578 571/571
f 579/579 557/557 558/558
f 551/551 146/146 558/558
f 557/557 551/551 558/558
f 556/556 554/554 559/559
f 556/556 559/559 561/561
f 557/557 548/548 551/551
f 559/559 563/563 562/562
f 554/554 563/563 559/559
f 564/564 562/562 563/563
f 583/583 581/581 580/580
f 176/176 584/584 582/582
f 583/583 582/582 584/584
f 584/584 176/176 179/179
f 289/289 290/290 293/293
f 295/295 297/297 294/294
f 296/296 250/250 256/256
f 294/294 296/296 256/256
f 295/295 294/294 292/292
f 293/293 295/295 292/292
f 294/294 256/256 259/259
f 259/259 292/292 294/294
f 293/293 292/292 289/289
f 544/544 490/490 488/488
f 292/292 259/259 264/264
f 309/309 305/305 308/308
f 307/307 308/308 306/306
f 305/305 306/306 308/308
f 306/306 304/304 307/307
f 305/305 301/301 306/306
f 301/301 304/304 306/306
f 542/542 498/498 517/517
f 554/554 548/548 557/557
f 537/537 539/539 540/540
f 303/303 541/541 539/539
f 540/540 539/539 541/541
f 541/541 303/303 309/309
f 541/541 309/309 490/490
f 542/542 533/533 540/540
f 517/517 533/533 542/542
f 589/589 590/590 591/591
f 563/563 554/554 565/565
f 565/565 554/554 557/557
f 563/563 566/566 564/564
f 565/565 566/566 563/563
f 567/567 564/564 566/566
f 566/566 565/565 568/568
f 500/500 543/543 544/544
f 587/587 584/584 586/586
f 611/611 577/577 576/576
f 577/577 611/611 612/612
f 613/613 612/612 611/611
f 609/609 613/613 611/611
f 612/612 613/613 614/614
f 613/613 609/609 615/615
f 600/600 597/597 199/199
f 203/203 600/600 199/199
f 596/596 593/593 594/594
f 585/585 583/583 587/587
f 182/182 588/588 586/586
f 588/588 182/182 185/185
f 186/186 588/588 185/185
f 586/586 589/589 587/587
f 589/589 586/586 588/588
f 585/585 587/587 589/589
f 603/603 605/605 585/585
f 610/610 607/607 606/606
f 604/604 602/602 601/601
f 606/606 607/607 603/603
f 575/575 605/605 608/608
f 608/608 605/605 607/607
f 575/575 608/608 572/572
f 572/572 608/608 576/576
f 609/609 608/608 607/607
f 609/609 576/576 608/608
f 581/581 585/585 605/605
f 585/585 589/589 593/593
f 594/594 591/591 592/592
f 593/593 591/591 594/594
f 595/595 592/592 192/192
f 196/196 595/595 192/192
f 594/594 592/592 596/596
f 595/595 596/596 592/592
f 569/569 572/572 570/570
f 597/597 598/598 595/595
f 593/593 596/596 599/599
f 596/596 598/598 599/599
f 182/182 586/586 179/179
f 584/584 587/587 583/583
f 568/568 569/569 566/566
f 567/567 569/569 570/570
f 568/568 557/557 571/571
f 598/598 596/596 595/595
f 572/572 573/573 570/570
f 569/569 568/568 574/574
f 571/571 574/574 568/568
f 569/569 575/575 572/572
f 186/186 590/590 588/588
f 590/590 589/589 588/588
f 189/189 590/590 186/186
f 575/575 578/578 581/581
f 605/605 575/575 581/581
f 603/603 602/602 606/606
f 604/604 606/606 602/602
f 605/605 603/603 607/607
f 192/192 592/592 189/189
f 593/593 589/589 591/591
f 578/578 579/579 580/580
f 558/558 580/580 579/579
f 105/105 104/104 448/448
f 581/581 578/578 580/580
f 580/580 558/558 582/582
f 146/146 582/582 558/558
f 582/582 146/146 176/176
f 582/582 583/583 580/580
f 595/595 196/196 597/597
f 199/199 597/597 196/196
f 96/96 482/482 97/97
f 499/499 501/501 496/496
f 496/496 501/501 497/497
f 483/483 484/484 318/318
f 484/484 483/483 95/95
f 483/483 96/96 95/95
f 320/320 483/483 318/318
f 482/482 96/96 483/483
f 483/483 320/320 482/482
f 502/502 495/495 497/497
f 320/320 324/324 482/482
f 491/491 494/494 495/495
f 495/495 493/493 491/491
f 512/512 508/508 510/510
f 508/508 512/512 509/509
f 510/510 507/507 511/511
f 507/507 510/510 508/508
f 502/502 501/501 509/509
f 475/475 479/479 478/478
f 493/493 489/489 491/491
f 486/486 492/492 487/487
f 492/492 486/486 489/489
f 326/326 479/479 480/480
f 100/100 99/99 479/479
f 479/479 101/101 100/100
f 479/479 326/326 478/478
f 101/101 479/479 477/477
f 501/501 508/508 509/509
f 479/479 475/475 477/477
f 325/325 478/478 326/326
f 485/485 488/488 315/315
f 487/487 484/484 486/486
f 503/503 499/499 89/89
f 495/495 502/502 498/498
f 501/501 502/502 497/497
f 513/513 502/502 509/509
f 493/493 498/498 500/500
f 496/496 89/89 499/499
f 498/498 493/493 495/495
f 494/494 496/496 497/497
f 497/497 495/495 494/494
f 89/89 496/496 90/90
f 496/496 494/494 90/90
f 509/509 512/512 513/513
f 500/500 492/492 493/493
f 202/202 204/204 528/528
f 525/525 528/528 527/527
f 528/528 525/525 202/202
f 524/524 527/527 526/526
f 527/527 524/524 525/525
f 517/517 518/518 526/526
f 507/507 508/508 506/506
f 87/87 503/503 88/88
f 91/91 491/491 92/92
f 491/491 489/489 92/92
f 490/490 309/309 313/313
f 313/313 488/488 490/490
f 92/92 489/489 93/93
f 489/489 486/486 93/93
f 488/488 313/313 315/315
f 488/488 485/485 487/487
f 489/489 493/493 492/492
f 88/88 503/503 89/89
f 520/520 515/515 521/521
f 514/514 520/520 519/519
f 515/515 520/520 514/514
f 516/516 519/519 518/518
f 514/514 519/519 516/516
f 518/518 517/517 513/513
f 463/463 344/344 347/347
f 466/466 334/334 338/338
f 477/477 102/102 101/101
f 474/474 477/477 475/475
f 102/102 477/477 476/476
f 477/477 474/474 476/476
f 476/476 103/103 102/102
f 103/103 476/476 453/453
f 463/463 338/338 344/344
f 336/336 334/334 466/466
f 462/462 463/463 347/347
f 458/458 459/459 462/462
f 461/461 462/462 347/347
f 462/462 461/461 458/458
f 347/347 345/345 461/461
f 349/349 461/461 345/345
f 471/471 472/472 473/473
f 327/327 471/471 473/473
f 458/458 432/432 456/456
f 461/461 349/349 432/432
f 432/432 458/458 461/461
f 472/472 471/471 469/469
f 468/468 472/472 469/469
f 327/327 331/331 471/471
f 331/331 469/469 471/471
f 460/460 453/453 470/470
f 470/470 464/464 460/460
f 98/98 97/97 481/481
f 449/449 451/451 457/457
f 457/457 456/456 452/452
f 457/457 452/452 449/449
f 456/456 432/432 431/431
f 455/455 452/452 456/456
f 455/455 456/456 431/431
f 455/455 431/431 435/435
f 474/474 468/468 470/470
f 486/486 484/484 94/94
f 318/318 485/485 315/315
f 485/485 318/318 484/484
f 95/95 94/94 484/484
f 470/470 476/476 474/474
f 476/476 470/470 453/453
f 473/473 474/474 475/475
f 475/475 329/329 473/473
f 93/93 486/486 94/94
f 474/474 473/473 472/472
f 472/472 468/468 474/474
f 473/473 329/329 327/327
f 482/482 481/481 97/97
f 481/481 482/482 324/324
f 90/90 494/494 91/91
f 494/494 491/491 91/91
f 336/336 467/467 469/469
f 324/324 480/480 481/481
f 481/481 480/480 98/98
f 99/99 98/98 480/480
f 480/480 324/324 326/326
f 480/480 479/479 99/99
f 468/468 464/464 470/470
f 469/469 331/331 336/336
f 469/469 467/467 468/468
f 869/869 865/865 867/867
f 465/465 468/468 467/467
f 468/468 465/465 464/464
f 467/467 336/336 466/466
f 467/467 466/466 465/465
f 478/478 325/325 329/329
f 329/329 475/475 478/478
f 484/484 487/487 485/485
f 857/857 861/861 859/859
f 287/287 267/267 270/270
f 285/285 284/284 288/288
f 286/286 288/288 284/284
f 267/267 287/287 289/289
f 860/860 736/736 858/858
f 859/859 860/860 858/858
f 739/739 736/736 860/860
f 742/742 739/739 860/860
f 270/270 285/285 287/287
f 850/850 864/864 851/851
f 508/508 501/501 506/506
f 861/861 862/862 865/865
f 865/865 862/862 864/864
f 864/864 850/850 866/866
f 866/866 850/850 845/845
f 865/865 864/864 867/867
f 866/866 867/867 864/864
f 298/298 249/249 247/247
f 236/236 535/535 534/534
f 858/858 734/734 856/856
f 736/736 734/734 858/858
f 858/858 856/856 859/859
f 859/859 856/856 857/857
f 297/297 296/296 294/294
f 296/296 298/298 250/250
f 247/247 250/250 298/298
f 868/868 861/861 865/865
f 297/297 299/299 296/296
f 299/299 298/298 296/296
f 284/284 273/273 276/276
f 276/276 283/283 284/284
f 273/273 284/284 285/285
f 285/285 270/270 273/273
f 284/284 283/283 286/286
f 877/877 745/745 744/744
f 860/860 859/859 861/861
f 852/852 862/862 857/857
f 865/865 869/869 868/868
f 879/879 875/875 878/878
f 870/870 878/878 871/871
f 875/875 871/871 878/878
f 745/745 877/877 750/750
f 877/877 753/753 750/750
f 762/762 872/872 765/765
f 877/877 758/758 753/753
f 877/877 744/744 876/876
f 758/758 877/877 876/876
f 851/851 864/864 862/862
f 860/860 863/863 742/742
f 863/863 860/860 861/861
f 852/852 851/851 862/862
f 861/861 857/857 862/862
f 872/872 869/869 871/871
f 863/863 861/861 868/868
f 853/853 854/854 855/855
f 730/730 729/729 855/855
f 730/730 855/855 734/734
f 856/856 855/855 854/854
f 734/734 855/855 856/856
f 857/857 854/854 852/852
f 854/854 857/857 856/856
f 506/506 505/505 507/507
f 873/873 863/863 868/868
f 868/868 872/872 873/873
f 863/863 873/873 874/874
f 874/874 742/742 863/863
f 873/873 872/872 762/762
f 762/762 760/760 873/873
f 760/760 874/874 873/873
f 253/253 538/538 251/251
f 512/512 516/516 513/513
f 511/511 515/515 514/514
f 510/510 514/514 512/512
f 510/510 511/511 514/514
f 528/528 207/207 529/529
f 207/207 528/528 204/204
f 537/537 538/538 539/539
f 538/538 253/253 303/303
f 516/516 512/512 514/514
f 536/536 538/538 537/537
f 538/538 536/536 251/251
f 537/537 533/533 534/534
f 526/526 518/518 524/524
f 525/525 203/203 202/202
f 525/525 524/524 523/523
f 523/523 203/203 525/525
f 524/524 518/518 519/519
f 532/532 533/533 530/530
f 501/501 499/499 506/506
f 503/503 505/505 506/506
f 506/506 499/499 503/503
f 503/503 504/504 505/505
f 503/503 87/87 504/504
f 520/520 522/522 523/523
f 522/522 520/520 521/521
f 533/533 517/517 526/526
f 234/234 240/240 535/535
f 533/533 526/526 530/530
f 236/236 532/532 226/226
f 530/530 531/531 532/532
f 226/226 532/532 531/531
f 513/513 516/516 518/518
f 502/502 517/517 498/498
f 517/517 502/502 513/513
f 537/537 534/534 536/536
f 529/529 214/214 531/531
f 527/527 529/529 530/530
f 214/214 529/529 207/207
f 529/529 527/527 528/528
f 535/535 240/240 536/536
f 536/536 534/534 535/535
f 240/240 243/243 536/536
f 536/536 243/243 251/251
f 530/530 526/526 527/527
f 551/551 547/547 139/139
f 551/551 548/548 547/547
f 548/548 553/553 550/550
f 146/146 551/551 139/139
f 554/554 553/553 548/548
f 554/554 556/556 553/553
f 303/303 539/539 538/538
f 540/540 533/533 537/537
f 543/543 500/500 542/542
f 203/203 523/523 522/522
f 523/523 519/519 520/520
f 532/532 534/534 533/533
f 534/534 532/532 236/236
f 490/490 544/544 543/543
f 519/519 523/523 524/524
f 236/236 234/234 535/535
f 531/531 530/530 529/529
f 543/543 541/541 490/490
f 542/542 540/540 543/543
f 540/540 541/541 543/543
f 498/498 542/542 500/500
f 531/531 222/222 226/226
f 222/222 531/531 214/214

