# https://github.com/mikedh/trimesh
mtllib material.mtl
usemtl M_UE4Man_ChestLogo
v 0.03575311 -0.15628223 -0.01973352
v 0.04109523 -0.15945934 -0.00360928
v 0.04109523 -0.15945934 -0.00360928
v 0.03436146 -0.15869676 -0.00427530
v 0.03436146 -0.15869676 -0.00427530
v 0.04251275 -0.15691392 -0.01966045
v 0.04045568 -0.15932386 -0.03794775
v 0.03427134 -0.15853601 -0.03682885
v 0.04744444 -0.14965283 -0.01960883
v 0.04589257 -0.15067904 -0.00162313
v 0.04589257 -0.15067904 -0.00162313
v 0.05233488 -0.14999239 -0.00241146
v 0.05233488 -0.14999239 -0.00241146
v 0.03690729 -0.16485517 -0.05156300
v 0.02996883 -0.16443865 -0.04981265
v 0.04406843 -0.15312152 -0.04118893
v 0.05449197 -0.14896874 -0.02057824
v 0.05744658 -0.13645207 -0.00066063
v 0.05744658 -0.13645207 -0.00066063
v 0.03751299 -0.16061299 -0.05531034
v 0.06030879 -0.13420396 -0.02224658
v 0.04989431 -0.15326195 -0.04487584
v 0.05517659 -0.13870608 -0.04495523
v 0.06557200 -0.11673396 -0.01920781
v 0.06263802 -0.11801635 0.00326982
v 0.06263802 -0.11801635 0.00326982
v 0.06146023 -0.11659818 -0.03812442
v 0.07766316 -0.08688550 -0.01647232
v 0.07520185 -0.08754717 0.00616422
v 0.07520185 -0.08754717 0.00616422
v 0.07302210 -0.08704077 -0.03282664
v 0.08948383 -0.05066191 -0.01390455
v 0.08649871 -0.04989331 0.00961199
v 0.08649871 -0.04989331 0.00961199
v 0.06233308 -0.08611201 -0.05218503
v 0.10064874 -0.00930725 -0.01309214
v 0.09605668 -0.00930266 0.01202073
v 0.09605668 -0.00930266 0.01202073
v 0.08411214 -0.05002033 -0.03494129
v 0.10574863 0.02062650 -0.01354668
v 0.10223398 0.02136804 0.01367190
v 0.10223398 0.02136804 0.01367190
v 0.09700737 -0.00811617 -0.04020724
v 0.10787818 0.03975327 -0.01129744
v 0.10420380 0.03918423 0.01511326
v 0.10420380 0.03918423 0.01511326
v 0.10225878 0.02297784 -0.04357204
v 0.07369564 -0.05088650 -0.05783079
v 0.08395193 -0.00582444 -0.06945572
v 0.10456119 0.04195179 -0.04581747
v 0.10713801 0.05890615 -0.00875435
v 0.10409484 0.05751313 0.01805367
v 0.10409484 0.05751313 0.01805367
v 0.09288166 0.02620227 -0.07478425
v 0.10603473 0.08000226 -0.00568364
v 0.10240302 0.07784123 0.02262893
v 0.10240302 0.07784123 0.02262893
v 0.10561857 0.06175001 -0.04714749
v 0.09660254 0.04624946 -0.07672963
v 0.10566793 0.08371414 -0.00495586
v 0.10175977 0.08267213 0.02258804
v 0.10175977 0.08267213 0.02258804
v 0.09845731 0.08773751 0.02231314
v 0.09845731 0.08773751 0.02231314
v 0.10583923 0.08691795 -0.04626343
v 0.09825323 0.07028498 -0.07906303
v 0.10163221 0.08996548 -0.00484428
v 0.08939800 0.09260930 0.02158370
v 0.08939800 0.09260930 0.02158370
v 0.10550008 0.09140660 -0.04601870
v 0.10091374 0.09626032 -0.08189163
v 0.09324000 0.09342529 -0.00651488
v 0.08512578 0.08689560 0.02042761
v 0.08512578 0.08689560 0.02042761
v 0.10224376 0.09591348 -0.04550478
v 0.08821652 0.08771081 -0.00763175
v 0.07320318 0.08698238 0.01748171
v 0.07320318 0.08698238 0.01748171
v 0.07570419 0.08691807 -0.00882802
v 0.07569644 0.09262217 -0.04381964
v 0.09397409 0.09840561 -0.04378948
v 0.09036455 0.09365315 -0.04478977
v 0.07272313 0.10445882 -0.06729207
v 0.08633182 0.10537888 -0.07499788
v 0.06645260 0.11692489 -0.08191142
v 0.08948646 0.10765202 -0.07493279
v 0.07740555 0.11752225 -0.09599469
v 0.05377421 0.13423998 -0.09414849
v 0.09738145 0.10527940 -0.07934842
v 0.05897710 0.13433422 -0.11001978
v 0.08032010 0.11866738 -0.10331306
v 0.01460693 0.17546798 -0.10682664
v 0.01898954 0.17093189 -0.09389577
v 0.00797961 0.18693407 -0.08996246
v 0.06019340 0.13670869 -0.11803768
v -0.00050714 0.19103141 -0.10043190
v -0.01094654 0.20847650 -0.07783554
v 0.01103864 0.17766715 -0.11545966
v -0.01705577 0.21334804 -0.08304260
v -0.02824047 0.22973759 -0.05534647
v -0.00351670 0.19456817 -0.10631118
v -0.03528585 0.23207201 -0.05860958
v -0.02451947 0.21659328 -0.08953629
v -0.04088118 0.24070681 -0.03141437
v -0.03324964 0.23795552 -0.03156898
v -0.03498306 0.24456019 -0.00870476
v -0.02961185 0.21491326 -0.09038601
v -0.04070439 0.23055513 -0.05801771
v -0.04215612 0.24673350 -0.00712929
v -0.04699030 0.24032487 -0.02869604
v -0.04303589 0.22586949 -0.05624065
v -0.03720393 0.24900765 0.01524260
v -0.03166261 0.24729533 0.01470366
v -0.04798844 0.24570460 -0.00659225
v -0.03229144 0.24860753 0.02833691
v -0.02764418 0.24751045 0.02720871
v -0.01848867 0.24497409 0.04266276
v -0.04322829 0.24850459 0.01611879
v -0.03738990 0.24812378 0.02991858
v -0.02236083 0.24591417 0.04663231
v -0.00500860 0.24106045 0.05902877
v -0.02664676 0.24572898 0.04895034
v -0.04627671 0.24388154 0.01671436
v -0.05015995 0.24205918 -0.00539587
v -0.04014912 0.24321647 0.03140225
v -0.06772366 0.17804445 0.01333382
v -0.06501951 0.17769272 0.02865496
v -0.02933838 0.24043895 0.05143526
v -0.05932441 0.17722995 0.04510167
v -0.08101370 0.11566414 0.02233317
v -0.07793858 0.11458935 0.03552010
v -0.05076232 0.17553933 0.06527390
v -0.08085635 0.11493112 0.01854041
v -0.07329287 0.11406876 0.05575027
v -0.08786287 0.06031032 0.02538135
v -0.08483376 0.05909975 0.04123833
v -0.06594303 0.17805214 0.00895777
v -0.08681180 0.05998577 0.02072134
v -0.05028262 0.23871846 -0.01791296
v -0.07404759 0.11314888 0.00453379
v -0.06363752 0.17756493 -0.00559494
v -0.04869368 0.23537822 -0.02704988
v -0.06390204 0.17501999 -0.01664422
v -0.05811503 0.16865451 -0.04375837
v -0.07843807 0.10883654 -0.00971601
v -0.03247895 0.21140100 -0.08932707
v -0.08010175 0.05945177 0.00812068
v -0.01378014 0.19500751 -0.11611137
v -0.04800489 0.15854074 -0.07384047
v -0.00884511 0.19729282 -0.11405156
v -0.01658204 0.19128765 -0.11575923
v -0.00556781 0.18683488 -0.12450836
v -0.00169053 0.18930138 -0.12146816
v -0.00810530 0.18318040 -0.12470732
v 0.00818965 0.18056322 -0.12528083
v 0.00467954 0.17784489 -0.12929819
v 0.06160948 0.13812644 -0.12758479
v 0.07810733 0.12502284 -0.11959991
v 0.06127403 0.13542481 -0.13019381
v 0.08612499 0.11736132 -0.10907731
v 0.07918558 0.12080617 -0.12275825
v 0.00195382 0.17492439 -0.12944219
v 0.05971787 0.12979777 -0.12913690
v 0.08831081 0.11252595 -0.11179719
v 0.10031900 0.10115053 -0.08106027
v 0.07843993 0.11732204 -0.12233016
v 0.08841691 0.10829492 -0.11200056
v 0.05410597 0.09839786 -0.12000678
v 0.08308694 0.08297045 -0.10800884
v 0.07157228 0.09021158 -0.11670218
v 0.07789002 0.05737604 -0.10288630
v 0.06858692 0.06257458 -0.10981534
v 0.07302902 0.03475053 -0.09784291
v 0.06469045 0.03762658 -0.10278664
v 0.04904792 0.07000239 -0.11375377
v 0.06714222 -0.00139050 -0.08801601
v 0.06047401 0.00007291 -0.09241757
v 0.05540106 -0.04755985 -0.07832572
v 0.04048131 0.00332583 -0.09805546
v 0.04417346 -0.08290248 -0.07241390
v 0.04963503 -0.04649161 -0.08246479
v 0.03664289 -0.11828767 -0.07342622
v 0.03986368 -0.08282893 -0.07633016
v 0.03559504 -0.04516195 -0.08573303
v 0.05263338 -0.11852442 -0.05533419
v 0.04737351 -0.14639365 -0.06305323
v 0.04236326 -0.16153912 -0.06292770
v 0.03040752 -0.16275119 -0.08309851
v 0.03331444 -0.11852990 -0.07730935
v 0.03032265 -0.17127572 -0.06730351
v 0.02973626 -0.17496030 -0.07800851
v 0.02951465 -0.17621105 -0.06448469
v 0.02446160 -0.17609750 -0.06140599
v 0.02193925 -0.18292283 -0.06692467
v 0.02691934 -0.17691063 -0.07366285
v 0.02596650 -0.18212419 -0.07040999
v 0.01896462 -0.18810170 -0.07235060
v 0.02274320 -0.18141698 -0.07871304
v 0.02196608 -0.18639087 -0.07624266
v 0.01487229 -0.18971853 -0.07553396
v 0.02578375 -0.17911361 -0.08265910
v 0.01683769 -0.18770813 -0.08033440
v 0.02884874 -0.16749345 -0.08427367
v 0.01849089 -0.18247204 -0.08184192
v 0.02213154 -0.18081890 -0.08554564
v 0.02447233 -0.16878300 -0.08918033
v 0.02569053 -0.16138463 -0.08840225
v 0.01617250 -0.16851805 -0.09066925
v 0.01746330 -0.16104709 -0.08958981
v 0.02504883 -0.11751347 -0.07974205
v 0.01378105 -0.18134617 -0.08847044
v -0.03584220 -0.15953069 -0.09031556
v 0.01106069 -0.18227803 -0.08430288
v -0.03526022 -0.17208193 -0.08737335
v 0.01018438 -0.18714826 -0.08205280
v 0.00925539 -0.18945830 -0.07634399
v -0.03227642 -0.18035464 -0.08232687
v -0.03147438 -0.18283891 -0.07639620
v -0.03331997 -0.17417942 -0.08340631
v -0.04213967 -0.17595063 -0.07735190
v -0.03952172 -0.17924844 -0.07281516
v -0.04197266 -0.16832678 -0.08431611
v -0.04039397 -0.17062263 -0.07922790
v -0.04485550 -0.17145513 -0.07289813
v -0.04147329 -0.17516922 -0.06906388
v -0.04268267 -0.15954809 -0.05523226
v -0.04332902 -0.16622369 -0.07536755
v -0.04877570 -0.15542536 -0.05797551
v -0.05258217 -0.14434092 -0.03957055
v -0.04454567 -0.14987742 -0.04011056
v -0.04518583 -0.14656256 -0.02661965
v -0.04939785 -0.14645689 -0.05918882
v -0.04651537 -0.16344069 -0.08043931
v -0.05326452 -0.14201395 -0.02602098
v -0.04494979 -0.14593517 -0.01356051
v -0.04296317 -0.15487819 -0.08738706
v -0.05334618 -0.14229225 -0.01185963
v -0.04377928 -0.15072845 0.00143828
v -0.05558517 -0.13402562 -0.02625499
v -0.05419960 -0.13706892 -0.04268274
v -0.05284347 -0.14817469 0.00417593
v -0.04293718 -0.16077809 0.01274791
v -0.05601397 -0.13468634 -0.01045380
v -0.05120506 -0.15883677 0.01578846
v -0.05382099 -0.14163678 0.00708320
v -0.05188467 -0.15375398 0.02012589
v -0.05021098 -0.18067555 0.02884963
v -0.04479434 -0.18097811 0.02375999
v -0.04423847 -0.20762442 0.02647462
v -0.04980030 -0.17882018 0.03340569
v -0.04918816 -0.20873796 0.03226056
v -0.04761841 -0.20814042 0.03621748
v -0.04696944 -0.23452060 0.02795198
v -0.04307368 -0.23418580 0.02316644
v -0.04061952 -0.24049352 0.02394047
v -0.04608991 -0.23140465 0.03298655
v -0.04374292 -0.24245306 0.02966657
v -0.04317346 -0.23773064 0.03339531
v -0.03917661 -0.24726568 0.03140821
v -0.03682568 -0.24368139 0.02474155
v -0.03952422 -0.24308016 0.03446617
v -0.04720309 -0.23087179 0.03709760
v -0.04511359 -0.23752363 0.03860631
v -0.03033223 -0.24584748 0.03521421
v -0.02996709 -0.24976023 0.03169837
v -0.03056850 -0.24607079 0.02534249
v -0.01551511 -0.24846529 0.02540114
v -0.01480772 -0.25124349 0.03155687
v -0.00283887 -0.24715506 0.02409592
v -0.01473811 -0.24760329 0.03502216
v -0.00140383 -0.24939220 0.03035738
v 0.00295315 -0.24415837 0.02444127
v -0.00289597 -0.24577768 0.03383007
v 0.00394282 -0.24635618 0.03015103
v 0.00809739 -0.24107774 0.03078272
v 0.00755308 -0.23891942 0.02562478
v 0.00199828 -0.24335034 0.03395870
v 0.01519594 -0.21714972 0.03734221
v 0.01341519 -0.21617644 0.03077092
v 0.00570045 -0.23868053 0.03492560
v 0.02257059 -0.19408177 0.03442039
v 0.01841269 -0.19346284 0.02875569
v 0.02735064 -0.17196428 0.01742997
v 0.01121483 -0.21459149 0.04104998
v 0.00279388 -0.24283619 0.03876474
v 0.03262136 -0.17332207 0.02112081
v 0.00658212 -0.23722990 0.03962328
v -0.00218632 -0.24620007 0.03874447
v 0.00236473 -0.23843874 0.04876497
v -0.01368906 -0.24856092 0.03995886
v -0.00294712 -0.24151318 0.04911234
v 0.00270722 -0.23623003 0.05106821
v -0.03029075 -0.24724226 0.04082885
v -0.01367321 -0.24400224 0.04958358
v -0.04148855 -0.24213685 0.04051437
v -0.00456479 -0.23919119 0.05375221
v -0.04472783 -0.23501490 0.04797509
v -0.04051342 -0.23947801 0.05003192
v -0.03068914 -0.24276938 0.04947832
v -0.04333975 -0.23424821 0.05436089
v -0.03890374 -0.23710443 0.05515959
v -0.03223469 -0.23964747 0.05617919
v -0.01125004 -0.24139555 0.05551007
v -0.03737798 -0.23612623 0.05897059
v -0.04103270 -0.23283486 0.05832615
v -0.04449954 -0.22971408 0.05522850
v -0.03240433 -0.23894112 0.05969121
v -0.03912380 -0.23273950 0.06216671
v -0.03635147 -0.23579939 0.06261101
v -0.01078060 -0.24104710 0.05914691
v -0.04166808 -0.23004388 0.05906167
v -0.03230813 -0.23771246 0.06308248
v -0.00522985 -0.23818003 0.05836918
v -0.00969830 -0.23923131 0.06248786
v -0.00113704 -0.23401641 0.05857792
v -0.00568809 -0.23747473 0.06210222
v -0.00204482 -0.23364239 0.06275144
v -0.03346171 -0.23335360 0.06801691
v -0.00766602 -0.23526864 0.06711819
v -0.00504425 -0.23313897 0.06713572
v -0.00882223 -0.23271697 0.06974747
v -0.03607991 -0.23153143 0.06827965
v -0.03311946 -0.23091267 0.06928077
v -0.03996732 -0.23053514 0.06263127
v -0.04162719 -0.21353917 0.06606665
v -0.03538110 -0.21443694 0.07161262
v -0.01937487 -0.21542196 0.07395902
v -0.04337492 -0.21217291 0.06212094
v -0.03183224 -0.21430706 0.07295408
v -0.00748494 -0.21651577 0.07400789
v -0.01493123 -0.17117428 0.08007970
v -0.02931335 -0.16993527 0.07877996
v -0.04250517 -0.17115377 0.06882253
v -0.03601446 -0.16901206 0.07604709
v -0.02855852 -0.14369111 0.07844057
v -0.00111654 -0.17239194 0.08042338
v -0.03485956 -0.14243256 0.07464173
v -0.01096334 -0.14472388 0.07869973
v -0.02760222 -0.11814021 0.07766321
v -0.04295113 -0.14188241 0.06550291
v -0.03688028 -0.11649011 0.07369485
v -0.04530671 -0.17142241 0.06355395
v -0.04697742 -0.14186226 0.05957308
v -0.04744365 -0.17170714 0.05961432
v -0.04794004 -0.11085586 0.05846598
v -0.04531994 -0.21196889 0.05854180
v -0.04707208 -0.22842609 0.04645076
v -0.04912188 -0.20874261 0.04804637
v -0.04921987 -0.20879160 0.03983619
v -0.05281832 -0.17769794 0.03836765
v -0.05355980 -0.17427384 0.04506209
v -0.05608680 -0.15104466 0.02359357
v -0.05705049 -0.14416050 0.03121307
v -0.05961981 -0.13931744 0.00975075
v -0.05168953 -0.13633029 0.04226639
v -0.06083682 -0.12854342 0.01339891
v -0.06124594 -0.13236873 -0.00807450
v -0.04848816 -0.14192622 0.05740228
v -0.06054189 -0.13140999 -0.02607522
v -0.05279591 -0.11169575 0.05280497
v -0.05462637 -0.11263614 0.04803517
v -0.06982257 -0.06526183 0.04532900
v -0.07067850 -0.06630360 0.03822114
v -0.05513325 -0.11019372 0.03580787
v -0.06992140 -0.06684862 0.03299382
v -0.05814245 -0.11711459 0.01617959
v -0.06391504 -0.06825506 0.02190890
v -0.06385353 -0.12130361 -0.00578902
v -0.05867686 -0.10342483 0.01579824
v -0.06378450 -0.11218487 -0.00320516
v -0.06416323 -0.11851727 -0.02803538
v -0.06392040 -0.09861379 -0.00084815
v -0.06474497 -0.11169897 -0.02720926
v -0.06591120 -0.09557210 -0.02186522
v -0.06584849 -0.06874352 0.00812628
v -0.07220819 -0.06976550 -0.01730452
v -0.06456759 -0.09844242 -0.03883169
v -0.07458510 -0.03065531 0.01093545
v -0.07045438 -0.06927656 -0.03458354
v -0.08180215 -0.02930598 -0.01146779
v -0.07657483 -0.03044550 -0.03147695
v -0.08078768 -0.03040593 0.02774050
v -0.08031371 0.01462848 0.01106026
v -0.08095148 -0.03127639 0.03149345
v -0.08680942 0.01596971 0.02470734
v -0.07881072 -0.03104930 0.04409840
v -0.08697906 0.01624895 0.02842500
v -0.08424261 0.01428552 0.04301825
v -0.07738485 0.05817760 0.05921247
v -0.08685198 0.01600559 -0.00709972
v -0.08566859 0.05905528 -0.00649784
v -0.08054938 0.01468761 -0.02953885
v -0.07911673 0.05879266 -0.03089116
v -0.06745722 0.01564277 -0.05665002
v -0.07236388 0.10670532 -0.03298030
v -0.06662598 0.05965389 -0.05792425
v -0.06048670 0.10342241 -0.06246910
v -0.03495815 0.14486117 -0.09960124
v -0.04926958 0.06010033 -0.08294830
v -0.02565708 0.13791378 -0.10880766
v -0.04437246 0.10168124 -0.08855710
v -0.01617672 0.13277752 -0.11353407
v -0.03418972 0.09808321 -0.09898338
v -0.02491810 0.09552575 -0.10393784
v -0.03818097 0.05957635 -0.09241316
v -0.05084791 0.01454438 -0.07796273
v -0.02939584 0.05865063 -0.09799359
v -0.03929248 0.01331575 -0.08736703
v -0.04889228 -0.03329693 -0.07142923
v 0.04439518 0.04219235 -0.10619054
v -0.03127291 0.01265724 -0.09131286
v -0.03055158 -0.03451549 -0.08392081
v -0.03771045 -0.03369694 -0.08045635
v -0.04708340 -0.07039695 -0.06801448
v -0.03588166 -0.07121204 -0.07603273
v -0.02882233 -0.07223754 -0.07857678
v 0.02992353 -0.08164375 -0.07897875
v -0.03101983 -0.10951196 -0.07927201
v -0.03717163 -0.10798543 -0.07750831
v -0.03516629 -0.15100281 -0.08902500
v -0.04126503 -0.14809631 -0.08689508
v -0.04711070 -0.14939140 -0.08245955
v -0.04676928 -0.14324956 -0.08211145
v -0.04769268 -0.10462009 -0.07048998
v -0.05419984 -0.14244388 -0.06112180
v -0.05728855 -0.12932764 -0.06163583
v -0.05865242 -0.13474427 -0.04545174
v -0.06204739 -0.12320636 -0.04532549
v -0.05725720 -0.12210851 -0.06159029
v -0.06259146 -0.11594431 -0.04470978
v -0.05842247 -0.10037457 -0.05511889
v -0.06006708 -0.06935589 -0.05155144
v -0.06388953 -0.03233968 -0.05376289
v 0.06647978 0.09632928 0.04602923
v 0.06013510 0.12483521 0.06708684
v 0.06520090 0.10733737 0.05811038
v 0.05548105 0.14106305 0.07089832
v 0.04941628 0.16236157 0.07356634
v 0.04479322 0.18277712 0.07517841
v 0.03472517 0.20839877 0.08083191
v 0.01344655 0.22630520 0.07230976
v 0.03114448 -0.16392516 0.00826838
v 0.03783414 -0.16480016 0.00989797
v 0.04152534 -0.15550499 0.01229765
v 0.03204451 -0.16778617 0.02705636
v 0.04679499 -0.15383111 0.01423254
v 0.01982818 -0.18827866 0.04009213
v 0.05044851 -0.14116799 0.02087572
v 0.03463481 -0.16677635 0.03185108
v 0.05755196 -0.12057351 0.02472081
v 0.02244852 -0.18719368 0.04495122
v 0.03476665 -0.15665816 0.04260912
v 0.01290760 -0.21782993 0.04520025
v 0.00783763 -0.21616023 0.05724683
v 0.01883993 -0.17958574 0.05770245
v 0.00281367 -0.21564572 0.06466737
v 0.03309176 -0.14759790 0.05694785
v 0.00062809 -0.21654634 0.06852796
v 0.01489589 -0.17634855 0.06701019
v -0.00229492 -0.21687792 0.07213368
v 0.01186631 -0.17586713 0.07141068
v 0.00587819 -0.17321764 0.07752409
v 0.00606439 -0.14573537 0.07800272
v 0.01377521 -0.14535646 0.07477655
v -0.00825300 -0.11943297 0.07824972
v 0.01052902 -0.12070464 0.07788017
v -0.00372257 -0.08179228 0.08337512
v -0.02725186 -0.07921110 0.08169427
v 0.01944671 -0.08420079 0.08194711
v -0.04382291 -0.07632451 0.07444432
v -0.02491918 -0.03961997 0.09214201
v -0.06178274 -0.07077788 0.05775597
v -0.04795709 -0.03759037 0.08280578
v 0.00105259 -0.04094009 0.09346023
v -0.07415941 -0.03323613 0.05458035
v -0.06696882 -0.03582447 0.06408312
v -0.07785370 0.01276280 0.05868545
v -0.06892576 0.01083870 0.07337346
v -0.06739690 0.05685414 0.07620754
v -0.05018380 0.00931109 0.09269907
v -0.02316227 0.00594027 0.10355535
v -0.04776719 0.05579729 0.09745207
v 0.00571630 0.00308133 0.10540476
v -0.02001824 0.05238588 0.11060061
v 0.00756965 0.04615868 0.11264827
v 0.02666435 -0.04208784 0.09166946
v -0.01611712 0.10078616 0.11188402
v 0.03072474 -0.08499389 0.07654216
v -0.04434588 0.10916508 0.09691288
v 0.00991116 0.09201641 0.11580672
v -0.06362286 0.11269857 0.07552757
v -0.03134968 0.17249806 0.08607402
v -0.00634387 0.16282768 0.10578098
v -0.01321986 0.23559107 0.07120910
v 0.00830076 0.22501124 0.09236612
v -0.00990226 0.24124236 0.06822207
v 0.01419661 0.15152885 0.11204841
v -0.00676181 0.24102695 0.06385365
v 0.01937125 0.21441729 0.09985461
v 0.01485012 0.22829432 0.07929137
v 0.01180015 0.22921724 0.08974614
v 0.01394532 0.22932548 0.08364167
v 0.02248178 0.21883334 0.09733024
v 0.02341089 0.21910144 0.09068456
v 0.02402685 0.21839978 0.08688726
v 0.01183388 0.22600914 0.07571461
v 0.03256748 0.20556618 0.08950927
v 0.04274890 0.18675042 0.08187964
v 0.03445480 0.20535667 0.09443786
v 0.05135510 0.16529543 0.08204880
v 0.04184470 0.18734438 0.08947005
v 0.04350338 0.18761010 0.09459963
v 0.03454063 0.20344783 0.10095968
v 0.05475483 0.16393186 0.09436264
v 0.03181896 0.19882156 0.10338845
v 0.04422162 0.18577350 0.10132244
v 0.03115330 0.14154817 0.11208072
v 0.04062805 0.18184091 0.10352376
v 0.05489228 0.16140987 0.09823396
v 0.05042706 0.15817059 0.10020783
v 0.02997146 0.08412011 0.11415854
v 0.04728017 0.11186935 0.10495439
v 0.03058431 0.04080315 0.10859230
v 0.04861186 0.06980134 0.10332313
v 0.03192458 0.00039459 0.10164526
v 0.04860745 0.03543587 0.10012176
v 0.04120157 -0.04309176 0.08389153
v 0.04691980 -0.00085961 0.09364977
v 0.06327603 0.06035419 0.08795538
v 0.06359050 0.03105081 0.08644381
v 0.05911980 -0.00316875 0.08092787
v 0.06373141 0.09313984 0.08961561
v 0.08141599 0.05168558 0.07141151
v 0.06164274 0.13197125 0.09457829
v 0.08197234 0.07731761 0.07353678
v 0.06564436 0.13568313 0.09358039
v 0.07295320 0.10515256 0.08443561
v 0.06619475 0.13820393 0.08916154
v 0.07689664 0.11057205 0.08312442
v 0.07632635 0.11510761 0.08059170
v 0.08589635 0.09183587 0.06985667
v 0.08678696 0.09579457 0.06821456
v 0.08518419 0.10066802 0.06625595
v 0.07077048 0.11874874 0.07522609
v 0.09264026 0.09179629 0.04718759
v 0.09562538 0.08655168 0.04889061
v 0.09583364 0.08185990 0.05011585
v 0.09596131 0.06324197 0.04917541
v 0.09659097 0.04173107 0.04541841
v 0.08070490 0.02622647 0.06982293
v 0.09712801 0.01981051 0.04133000
v 0.07860098 -0.00697111 0.06434097
v 0.09290311 -0.00931971 0.02668312
v 0.09151409 -0.00954680 0.03790393
v 0.05244575 -0.04440748 0.07406106
v 0.07264731 -0.04717236 0.05736043
v 0.08304927 -0.04892771 0.03805008
v 0.08387539 -0.04983549 0.02494695
v 0.06141350 -0.08902781 0.05759420
v 0.07108710 -0.08924811 0.03798201
v 0.07197366 -0.08906906 0.02436390
v 0.05344830 -0.12308477 0.04267600
v 0.04646907 -0.12286572 0.05779567
v 0.04323313 -0.08652585 0.06941118
v 0.02965794 -0.14668165 0.06352224
v 0.03170250 -0.12169509 0.06822290
v 0.02169535 -0.14638953 0.06999459
v 0.02010117 -0.12191241 0.07432559
v 0.05176494 0.16410573 0.08718612
v 0.06167672 0.14015419 0.08187332
v 0.06076620 0.14149476 0.07943382
v 0.06827173 0.12074937 0.07334092
v 0.07288704 0.10540928 0.06123533
v 0.07798061 0.10580070 0.06132271
v 0.07719252 0.09360392 0.04744139
v 0.08408735 0.09731228 0.04514637
v 0.03575311 -0.15628223 -0.01973352
v 0.03436146 -0.15869676 -0.00427530
v 0.03427134 -0.15853601 -0.03682885
v 0.02996883 -0.16443865 -0.04981265
v 0.02446160 -0.17609750 -0.06140599
v 0.02193925 -0.18292283 -0.06692467
v 0.01896462 -0.18810170 -0.07235060
v 0.01487229 -0.18971853 -0.07553396
v 0.00925539 -0.18945830 -0.07634399
v -0.03147438 -0.18283891 -0.07639620
v -0.03952172 -0.17924844 -0.07281516
v -0.04147329 -0.17516922 -0.06906388
v -0.04268267 -0.15954809 -0.05523226
v -0.04454567 -0.14987742 -0.04011056
v -0.04518583 -0.14656256 -0.02661965
v -0.04494979 -0.14593517 -0.01356051
v -0.04377928 -0.15072845 0.00143828
v -0.04293718 -0.16077809 0.01274791
v -0.04479434 -0.18097811 0.02375999
v -0.04423847 -0.20762442 0.02647462
v -0.04307368 -0.23418580 0.02316644
v -0.04061952 -0.24049352 0.02394047
v -0.03682568 -0.24368139 0.02474155
v -0.03056850 -0.24607079 0.02534249
v -0.01551511 -0.24846529 0.02540114
v -0.00283887 -0.24715506 0.02409592
v 0.00295315 -0.24415837 0.02444127
v 0.00755308 -0.23891942 0.02562478
v 0.01341519 -0.21617644 0.03077092
v 0.01841269 -0.19346284 0.02875569
v 0.02735064 -0.17196428 0.01742997
v 0.03114448 -0.16392516 0.00826838
v -0.03063920 -0.17413907 -0.07129357
v 0.01058230 -0.17998182 -0.07073722
v 0.01444194 -0.16642957 -0.06649683
v -0.03074863 -0.15702497 -0.06614540
v 0.03051827 -0.14577280 -0.05880914
v 0.02000449 -0.14329033 -0.06427512
v -0.03954139 -0.13300072 -0.05335698
v -0.02959528 -0.13341599 -0.06445847
v -0.00312951 -0.14277898 -0.01263747
v -0.04380968 -0.12721919 -0.03250668
v -0.04497471 -0.12827133 -0.00402639
v -0.04461732 -0.13248109 0.01125553
v -0.04238679 -0.14541565 0.02443197
v -0.03014746 -0.15549885 0.04245272
v -0.03104057 -0.18450819 0.04107382
v -0.01511803 -0.18517624 0.04422047
v -0.03072205 -0.21035509 0.03669300
v -0.01597478 -0.21259986 0.03819993
v -0.01208069 -0.15631961 0.04625728
v 0.00194225 -0.21375846 0.03482487
v 0.00341497 -0.18821703 0.03963282
v 0.00785992 -0.15820794 0.04346623
v 0.03006778 -0.14848797 0.02531519
v 0.03732965 -0.13951491 0.00314405
v 0.03934512 -0.13624625 -0.02751229
v 0.03398178 -0.14228212 -0.05014787
vt 0.11048377 0.03149921
vt 0.11587083 0.02191991
vt 0.03668982 0.31792206
vt 0.11120701 0.02168137
vt 0.03218883 0.31667787
vt 0.11562490 0.03228366
vt 0.11266500 0.04375976
vt 0.10819608 0.04196322
vt 0.12128884 0.03293389
vt 0.04221421 0.32086432
vt 0.12198943 0.02176094
vt 0.04507726 0.32358444
vt 0.12570691 0.02275133
vt 0.10856372 0.05260348
vt 0.10390401 0.05000383
vt 0.11743432 0.04613537
vt 0.12563431 0.03408831
vt 0.05303675 0.32826519
vt 0.13457215 0.02230680
vt 0.11144513 0.05500263
vt 0.13561279 0.03595185
vt 0.12092453 0.04899418
vt 0.13094085 0.04999727
vt 0.14696234 0.03459507
vt 0.06413430 0.33367562
vt 0.14592093 0.02029049
vt 0.14577657 0.04709429
vt 0.16670626 0.03217548
vt 0.08188099 0.34583318
vt 0.16560572 0.01782602
vt 0.16565853 0.04307657
vt 0.19036025 0.02835792
vt 0.10433406 0.35965908
vt 0.18992168 0.01345164
vt 0.16400129 0.05751640
vt 0.21764046 0.02525961
vt 0.21689326 0.00936228
vt 0.12925965 0.37366962
vt 0.18993252 0.04216862
vt 0.23720998 0.02467591
vt 0.23795003 0.00738311
vt 0.14902347 0.38285530
vt 0.21775144 0.04225248
vt 0.24968523 0.02326542
vt 0.25024217 0.00663978
vt 0.16075462 0.38691855
vt 0.23776680 0.04326230
vt 0.18762702 0.05819458
vt 0.21723110 0.06205136
vt 0.24993616 0.04449362
vt 0.26215035 0.02220970
vt 0.26273269 0.00539535
vt 0.17317540 0.38948190
vt 0.23840827 0.06296819
vt 0.27587086 0.02137822
vt 0.18724900 0.39089131
vt 0.27631611 0.00361329
vt 0.26259607 0.04573101
vt 0.25127465 0.06365114
vt 0.27832723 0.02113575
vt 0.27945739 0.00392193
vt 0.19038427 0.39177513
vt 0.28335947 0.00420004
vt 0.19427723 0.39275384
vt 0.27884287 0.04638535
vt 0.26649791 0.06548566
vt 0.28314775 0.02127868
vt 0.28982228 0.00430763
vt 0.20061904 0.39443576
vt 0.28177065 0.04652762
vt 0.28320509 0.06799591
vt 0.28899020 0.02213353
vt 0.20398098 0.39750826
vt 0.29429251 0.00477535
vt 0.28549248 0.04657680
vt 0.29388422 0.02221721
vt 0.30035967 0.00568342
vt 0.20921045 0.40075052
vt 0.30069202 0.02270037
vt 0.30204099 0.04446435
vt 0.29100519 0.04567051
vt 0.29483288 0.04544729
vt 0.30489427 0.06239051
vt 0.29819792 0.06579012
vt 0.30966651 0.07638550
vt 0.29572707 0.06614244
vt 0.30246896 0.08186036
vt 0.31860977 0.09548843
vt 0.29000932 0.06774014
vt 0.31060332 0.09971219
vt 0.29950112 0.08539706
vt 0.32941204 0.13791048
vt 0.33585614 0.13538217
vt 0.34042662 0.15059531
vt 0.30694073 0.10326236
vt 0.33331734 0.15409005
vt 0.34224993 0.17460382
vt 0.32453018 0.14079928
vt 0.33687729 0.17737579
vt 0.34019595 0.20225740
vt 0.32930273 0.15631282
vt 0.33523506 0.20294523
vt 0.33073396 0.17918003
vt 0.33550256 0.22321498
vt 0.34047288 0.22189617
vt 0.33877260 0.24034703
vt 0.32752508 0.18055236
vt 0.33172351 0.20435256
vt 0.33405703 0.24093509
vt 0.33161962 0.22531867
vt 0.32818788 0.20507419
vt 0.33190077 0.25725317
vt 0.33536535 0.25851953
vt 0.33037144 0.24043274
vt 0.32918686 0.26724160
vt 0.33180076 0.26887035
vt 0.32758063 0.28232455
vt 0.32825375 0.25599635
vt 0.32608718 0.26583123
vt 0.32416827 0.28178442
vt 0.32145077 0.29846179
vt 0.32142806 0.28027523
vt 0.32482606 0.25495446
vt 0.32755095 0.24036539
vt 0.32230478 0.26512444
vt 0.28519827 0.23832679
vt 0.28254110 0.24728692
vt 0.31723422 0.27946901
vt 0.27974266 0.25733793
vt 0.24617797 0.23170614
vt 0.24378842 0.23902202
vt 0.27538198 0.26975000
vt 0.24632078 0.22950756
vt 0.24058062 0.25034940
vt 0.21311432 0.22434092
vt 0.21040016 0.23304439
vt 0.28619271 0.23567152
vt 0.21358603 0.22168040
vt 0.32797760 0.23187041
vt 0.24811453 0.22077823
vt 0.28867513 0.22720361
vt 0.32806665 0.22543073
vt 0.28897268 0.22041321
vt 0.29004759 0.20352161
vt 0.24729663 0.21185458
vt 0.32478696 0.18155968
vt 0.21529835 0.21381319
vt 0.32032734 0.15992999
vt 0.28927416 0.18376100
vt 0.32369727 0.15854347
vt 0.31763393 0.16074824
vt 0.31759042 0.15233094
vt 0.32072693 0.15147388
vt 0.31508070 0.15281475
vt 0.31865269 0.14356327
vt 0.31501973 0.14465833
vt 0.30211800 0.10658473
vt 0.29658204 0.09527940
vt 0.29972482 0.10708201
vt 0.29455394 0.08703899
vt 0.29333758 0.09555399
vt 0.31275517 0.14545143
vt 0.29603237 0.10727578
vt 0.29067391 0.08734047
vt 0.28647345 0.06799459
vt 0.29122156 0.09543478
vt 0.28801542 0.08699113
vt 0.27583247 0.10511547
vt 0.27190059 0.08501858
vt 0.27424639 0.09396631
vt 0.25549334 0.08303481
vt 0.25713998 0.09024996
vt 0.24075133 0.08152944
vt 0.24110502 0.08752555
vt 0.25784534 0.10266197
vt 0.21730083 0.07762015
vt 0.21707970 0.08258224
vt 0.18638724 0.07588238
vt 0.21532184 0.09535879
vt 0.16224450 0.07577497
vt 0.18598169 0.08046949
vt 0.13915795 0.07529938
vt 0.16143769 0.07967585
vt 0.18383604 0.08964211
vt 0.14241403 0.05935353
vt 0.12421703 0.06118107
vt 0.11403847 0.06021005
vt 0.11077791 0.07400531
vt 0.13817924 0.07859790
vt 0.10423607 0.06352192
vt 0.10328221 0.07028633
vt 0.10073406 0.06207550
vt 0.09741992 0.05933350
vt 0.09391207 0.06479168
vt 0.10062176 0.06822181
vt 0.09689766 0.06688428
vt 0.09106362 0.07041502
vt 0.09744257 0.07262868
vt 0.09414077 0.07175285
vt 0.08932149 0.07460439
vt 0.10056549 0.07378954
vt 0.09255832 0.07590270
vt 0.10776728 0.07440013
vt 0.09602743 0.07629746
vt 0.09911788 0.07625854
vt 0.10629970 0.07795769
vt 0.11053830 0.07829267
vt 0.10496932 0.08265996
vt 0.10945219 0.08318788
vt 0.13735193 0.08441269
vt 0.09725666 0.08111393
vt 0.10013467 0.11428940
vt 0.09434146 0.08142978
vt 0.09266239 0.11192966
vt 0.09120572 0.08029431
vt 0.08722663 0.07874483
vt 0.08635497 0.10903537
vt 0.08205032 0.10851252
vt 0.08995348 0.11080796
vt 0.08623809 0.11715168
vt 0.08230984 0.11645395
vt 0.09317964 0.11695659
vt 0.08979827 0.11752862
vt 0.08687186 0.12182492
vt 0.08275944 0.12170625
vt 0.08618063 0.13696909
vt 0.09066755 0.12240058
vt 0.09173334 0.13695657
vt 0.09404528 0.15269136
vt 0.08739161 0.15026522
vt 0.08635324 0.16074443
vt 0.09744984 0.13896096
vt 0.09447587 0.12139326
vt 0.09259593 0.16288090
vt 0.08267128 0.16959012
vt 0.10119098 0.11943674
vt 0.08963972 0.17314601
vt 0.07694495 0.17920870
vt 0.09786516 0.16418552
vt 0.09942454 0.15234935
vt 0.08354247 0.18439806
vt 0.07084298 0.18742609
vt 0.09468073 0.17511749
vt 0.07529718 0.19261169
vt 0.08757919 0.18670797
vt 0.07880467 0.19559753
vt 0.05982459 0.20239758
vt 0.05823773 0.19759077
vt 0.03837669 0.20315963
vt 0.06151849 0.20521343
vt 0.03997236 0.20810008
vt 0.04141706 0.21041691
vt 0.02101236 0.21482056
vt 0.01841146 0.21179688
vt 0.01377034 0.21647394
vt 0.02488988 0.21620488
vt 0.01677382 0.21941644
vt 0.02083701 0.21956265
vt 0.01451373 0.22335708
vt 0.01046169 0.22036600
vt 0.01782292 0.22357106
vt 0.02684921 0.21783662
vt 0.02358931 0.22122538
vt 0.01435441 0.22973418
vt 0.01116818 0.22905302
vt 0.00726670 0.22589636
vt 0.00345719 0.23826647
vt 0.00774777 0.23957097
vt 0.00217301 0.24878573
vt 0.01078600 0.24028599
vt 0.00663197 0.24919742
vt 0.00325113 0.25442791
vt 0.00980681 0.24895108
vt 0.00700289 0.25339437
vt 0.00851035 0.25784087
vt 0.00588113 0.26009560
vt 0.01027936 0.25308180
vt 0.02084982 0.27153778
vt 0.01738280 0.27423656
vt 0.01200563 0.25739229
vt 0.03169495 0.28367674
vt 0.02764350 0.28661031
vt 0.03421795 0.30121416
vt 0.02440458 0.26996791
vt 0.01317716 0.25327653
vt 0.03841382 0.29936326
vt 0.01518619 0.25732380
vt 0.01256990 0.24931175
vt 0.01956063 0.25347078
vt 0.01347858 0.24153471
vt 0.01899892 0.24970108
vt 0.02135932 0.25413621
vt 0.01719695 0.23131108
vt 0.01936847 0.24276984
vt 0.02145034 0.22456098
vt 0.02193039 0.24922371
vt 0.02803272 0.22426224
vt 0.02597076 0.22756326
vt 0.02238494 0.23283374
vt 0.03014725 0.22692108
vt 0.02839249 0.22945762
vt 0.02638322 0.23325002
vt 0.02258843 0.24480653
vt 0.02984255 0.23099589
vt 0.03176039 0.22879517
vt 0.03278214 0.22593057
vt 0.02814966 0.23383582
vt 0.03269273 0.23072219
vt 0.03109568 0.23240101
vt 0.02451104 0.24527961
vt 0.03348333 0.22825575
vt 0.02989679 0.23450816
vt 0.02445012 0.24881291
vt 0.02641994 0.24609947
vt 0.02571553 0.25195849
vt 0.02648121 0.24841404
vt 0.02777868 0.25093543
vt 0.03336161 0.23485220
vt 0.02938634 0.24760765
vt 0.02995044 0.24922520
vt 0.03142601 0.24738640
vt 0.03441018 0.23371828
vt 0.03474897 0.23530018
vt 0.03398460 0.23024213
vt 0.04352230 0.22936225
vt 0.04348809 0.23429251
vt 0.04184598 0.24376333
vt 0.04386002 0.22674632
vt 0.04349524 0.23655343
vt 0.03954870 0.25039923
vt 0.06540471 0.25098038
vt 0.06771111 0.24180996
vt 0.06793374 0.23047948
vt 0.06873560 0.23716736
vt 0.08252257 0.24472791
vt 0.06256038 0.25952542
vt 0.08404928 0.23975539
vt 0.07966059 0.25668204
vt 0.09721869 0.24885225
vt 0.08542961 0.23129487
vt 0.09946674 0.24194968
vt 0.06785709 0.22656703
vt 0.08600217 0.22628379
vt 0.06768090 0.22362435
vt 0.10486645 0.22952580
vt 0.04351801 0.22432041
vt 0.03135473 0.22121274
vt 0.04379112 0.21748459
vt 0.04202867 0.21281910
vt 0.06310487 0.20901114
vt 0.06578058 0.21324742
vt 0.08167833 0.19924140
vt 0.08597499 0.20492303
vt 0.09099889 0.19000053
vt 0.09046477 0.21407413
vt 0.09776884 0.19356668
vt 0.09796077 0.17787212
vt 0.08615643 0.22443271
vt 0.10151070 0.16527116
vt 0.10529763 0.22417355
vt 0.10523087 0.22042584
vt 0.13577181 0.22169936
vt 0.13574547 0.21689856
vt 0.10749108 0.21191740
vt 0.13569111 0.21338868
vt 0.10480601 0.19715929
vt 0.13480717 0.20509338
vt 0.10509294 0.18080938
vt 0.11346501 0.19826078
vt 0.11055797 0.18366575
vt 0.11061031 0.16587961
vt 0.11888033 0.18685865
vt 0.11488837 0.16732073
vt 0.12429100 0.17295384
vt 0.13629645 0.19609535
vt 0.14023048 0.17927659
vt 0.12562150 0.16110373
vt 0.16003424 0.20258260
vt 0.14339441 0.16815185
vt 0.16473371 0.18876767
vt 0.16692859 0.17615199
vt 0.15899104 0.21354771
vt 0.18787914 0.20873952
vt 0.15815896 0.21575248
vt 0.18716604 0.21752870
vt 0.15695769 0.22350371
vt 0.18690544 0.21968174
vt 0.18402976 0.22786689
vt 0.20762128 0.24372077
vt 0.19142097 0.19811273
vt 0.21693450 0.20511293
vt 0.19398671 0.18477893
vt 0.22069782 0.19134235
vt 0.19942313 0.16799271
vt 0.25009245 0.19843686
vt 0.22624797 0.17537069
vt 0.25360078 0.18058169
vt 0.28612346 0.16512871
vt 0.23198599 0.15887165
vt 0.28456241 0.15656626
vt 0.25809509 0.16361356
vt 0.28359586 0.14977622
vt 0.25874585 0.15495849
vt 0.25918633 0.14871156
vt 0.23444742 0.15081215
vt 0.20369118 0.15264082
vt 0.23588127 0.14492261
vt 0.20574778 0.14401472
vt 0.17356271 0.14626849
vt 0.23986071 0.10007387
vt 0.20701307 0.13883054
vt 0.17723483 0.13250148
vt 0.17616934 0.13748205
vt 0.15006477 0.14135265
vt 0.15247744 0.13216305
vt 0.15345126 0.12704492
vt 0.16016096 0.08664984
vt 0.13019448 0.12248123
vt 0.12956232 0.12698948
vt 0.10510343 0.11578602
vt 0.10530907 0.12012446
vt 0.10299534 0.12418395
vt 0.10667282 0.12524092
vt 0.12870592 0.13597345
vt 0.10187691 0.13917732
vt 0.11037952 0.14155042
vt 0.10319263 0.15136951
vt 0.11095887 0.15354359
vt 0.11493951 0.14249384
vt 0.11548680 0.15495610
vt 0.12760192 0.14912438
vt 0.14661199 0.15520072
vt 0.16988105 0.16042411
vt 0.21928221 0.38443196
vt 0.23718816 0.36862183
vt 0.22430569 0.37533867
vt 0.24914485 0.36416936
vt 0.26477653 0.35805488
vt 0.27926248 0.35122311
vt 0.29664260 0.33647394
vt 0.31326610 0.31874466
vt 0.03391582 0.30843437
vt 0.03894663 0.30887979
vt 0.04496127 0.31166410
vt 0.04379672 0.29813266
vt 0.04852563 0.31274957
vt 0.03728455 0.28233051
vt 0.05786145 0.31443888
vt 0.04720938 0.29673725
vt 0.07022208 0.32108235
vt 0.04082376 0.28070748
vt 0.05666906 0.29458260
vt 0.02575624 0.26685786
vt 0.03203744 0.26194316
vt 0.04980642 0.27623594
vt 0.03562802 0.25811732
vt 0.06676608 0.28970003
vt 0.03680652 0.25576532
vt 0.05501384 0.27159119
vt 0.03813106 0.25336337
vt 0.05684930 0.26864016
vt 0.06054920 0.26405179
vt 0.07613927 0.26793778
vt 0.07470018 0.27344883
vt 0.09372145 0.26213443
vt 0.08986682 0.27465355
vt 0.11499900 0.27220190
vt 0.11993700 0.25715363
vt 0.11010748 0.28692794
vt 0.12418944 0.24578571
vt 0.14325780 0.26802802
vt 0.13067561 0.23057258
vt 0.14738816 0.25309586
vt 0.13868397 0.28367019
vt 0.15437955 0.23012781
vt 0.15146691 0.23699200
vt 0.18125421 0.23731518
vt 0.17831534 0.24691868
vt 0.20471603 0.25458670
vt 0.17485100 0.26228201
vt 0.16974038 0.27863693
vt 0.20133001 0.27085650
vt 0.16478473 0.29500091
vt 0.19652480 0.28802943
vt 0.19020194 0.30308676
vt 0.13462859 0.29933143
vt 0.22437948 0.29561758
vt 0.10727829 0.29466677
vt 0.23204309 0.27814937
vt 0.21718413 0.31009865
vt 0.23704797 0.26236892
vt 0.27015179 0.28610754
vt 0.26089865 0.30408061
vt 0.31049520 0.29516041
vt 0.29911190 0.31229103
vt 0.31501782 0.29690760
vt 0.25265783 0.31643081
vt 0.31820553 0.29823172
vt 0.29132730 0.31962371
vt 0.30821830 0.31721509
vt 0.30225658 0.31440800
vt 0.30577809 0.31601453
vt 0.29433167 0.32123768
vt 0.29751080 0.32305229
vt 0.29902679 0.32434571
vt 0.31125194 0.31775630
vt 0.29174727 0.33340442
vt 0.28049082 0.34587562
vt 0.28875405 0.33169830
vt 0.26464313 0.35227370
vt 0.27886349 0.34145439
vt 0.27697772 0.33876502
vt 0.28500861 0.32933855
vt 0.26034647 0.34545958
vt 0.28151685 0.32732367
vt 0.27378052 0.33553833
vt 0.24588984 0.32648122
vt 0.27095109 0.33297300
vt 0.25803220 0.34347022
vt 0.25584859 0.34031403
vt 0.21077198 0.32098758
vt 0.22619778 0.33516371
vt 0.18448955 0.31574619
vt 0.19971865 0.33136606
vt 0.15998667 0.30999064
vt 0.17865354 0.32617545
vt 0.13114590 0.30902803
vt 0.15653020 0.31949866
vt 0.19096237 0.34190011
vt 0.17273468 0.33675218
vt 0.15175086 0.32888853
vt 0.21195477 0.34659827
vt 0.18160003 0.35433853
vt 0.23796958 0.34710836
vt 0.19824833 0.35849261
vt 0.24031115 0.35002953
vt 0.21867841 0.35424602
vt 0.24215621 0.35271740
vt 0.22191709 0.35727292
vt 0.22508496 0.35922504
vt 0.20679957 0.36402821
vt 0.20904464 0.36582309
vt 0.21243542 0.36756647
vt 0.22928041 0.36291099
vt 0.20236057 0.37840199
vt 0.19856972 0.37663174
vt 0.19578046 0.37508619
vt 0.18372017 0.37195265
vt 0.16935700 0.36944330
vt 0.16563338 0.34928644
vt 0.15486079 0.36644876
vt 0.14480549 0.34282541
vt 0.13334328 0.36523938
vt 0.13640362 0.35886610
vt 0.12727863 0.31749404
vt 0.12048084 0.33248127
vt 0.11393863 0.34454417
vt 0.10924703 0.35125971
vt 0.09800917 0.31607544
vt 0.09197825 0.32845926
vt 0.08733815 0.33556640
vt 0.07534963 0.31030250
vt 0.08040112 0.30077851
vt 0.10368985 0.30333602
vt 0.06953830 0.28557146
vt 0.08479661 0.28967202
vt 0.07211679 0.27921176
vt 0.08728307 0.28117693
vt 0.26276344 0.34957171
vt 0.24552506 0.35709906
vt 0.24691433 0.35837543
vt 0.23143655 0.36416805
vt 0.22084671 0.37297654
vt 0.21790010 0.37139416
vt 0.21374255 0.38241911
vt 0.20875305 0.38093471
vt 0.07809450 0.13971847
vt 0.07774066 0.12623537
vt 0.07501867 0.15548611
vt 0.06882592 0.16864580
vt 0.06223140 0.18013185
vt 0.05959733 0.18643403
vt 0.05721790 0.19134557
vt 0.05465107 0.19302380
vt 0.05133123 0.19301921
vt 0.02422789 0.19200355
vt 0.01878261 0.18980896
vt 0.01697248 0.18670809
vt 0.01200013 0.17213386
vt 0.00577844 0.15714020
vt 0.00364571 0.14484537
vt 0.00348216 0.13267934
vt 0.00543304 0.11745232
vt 0.00946200 0.10389757
vt 0.01429379 0.08590537
vt 0.02081524 0.06757069
vt 0.02447356 0.05095810
vt 0.02698529 0.04763973
vt 0.02966405 0.04627311
vt 0.03372449 0.04531395
vt 0.04338912 0.04474473
vt 0.05122824 0.04602164
vt 0.05466843 0.04790485
vt 0.05729527 0.05124617
vt 0.06027615 0.06640470
vt 0.06459206 0.08297420
vt 0.07226609 0.10145116
vt 0.07605912 0.11318135
vt 0.02379861 0.18617248
vt 0.05192611 0.18677867
vt 0.05340231 0.17790967
vt 0.02262399 0.17530417
vt 0.06012586 0.16199547
vt 0.05346866 0.16431344
vt 0.01796066 0.15712625
vt 0.02447017 0.16212153
vt 0.04109343 0.13352013
vt 0.01419411 0.14521646
vt 0.01365529 0.12880832
vt 0.01506906 0.12005997
vt 0.01873253 0.10981357
vt 0.02879809 0.10011184
vt 0.02904820 0.08386862
vt 0.03971989 0.08385724
vt 0.03095301 0.06800330
vt 0.04086984 0.06775475
vt 0.03957497 0.09963107
vt 0.05294311 0.06784010
vt 0.05237184 0.08369511
vt 0.05125211 0.10102302
vt 0.06333366 0.11306721
vt 0.06708803 0.12644327
vt 0.06676657 0.14389622
vt 0.06279586 0.15695584
f 205/205 211/211 208/208
f 203/203 207/207 188/188
f 224/224 221/221 225/225
f 226/226 224/224 225/225
f 223/223 224/224 227/227
f 224/224 226/226 228/228
f 224/224 228/228 227/227
f 226/226 229/229 228/228
f 229/229 226/226 230/230
f 221/221 224/224 220/220
f 204/204 211/211 205/205
f 212/212 209/209 208/208
f 211/211 204/204 213/213
f 213/213 204/204 202/202
f 223/223 233/233 222/222
f 229/229 231/231 234/234
f 235/235 234/234 231/231
f 213/213 217/217 219/219
f 208/208 214/214 212/212
f 197/197 196/196 194/194
f 200/200 215/215 202/202
f 215/215 200/200 216/216
f 216/216 217/217 215/215
f 215/215 217/217 213/213
f 216/216 218/218 217/217
f 214/214 213/213 219/219
f 213/213 202/202 215/215
f 203/203 191/191 201/201
f 191/191 203/203 188/188
f 198/198 199/199 204/204
f 204/204 199/199 202/202
f 198/198 205/205 201/201
f 219/219 220/220 223/223
f 219/219 223/223 222/222
f 232/232 227/227 228/228
f 247/247 242/242 248/248
f 249/249 247/247 248/248
f 250/250 246/246 244/244
f 244/244 247/247 250/250
f 247/247 249/249 251/251
f 247/247 252/252 250/250
f 252/252 247/247 251/251
f 231/231 229/229 230/230
f 224/224 223/223 220/220
f 228/228 229/229 232/232
f 227/227 233/233 223/223
f 232/232 233/233 227/227
f 253/253 255/255 257/257
f 253/253 258/258 256/256
f 253/253 257/257 258/258
f 236/236 222/222 233/233
f 213/213 214/214 211/211
f 241/241 246/246 245/245
f 246/246 241/241 244/244
f 245/245 243/243 237/237
f 212/212 214/214 222/222
f 214/214 219/219 222/222
f 220/220 218/218 221/221
f 217/217 220/220 219/219
f 218/218 220/220 217/217
f 232/232 229/229 240/240
f 229/229 239/239 240/240
f 237/237 239/239 234/234
f 239/239 229/229 234/234
f 238/238 237/237 235/235
f 237/237 234/234 235/235
f 236/236 212/212 222/222
f 190/190 20/20 14/14
f 186/186 23/23 22/22
f 187/187 186/186 22/22
f 22/22 20/20 187/187
f 171/171 59/59 173/173
f 188/188 186/186 187/187
f 183/183 182/182 189/189
f 182/182 188/188 189/189
f 20/20 190/190 187/187
f 66/66 171/171 169/169
f 187/187 191/191 188/188
f 190/190 191/191 187/187
f 173/173 176/176 177/177
f 177/177 174/174 173/173
f 49/49 178/178 176/176
f 178/178 177/177 176/176
f 178/178 49/49 48/48
f 181/181 180/180 183/183
f 165/165 160/160 89/89
f 174/174 177/177 179/179
f 48/48 180/180 178/178
f 180/180 48/48 35/35
f 70/70 71/71 165/165
f 180/180 181/181 178/178
f 181/181 179/179 177/177
f 35/35 182/182 180/180
f 195/195 191/191 190/190
f 182/182 183/183 180/180
f 179/179 181/181 184/184
f 183/183 184/184 181/181
f 66/66 169/169 71/71
f 167/167 170/170 166/166
f 167/167 169/169 170/170
f 166/166 170/170 168/168
f 189/189 207/207 210/210
f 203/203 201/201 206/206
f 205/205 206/206 201/201
f 188/188 182/182 186/186
f 207/207 203/203 206/206
f 189/189 188/188 207/207
f 206/206 205/205 208/208
f 206/206 209/209 207/207
f 209/209 206/206 208/208
f 205/205 198/198 204/204
f 207/207 209/209 210/210
f 14/14 192/192 190/190
f 15/15 192/192 14/14
f 192/192 15/15 193/193
f 194/194 192/192 193/193
f 195/195 190/190 192/192
f 214/214 208/208 211/211
f 5/5 3/3 443/443
f 185/185 186/186 182/182
f 185/185 23/23 186/186
f 23/23 185/185 27/27
f 35/35 27/27 185/185
f 182/182 35/35 185/185
f 199/199 200/200 202/202
f 191/191 198/198 201/201
f 200/200 199/199 197/197
f 198/198 196/196 199/199
f 196/196 197/197 199/199
f 198/198 191/191 195/195
f 196/196 198/198 195/195
f 177/177 178/178 181/181
f 192/192 196/196 195/195
f 192/192 194/194 196/196
f 278/278 276/276 279/279
f 293/293 261/261 264/264
f 294/294 290/290 291/291
f 294/294 293/293 290/290
f 293/293 295/295 261/261
f 275/275 272/272 276/276
f 273/273 274/274 277/277
f 274/274 275/275 277/277
f 276/276 278/278 275/275
f 270/270 293/293 264/264
f 281/281 279/279 282/282
f 282/282 283/283 281/281
f 284/284 280/280 278/278
f 285/285 288/288 277/277
f 288/288 273/273 277/277
f 287/287 289/289 285/285
f 289/289 288/288 285/285
f 275/275 280/280 277/277
f 287/287 285/285 280/280
f 284/284 287/287 280/280
f 264/264 261/261 259/259
f 260/260 265/265 259/259
f 264/264 259/259 265/265
f 265/265 260/260 266/266
f 267/267 265/265 266/266
f 273/273 290/290 270/270
f 290/290 273/273 288/288
f 278/278 280/280 275/275
f 279/279 281/281 278/278
f 255/255 253/253 254/254
f 256/256 252/252 251/251
f 287/287 292/292 289/289
f 292/292 291/291 289/289
f 293/293 270/270 290/290
f 426/426 423/423 422/422
f 377/377 431/431 430/430
f 414/414 424/424 431/431
f 432/432 431/431 377/377
f 431/431 432/432 414/414
f 377/377 379/379 432/432
f 433/433 414/414 432/432
f 433/433 432/432 379/379
f 233/233 232/232 425/425
f 431/431 429/429 430/430
f 426/426 422/422 425/425
f 232/232 427/427 425/425
f 425/425 427/427 426/426
f 427/427 232/232 240/240
f 240/240 359/359 427/427
f 427/427 359/359 428/428
f 428/428 426/426 427/427
f 286/286 281/281 283/283
f 424/424 429/429 431/431
f 377/377 430/430 373/373
f 294/294 296/296 303/303
f 303/303 302/302 294/294
f 301/301 299/299 302/302
f 299/299 294/294 302/302
f 300/300 298/298 301/301
f 299/299 301/301 298/298
f 291/291 290/290 288/288
f 288/288 289/289 291/291
f 298/298 300/300 297/297
f 293/293 294/294 299/299
f 298/298 293/293 299/299
f 295/295 298/298 297/297
f 293/293 298/298 295/295
f 446/446 18/18 448/448
f 443/443 444/444 445/445
f 444/444 10/10 446/446
f 446/446 445/445 444/444
f 10/10 12/12 446/446
f 18/18 446/446 12/12
f 447/447 286/286 445/445
f 286/286 447/447 281/281
f 284/284 281/281 447/447
f 286/286 443/443 445/445
f 25/25 448/448 18/18
f 445/445 446/446 449/449
f 448/448 449/449 446/446
f 449/449 447/447 445/445
f 442/442 5/5 443/443
f 443/443 283/283 442/442
f 451/451 284/284 447/447
f 449/449 448/448 452/452
f 242/242 247/247 244/244
f 245/245 237/237 241/241
f 244/244 241/241 242/242
f 239/239 237/237 243/243
f 242/242 241/241 238/238
f 237/237 238/238 241/241
f 262/262 258/258 263/263
f 261/261 263/263 258/258
f 252/252 256/256 262/262
f 258/258 262/262 256/256
f 259/259 261/261 257/257
f 257/257 261/261 258/258
f 259/259 255/255 260/260
f 255/255 259/259 257/257
f 283/283 443/443 286/286
f 271/271 274/274 273/273
f 268/268 267/267 269/269
f 270/270 264/264 265/265
f 270/270 265/265 268/268
f 271/271 268/268 269/269
f 272/272 271/271 269/269
f 268/268 273/273 270/270
f 273/273 268/268 271/271
f 271/271 272/272 274/274
f 265/265 267/267 268/268
f 272/272 275/275 274/274
f 249/249 253/253 251/251
f 253/253 249/249 254/254
f 448/448 25/25 450/450
f 447/447 449/449 451/451
f 281/281 284/284 278/278
f 280/280 285/285 277/277
f 164/164 161/161 160/160
f 251/251 253/253 256/256
f 444/444 3/3 10/10
f 443/443 3/3 444/444
f 455/455 456/456 454/454
f 315/315 454/454 456/456
f 455/455 449/449 452/452
f 455/455 454/454 451/451
f 449/449 455/455 451/451
f 454/454 315/315 292/292
f 451/451 454/454 453/453
f 454/454 292/292 453/453
f 292/292 287/287 453/453
f 287/287 284/284 453/453
f 284/284 451/451 453/453
f 448/448 450/450 452/452
f 67/67 70/70 75/75
f 63/63 60/60 67/67
f 67/67 68/68 63/63
f 60/60 65/65 70/70
f 36/36 39/39 43/43
f 43/43 40/40 36/36
f 44/44 41/41 40/40
f 41/41 44/44 45/45
f 40/40 43/43 47/47
f 66/66 65/65 58/58
f 74/74 72/72 76/76
f 76/76 77/77 74/74
f 49/49 47/47 43/43
f 76/76 80/80 79/79
f 81/81 72/72 67/67
f 81/81 76/76 72/72
f 67/67 75/75 81/81
f 28/28 24/24 31/31
f 44/44 50/50 51/51
f 45/45 51/51 52/52
f 54/54 50/50 47/47
f 47/47 49/49 54/54
f 27/27 24/24 21/21
f 28/28 26/26 24/24
f 26/26 28/28 30/30
f 31/31 24/24 27/27
f 80/80 76/76 82/82
f 59/59 58/58 50/50
f 60/60 57/57 55/55
f 60/60 61/61 57/57
f 27/27 35/35 31/31
f 65/65 55/55 58/58
f 65/65 60/60 55/55
f 58/58 59/59 66/66
f 99/99 100/100 97/97
f 88/88 92/92 93/93
f 92/92 94/94 93/93
f 70/70 67/67 60/60
f 65/65 66/66 71/71
f 71/71 70/70 65/65
f 68/68 67/67 72/72
f 72/72 74/74 68/68
f 96/96 99/99 97/97
f 92/92 88/88 90/90
f 92/92 101/101 96/96
f 77/77 76/76 79/79
f 101/101 92/92 98/98
f 100/100 99/99 102/102
f 99/99 101/101 103/103
f 103/103 102/102 99/99
f 104/104 100/100 102/102
f 51/51 45/45 44/44
f 91/91 86/86 89/89
f 91/91 90/90 87/87
f 86/86 91/91 87/87
f 87/87 90/90 88/88
f 60/60 63/63 61/61
f 85/85 87/87 88/88
f 87/87 84/84 86/86
f 84/84 87/87 85/85
f 50/50 54/54 59/59
f 51/51 58/58 55/55
f 58/58 51/51 50/50
f 52/52 55/55 57/57
f 55/55 52/52 51/51
f 82/82 83/83 80/80
f 76/76 81/81 82/82
f 573/573 544/544 574/574
f 571/571 437/437 438/438
f 571/571 435/435 437/437
f 572/572 571/571 570/570
f 435/435 571/571 572/572
f 570/570 544/544 572/572
f 572/572 436/436 435/435
f 544/544 573/573 572/572
f 436/436 572/572 573/573
f 510/510 571/571 438/438
f 544/544 543/543 574/574
f 545/545 574/574 543/543
f 459/459 565/565 461/461
f 564/564 566/566 563/563
f 565/565 563/563 566/566
f 566/566 564/564 488/488
f 16/16 14/14 20/20
f 538/538 569/569 514/514
f 464/464 461/461 567/567
f 488/488 568/568 566/566
f 568/568 567/567 566/566
f 567/567 568/568 464/464
f 469/469 568/568 488/488
f 464/464 568/568 466/466
f 568/568 469/469 466/466
f 514/514 569/569 511/511
f 19/19 17/17 21/21
f 510/510 511/511 569/569
f 561/561 29/29 33/33
f 561/561 25/25 29/29
f 25/25 561/561 450/450
f 450/450 561/561 560/560
f 560/560 562/562 450/450
f 559/559 562/562 560/560
f 14/14 16/16 7/7
f 32/32 31/31 39/39
f 39/39 36/36 32/32
f 39/39 31/31 35/35
f 40/40 37/37 36/36
f 37/37 40/40 41/41
f 8/8 14/14 7/7
f 14/14 8/8 15/15
f 9/9 7/7 16/16
f 34/34 36/36 37/37
f 13/13 9/9 17/17
f 47/47 44/44 40/40
f 43/43 39/39 48/48
f 35/35 48/48 39/39
f 17/17 19/19 13/13
f 48/48 49/49 43/43
f 44/44 47/47 50/50
f 100/100 104/104 105/105
f 36/36 34/34 32/32
f 9/9 16/16 17/17
f 34/34 30/30 32/32
f 31/31 32/32 28/28
f 32/32 30/30 28/28
f 1/1 7/7 6/6
f 2/2 1/1 6/6
f 1/1 2/2 4/4
f 21/21 23/23 27/27
f 19/19 24/24 26/26
f 24/24 19/19 21/21
f 23/23 17/17 22/22
f 23/23 21/21 17/17
f 20/20 22/22 16/16
f 17/17 16/16 22/22
f 158/158 159/159 157/157
f 137/137 140/140 133/133
f 138/138 133/133 140/140
f 137/137 139/139 141/141
f 157/157 156/156 155/155
f 157/157 98/98 95/95
f 158/158 157/157 95/95
f 110/110 111/111 142/142
f 156/156 157/157 159/159
f 124/124 110/110 139/139
f 158/158 91/91 160/160
f 91/91 89/89 160/160
f 159/159 158/158 161/161
f 161/161 158/158 160/160
f 159/159 162/162 156/156
f 111/111 107/107 146/146
f 147/147 140/140 145/145
f 151/151 149/149 146/146
f 125/125 129/129 128/128
f 126/126 130/130 127/127
f 127/127 131/131 129/129
f 130/130 131/131 127/127
f 146/146 149/149 144/144
f 103/103 150/150 148/148
f 150/150 103/103 101/101
f 129/129 134/134 132/132
f 140/140 147/147 138/138
f 150/150 152/152 148/148
f 152/152 151/151 148/148
f 101/101 153/153 150/150
f 152/152 150/150 153/153
f 101/101 98/98 153/153
f 151/151 152/152 154/154
f 137/137 124/124 139/139
f 171/171 173/173 174/174
f 156/156 154/154 152/152
f 98/98 157/157 155/155
f 171/171 66/66 59/59
f 169/169 172/172 170/170
f 169/169 171/171 172/172
f 91/91 158/158 95/95
f 54/54 173/173 59/59
f 171/171 174/174 172/172
f 156/156 153/153 155/155
f 170/170 172/172 175/175
f 170/170 175/175 168/168
f 54/54 176/176 173/173
f 176/176 54/54 49/49
f 154/154 156/156 162/162
f 161/161 163/163 159/159
f 162/162 159/159 163/163
f 125/125 127/127 129/129
f 153/153 156/156 152/152
f 153/153 98/98 155/155
f 167/167 71/71 169/169
f 166/166 168/168 163/163
f 71/71 167/167 165/165
f 166/166 164/164 167/167
f 164/164 165/165 167/167
f 166/166 163/163 161/161
f 164/164 166/166 161/161
f 146/146 148/148 151/151
f 165/165 75/75 70/70
f 75/75 165/165 89/89
f 160/160 165/165 164/164
f 148/148 107/107 103/103
f 148/148 146/146 107/107
f 118/118 114/114 124/124
f 118/118 109/109 114/114
f 91/91 95/95 90/90
f 95/95 92/92 90/90
f 94/94 92/92 96/96
f 97/97 94/94 96/96
f 95/95 98/98 92/92
f 115/115 122/122 120/120
f 119/119 118/118 123/123
f 109/109 118/118 112/112
f 101/101 99/99 96/96
f 124/124 114/114 110/110
f 119/119 123/123 125/125
f 122/122 119/119 125/125
f 126/126 123/123 124/124
f 123/123 127/127 125/125
f 123/123 126/126 127/127
f 125/125 128/128 122/122
f 115/115 117/117 116/116
f 113/113 115/115 116/116
f 115/115 113/113 112/112
f 109/109 110/110 114/114
f 106/106 112/112 113/113
f 75/75 89/89 86/86
f 111/111 110/110 108/108
f 107/107 111/111 108/108
f 110/110 109/109 104/104
f 86/86 81/81 75/75
f 81/81 86/86 84/84
f 85/85 83/83 84/84
f 81/81 84/84 82/82
f 83/83 82/82 84/84
f 104/104 106/106 105/105
f 118/118 124/124 123/123
f 112/112 119/119 115/115
f 119/119 112/112 118/118
f 117/117 115/115 120/120
f 120/120 121/121 117/117
f 122/122 115/115 119/119
f 141/141 140/140 137/137
f 139/139 110/110 142/142
f 141/141 139/139 142/142
f 135/135 133/133 138/138
f 142/142 143/143 141/141
f 111/111 143/143 142/142
f 143/143 140/140 141/141
f 111/111 144/144 143/143
f 140/140 143/143 145/145
f 144/144 145/145 143/143
f 146/146 144/144 111/111
f 7/7 9/9 6/6
f 124/124 137/137 126/126
f 133/133 126/126 137/137
f 131/131 135/135 136/136
f 131/131 136/136 134/134
f 133/133 135/135 130/130
f 130/130 135/135 131/131
f 112/112 106/106 109/109
f 129/129 131/131 134/134
f 126/126 133/133 130/130
f 129/129 132/132 128/128
f 108/108 110/110 104/104
f 106/106 104/104 109/109
f 102/102 107/107 108/108
f 104/104 102/102 108/108
f 107/107 102/102 103/103
f 328/328 333/333 342/342
f 366/366 368/368 356/356
f 356/356 368/368 357/357
f 368/368 359/359 357/357
f 364/364 369/369 366/366
f 367/367 369/369 364/364
f 340/340 334/334 337/337
f 334/334 340/340 333/333
f 337/337 339/339 341/341
f 341/341 340/340 337/337
f 340/340 342/342 333/333
f 364/364 365/365 367/367
f 343/343 342/342 340/340
f 344/344 328/328 342/342
f 343/343 344/344 342/342
f 345/345 340/340 341/341
f 358/358 344/344 343/343
f 357/357 359/359 243/243
f 243/243 359/359 239/239
f 359/359 240/240 239/239
f 360/360 358/358 343/343
f 262/262 297/297 347/347
f 354/354 357/357 245/245
f 356/356 357/357 354/354
f 243/243 245/245 357/357
f 358/358 355/355 344/344
f 376/376 374/374 372/372
f 375/375 376/376 372/372
f 374/374 377/377 373/373
f 367/367 378/378 375/375
f 374/374 376/376 379/379
f 379/379 377/377 374/374
f 343/343 345/345 360/360
f 348/348 347/347 346/346
f 344/344 348/348 346/346
f 349/349 262/262 347/347
f 347/347 348/348 349/349
f 262/262 349/349 252/252
f 252/252 349/349 350/350
f 348/348 350/350 349/349
f 250/250 252/252 350/350
f 350/350 348/348 351/351
f 297/297 306/306 347/347
f 311/311 308/308 324/324
f 322/322 325/325 324/324
f 325/325 311/311 324/324
f 323/323 326/326 322/322
f 325/325 322/322 326/326
f 345/345 343/343 340/340
f 328/328 344/344 346/346
f 346/346 311/311 328/328
f 311/311 346/346 306/306
f 346/346 347/347 306/306
f 308/308 322/322 324/324
f 313/313 303/303 296/296
f 314/314 312/312 310/310
f 315/315 313/313 296/296
f 296/296 292/292 315/315
f 316/316 310/310 313/313
f 310/310 316/316 314/314
f 313/313 315/315 317/317
f 317/317 316/316 313/313
f 314/314 318/318 312/312
f 348/348 344/344 351/351
f 331/331 329/329 327/327
f 330/330 331/331 327/327
f 332/332 326/326 329/329
f 332/332 329/329 331/331
f 333/333 325/325 326/326
f 325/325 333/333 328/328
f 334/334 326/326 332/332
f 326/326 334/334 333/333
f 331/331 335/335 332/332
f 335/335 334/334 332/332
f 355/355 356/356 353/353
f 350/350 352/352 250/250
f 352/352 350/350 351/351
f 246/246 250/250 352/352
f 351/351 353/353 352/352
f 354/354 246/246 352/352
f 309/309 318/318 322/322
f 322/322 308/308 309/309
f 321/321 323/323 318/318
f 323/323 322/322 318/318
f 499/499 513/513 503/503
f 507/507 504/504 509/509
f 509/509 504/504 503/503
f 380/380 383/383 390/390
f 390/390 147/147 391/391
f 145/145 391/391 147/147
f 380/380 390/390 392/392
f 392/392 381/381 380/380
f 393/393 390/390 391/391
f 503/503 513/513 509/509
f 513/513 512/512 509/509
f 439/439 440/440 508/508
f 512/512 514/514 511/511
f 513/513 499/499 515/515
f 497/497 515/515 499/499
f 512/512 513/513 516/516
f 516/516 513/513 515/515
f 514/514 512/512 516/516
f 515/515 497/497 517/517
f 495/495 499/499 503/503
f 501/501 504/504 502/502
f 398/398 151/151 154/154
f 376/376 380/380 381/381
f 378/378 367/367 382/382
f 382/382 367/367 365/365
f 383/383 380/380 378/378
f 383/383 378/378 382/382
f 365/365 384/384 382/382
f 384/384 365/365 363/363
f 397/397 396/396 395/395
f 398/398 397/397 149/149
f 151/151 398/398 149/149
f 504/504 501/501 503/503
f 397/397 399/399 396/396
f 154/154 400/400 398/398
f 505/505 506/506 500/500
f 506/506 441/441 121/121
f 506/506 440/440 441/441
f 506/506 505/505 507/507
f 440/440 506/506 507/507
f 504/504 507/507 505/505
f 508/508 440/440 507/507
f 382/382 385/385 383/383
f 361/361 355/355 358/358
f 362/362 360/360 345/345
f 363/363 361/361 360/360
f 360/360 362/362 363/363
f 364/364 355/355 361/361
f 361/361 363/363 365/365
f 365/365 364/364 361/361
f 355/355 364/364 366/366
f 356/356 355/355 366/366
f 508/508 510/510 439/439
f 358/358 360/360 361/361
f 384/384 363/363 386/386
f 386/386 363/363 362/362
f 387/387 382/382 384/384
f 382/382 387/387 385/385
f 354/354 352/352 353/353
f 246/246 354/354 245/245
f 351/351 355/355 353/353
f 355/355 351/351 344/344
f 353/353 356/356 354/354
f 368/368 373/373 371/371
f 505/505 500/500 502/502
f 505/505 502/502 504/504
f 506/506 121/121 500/500
f 388/388 384/384 386/386
f 368/368 366/366 370/370
f 369/369 370/370 366/366
f 359/359 368/368 371/371
f 369/369 372/372 370/370
f 373/373 368/368 370/370
f 318/318 309/309 312/312
f 372/372 374/374 370/370
f 374/374 373/373 370/370
f 369/369 375/375 372/372
f 375/375 369/369 367/367
f 438/438 439/439 510/510
f 507/507 511/511 508/508
f 511/511 510/510 508/508
f 509/509 512/512 507/507
f 507/507 512/512 511/511
f 53/53 548/548 549/549
f 553/553 557/557 558/558
f 38/38 558/558 33/33
f 556/556 559/559 557/557
f 559/559 556/556 555/555
f 557/557 560/560 558/558
f 557/557 559/559 560/560
f 558/558 561/561 33/33
f 558/558 560/560 561/561
f 56/56 548/548 53/53
f 548/548 535/535 533/533
f 553/553 558/558 38/38
f 548/548 533/533 549/549
f 53/53 549/549 46/46
f 533/533 550/550 549/549
f 452/452 450/450 562/562
f 452/452 562/562 457/457
f 562/562 559/559 563/563
f 562/562 563/563 457/457
f 555/555 564/564 559/559
f 563/563 559/559 564/564
f 553/553 42/42 551/551
f 520/520 534/534 536/536
f 520/520 536/536 519/519
f 534/534 532/532 537/537
f 533/533 530/530 550/550
f 531/531 550/550 530/530
f 46/46 549/549 551/551
f 549/549 550/550 551/551
f 46/46 551/551 42/42
f 550/550 531/531 552/552
f 551/551 550/550 552/552
f 527/527 564/564 555/555
f 42/42 553/553 38/38
f 551/551 552/552 554/554
f 539/539 543/543 540/540
f 543/543 539/539 542/542
f 543/543 544/544 540/540
f 538/538 540/540 544/544
f 542/542 545/545 543/543
f 546/546 542/542 541/541
f 554/554 556/556 557/557
f 313/313 310/310 303/303
f 538/538 544/544 570/570
f 571/571 510/510 569/569
f 569/569 570/570 571/571
f 567/567 461/461 565/565
f 565/565 566/566 567/567
f 310/310 307/307 303/303
f 308/308 311/311 305/305
f 306/306 305/305 311/311
f 307/307 310/310 312/312
f 309/309 307/307 312/312
f 69/69 576/576 545/545
f 263/263 261/261 295/295
f 296/296 294/294 291/291
f 291/291 292/292 296/296
f 297/297 263/263 295/295
f 297/297 262/262 263/263
f 9/9 2/2 6/6
f 73/73 576/576 69/69
f 569/569 538/538 570/570
f 7/7 1/1 8/8
f 11/11 9/9 13/13
f 564/564 527/527 488/488
f 457/457 563/563 565/565
f 565/565 459/459 457/457
f 553/553 551/551 554/554
f 555/555 552/552 531/531
f 531/531 527/527 555/555
f 552/552 556/556 554/554
f 552/552 555/555 556/556
f 557/557 553/553 554/554
f 535/535 529/529 533/533
f 2/2 9/9 11/11
f 573/573 575/575 436/436
f 574/574 575/575 573/573
f 434/434 436/436 575/575
f 575/575 78/78 434/434
f 78/78 575/575 73/73
f 574/574 545/545 576/576
f 575/575 574/574 576/576
f 576/576 73/73 575/575
f 523/523 483/483 525/525
f 320/320 330/330 321/321
f 518/518 520/520 519/519
f 517/517 490/490 521/521
f 490/490 485/485 521/521
f 522/522 520/520 517/517
f 517/517 521/521 522/522
f 521/521 485/485 523/523
f 523/523 485/485 483/483
f 524/524 522/522 521/521
f 521/521 523/523 524/524
f 327/327 321/321 330/330
f 316/316 319/319 314/314
f 318/318 314/314 319/319
f 319/319 316/316 320/320
f 316/316 317/317 320/320
f 318/318 319/319 321/321
f 319/319 320/320 321/321
f 525/525 527/527 528/528
f 524/524 526/526 529/529
f 526/526 528/528 530/530
f 305/305 306/306 300/300
f 331/331 330/330 336/336
f 337/337 334/334 335/335
f 335/335 331/331 338/338
f 336/336 338/338 331/331
f 339/339 337/337 335/335
f 338/338 339/339 335/335
f 302/302 304/304 301/301
f 305/305 300/300 301/301
f 304/304 305/305 301/301
f 306/306 297/297 300/300
f 529/529 526/526 530/530
f 304/304 302/302 307/307
f 302/302 303/303 307/307
f 304/304 308/308 305/305
f 307/307 309/309 304/304
f 308/308 304/304 309/309
f 323/323 321/321 327/327
f 328/328 311/311 325/325
f 323/323 327/327 329/329
f 326/326 323/323 329/329
f 547/547 541/541 535/535
f 537/537 542/542 539/539
f 542/542 537/537 541/541
f 483/483 486/486 525/525
f 524/524 523/523 526/526
f 523/523 525/525 526/526
f 527/527 525/525 486/486
f 486/486 488/488 527/527
f 526/526 525/525 528/528
f 545/545 542/542 546/546
f 541/541 547/547 546/546
f 541/541 532/532 535/535
f 546/546 62/62 545/545
f 547/547 62/62 546/546
f 64/64 545/545 62/62
f 62/62 547/547 56/56
f 545/545 64/64 69/69
f 56/56 547/547 548/548
f 548/548 547/547 535/535
f 520/520 522/522 534/534
f 535/535 532/532 529/529
f 518/518 519/519 516/516
f 528/528 527/527 531/531
f 530/530 528/528 531/531
f 529/529 532/532 524/524
f 522/522 524/524 532/532
f 533/533 529/529 530/530
f 532/532 534/534 522/522
f 497/497 490/490 517/517
f 515/515 518/518 516/516
f 517/517 518/518 515/515
f 381/381 379/379 376/376
f 516/516 519/519 514/514
f 518/518 517/517 520/520
f 519/519 536/536 538/538
f 519/519 538/538 514/514
f 534/534 539/539 536/536
f 539/539 534/534 537/537
f 536/536 540/540 538/538
f 540/540 536/536 539/539
f 532/532 541/541 537/537
f 317/317 458/458 320/320
f 389/389 477/477 479/479
f 478/478 476/476 473/473
f 477/477 475/475 478/478
f 478/478 475/475 476/476
f 389/389 388/388 477/477
f 388/388 386/386 477/477
f 477/477 386/386 475/475
f 472/472 473/473 476/476
f 475/475 472/472 476/476
f 386/386 362/362 475/475
f 458/458 456/456 459/459
f 459/459 456/456 455/455
f 461/461 464/464 462/462
f 458/458 317/317 456/456
f 457/457 455/455 452/452
f 315/315 456/456 317/317
f 345/345 470/470 472/472
f 471/471 470/470 468/468
f 467/467 471/471 468/468
f 470/470 345/345 341/341
f 470/470 341/341 468/468
f 467/467 466/466 469/469
f 468/468 341/341 339/339
f 468/468 339/339 467/467
f 486/486 483/483 474/474
f 134/134 491/491 132/132
f 134/134 389/389 491/491
f 472/472 475/475 362/362
f 469/469 474/474 467/467
f 471/471 467/467 474/474
f 473/473 472/472 470/470
f 470/470 471/471 473/473
f 362/362 345/345 472/472
f 488/488 486/486 469/469
f 487/487 482/482 484/484
f 474/474 469/469 486/486
f 466/466 467/467 465/465
f 484/484 481/481 485/485
f 485/485 481/481 483/483
f 482/482 480/480 484/484
f 484/484 480/480 481/481
f 483/483 471/471 474/474
f 471/471 483/483 481/481
f 466/466 463/463 464/464
f 465/465 463/463 466/466
f 339/339 338/338 465/465
f 463/463 465/465 338/338
f 462/462 464/464 463/463
f 379/379 381/381 433/433
f 412/412 416/416 415/415
f 184/184 416/416 412/412
f 413/413 415/415 414/414
f 415/415 413/413 412/412
f 414/414 409/409 413/413
f 412/412 179/179 184/184
f 409/409 408/408 413/413
f 413/413 411/411 412/412
f 411/411 413/413 408/408
f 381/381 394/394 433/433
f 394/394 409/409 433/433
f 416/416 184/184 417/417
f 414/414 433/433 409/409
f 236/236 233/233 422/422
f 422/422 421/421 236/236
f 418/418 421/421 419/419
f 420/420 236/236 421/421
f 418/418 420/420 421/421
f 212/212 236/236 420/420
f 209/209 212/212 420/420
f 420/420 210/210 209/209
f 210/210 420/420 418/418
f 419/419 416/416 418/418
f 460/460 458/458 461/461
f 467/467 339/339 465/465
f 233/233 425/425 422/422
f 415/415 424/424 414/414
f 419/419 423/423 424/424
f 424/424 415/415 419/419
f 421/421 422/422 423/423
f 419/419 421/421 423/423
f 338/338 336/336 463/463
f 463/463 336/336 462/462
f 462/462 460/460 461/461
f 460/460 462/462 336/336
f 375/375 378/378 380/380
f 461/461 458/458 459/459
f 336/336 330/330 460/460
f 330/330 320/320 460/460
f 460/460 320/320 458/458
f 455/455 457/457 459/459
f 373/373 430/430 371/371
f 429/429 428/428 430/430
f 428/428 371/371 430/430
f 424/424 423/423 429/429
f 428/428 429/429 426/426
f 423/423 426/426 429/429
f 418/418 417/417 210/210
f 492/492 491/491 489/489
f 395/395 149/149 397/397
f 393/393 396/396 394/394
f 395/395 396/396 393/393
f 149/149 395/395 144/144
f 145/145 144/144 395/395
f 393/393 145/145 395/395
f 393/393 394/394 392/392
f 394/394 381/381 392/392
f 145/145 393/393 391/391
f 390/390 393/393 392/392
f 416/416 419/419 415/415
f 410/410 172/172 174/174
f 417/417 418/418 416/416
f 417/417 189/189 210/210
f 189/189 417/417 183/183
f 184/184 183/183 417/417
f 399/399 401/401 403/403
f 403/403 400/400 402/402
f 400/400 403/403 401/401
f 168/168 402/402 163/163
f 163/163 402/402 162/162
f 162/162 402/402 400/400
f 401/401 399/399 397/397
f 138/138 383/383 385/385
f 136/136 387/387 388/388
f 383/383 138/138 147/147
f 136/136 388/388 389/389
f 134/134 136/136 389/389
f 147/147 390/390 383/383
f 168/168 404/404 402/402
f 402/402 404/404 403/403
f 404/404 168/168 175/175
f 403/403 405/405 399/399
f 135/135 387/387 136/136
f 405/405 403/403 404/404
f 491/491 492/492 132/132
f 385/385 135/135 138/138
f 135/135 385/385 387/387
f 406/406 396/396 399/399
f 380/380 376/376 375/375
f 371/371 428/428 359/359
f 387/387 384/384 388/388
f 179/179 412/412 411/411
f 408/408 407/407 411/411
f 411/411 410/410 179/179
f 410/410 411/411 407/407
f 410/410 174/174 179/179
f 480/480 482/482 479/479
f 482/482 487/487 489/489
f 503/503 501/501 495/495
f 500/500 498/498 502/502
f 502/502 496/496 501/501
f 496/496 502/502 498/498
f 496/496 495/495 501/501
f 498/498 500/500 121/121
f 495/495 493/493 499/499
f 497/497 499/499 493/493
f 121/121 120/120 498/498
f 120/120 496/496 498/498
f 397/397 398/398 401/401
f 481/481 473/473 471/471
f 480/480 473/473 481/481
f 479/479 478/478 480/480
f 473/473 480/480 478/478
f 479/479 477/477 478/478
f 494/494 492/492 495/495
f 494/494 122/122 128/128
f 128/128 132/132 494/494
f 494/494 132/132 492/492
f 492/492 489/489 493/493
f 493/493 489/489 487/487
f 406/406 405/405 408/408
f 495/495 496/496 494/494
f 122/122 494/494 496/496
f 493/493 495/495 492/492
f 172/172 410/410 175/175
f 407/407 175/175 410/410
f 496/496 120/120 122/122
f 408/408 409/409 406/406
f 409/409 394/394 406/406
f 407/407 408/408 405/405
f 493/493 487/487 497/497
f 497/497 487/487 490/490
f 162/162 400/400 154/154
f 401/401 398/398 400/400
f 175/175 407/407 404/404
f 404/404 407/407 405/405
f 396/396 406/406 394/394
f 405/405 406/406 399/399
f 491/491 389/389 479/479
f 491/491 479/479 489/489
f 490/490 484/484 485/485
f 487/487 484/484 490/490
f 489/489 479/479 482/482
f 613/613 617/617 614/614
f 616/616 617/617 615/615
f 612/612 616/616 615/615
f 614/614 617/617 616/616
f 586/586 609/609 587/587
f 609/609 588/588 587/587
f 610/610 581/581 611/611
f 612/612 589/589 609/609
f 609/609 611/611 612/612
f 581/581 613/613 611/611
f 599/599 598/598 625/625
f 625/625 600/600 599/599
f 614/614 611/611 613/613
f 615/615 589/589 612/612
f 589/589 615/615 590/590
f 614/614 616/616 612/612
f 610/610 585/585 584/584
f 610/610 586/586 585/585
f 619/619 620/620 593/593
f 619/619 593/593 592/592
f 586/586 610/610 609/609
f 589/589 588/588 609/609
f 619/619 617/617 620/620
f 620/620 594/594 593/593
f 620/620 621/621 594/594
f 620/620 617/617 621/621
f 621/621 595/595 594/594
f 621/621 622/622 595/595
f 621/621 617/617 622/622
f 622/622 623/623 595/595
f 581/581 610/610 582/582
f 611/611 609/609 610/610
f 614/614 612/612 611/611
f 613/613 581/581 580/580
f 582/582 610/610 583/583
f 610/610 584/584 583/583
f 615/615 617/617 618/618
f 618/618 590/590 615/615
f 602/602 628/628 603/603
f 628/628 602/602 626/626
f 622/622 617/617 627/627
f 627/627 624/624 622/622
f 624/624 630/630 629/629
f 629/629 630/630 606/606
f 618/618 617/617 619/619
f 592/592 618/618 619/619
f 618/618 592/592 591/591
f 618/618 591/591 590/590
f 624/624 626/626 625/625
f 600/600 625/625 626/626
f 626/626 602/602 601/601
f 626/626 601/601 600/600
f 604/604 628/628 605/605
f 603/603 628/628 604/604
f 630/630 617/617 631/631
f 631/631 608/608 607/607
f 631/631 632/632 608/608
f 631/631 617/617 632/632
f 623/623 596/596 595/595
f 622/622 624/624 623/623
f 596/596 623/623 625/625
f 623/623 624/624 625/625
f 625/625 597/597 596/596
f 625/625 598/598 597/597
f 634/634 617/617 613/613
f 633/633 634/634 579/579
f 633/633 617/617 634/634
f 577/577 633/633 579/579
f 632/632 617/617 633/633
f 633/633 577/577 632/632
f 632/632 577/577 578/578
f 632/632 578/578 608/608
f 629/629 626/626 624/624
f 629/629 606/606 628/628
f 607/607 630/630 631/631
f 606/606 630/630 607/607
f 627/627 617/617 630/630
f 630/630 624/624 627/627
f 580/580 634/634 613/613
f 634/634 580/580 579/579
f 626/626 629/629 628/628
f 606/606 605/605 628/628

